%TF.GenerationSoftware,KiCad,Pcbnew,10.0.6*%
%TF.CreationDate,2026-10-04T09:53:25+08:00*%
%TF.ProjectId,CurtainDrive_V3_2_2L,43757274-6169-46e4-9472-6976655f5633,V3.2 2L*%
%TF.SameCoordinates,Original*%
%TF.FileFunction,Legend,Top*%
%TF.FilePolarity,Positive*%
%FSLAX46Y46*%
G04 Gerber Fmt 4.6, Leading zero omitted, Abs format (unit mm)*
G04 Created by KiCad (PCBNEW 10.0.6) date 2026-10-04 09:53:25*
%MOMM*%
%LPD*%
G01*
G04 APERTURE LIST*
%ADD10C,0.150000*%
%ADD11C,0.120000*%
G04 APERTURE END LIST*
D10*
X7783429Y65817943D02*
X7831048Y65865562D01*
X7831048Y65865562D02*
X7926286Y65913181D01*
X7926286Y65913181D02*
X8164381Y65913181D01*
X8164381Y65913181D02*
X8259619Y65865562D01*
X8259619Y65865562D02*
X8307238Y65817943D01*
X8307238Y65817943D02*
X8354857Y65722705D01*
X8354857Y65722705D02*
X8354857Y65627467D01*
X8354857Y65627467D02*
X8307238Y65484610D01*
X8307238Y65484610D02*
X7735810Y64913181D01*
X7735810Y64913181D02*
X8354857Y64913181D01*
X8783429Y65008420D02*
X8831048Y64960800D01*
X8831048Y64960800D02*
X8783429Y64913181D01*
X8783429Y64913181D02*
X8735810Y64960800D01*
X8735810Y64960800D02*
X8783429Y65008420D01*
X8783429Y65008420D02*
X8783429Y64913181D01*
X8783429Y65532229D02*
X8831048Y65484610D01*
X8831048Y65484610D02*
X8783429Y65436991D01*
X8783429Y65436991D02*
X8735810Y65484610D01*
X8735810Y65484610D02*
X8783429Y65532229D01*
X8783429Y65532229D02*
X8783429Y65436991D01*
X9450095Y65913181D02*
X9545333Y65913181D01*
X9545333Y65913181D02*
X9640571Y65865562D01*
X9640571Y65865562D02*
X9688190Y65817943D01*
X9688190Y65817943D02*
X9735809Y65722705D01*
X9735809Y65722705D02*
X9783428Y65532229D01*
X9783428Y65532229D02*
X9783428Y65294134D01*
X9783428Y65294134D02*
X9735809Y65103658D01*
X9735809Y65103658D02*
X9688190Y65008420D01*
X9688190Y65008420D02*
X9640571Y64960800D01*
X9640571Y64960800D02*
X9545333Y64913181D01*
X9545333Y64913181D02*
X9450095Y64913181D01*
X9450095Y64913181D02*
X9354857Y64960800D01*
X9354857Y64960800D02*
X9307238Y65008420D01*
X9307238Y65008420D02*
X9259619Y65103658D01*
X9259619Y65103658D02*
X9212000Y65294134D01*
X9212000Y65294134D02*
X9212000Y65532229D01*
X9212000Y65532229D02*
X9259619Y65722705D01*
X9259619Y65722705D02*
X9307238Y65817943D01*
X9307238Y65817943D02*
X9354857Y65865562D01*
X9354857Y65865562D02*
X9450095Y65913181D01*
X10069143Y65913181D02*
X10402476Y64913181D01*
X10402476Y64913181D02*
X10735809Y65913181D01*
X9883428Y45079848D02*
X9883428Y44413181D01*
X9645333Y45460800D02*
X9407238Y44746515D01*
X9407238Y44746515D02*
X10026285Y44746515D01*
X10407238Y44508420D02*
X10454857Y44460800D01*
X10454857Y44460800D02*
X10407238Y44413181D01*
X10407238Y44413181D02*
X10359619Y44460800D01*
X10359619Y44460800D02*
X10407238Y44508420D01*
X10407238Y44508420D02*
X10407238Y44413181D01*
X10407238Y45032229D02*
X10454857Y44984610D01*
X10454857Y44984610D02*
X10407238Y44936991D01*
X10407238Y44936991D02*
X10359619Y44984610D01*
X10359619Y44984610D02*
X10407238Y45032229D01*
X10407238Y45032229D02*
X10407238Y44936991D01*
X10835809Y44460800D02*
X10978666Y44413181D01*
X10978666Y44413181D02*
X11216761Y44413181D01*
X11216761Y44413181D02*
X11311999Y44460800D01*
X11311999Y44460800D02*
X11359618Y44508420D01*
X11359618Y44508420D02*
X11407237Y44603658D01*
X11407237Y44603658D02*
X11407237Y44698896D01*
X11407237Y44698896D02*
X11359618Y44794134D01*
X11359618Y44794134D02*
X11311999Y44841753D01*
X11311999Y44841753D02*
X11216761Y44889372D01*
X11216761Y44889372D02*
X11026285Y44936991D01*
X11026285Y44936991D02*
X10931047Y44984610D01*
X10931047Y44984610D02*
X10883428Y45032229D01*
X10883428Y45032229D02*
X10835809Y45127467D01*
X10835809Y45127467D02*
X10835809Y45222705D01*
X10835809Y45222705D02*
X10883428Y45317943D01*
X10883428Y45317943D02*
X10931047Y45365562D01*
X10931047Y45365562D02*
X11026285Y45413181D01*
X11026285Y45413181D02*
X11264380Y45413181D01*
X11264380Y45413181D02*
X11407237Y45365562D01*
X12407237Y44508420D02*
X12359618Y44460800D01*
X12359618Y44460800D02*
X12216761Y44413181D01*
X12216761Y44413181D02*
X12121523Y44413181D01*
X12121523Y44413181D02*
X11978666Y44460800D01*
X11978666Y44460800D02*
X11883428Y44556039D01*
X11883428Y44556039D02*
X11835809Y44651277D01*
X11835809Y44651277D02*
X11788190Y44841753D01*
X11788190Y44841753D02*
X11788190Y44984610D01*
X11788190Y44984610D02*
X11835809Y45175086D01*
X11835809Y45175086D02*
X11883428Y45270324D01*
X11883428Y45270324D02*
X11978666Y45365562D01*
X11978666Y45365562D02*
X12121523Y45413181D01*
X12121523Y45413181D02*
X12216761Y45413181D01*
X12216761Y45413181D02*
X12359618Y45365562D01*
X12359618Y45365562D02*
X12407237Y45317943D01*
X13311999Y44413181D02*
X12835809Y44413181D01*
X12835809Y44413181D02*
X12835809Y45413181D01*
X11478666Y59413181D02*
X10907238Y59413181D01*
X11192952Y59413181D02*
X11192952Y60413181D01*
X11192952Y60413181D02*
X11097714Y60270324D01*
X11097714Y60270324D02*
X11002476Y60175086D01*
X11002476Y60175086D02*
X10907238Y60127467D01*
X11907238Y59508420D02*
X11954857Y59460800D01*
X11954857Y59460800D02*
X11907238Y59413181D01*
X11907238Y59413181D02*
X11859619Y59460800D01*
X11859619Y59460800D02*
X11907238Y59508420D01*
X11907238Y59508420D02*
X11907238Y59413181D01*
X11907238Y60032229D02*
X11954857Y59984610D01*
X11954857Y59984610D02*
X11907238Y59936991D01*
X11907238Y59936991D02*
X11859619Y59984610D01*
X11859619Y59984610D02*
X11907238Y60032229D01*
X11907238Y60032229D02*
X11907238Y59936991D01*
X12288190Y60413181D02*
X12907237Y60413181D01*
X12907237Y60413181D02*
X12573904Y60032229D01*
X12573904Y60032229D02*
X12716761Y60032229D01*
X12716761Y60032229D02*
X12811999Y59984610D01*
X12811999Y59984610D02*
X12859618Y59936991D01*
X12859618Y59936991D02*
X12907237Y59841753D01*
X12907237Y59841753D02*
X12907237Y59603658D01*
X12907237Y59603658D02*
X12859618Y59508420D01*
X12859618Y59508420D02*
X12811999Y59460800D01*
X12811999Y59460800D02*
X12716761Y59413181D01*
X12716761Y59413181D02*
X12431047Y59413181D01*
X12431047Y59413181D02*
X12335809Y59460800D01*
X12335809Y59460800D02*
X12288190Y59508420D01*
X13192952Y60413181D02*
X13526285Y59413181D01*
X13526285Y59413181D02*
X13859618Y60413181D01*
X14097714Y60413181D02*
X14716761Y60413181D01*
X14716761Y60413181D02*
X14383428Y60032229D01*
X14383428Y60032229D02*
X14526285Y60032229D01*
X14526285Y60032229D02*
X14621523Y59984610D01*
X14621523Y59984610D02*
X14669142Y59936991D01*
X14669142Y59936991D02*
X14716761Y59841753D01*
X14716761Y59841753D02*
X14716761Y59603658D01*
X14716761Y59603658D02*
X14669142Y59508420D01*
X14669142Y59508420D02*
X14621523Y59460800D01*
X14621523Y59460800D02*
X14526285Y59413181D01*
X14526285Y59413181D02*
X14240571Y59413181D01*
X14240571Y59413181D02*
X14145333Y59460800D01*
X14145333Y59460800D02*
X14097714Y59508420D01*
X11383429Y55317943D02*
X11431048Y55365562D01*
X11431048Y55365562D02*
X11526286Y55413181D01*
X11526286Y55413181D02*
X11764381Y55413181D01*
X11764381Y55413181D02*
X11859619Y55365562D01*
X11859619Y55365562D02*
X11907238Y55317943D01*
X11907238Y55317943D02*
X11954857Y55222705D01*
X11954857Y55222705D02*
X11954857Y55127467D01*
X11954857Y55127467D02*
X11907238Y54984610D01*
X11907238Y54984610D02*
X11335810Y54413181D01*
X11335810Y54413181D02*
X11954857Y54413181D01*
X12383429Y54508420D02*
X12431048Y54460800D01*
X12431048Y54460800D02*
X12383429Y54413181D01*
X12383429Y54413181D02*
X12335810Y54460800D01*
X12335810Y54460800D02*
X12383429Y54508420D01*
X12383429Y54508420D02*
X12383429Y54413181D01*
X12383429Y55032229D02*
X12431048Y54984610D01*
X12431048Y54984610D02*
X12383429Y54936991D01*
X12383429Y54936991D02*
X12335810Y54984610D01*
X12335810Y54984610D02*
X12383429Y55032229D01*
X12383429Y55032229D02*
X12383429Y54936991D01*
X13050095Y55413181D02*
X13145333Y55413181D01*
X13145333Y55413181D02*
X13240571Y55365562D01*
X13240571Y55365562D02*
X13288190Y55317943D01*
X13288190Y55317943D02*
X13335809Y55222705D01*
X13335809Y55222705D02*
X13383428Y55032229D01*
X13383428Y55032229D02*
X13383428Y54794134D01*
X13383428Y54794134D02*
X13335809Y54603658D01*
X13335809Y54603658D02*
X13288190Y54508420D01*
X13288190Y54508420D02*
X13240571Y54460800D01*
X13240571Y54460800D02*
X13145333Y54413181D01*
X13145333Y54413181D02*
X13050095Y54413181D01*
X13050095Y54413181D02*
X12954857Y54460800D01*
X12954857Y54460800D02*
X12907238Y54508420D01*
X12907238Y54508420D02*
X12859619Y54603658D01*
X12859619Y54603658D02*
X12812000Y54794134D01*
X12812000Y54794134D02*
X12812000Y55032229D01*
X12812000Y55032229D02*
X12859619Y55222705D01*
X12859619Y55222705D02*
X12907238Y55317943D01*
X12907238Y55317943D02*
X12954857Y55365562D01*
X12954857Y55365562D02*
X13050095Y55413181D01*
X13669143Y55413181D02*
X14002476Y54413181D01*
X14002476Y54413181D02*
X14335809Y55413181D01*
X14854857Y45913181D02*
X14283429Y45913181D01*
X14569143Y45913181D02*
X14569143Y46913181D01*
X14569143Y46913181D02*
X14473905Y46770324D01*
X14473905Y46770324D02*
X14378667Y46675086D01*
X14378667Y46675086D02*
X14283429Y46627467D01*
X15283429Y46008420D02*
X15331048Y45960800D01*
X15331048Y45960800D02*
X15283429Y45913181D01*
X15283429Y45913181D02*
X15235810Y45960800D01*
X15235810Y45960800D02*
X15283429Y46008420D01*
X15283429Y46008420D02*
X15283429Y45913181D01*
X15283429Y46532229D02*
X15331048Y46484610D01*
X15331048Y46484610D02*
X15283429Y46436991D01*
X15283429Y46436991D02*
X15235810Y46484610D01*
X15235810Y46484610D02*
X15283429Y46532229D01*
X15283429Y46532229D02*
X15283429Y46436991D01*
X15950095Y46913181D02*
X16045333Y46913181D01*
X16045333Y46913181D02*
X16140571Y46865562D01*
X16140571Y46865562D02*
X16188190Y46817943D01*
X16188190Y46817943D02*
X16235809Y46722705D01*
X16235809Y46722705D02*
X16283428Y46532229D01*
X16283428Y46532229D02*
X16283428Y46294134D01*
X16283428Y46294134D02*
X16235809Y46103658D01*
X16235809Y46103658D02*
X16188190Y46008420D01*
X16188190Y46008420D02*
X16140571Y45960800D01*
X16140571Y45960800D02*
X16045333Y45913181D01*
X16045333Y45913181D02*
X15950095Y45913181D01*
X15950095Y45913181D02*
X15854857Y45960800D01*
X15854857Y45960800D02*
X15807238Y46008420D01*
X15807238Y46008420D02*
X15759619Y46103658D01*
X15759619Y46103658D02*
X15712000Y46294134D01*
X15712000Y46294134D02*
X15712000Y46532229D01*
X15712000Y46532229D02*
X15759619Y46722705D01*
X15759619Y46722705D02*
X15807238Y46817943D01*
X15807238Y46817943D02*
X15854857Y46865562D01*
X15854857Y46865562D02*
X15950095Y46913181D01*
X16569143Y46913181D02*
X16902476Y45913181D01*
X16902476Y45913181D02*
X17235809Y46913181D01*
X13831047Y11713181D02*
X13259619Y11713181D01*
X13545333Y11713181D02*
X13545333Y12713181D01*
X13545333Y12713181D02*
X13450095Y12570324D01*
X13450095Y12570324D02*
X13354857Y12475086D01*
X13354857Y12475086D02*
X13259619Y12427467D01*
X14259619Y11808420D02*
X14307238Y11760800D01*
X14307238Y11760800D02*
X14259619Y11713181D01*
X14259619Y11713181D02*
X14212000Y11760800D01*
X14212000Y11760800D02*
X14259619Y11808420D01*
X14259619Y11808420D02*
X14259619Y11713181D01*
X14259619Y12332229D02*
X14307238Y12284610D01*
X14307238Y12284610D02*
X14259619Y12236991D01*
X14259619Y12236991D02*
X14212000Y12284610D01*
X14212000Y12284610D02*
X14259619Y12332229D01*
X14259619Y12332229D02*
X14259619Y12236991D01*
X14735809Y12236991D02*
X15069142Y12236991D01*
X15211999Y11713181D02*
X14735809Y11713181D01*
X14735809Y11713181D02*
X14735809Y12713181D01*
X14735809Y12713181D02*
X15211999Y12713181D01*
X15592952Y11760800D02*
X15735809Y11713181D01*
X15735809Y11713181D02*
X15973904Y11713181D01*
X15973904Y11713181D02*
X16069142Y11760800D01*
X16069142Y11760800D02*
X16116761Y11808420D01*
X16116761Y11808420D02*
X16164380Y11903658D01*
X16164380Y11903658D02*
X16164380Y11998896D01*
X16164380Y11998896D02*
X16116761Y12094134D01*
X16116761Y12094134D02*
X16069142Y12141753D01*
X16069142Y12141753D02*
X15973904Y12189372D01*
X15973904Y12189372D02*
X15783428Y12236991D01*
X15783428Y12236991D02*
X15688190Y12284610D01*
X15688190Y12284610D02*
X15640571Y12332229D01*
X15640571Y12332229D02*
X15592952Y12427467D01*
X15592952Y12427467D02*
X15592952Y12522705D01*
X15592952Y12522705D02*
X15640571Y12617943D01*
X15640571Y12617943D02*
X15688190Y12665562D01*
X15688190Y12665562D02*
X15783428Y12713181D01*
X15783428Y12713181D02*
X16021523Y12713181D01*
X16021523Y12713181D02*
X16164380Y12665562D01*
X16450095Y12713181D02*
X17021523Y12713181D01*
X16735809Y11713181D02*
X16735809Y12713181D01*
X17354857Y12094134D02*
X18116762Y12094134D01*
X17735809Y11713181D02*
X17735809Y12475086D01*
X15990096Y41817943D02*
X16037715Y41865562D01*
X16037715Y41865562D02*
X16132953Y41913181D01*
X16132953Y41913181D02*
X16371048Y41913181D01*
X16371048Y41913181D02*
X16466286Y41865562D01*
X16466286Y41865562D02*
X16513905Y41817943D01*
X16513905Y41817943D02*
X16561524Y41722705D01*
X16561524Y41722705D02*
X16561524Y41627467D01*
X16561524Y41627467D02*
X16513905Y41484610D01*
X16513905Y41484610D02*
X15942477Y40913181D01*
X15942477Y40913181D02*
X16561524Y40913181D01*
X16990096Y41008420D02*
X17037715Y40960800D01*
X17037715Y40960800D02*
X16990096Y40913181D01*
X16990096Y40913181D02*
X16942477Y40960800D01*
X16942477Y40960800D02*
X16990096Y41008420D01*
X16990096Y41008420D02*
X16990096Y40913181D01*
X16990096Y41532229D02*
X17037715Y41484610D01*
X17037715Y41484610D02*
X16990096Y41436991D01*
X16990096Y41436991D02*
X16942477Y41484610D01*
X16942477Y41484610D02*
X16990096Y41532229D01*
X16990096Y41532229D02*
X16990096Y41436991D01*
X17466286Y40913181D02*
X17466286Y41913181D01*
X17466286Y41913181D02*
X17704381Y41913181D01*
X17704381Y41913181D02*
X17847238Y41865562D01*
X17847238Y41865562D02*
X17942476Y41770324D01*
X17942476Y41770324D02*
X17990095Y41675086D01*
X17990095Y41675086D02*
X18037714Y41484610D01*
X18037714Y41484610D02*
X18037714Y41341753D01*
X18037714Y41341753D02*
X17990095Y41151277D01*
X17990095Y41151277D02*
X17942476Y41056039D01*
X17942476Y41056039D02*
X17847238Y40960800D01*
X17847238Y40960800D02*
X17704381Y40913181D01*
X17704381Y40913181D02*
X17466286Y40913181D01*
X18466286Y40913181D02*
X18466286Y41913181D01*
X19513904Y40913181D02*
X19180571Y41389372D01*
X18942476Y40913181D02*
X18942476Y41913181D01*
X18942476Y41913181D02*
X19323428Y41913181D01*
X19323428Y41913181D02*
X19418666Y41865562D01*
X19418666Y41865562D02*
X19466285Y41817943D01*
X19466285Y41817943D02*
X19513904Y41722705D01*
X19513904Y41722705D02*
X19513904Y41579848D01*
X19513904Y41579848D02*
X19466285Y41484610D01*
X19466285Y41484610D02*
X19418666Y41436991D01*
X19418666Y41436991D02*
X19323428Y41389372D01*
X19323428Y41389372D02*
X18942476Y41389372D01*
X17481083Y60120288D02*
X16909655Y60120288D01*
X17195369Y60120288D02*
X17195369Y61120288D01*
X17195369Y61120288D02*
X17100131Y60977431D01*
X17100131Y60977431D02*
X17004893Y60882193D01*
X17004893Y60882193D02*
X16909655Y60834574D01*
X17909655Y60215527D02*
X17957274Y60167907D01*
X17957274Y60167907D02*
X17909655Y60120288D01*
X17909655Y60120288D02*
X17862036Y60167907D01*
X17862036Y60167907D02*
X17909655Y60215527D01*
X17909655Y60215527D02*
X17909655Y60120288D01*
X17909655Y60739336D02*
X17957274Y60691717D01*
X17957274Y60691717D02*
X17909655Y60644098D01*
X17909655Y60644098D02*
X17862036Y60691717D01*
X17862036Y60691717D02*
X17909655Y60739336D01*
X17909655Y60739336D02*
X17909655Y60644098D01*
X18338226Y61025050D02*
X18385845Y61072669D01*
X18385845Y61072669D02*
X18481083Y61120288D01*
X18481083Y61120288D02*
X18719178Y61120288D01*
X18719178Y61120288D02*
X18814416Y61072669D01*
X18814416Y61072669D02*
X18862035Y61025050D01*
X18862035Y61025050D02*
X18909654Y60929812D01*
X18909654Y60929812D02*
X18909654Y60834574D01*
X18909654Y60834574D02*
X18862035Y60691717D01*
X18862035Y60691717D02*
X18290607Y60120288D01*
X18290607Y60120288D02*
X18909654Y60120288D01*
X19766797Y60786955D02*
X19766797Y60120288D01*
X19528702Y61167907D02*
X19290607Y60453622D01*
X19290607Y60453622D02*
X19909654Y60453622D01*
X20290607Y60501241D02*
X21052512Y60501241D01*
X20671559Y60120288D02*
X20671559Y60882193D01*
X19283429Y12617943D02*
X19331048Y12665562D01*
X19331048Y12665562D02*
X19426286Y12713181D01*
X19426286Y12713181D02*
X19664381Y12713181D01*
X19664381Y12713181D02*
X19759619Y12665562D01*
X19759619Y12665562D02*
X19807238Y12617943D01*
X19807238Y12617943D02*
X19854857Y12522705D01*
X19854857Y12522705D02*
X19854857Y12427467D01*
X19854857Y12427467D02*
X19807238Y12284610D01*
X19807238Y12284610D02*
X19235810Y11713181D01*
X19235810Y11713181D02*
X19854857Y11713181D01*
X20283429Y11808420D02*
X20331048Y11760800D01*
X20331048Y11760800D02*
X20283429Y11713181D01*
X20283429Y11713181D02*
X20235810Y11760800D01*
X20235810Y11760800D02*
X20283429Y11808420D01*
X20283429Y11808420D02*
X20283429Y11713181D01*
X20283429Y12332229D02*
X20331048Y12284610D01*
X20331048Y12284610D02*
X20283429Y12236991D01*
X20283429Y12236991D02*
X20235810Y12284610D01*
X20235810Y12284610D02*
X20283429Y12332229D01*
X20283429Y12332229D02*
X20283429Y12236991D01*
X20950095Y12713181D02*
X21045333Y12713181D01*
X21045333Y12713181D02*
X21140571Y12665562D01*
X21140571Y12665562D02*
X21188190Y12617943D01*
X21188190Y12617943D02*
X21235809Y12522705D01*
X21235809Y12522705D02*
X21283428Y12332229D01*
X21283428Y12332229D02*
X21283428Y12094134D01*
X21283428Y12094134D02*
X21235809Y11903658D01*
X21235809Y11903658D02*
X21188190Y11808420D01*
X21188190Y11808420D02*
X21140571Y11760800D01*
X21140571Y11760800D02*
X21045333Y11713181D01*
X21045333Y11713181D02*
X20950095Y11713181D01*
X20950095Y11713181D02*
X20854857Y11760800D01*
X20854857Y11760800D02*
X20807238Y11808420D01*
X20807238Y11808420D02*
X20759619Y11903658D01*
X20759619Y11903658D02*
X20712000Y12094134D01*
X20712000Y12094134D02*
X20712000Y12332229D01*
X20712000Y12332229D02*
X20759619Y12522705D01*
X20759619Y12522705D02*
X20807238Y12617943D01*
X20807238Y12617943D02*
X20854857Y12665562D01*
X20854857Y12665562D02*
X20950095Y12713181D01*
X21569143Y12713181D02*
X21902476Y11713181D01*
X21902476Y11713181D02*
X22235809Y12713181D01*
X20339619Y41913181D02*
X20958666Y41913181D01*
X20958666Y41913181D02*
X20625333Y41532229D01*
X20625333Y41532229D02*
X20768190Y41532229D01*
X20768190Y41532229D02*
X20863428Y41484610D01*
X20863428Y41484610D02*
X20911047Y41436991D01*
X20911047Y41436991D02*
X20958666Y41341753D01*
X20958666Y41341753D02*
X20958666Y41103658D01*
X20958666Y41103658D02*
X20911047Y41008420D01*
X20911047Y41008420D02*
X20863428Y40960800D01*
X20863428Y40960800D02*
X20768190Y40913181D01*
X20768190Y40913181D02*
X20482476Y40913181D01*
X20482476Y40913181D02*
X20387238Y40960800D01*
X20387238Y40960800D02*
X20339619Y41008420D01*
X21387238Y41008420D02*
X21434857Y40960800D01*
X21434857Y40960800D02*
X21387238Y40913181D01*
X21387238Y40913181D02*
X21339619Y40960800D01*
X21339619Y40960800D02*
X21387238Y41008420D01*
X21387238Y41008420D02*
X21387238Y40913181D01*
X21387238Y41532229D02*
X21434857Y41484610D01*
X21434857Y41484610D02*
X21387238Y41436991D01*
X21387238Y41436991D02*
X21339619Y41484610D01*
X21339619Y41484610D02*
X21387238Y41532229D01*
X21387238Y41532229D02*
X21387238Y41436991D01*
X21768190Y41913181D02*
X22387237Y41913181D01*
X22387237Y41913181D02*
X22053904Y41532229D01*
X22053904Y41532229D02*
X22196761Y41532229D01*
X22196761Y41532229D02*
X22291999Y41484610D01*
X22291999Y41484610D02*
X22339618Y41436991D01*
X22339618Y41436991D02*
X22387237Y41341753D01*
X22387237Y41341753D02*
X22387237Y41103658D01*
X22387237Y41103658D02*
X22339618Y41008420D01*
X22339618Y41008420D02*
X22291999Y40960800D01*
X22291999Y40960800D02*
X22196761Y40913181D01*
X22196761Y40913181D02*
X21911047Y40913181D01*
X21911047Y40913181D02*
X21815809Y40960800D01*
X21815809Y40960800D02*
X21768190Y41008420D01*
X22672952Y41913181D02*
X23006285Y40913181D01*
X23006285Y40913181D02*
X23339618Y41913181D01*
X23577714Y41913181D02*
X24196761Y41913181D01*
X24196761Y41913181D02*
X23863428Y41532229D01*
X23863428Y41532229D02*
X24006285Y41532229D01*
X24006285Y41532229D02*
X24101523Y41484610D01*
X24101523Y41484610D02*
X24149142Y41436991D01*
X24149142Y41436991D02*
X24196761Y41341753D01*
X24196761Y41341753D02*
X24196761Y41103658D01*
X24196761Y41103658D02*
X24149142Y41008420D01*
X24149142Y41008420D02*
X24101523Y40960800D01*
X24101523Y40960800D02*
X24006285Y40913181D01*
X24006285Y40913181D02*
X23720571Y40913181D01*
X23720571Y40913181D02*
X23625333Y40960800D01*
X23625333Y40960800D02*
X23577714Y41008420D01*
X25823429Y48817943D02*
X25871048Y48865562D01*
X25871048Y48865562D02*
X25966286Y48913181D01*
X25966286Y48913181D02*
X26204381Y48913181D01*
X26204381Y48913181D02*
X26299619Y48865562D01*
X26299619Y48865562D02*
X26347238Y48817943D01*
X26347238Y48817943D02*
X26394857Y48722705D01*
X26394857Y48722705D02*
X26394857Y48627467D01*
X26394857Y48627467D02*
X26347238Y48484610D01*
X26347238Y48484610D02*
X25775810Y47913181D01*
X25775810Y47913181D02*
X26394857Y47913181D01*
X26823429Y48008420D02*
X26871048Y47960800D01*
X26871048Y47960800D02*
X26823429Y47913181D01*
X26823429Y47913181D02*
X26775810Y47960800D01*
X26775810Y47960800D02*
X26823429Y48008420D01*
X26823429Y48008420D02*
X26823429Y47913181D01*
X26823429Y48532229D02*
X26871048Y48484610D01*
X26871048Y48484610D02*
X26823429Y48436991D01*
X26823429Y48436991D02*
X26775810Y48484610D01*
X26775810Y48484610D02*
X26823429Y48532229D01*
X26823429Y48532229D02*
X26823429Y48436991D01*
X27252000Y48198896D02*
X27728190Y48198896D01*
X27156762Y47913181D02*
X27490095Y48913181D01*
X27490095Y48913181D02*
X27823428Y47913181D01*
X28632952Y47913181D02*
X28156762Y47913181D01*
X28156762Y47913181D02*
X28156762Y48913181D01*
X28966286Y47913181D02*
X28966286Y48913181D01*
X28966286Y48913181D02*
X29299619Y48198896D01*
X29299619Y48198896D02*
X29632952Y48913181D01*
X29632952Y48913181D02*
X29632952Y47913181D01*
X29259619Y60317943D02*
X29307238Y60365562D01*
X29307238Y60365562D02*
X29402476Y60413181D01*
X29402476Y60413181D02*
X29640571Y60413181D01*
X29640571Y60413181D02*
X29735809Y60365562D01*
X29735809Y60365562D02*
X29783428Y60317943D01*
X29783428Y60317943D02*
X29831047Y60222705D01*
X29831047Y60222705D02*
X29831047Y60127467D01*
X29831047Y60127467D02*
X29783428Y59984610D01*
X29783428Y59984610D02*
X29212000Y59413181D01*
X29212000Y59413181D02*
X29831047Y59413181D01*
X30259619Y59508420D02*
X30307238Y59460800D01*
X30307238Y59460800D02*
X30259619Y59413181D01*
X30259619Y59413181D02*
X30212000Y59460800D01*
X30212000Y59460800D02*
X30259619Y59508420D01*
X30259619Y59508420D02*
X30259619Y59413181D01*
X30259619Y60032229D02*
X30307238Y59984610D01*
X30307238Y59984610D02*
X30259619Y59936991D01*
X30259619Y59936991D02*
X30212000Y59984610D01*
X30212000Y59984610D02*
X30259619Y60032229D01*
X30259619Y60032229D02*
X30259619Y59936991D01*
X31211999Y59413181D02*
X30735809Y59413181D01*
X30735809Y59413181D02*
X30735809Y60413181D01*
X31735809Y60413181D02*
X31926285Y60413181D01*
X31926285Y60413181D02*
X32021523Y60365562D01*
X32021523Y60365562D02*
X32116761Y60270324D01*
X32116761Y60270324D02*
X32164380Y60079848D01*
X32164380Y60079848D02*
X32164380Y59746515D01*
X32164380Y59746515D02*
X32116761Y59556039D01*
X32116761Y59556039D02*
X32021523Y59460800D01*
X32021523Y59460800D02*
X31926285Y59413181D01*
X31926285Y59413181D02*
X31735809Y59413181D01*
X31735809Y59413181D02*
X31640571Y59460800D01*
X31640571Y59460800D02*
X31545333Y59556039D01*
X31545333Y59556039D02*
X31497714Y59746515D01*
X31497714Y59746515D02*
X31497714Y60079848D01*
X31497714Y60079848D02*
X31545333Y60270324D01*
X31545333Y60270324D02*
X31640571Y60365562D01*
X31640571Y60365562D02*
X31735809Y60413181D01*
X34378666Y59413181D02*
X33807238Y59413181D01*
X34092952Y59413181D02*
X34092952Y60413181D01*
X34092952Y60413181D02*
X33997714Y60270324D01*
X33997714Y60270324D02*
X33902476Y60175086D01*
X33902476Y60175086D02*
X33807238Y60127467D01*
X34807238Y59508420D02*
X34854857Y59460800D01*
X34854857Y59460800D02*
X34807238Y59413181D01*
X34807238Y59413181D02*
X34759619Y59460800D01*
X34759619Y59460800D02*
X34807238Y59508420D01*
X34807238Y59508420D02*
X34807238Y59413181D01*
X34807238Y60032229D02*
X34854857Y59984610D01*
X34854857Y59984610D02*
X34807238Y59936991D01*
X34807238Y59936991D02*
X34759619Y59984610D01*
X34759619Y59984610D02*
X34807238Y60032229D01*
X34807238Y60032229D02*
X34807238Y59936991D01*
X35711999Y60413181D02*
X35521523Y60413181D01*
X35521523Y60413181D02*
X35426285Y60365562D01*
X35426285Y60365562D02*
X35378666Y60317943D01*
X35378666Y60317943D02*
X35283428Y60175086D01*
X35283428Y60175086D02*
X35235809Y59984610D01*
X35235809Y59984610D02*
X35235809Y59603658D01*
X35235809Y59603658D02*
X35283428Y59508420D01*
X35283428Y59508420D02*
X35331047Y59460800D01*
X35331047Y59460800D02*
X35426285Y59413181D01*
X35426285Y59413181D02*
X35616761Y59413181D01*
X35616761Y59413181D02*
X35711999Y59460800D01*
X35711999Y59460800D02*
X35759618Y59508420D01*
X35759618Y59508420D02*
X35807237Y59603658D01*
X35807237Y59603658D02*
X35807237Y59841753D01*
X35807237Y59841753D02*
X35759618Y59936991D01*
X35759618Y59936991D02*
X35711999Y59984610D01*
X35711999Y59984610D02*
X35616761Y60032229D01*
X35616761Y60032229D02*
X35426285Y60032229D01*
X35426285Y60032229D02*
X35331047Y59984610D01*
X35331047Y59984610D02*
X35283428Y59936991D01*
X35283428Y59936991D02*
X35235809Y59841753D01*
X36092952Y60413181D02*
X36426285Y59413181D01*
X36426285Y59413181D02*
X36759618Y60413181D01*
X37569142Y60413181D02*
X37092952Y60413181D01*
X37092952Y60413181D02*
X37045333Y59936991D01*
X37045333Y59936991D02*
X37092952Y59984610D01*
X37092952Y59984610D02*
X37188190Y60032229D01*
X37188190Y60032229D02*
X37426285Y60032229D01*
X37426285Y60032229D02*
X37521523Y59984610D01*
X37521523Y59984610D02*
X37569142Y59936991D01*
X37569142Y59936991D02*
X37616761Y59841753D01*
X37616761Y59841753D02*
X37616761Y59603658D01*
X37616761Y59603658D02*
X37569142Y59508420D01*
X37569142Y59508420D02*
X37521523Y59460800D01*
X37521523Y59460800D02*
X37426285Y59413181D01*
X37426285Y59413181D02*
X37188190Y59413181D01*
X37188190Y59413181D02*
X37092952Y59460800D01*
X37092952Y59460800D02*
X37045333Y59508420D01*
X34188190Y11713181D02*
X33616762Y11713181D01*
X33902476Y11713181D02*
X33902476Y12713181D01*
X33902476Y12713181D02*
X33807238Y12570324D01*
X33807238Y12570324D02*
X33712000Y12475086D01*
X33712000Y12475086D02*
X33616762Y12427467D01*
X34616762Y11808420D02*
X34664381Y11760800D01*
X34664381Y11760800D02*
X34616762Y11713181D01*
X34616762Y11713181D02*
X34569143Y11760800D01*
X34569143Y11760800D02*
X34616762Y11808420D01*
X34616762Y11808420D02*
X34616762Y11713181D01*
X34616762Y12332229D02*
X34664381Y12284610D01*
X34664381Y12284610D02*
X34616762Y12236991D01*
X34616762Y12236991D02*
X34569143Y12284610D01*
X34569143Y12284610D02*
X34616762Y12332229D01*
X34616762Y12332229D02*
X34616762Y12236991D01*
X35045333Y12617943D02*
X35092952Y12665562D01*
X35092952Y12665562D02*
X35188190Y12713181D01*
X35188190Y12713181D02*
X35426285Y12713181D01*
X35426285Y12713181D02*
X35521523Y12665562D01*
X35521523Y12665562D02*
X35569142Y12617943D01*
X35569142Y12617943D02*
X35616761Y12522705D01*
X35616761Y12522705D02*
X35616761Y12427467D01*
X35616761Y12427467D02*
X35569142Y12284610D01*
X35569142Y12284610D02*
X34997714Y11713181D01*
X34997714Y11713181D02*
X35616761Y11713181D01*
X36473904Y12379848D02*
X36473904Y11713181D01*
X36235809Y12760800D02*
X35997714Y12046515D01*
X35997714Y12046515D02*
X36616761Y12046515D01*
X36997714Y12094134D02*
X37759619Y12094134D01*
X37378666Y11713181D02*
X37378666Y12475086D01*
X43688191Y6317943D02*
X43735810Y6365562D01*
X43735810Y6365562D02*
X43831048Y6413181D01*
X43831048Y6413181D02*
X44069143Y6413181D01*
X44069143Y6413181D02*
X44164381Y6365562D01*
X44164381Y6365562D02*
X44212000Y6317943D01*
X44212000Y6317943D02*
X44259619Y6222705D01*
X44259619Y6222705D02*
X44259619Y6127467D01*
X44259619Y6127467D02*
X44212000Y5984610D01*
X44212000Y5984610D02*
X43640572Y5413181D01*
X43640572Y5413181D02*
X44259619Y5413181D01*
X44688191Y5508420D02*
X44735810Y5460800D01*
X44735810Y5460800D02*
X44688191Y5413181D01*
X44688191Y5413181D02*
X44640572Y5460800D01*
X44640572Y5460800D02*
X44688191Y5508420D01*
X44688191Y5508420D02*
X44688191Y5413181D01*
X44688191Y6032229D02*
X44735810Y5984610D01*
X44735810Y5984610D02*
X44688191Y5936991D01*
X44688191Y5936991D02*
X44640572Y5984610D01*
X44640572Y5984610D02*
X44688191Y6032229D01*
X44688191Y6032229D02*
X44688191Y5936991D01*
X45354857Y6413181D02*
X45545333Y6413181D01*
X45545333Y6413181D02*
X45640571Y6365562D01*
X45640571Y6365562D02*
X45735809Y6270324D01*
X45735809Y6270324D02*
X45783428Y6079848D01*
X45783428Y6079848D02*
X45783428Y5746515D01*
X45783428Y5746515D02*
X45735809Y5556039D01*
X45735809Y5556039D02*
X45640571Y5460800D01*
X45640571Y5460800D02*
X45545333Y5413181D01*
X45545333Y5413181D02*
X45354857Y5413181D01*
X45354857Y5413181D02*
X45259619Y5460800D01*
X45259619Y5460800D02*
X45164381Y5556039D01*
X45164381Y5556039D02*
X45116762Y5746515D01*
X45116762Y5746515D02*
X45116762Y6079848D01*
X45116762Y6079848D02*
X45164381Y6270324D01*
X45164381Y6270324D02*
X45259619Y6365562D01*
X45259619Y6365562D02*
X45354857Y6413181D01*
X46212000Y5413181D02*
X46212000Y6413181D01*
X46212000Y6413181D02*
X46592952Y6413181D01*
X46592952Y6413181D02*
X46688190Y6365562D01*
X46688190Y6365562D02*
X46735809Y6317943D01*
X46735809Y6317943D02*
X46783428Y6222705D01*
X46783428Y6222705D02*
X46783428Y6079848D01*
X46783428Y6079848D02*
X46735809Y5984610D01*
X46735809Y5984610D02*
X46688190Y5936991D01*
X46688190Y5936991D02*
X46592952Y5889372D01*
X46592952Y5889372D02*
X46212000Y5889372D01*
X47212000Y5936991D02*
X47545333Y5936991D01*
X47688190Y5413181D02*
X47212000Y5413181D01*
X47212000Y5413181D02*
X47212000Y6413181D01*
X47212000Y6413181D02*
X47688190Y6413181D01*
X48116762Y5413181D02*
X48116762Y6413181D01*
X48116762Y6413181D02*
X48688190Y5413181D01*
X48688190Y5413181D02*
X48688190Y6413181D01*
X47283429Y60317943D02*
X47331048Y60365562D01*
X47331048Y60365562D02*
X47426286Y60413181D01*
X47426286Y60413181D02*
X47664381Y60413181D01*
X47664381Y60413181D02*
X47759619Y60365562D01*
X47759619Y60365562D02*
X47807238Y60317943D01*
X47807238Y60317943D02*
X47854857Y60222705D01*
X47854857Y60222705D02*
X47854857Y60127467D01*
X47854857Y60127467D02*
X47807238Y59984610D01*
X47807238Y59984610D02*
X47235810Y59413181D01*
X47235810Y59413181D02*
X47854857Y59413181D01*
X48283429Y59508420D02*
X48331048Y59460800D01*
X48331048Y59460800D02*
X48283429Y59413181D01*
X48283429Y59413181D02*
X48235810Y59460800D01*
X48235810Y59460800D02*
X48283429Y59508420D01*
X48283429Y59508420D02*
X48283429Y59413181D01*
X48283429Y60032229D02*
X48331048Y59984610D01*
X48331048Y59984610D02*
X48283429Y59936991D01*
X48283429Y59936991D02*
X48235810Y59984610D01*
X48235810Y59984610D02*
X48283429Y60032229D01*
X48283429Y60032229D02*
X48283429Y59936991D01*
X49235809Y59413181D02*
X48759619Y59413181D01*
X48759619Y59413181D02*
X48759619Y60413181D01*
X50140571Y59508420D02*
X50092952Y59460800D01*
X50092952Y59460800D02*
X49950095Y59413181D01*
X49950095Y59413181D02*
X49854857Y59413181D01*
X49854857Y59413181D02*
X49712000Y59460800D01*
X49712000Y59460800D02*
X49616762Y59556039D01*
X49616762Y59556039D02*
X49569143Y59651277D01*
X49569143Y59651277D02*
X49521524Y59841753D01*
X49521524Y59841753D02*
X49521524Y59984610D01*
X49521524Y59984610D02*
X49569143Y60175086D01*
X49569143Y60175086D02*
X49616762Y60270324D01*
X49616762Y60270324D02*
X49712000Y60365562D01*
X49712000Y60365562D02*
X49854857Y60413181D01*
X49854857Y60413181D02*
X49950095Y60413181D01*
X49950095Y60413181D02*
X50092952Y60365562D01*
X50092952Y60365562D02*
X50140571Y60317943D01*
X54188190Y11713181D02*
X53616762Y11713181D01*
X53902476Y11713181D02*
X53902476Y12713181D01*
X53902476Y12713181D02*
X53807238Y12570324D01*
X53807238Y12570324D02*
X53712000Y12475086D01*
X53712000Y12475086D02*
X53616762Y12427467D01*
X54616762Y11808420D02*
X54664381Y11760800D01*
X54664381Y11760800D02*
X54616762Y11713181D01*
X54616762Y11713181D02*
X54569143Y11760800D01*
X54569143Y11760800D02*
X54616762Y11808420D01*
X54616762Y11808420D02*
X54616762Y11713181D01*
X54616762Y12332229D02*
X54664381Y12284610D01*
X54664381Y12284610D02*
X54616762Y12236991D01*
X54616762Y12236991D02*
X54569143Y12284610D01*
X54569143Y12284610D02*
X54616762Y12332229D01*
X54616762Y12332229D02*
X54616762Y12236991D01*
X55045333Y12617943D02*
X55092952Y12665562D01*
X55092952Y12665562D02*
X55188190Y12713181D01*
X55188190Y12713181D02*
X55426285Y12713181D01*
X55426285Y12713181D02*
X55521523Y12665562D01*
X55521523Y12665562D02*
X55569142Y12617943D01*
X55569142Y12617943D02*
X55616761Y12522705D01*
X55616761Y12522705D02*
X55616761Y12427467D01*
X55616761Y12427467D02*
X55569142Y12284610D01*
X55569142Y12284610D02*
X54997714Y11713181D01*
X54997714Y11713181D02*
X55616761Y11713181D01*
X56473904Y12379848D02*
X56473904Y11713181D01*
X56235809Y12760800D02*
X55997714Y12046515D01*
X55997714Y12046515D02*
X56616761Y12046515D01*
X56997714Y12094134D02*
X57759619Y12094134D01*
X57378666Y11713181D02*
X57378666Y12475086D01*
X63807238Y6317943D02*
X63854857Y6365562D01*
X63854857Y6365562D02*
X63950095Y6413181D01*
X63950095Y6413181D02*
X64188190Y6413181D01*
X64188190Y6413181D02*
X64283428Y6365562D01*
X64283428Y6365562D02*
X64331047Y6317943D01*
X64331047Y6317943D02*
X64378666Y6222705D01*
X64378666Y6222705D02*
X64378666Y6127467D01*
X64378666Y6127467D02*
X64331047Y5984610D01*
X64331047Y5984610D02*
X63759619Y5413181D01*
X63759619Y5413181D02*
X64378666Y5413181D01*
X64807238Y5508420D02*
X64854857Y5460800D01*
X64854857Y5460800D02*
X64807238Y5413181D01*
X64807238Y5413181D02*
X64759619Y5460800D01*
X64759619Y5460800D02*
X64807238Y5508420D01*
X64807238Y5508420D02*
X64807238Y5413181D01*
X64807238Y6032229D02*
X64854857Y5984610D01*
X64854857Y5984610D02*
X64807238Y5936991D01*
X64807238Y5936991D02*
X64759619Y5984610D01*
X64759619Y5984610D02*
X64807238Y6032229D01*
X64807238Y6032229D02*
X64807238Y5936991D01*
X65235809Y5460800D02*
X65378666Y5413181D01*
X65378666Y5413181D02*
X65616761Y5413181D01*
X65616761Y5413181D02*
X65711999Y5460800D01*
X65711999Y5460800D02*
X65759618Y5508420D01*
X65759618Y5508420D02*
X65807237Y5603658D01*
X65807237Y5603658D02*
X65807237Y5698896D01*
X65807237Y5698896D02*
X65759618Y5794134D01*
X65759618Y5794134D02*
X65711999Y5841753D01*
X65711999Y5841753D02*
X65616761Y5889372D01*
X65616761Y5889372D02*
X65426285Y5936991D01*
X65426285Y5936991D02*
X65331047Y5984610D01*
X65331047Y5984610D02*
X65283428Y6032229D01*
X65283428Y6032229D02*
X65235809Y6127467D01*
X65235809Y6127467D02*
X65235809Y6222705D01*
X65235809Y6222705D02*
X65283428Y6317943D01*
X65283428Y6317943D02*
X65331047Y6365562D01*
X65331047Y6365562D02*
X65426285Y6413181D01*
X65426285Y6413181D02*
X65664380Y6413181D01*
X65664380Y6413181D02*
X65807237Y6365562D01*
X66092952Y6413181D02*
X66664380Y6413181D01*
X66378666Y5413181D02*
X66378666Y6413181D01*
X67188190Y6413181D02*
X67378666Y6413181D01*
X67378666Y6413181D02*
X67473904Y6365562D01*
X67473904Y6365562D02*
X67569142Y6270324D01*
X67569142Y6270324D02*
X67616761Y6079848D01*
X67616761Y6079848D02*
X67616761Y5746515D01*
X67616761Y5746515D02*
X67569142Y5556039D01*
X67569142Y5556039D02*
X67473904Y5460800D01*
X67473904Y5460800D02*
X67378666Y5413181D01*
X67378666Y5413181D02*
X67188190Y5413181D01*
X67188190Y5413181D02*
X67092952Y5460800D01*
X67092952Y5460800D02*
X66997714Y5556039D01*
X66997714Y5556039D02*
X66950095Y5746515D01*
X66950095Y5746515D02*
X66950095Y6079848D01*
X66950095Y6079848D02*
X66997714Y6270324D01*
X66997714Y6270324D02*
X67092952Y6365562D01*
X67092952Y6365562D02*
X67188190Y6413181D01*
X68045333Y5413181D02*
X68045333Y6413181D01*
X68045333Y6413181D02*
X68426285Y6413181D01*
X68426285Y6413181D02*
X68521523Y6365562D01*
X68521523Y6365562D02*
X68569142Y6317943D01*
X68569142Y6317943D02*
X68616761Y6222705D01*
X68616761Y6222705D02*
X68616761Y6079848D01*
X68616761Y6079848D02*
X68569142Y5984610D01*
X68569142Y5984610D02*
X68521523Y5936991D01*
X68521523Y5936991D02*
X68426285Y5889372D01*
X68426285Y5889372D02*
X68045333Y5889372D01*
X70378666Y59413181D02*
X69807238Y59413181D01*
X70092952Y59413181D02*
X70092952Y60413181D01*
X70092952Y60413181D02*
X69997714Y60270324D01*
X69997714Y60270324D02*
X69902476Y60175086D01*
X69902476Y60175086D02*
X69807238Y60127467D01*
X70807238Y59508420D02*
X70854857Y59460800D01*
X70854857Y59460800D02*
X70807238Y59413181D01*
X70807238Y59413181D02*
X70759619Y59460800D01*
X70759619Y59460800D02*
X70807238Y59508420D01*
X70807238Y59508420D02*
X70807238Y59413181D01*
X70807238Y60032229D02*
X70854857Y59984610D01*
X70854857Y59984610D02*
X70807238Y59936991D01*
X70807238Y59936991D02*
X70759619Y59984610D01*
X70759619Y59984610D02*
X70807238Y60032229D01*
X70807238Y60032229D02*
X70807238Y59936991D01*
X71711999Y60413181D02*
X71521523Y60413181D01*
X71521523Y60413181D02*
X71426285Y60365562D01*
X71426285Y60365562D02*
X71378666Y60317943D01*
X71378666Y60317943D02*
X71283428Y60175086D01*
X71283428Y60175086D02*
X71235809Y59984610D01*
X71235809Y59984610D02*
X71235809Y59603658D01*
X71235809Y59603658D02*
X71283428Y59508420D01*
X71283428Y59508420D02*
X71331047Y59460800D01*
X71331047Y59460800D02*
X71426285Y59413181D01*
X71426285Y59413181D02*
X71616761Y59413181D01*
X71616761Y59413181D02*
X71711999Y59460800D01*
X71711999Y59460800D02*
X71759618Y59508420D01*
X71759618Y59508420D02*
X71807237Y59603658D01*
X71807237Y59603658D02*
X71807237Y59841753D01*
X71807237Y59841753D02*
X71759618Y59936991D01*
X71759618Y59936991D02*
X71711999Y59984610D01*
X71711999Y59984610D02*
X71616761Y60032229D01*
X71616761Y60032229D02*
X71426285Y60032229D01*
X71426285Y60032229D02*
X71331047Y59984610D01*
X71331047Y59984610D02*
X71283428Y59936991D01*
X71283428Y59936991D02*
X71235809Y59841753D01*
X72092952Y60413181D02*
X72426285Y59413181D01*
X72426285Y59413181D02*
X72759618Y60413181D01*
X73569142Y60413181D02*
X73092952Y60413181D01*
X73092952Y60413181D02*
X73045333Y59936991D01*
X73045333Y59936991D02*
X73092952Y59984610D01*
X73092952Y59984610D02*
X73188190Y60032229D01*
X73188190Y60032229D02*
X73426285Y60032229D01*
X73426285Y60032229D02*
X73521523Y59984610D01*
X73521523Y59984610D02*
X73569142Y59936991D01*
X73569142Y59936991D02*
X73616761Y59841753D01*
X73616761Y59841753D02*
X73616761Y59603658D01*
X73616761Y59603658D02*
X73569142Y59508420D01*
X73569142Y59508420D02*
X73521523Y59460800D01*
X73521523Y59460800D02*
X73426285Y59413181D01*
X73426285Y59413181D02*
X73188190Y59413181D01*
X73188190Y59413181D02*
X73092952Y59460800D01*
X73092952Y59460800D02*
X73045333Y59508420D01*
X74188190Y11713181D02*
X73616762Y11713181D01*
X73902476Y11713181D02*
X73902476Y12713181D01*
X73902476Y12713181D02*
X73807238Y12570324D01*
X73807238Y12570324D02*
X73712000Y12475086D01*
X73712000Y12475086D02*
X73616762Y12427467D01*
X74616762Y11808420D02*
X74664381Y11760800D01*
X74664381Y11760800D02*
X74616762Y11713181D01*
X74616762Y11713181D02*
X74569143Y11760800D01*
X74569143Y11760800D02*
X74616762Y11808420D01*
X74616762Y11808420D02*
X74616762Y11713181D01*
X74616762Y12332229D02*
X74664381Y12284610D01*
X74664381Y12284610D02*
X74616762Y12236991D01*
X74616762Y12236991D02*
X74569143Y12284610D01*
X74569143Y12284610D02*
X74616762Y12332229D01*
X74616762Y12332229D02*
X74616762Y12236991D01*
X75045333Y12617943D02*
X75092952Y12665562D01*
X75092952Y12665562D02*
X75188190Y12713181D01*
X75188190Y12713181D02*
X75426285Y12713181D01*
X75426285Y12713181D02*
X75521523Y12665562D01*
X75521523Y12665562D02*
X75569142Y12617943D01*
X75569142Y12617943D02*
X75616761Y12522705D01*
X75616761Y12522705D02*
X75616761Y12427467D01*
X75616761Y12427467D02*
X75569142Y12284610D01*
X75569142Y12284610D02*
X74997714Y11713181D01*
X74997714Y11713181D02*
X75616761Y11713181D01*
X76473904Y12379848D02*
X76473904Y11713181D01*
X76235809Y12760800D02*
X75997714Y12046515D01*
X75997714Y12046515D02*
X76616761Y12046515D01*
X76997714Y12094134D02*
X77759619Y12094134D01*
X77378666Y11713181D02*
X77378666Y12475086D01*
X74616762Y54713181D02*
X75235809Y54713181D01*
X75235809Y54713181D02*
X74902476Y54332229D01*
X74902476Y54332229D02*
X75045333Y54332229D01*
X75045333Y54332229D02*
X75140571Y54284610D01*
X75140571Y54284610D02*
X75188190Y54236991D01*
X75188190Y54236991D02*
X75235809Y54141753D01*
X75235809Y54141753D02*
X75235809Y53903658D01*
X75235809Y53903658D02*
X75188190Y53808420D01*
X75188190Y53808420D02*
X75140571Y53760800D01*
X75140571Y53760800D02*
X75045333Y53713181D01*
X75045333Y53713181D02*
X74759619Y53713181D01*
X74759619Y53713181D02*
X74664381Y53760800D01*
X74664381Y53760800D02*
X74616762Y53808420D01*
X75664381Y53808420D02*
X75712000Y53760800D01*
X75712000Y53760800D02*
X75664381Y53713181D01*
X75664381Y53713181D02*
X75616762Y53760800D01*
X75616762Y53760800D02*
X75664381Y53808420D01*
X75664381Y53808420D02*
X75664381Y53713181D01*
X75664381Y54332229D02*
X75712000Y54284610D01*
X75712000Y54284610D02*
X75664381Y54236991D01*
X75664381Y54236991D02*
X75616762Y54284610D01*
X75616762Y54284610D02*
X75664381Y54332229D01*
X75664381Y54332229D02*
X75664381Y54236991D01*
X76616761Y53713181D02*
X76140571Y53713181D01*
X76140571Y53713181D02*
X76140571Y54713181D01*
X76950095Y54094134D02*
X77712000Y54094134D01*
X77331047Y53713181D02*
X77331047Y54475086D01*
X78259619Y59713181D02*
X77688191Y59713181D01*
X77973905Y59713181D02*
X77973905Y60713181D01*
X77973905Y60713181D02*
X77878667Y60570324D01*
X77878667Y60570324D02*
X77783429Y60475086D01*
X77783429Y60475086D02*
X77688191Y60427467D01*
X78688191Y59808420D02*
X78735810Y59760800D01*
X78735810Y59760800D02*
X78688191Y59713181D01*
X78688191Y59713181D02*
X78640572Y59760800D01*
X78640572Y59760800D02*
X78688191Y59808420D01*
X78688191Y59808420D02*
X78688191Y59713181D01*
X78688191Y60332229D02*
X78735810Y60284610D01*
X78735810Y60284610D02*
X78688191Y60236991D01*
X78688191Y60236991D02*
X78640572Y60284610D01*
X78640572Y60284610D02*
X78688191Y60332229D01*
X78688191Y60332229D02*
X78688191Y60236991D01*
X79116762Y60617943D02*
X79164381Y60665562D01*
X79164381Y60665562D02*
X79259619Y60713181D01*
X79259619Y60713181D02*
X79497714Y60713181D01*
X79497714Y60713181D02*
X79592952Y60665562D01*
X79592952Y60665562D02*
X79640571Y60617943D01*
X79640571Y60617943D02*
X79688190Y60522705D01*
X79688190Y60522705D02*
X79688190Y60427467D01*
X79688190Y60427467D02*
X79640571Y60284610D01*
X79640571Y60284610D02*
X79069143Y59713181D01*
X79069143Y59713181D02*
X79688190Y59713181D01*
X80545333Y60379848D02*
X80545333Y59713181D01*
X80307238Y60760800D02*
X80069143Y60046515D01*
X80069143Y60046515D02*
X80688190Y60046515D01*
X81021524Y59760800D02*
X81164381Y59713181D01*
X81164381Y59713181D02*
X81402476Y59713181D01*
X81402476Y59713181D02*
X81497714Y59760800D01*
X81497714Y59760800D02*
X81545333Y59808420D01*
X81545333Y59808420D02*
X81592952Y59903658D01*
X81592952Y59903658D02*
X81592952Y59998896D01*
X81592952Y59998896D02*
X81545333Y60094134D01*
X81545333Y60094134D02*
X81497714Y60141753D01*
X81497714Y60141753D02*
X81402476Y60189372D01*
X81402476Y60189372D02*
X81212000Y60236991D01*
X81212000Y60236991D02*
X81116762Y60284610D01*
X81116762Y60284610D02*
X81069143Y60332229D01*
X81069143Y60332229D02*
X81021524Y60427467D01*
X81021524Y60427467D02*
X81021524Y60522705D01*
X81021524Y60522705D02*
X81069143Y60617943D01*
X81069143Y60617943D02*
X81116762Y60665562D01*
X81116762Y60665562D02*
X81212000Y60713181D01*
X81212000Y60713181D02*
X81450095Y60713181D01*
X81450095Y60713181D02*
X81592952Y60665562D01*
X81926286Y60713181D02*
X82164381Y59713181D01*
X82164381Y59713181D02*
X82354857Y60427467D01*
X82354857Y60427467D02*
X82545333Y59713181D01*
X82545333Y59713181D02*
X82783429Y60713181D01*
X80854857Y49117943D02*
X80902476Y49165562D01*
X80902476Y49165562D02*
X80997714Y49213181D01*
X80997714Y49213181D02*
X81235809Y49213181D01*
X81235809Y49213181D02*
X81331047Y49165562D01*
X81331047Y49165562D02*
X81378666Y49117943D01*
X81378666Y49117943D02*
X81426285Y49022705D01*
X81426285Y49022705D02*
X81426285Y48927467D01*
X81426285Y48927467D02*
X81378666Y48784610D01*
X81378666Y48784610D02*
X80807238Y48213181D01*
X80807238Y48213181D02*
X81426285Y48213181D01*
X81854857Y48308420D02*
X81902476Y48260800D01*
X81902476Y48260800D02*
X81854857Y48213181D01*
X81854857Y48213181D02*
X81807238Y48260800D01*
X81807238Y48260800D02*
X81854857Y48308420D01*
X81854857Y48308420D02*
X81854857Y48213181D01*
X81854857Y48832229D02*
X81902476Y48784610D01*
X81902476Y48784610D02*
X81854857Y48736991D01*
X81854857Y48736991D02*
X81807238Y48784610D01*
X81807238Y48784610D02*
X81854857Y48832229D01*
X81854857Y48832229D02*
X81854857Y48736991D01*
X82902475Y48213181D02*
X82569142Y48689372D01*
X82331047Y48213181D02*
X82331047Y49213181D01*
X82331047Y49213181D02*
X82711999Y49213181D01*
X82711999Y49213181D02*
X82807237Y49165562D01*
X82807237Y49165562D02*
X82854856Y49117943D01*
X82854856Y49117943D02*
X82902475Y49022705D01*
X82902475Y49022705D02*
X82902475Y48879848D01*
X82902475Y48879848D02*
X82854856Y48784610D01*
X82854856Y48784610D02*
X82807237Y48736991D01*
X82807237Y48736991D02*
X82711999Y48689372D01*
X82711999Y48689372D02*
X82331047Y48689372D01*
X83331047Y48736991D02*
X83664380Y48736991D01*
X83807237Y48213181D02*
X83331047Y48213181D01*
X83331047Y48213181D02*
X83331047Y49213181D01*
X83331047Y49213181D02*
X83807237Y49213181D01*
X84092952Y49213181D02*
X84664380Y49213181D01*
X84378666Y48213181D02*
X84378666Y49213181D01*
X81957274Y37620288D02*
X81385846Y37620288D01*
X81671560Y37620288D02*
X81671560Y38620288D01*
X81671560Y38620288D02*
X81576322Y38477431D01*
X81576322Y38477431D02*
X81481084Y38382193D01*
X81481084Y38382193D02*
X81385846Y38334574D01*
X82385846Y37715527D02*
X82433465Y37667907D01*
X82433465Y37667907D02*
X82385846Y37620288D01*
X82385846Y37620288D02*
X82338227Y37667907D01*
X82338227Y37667907D02*
X82385846Y37715527D01*
X82385846Y37715527D02*
X82385846Y37620288D01*
X82385846Y38239336D02*
X82433465Y38191717D01*
X82433465Y38191717D02*
X82385846Y38144098D01*
X82385846Y38144098D02*
X82338227Y38191717D01*
X82338227Y38191717D02*
X82385846Y38239336D01*
X82385846Y38239336D02*
X82385846Y38144098D01*
X83338226Y38620288D02*
X82862036Y38620288D01*
X82862036Y38620288D02*
X82814417Y38144098D01*
X82814417Y38144098D02*
X82862036Y38191717D01*
X82862036Y38191717D02*
X82957274Y38239336D01*
X82957274Y38239336D02*
X83195369Y38239336D01*
X83195369Y38239336D02*
X83290607Y38191717D01*
X83290607Y38191717D02*
X83338226Y38144098D01*
X83338226Y38144098D02*
X83385845Y38048860D01*
X83385845Y38048860D02*
X83385845Y37810765D01*
X83385845Y37810765D02*
X83338226Y37715527D01*
X83338226Y37715527D02*
X83290607Y37667907D01*
X83290607Y37667907D02*
X83195369Y37620288D01*
X83195369Y37620288D02*
X82957274Y37620288D01*
X82957274Y37620288D02*
X82862036Y37667907D01*
X82862036Y37667907D02*
X82814417Y37715527D01*
X83814417Y38001241D02*
X84576322Y38001241D01*
X84195369Y37620288D02*
X84195369Y38382193D01*
X83331048Y6317943D02*
X83378667Y6365562D01*
X83378667Y6365562D02*
X83473905Y6413181D01*
X83473905Y6413181D02*
X83712000Y6413181D01*
X83712000Y6413181D02*
X83807238Y6365562D01*
X83807238Y6365562D02*
X83854857Y6317943D01*
X83854857Y6317943D02*
X83902476Y6222705D01*
X83902476Y6222705D02*
X83902476Y6127467D01*
X83902476Y6127467D02*
X83854857Y5984610D01*
X83854857Y5984610D02*
X83283429Y5413181D01*
X83283429Y5413181D02*
X83902476Y5413181D01*
X84331048Y5508420D02*
X84378667Y5460800D01*
X84378667Y5460800D02*
X84331048Y5413181D01*
X84331048Y5413181D02*
X84283429Y5460800D01*
X84283429Y5460800D02*
X84331048Y5508420D01*
X84331048Y5508420D02*
X84331048Y5413181D01*
X84331048Y6032229D02*
X84378667Y5984610D01*
X84378667Y5984610D02*
X84331048Y5936991D01*
X84331048Y5936991D02*
X84283429Y5984610D01*
X84283429Y5984610D02*
X84331048Y6032229D01*
X84331048Y6032229D02*
X84331048Y5936991D01*
X85378666Y5508420D02*
X85331047Y5460800D01*
X85331047Y5460800D02*
X85188190Y5413181D01*
X85188190Y5413181D02*
X85092952Y5413181D01*
X85092952Y5413181D02*
X84950095Y5460800D01*
X84950095Y5460800D02*
X84854857Y5556039D01*
X84854857Y5556039D02*
X84807238Y5651277D01*
X84807238Y5651277D02*
X84759619Y5841753D01*
X84759619Y5841753D02*
X84759619Y5984610D01*
X84759619Y5984610D02*
X84807238Y6175086D01*
X84807238Y6175086D02*
X84854857Y6270324D01*
X84854857Y6270324D02*
X84950095Y6365562D01*
X84950095Y6365562D02*
X85092952Y6413181D01*
X85092952Y6413181D02*
X85188190Y6413181D01*
X85188190Y6413181D02*
X85331047Y6365562D01*
X85331047Y6365562D02*
X85378666Y6317943D01*
X86283428Y5413181D02*
X85807238Y5413181D01*
X85807238Y5413181D02*
X85807238Y6413181D01*
X86807238Y6413181D02*
X86997714Y6413181D01*
X86997714Y6413181D02*
X87092952Y6365562D01*
X87092952Y6365562D02*
X87188190Y6270324D01*
X87188190Y6270324D02*
X87235809Y6079848D01*
X87235809Y6079848D02*
X87235809Y5746515D01*
X87235809Y5746515D02*
X87188190Y5556039D01*
X87188190Y5556039D02*
X87092952Y5460800D01*
X87092952Y5460800D02*
X86997714Y5413181D01*
X86997714Y5413181D02*
X86807238Y5413181D01*
X86807238Y5413181D02*
X86712000Y5460800D01*
X86712000Y5460800D02*
X86616762Y5556039D01*
X86616762Y5556039D02*
X86569143Y5746515D01*
X86569143Y5746515D02*
X86569143Y6079848D01*
X86569143Y6079848D02*
X86616762Y6270324D01*
X86616762Y6270324D02*
X86712000Y6365562D01*
X86712000Y6365562D02*
X86807238Y6413181D01*
X87616762Y5460800D02*
X87759619Y5413181D01*
X87759619Y5413181D02*
X87997714Y5413181D01*
X87997714Y5413181D02*
X88092952Y5460800D01*
X88092952Y5460800D02*
X88140571Y5508420D01*
X88140571Y5508420D02*
X88188190Y5603658D01*
X88188190Y5603658D02*
X88188190Y5698896D01*
X88188190Y5698896D02*
X88140571Y5794134D01*
X88140571Y5794134D02*
X88092952Y5841753D01*
X88092952Y5841753D02*
X87997714Y5889372D01*
X87997714Y5889372D02*
X87807238Y5936991D01*
X87807238Y5936991D02*
X87712000Y5984610D01*
X87712000Y5984610D02*
X87664381Y6032229D01*
X87664381Y6032229D02*
X87616762Y6127467D01*
X87616762Y6127467D02*
X87616762Y6222705D01*
X87616762Y6222705D02*
X87664381Y6317943D01*
X87664381Y6317943D02*
X87712000Y6365562D01*
X87712000Y6365562D02*
X87807238Y6413181D01*
X87807238Y6413181D02*
X88045333Y6413181D01*
X88045333Y6413181D02*
X88188190Y6365562D01*
X88616762Y5936991D02*
X88950095Y5936991D01*
X89092952Y5413181D02*
X88616762Y5413181D01*
X88616762Y5413181D02*
X88616762Y6413181D01*
X88616762Y6413181D02*
X89092952Y6413181D01*
X86257887Y46303728D02*
X86257887Y45637061D01*
X86019792Y46684680D02*
X85781697Y45970395D01*
X85781697Y45970395D02*
X86400744Y45970395D01*
X86781697Y45732300D02*
X86829316Y45684680D01*
X86829316Y45684680D02*
X86781697Y45637061D01*
X86781697Y45637061D02*
X86734078Y45684680D01*
X86734078Y45684680D02*
X86781697Y45732300D01*
X86781697Y45732300D02*
X86781697Y45637061D01*
X86781697Y46256109D02*
X86829316Y46208490D01*
X86829316Y46208490D02*
X86781697Y46160871D01*
X86781697Y46160871D02*
X86734078Y46208490D01*
X86734078Y46208490D02*
X86781697Y46256109D01*
X86781697Y46256109D02*
X86781697Y46160871D01*
X87734077Y45637061D02*
X87257887Y45637061D01*
X87257887Y45637061D02*
X87257887Y46637061D01*
X88067411Y46018014D02*
X88829316Y46018014D01*
X88378666Y59413181D02*
X87807238Y59413181D01*
X88092952Y59413181D02*
X88092952Y60413181D01*
X88092952Y60413181D02*
X87997714Y60270324D01*
X87997714Y60270324D02*
X87902476Y60175086D01*
X87902476Y60175086D02*
X87807238Y60127467D01*
X88807238Y59508420D02*
X88854857Y59460800D01*
X88854857Y59460800D02*
X88807238Y59413181D01*
X88807238Y59413181D02*
X88759619Y59460800D01*
X88759619Y59460800D02*
X88807238Y59508420D01*
X88807238Y59508420D02*
X88807238Y59413181D01*
X88807238Y60032229D02*
X88854857Y59984610D01*
X88854857Y59984610D02*
X88807238Y59936991D01*
X88807238Y59936991D02*
X88759619Y59984610D01*
X88759619Y59984610D02*
X88807238Y60032229D01*
X88807238Y60032229D02*
X88807238Y59936991D01*
X89711999Y60413181D02*
X89521523Y60413181D01*
X89521523Y60413181D02*
X89426285Y60365562D01*
X89426285Y60365562D02*
X89378666Y60317943D01*
X89378666Y60317943D02*
X89283428Y60175086D01*
X89283428Y60175086D02*
X89235809Y59984610D01*
X89235809Y59984610D02*
X89235809Y59603658D01*
X89235809Y59603658D02*
X89283428Y59508420D01*
X89283428Y59508420D02*
X89331047Y59460800D01*
X89331047Y59460800D02*
X89426285Y59413181D01*
X89426285Y59413181D02*
X89616761Y59413181D01*
X89616761Y59413181D02*
X89711999Y59460800D01*
X89711999Y59460800D02*
X89759618Y59508420D01*
X89759618Y59508420D02*
X89807237Y59603658D01*
X89807237Y59603658D02*
X89807237Y59841753D01*
X89807237Y59841753D02*
X89759618Y59936991D01*
X89759618Y59936991D02*
X89711999Y59984610D01*
X89711999Y59984610D02*
X89616761Y60032229D01*
X89616761Y60032229D02*
X89426285Y60032229D01*
X89426285Y60032229D02*
X89331047Y59984610D01*
X89331047Y59984610D02*
X89283428Y59936991D01*
X89283428Y59936991D02*
X89235809Y59841753D01*
X90092952Y60413181D02*
X90426285Y59413181D01*
X90426285Y59413181D02*
X90759618Y60413181D01*
X91569142Y60413181D02*
X91092952Y60413181D01*
X91092952Y60413181D02*
X91045333Y59936991D01*
X91045333Y59936991D02*
X91092952Y59984610D01*
X91092952Y59984610D02*
X91188190Y60032229D01*
X91188190Y60032229D02*
X91426285Y60032229D01*
X91426285Y60032229D02*
X91521523Y59984610D01*
X91521523Y59984610D02*
X91569142Y59936991D01*
X91569142Y59936991D02*
X91616761Y59841753D01*
X91616761Y59841753D02*
X91616761Y59603658D01*
X91616761Y59603658D02*
X91569142Y59508420D01*
X91569142Y59508420D02*
X91521523Y59460800D01*
X91521523Y59460800D02*
X91426285Y59413181D01*
X91426285Y59413181D02*
X91188190Y59413181D01*
X91188190Y59413181D02*
X91092952Y59460800D01*
X91092952Y59460800D02*
X91045333Y59508420D01*
X88640571Y47913181D02*
X88069143Y47913181D01*
X88354857Y47913181D02*
X88354857Y48913181D01*
X88354857Y48913181D02*
X88259619Y48770324D01*
X88259619Y48770324D02*
X88164381Y48675086D01*
X88164381Y48675086D02*
X88069143Y48627467D01*
X89069143Y48008420D02*
X89116762Y47960800D01*
X89116762Y47960800D02*
X89069143Y47913181D01*
X89069143Y47913181D02*
X89021524Y47960800D01*
X89021524Y47960800D02*
X89069143Y48008420D01*
X89069143Y48008420D02*
X89069143Y47913181D01*
X89069143Y48532229D02*
X89116762Y48484610D01*
X89116762Y48484610D02*
X89069143Y48436991D01*
X89069143Y48436991D02*
X89021524Y48484610D01*
X89021524Y48484610D02*
X89069143Y48532229D01*
X89069143Y48532229D02*
X89069143Y48436991D01*
X89545333Y47913181D02*
X89545333Y48913181D01*
X89545333Y48913181D02*
X89926285Y48913181D01*
X89926285Y48913181D02*
X90021523Y48865562D01*
X90021523Y48865562D02*
X90069142Y48817943D01*
X90069142Y48817943D02*
X90116761Y48722705D01*
X90116761Y48722705D02*
X90116761Y48579848D01*
X90116761Y48579848D02*
X90069142Y48484610D01*
X90069142Y48484610D02*
X90021523Y48436991D01*
X90021523Y48436991D02*
X89926285Y48389372D01*
X89926285Y48389372D02*
X89545333Y48389372D01*
X90545333Y48294134D02*
X91307238Y48294134D01*
X90926285Y47913181D02*
X90926285Y48675086D01*
X88069143Y31817943D02*
X88116762Y31865562D01*
X88116762Y31865562D02*
X88212000Y31913181D01*
X88212000Y31913181D02*
X88450095Y31913181D01*
X88450095Y31913181D02*
X88545333Y31865562D01*
X88545333Y31865562D02*
X88592952Y31817943D01*
X88592952Y31817943D02*
X88640571Y31722705D01*
X88640571Y31722705D02*
X88640571Y31627467D01*
X88640571Y31627467D02*
X88592952Y31484610D01*
X88592952Y31484610D02*
X88021524Y30913181D01*
X88021524Y30913181D02*
X88640571Y30913181D01*
X89069143Y31008420D02*
X89116762Y30960800D01*
X89116762Y30960800D02*
X89069143Y30913181D01*
X89069143Y30913181D02*
X89021524Y30960800D01*
X89021524Y30960800D02*
X89069143Y31008420D01*
X89069143Y31008420D02*
X89069143Y30913181D01*
X89069143Y31532229D02*
X89116762Y31484610D01*
X89116762Y31484610D02*
X89069143Y31436991D01*
X89069143Y31436991D02*
X89021524Y31484610D01*
X89021524Y31484610D02*
X89069143Y31532229D01*
X89069143Y31532229D02*
X89069143Y31436991D01*
X89545333Y30913181D02*
X89545333Y31913181D01*
X89545333Y31913181D02*
X89783428Y31913181D01*
X89783428Y31913181D02*
X89926285Y31865562D01*
X89926285Y31865562D02*
X90021523Y31770324D01*
X90021523Y31770324D02*
X90069142Y31675086D01*
X90069142Y31675086D02*
X90116761Y31484610D01*
X90116761Y31484610D02*
X90116761Y31341753D01*
X90116761Y31341753D02*
X90069142Y31151277D01*
X90069142Y31151277D02*
X90021523Y31056039D01*
X90021523Y31056039D02*
X89926285Y30960800D01*
X89926285Y30960800D02*
X89783428Y30913181D01*
X89783428Y30913181D02*
X89545333Y30913181D01*
X90545333Y31294134D02*
X91307238Y31294134D01*
X90926285Y30913181D02*
X90926285Y31675086D01*
X88640571Y25913181D02*
X88069143Y25913181D01*
X88354857Y25913181D02*
X88354857Y26913181D01*
X88354857Y26913181D02*
X88259619Y26770324D01*
X88259619Y26770324D02*
X88164381Y26675086D01*
X88164381Y26675086D02*
X88069143Y26627467D01*
X89069143Y26008420D02*
X89116762Y25960800D01*
X89116762Y25960800D02*
X89069143Y25913181D01*
X89069143Y25913181D02*
X89021524Y25960800D01*
X89021524Y25960800D02*
X89069143Y26008420D01*
X89069143Y26008420D02*
X89069143Y25913181D01*
X89069143Y26532229D02*
X89116762Y26484610D01*
X89116762Y26484610D02*
X89069143Y26436991D01*
X89069143Y26436991D02*
X89021524Y26484610D01*
X89021524Y26484610D02*
X89069143Y26532229D01*
X89069143Y26532229D02*
X89069143Y26436991D01*
X89545333Y25913181D02*
X89545333Y26913181D01*
X89545333Y26913181D02*
X89783428Y26913181D01*
X89783428Y26913181D02*
X89926285Y26865562D01*
X89926285Y26865562D02*
X90021523Y26770324D01*
X90021523Y26770324D02*
X90069142Y26675086D01*
X90069142Y26675086D02*
X90116761Y26484610D01*
X90116761Y26484610D02*
X90116761Y26341753D01*
X90116761Y26341753D02*
X90069142Y26151277D01*
X90069142Y26151277D02*
X90021523Y26056039D01*
X90021523Y26056039D02*
X89926285Y25960800D01*
X89926285Y25960800D02*
X89783428Y25913181D01*
X89783428Y25913181D02*
X89545333Y25913181D01*
X90545333Y26294134D02*
X91307238Y26294134D01*
X88283429Y16517943D02*
X88331048Y16565562D01*
X88331048Y16565562D02*
X88426286Y16613181D01*
X88426286Y16613181D02*
X88664381Y16613181D01*
X88664381Y16613181D02*
X88759619Y16565562D01*
X88759619Y16565562D02*
X88807238Y16517943D01*
X88807238Y16517943D02*
X88854857Y16422705D01*
X88854857Y16422705D02*
X88854857Y16327467D01*
X88854857Y16327467D02*
X88807238Y16184610D01*
X88807238Y16184610D02*
X88235810Y15613181D01*
X88235810Y15613181D02*
X88854857Y15613181D01*
X89283429Y15708420D02*
X89331048Y15660800D01*
X89331048Y15660800D02*
X89283429Y15613181D01*
X89283429Y15613181D02*
X89235810Y15660800D01*
X89235810Y15660800D02*
X89283429Y15708420D01*
X89283429Y15708420D02*
X89283429Y15613181D01*
X89283429Y16232229D02*
X89331048Y16184610D01*
X89331048Y16184610D02*
X89283429Y16136991D01*
X89283429Y16136991D02*
X89235810Y16184610D01*
X89235810Y16184610D02*
X89283429Y16232229D01*
X89283429Y16232229D02*
X89283429Y16136991D01*
X89950095Y16613181D02*
X90045333Y16613181D01*
X90045333Y16613181D02*
X90140571Y16565562D01*
X90140571Y16565562D02*
X90188190Y16517943D01*
X90188190Y16517943D02*
X90235809Y16422705D01*
X90235809Y16422705D02*
X90283428Y16232229D01*
X90283428Y16232229D02*
X90283428Y15994134D01*
X90283428Y15994134D02*
X90235809Y15803658D01*
X90235809Y15803658D02*
X90188190Y15708420D01*
X90188190Y15708420D02*
X90140571Y15660800D01*
X90140571Y15660800D02*
X90045333Y15613181D01*
X90045333Y15613181D02*
X89950095Y15613181D01*
X89950095Y15613181D02*
X89854857Y15660800D01*
X89854857Y15660800D02*
X89807238Y15708420D01*
X89807238Y15708420D02*
X89759619Y15803658D01*
X89759619Y15803658D02*
X89712000Y15994134D01*
X89712000Y15994134D02*
X89712000Y16232229D01*
X89712000Y16232229D02*
X89759619Y16422705D01*
X89759619Y16422705D02*
X89807238Y16517943D01*
X89807238Y16517943D02*
X89854857Y16565562D01*
X89854857Y16565562D02*
X89950095Y16613181D01*
X90569143Y16613181D02*
X90902476Y15613181D01*
X90902476Y15613181D02*
X91235809Y16613181D01*
X88354857Y10613181D02*
X87783429Y10613181D01*
X88069143Y10613181D02*
X88069143Y11613181D01*
X88069143Y11613181D02*
X87973905Y11470324D01*
X87973905Y11470324D02*
X87878667Y11375086D01*
X87878667Y11375086D02*
X87783429Y11327467D01*
X88783429Y10708420D02*
X88831048Y10660800D01*
X88831048Y10660800D02*
X88783429Y10613181D01*
X88783429Y10613181D02*
X88735810Y10660800D01*
X88735810Y10660800D02*
X88783429Y10708420D01*
X88783429Y10708420D02*
X88783429Y10613181D01*
X88783429Y11232229D02*
X88831048Y11184610D01*
X88831048Y11184610D02*
X88783429Y11136991D01*
X88783429Y11136991D02*
X88735810Y11184610D01*
X88735810Y11184610D02*
X88783429Y11232229D01*
X88783429Y11232229D02*
X88783429Y11136991D01*
X89212000Y10898896D02*
X89688190Y10898896D01*
X89116762Y10613181D02*
X89450095Y11613181D01*
X89450095Y11613181D02*
X89783428Y10613181D01*
X90592952Y10613181D02*
X90116762Y10613181D01*
X90116762Y10613181D02*
X90116762Y11613181D01*
X90926286Y10613181D02*
X90926286Y11613181D01*
X90926286Y11613181D02*
X91259619Y10898896D01*
X91259619Y10898896D02*
X91592952Y11613181D01*
X91592952Y11613181D02*
X91592952Y10613181D01*
X90069143Y53817943D02*
X90116762Y53865562D01*
X90116762Y53865562D02*
X90212000Y53913181D01*
X90212000Y53913181D02*
X90450095Y53913181D01*
X90450095Y53913181D02*
X90545333Y53865562D01*
X90545333Y53865562D02*
X90592952Y53817943D01*
X90592952Y53817943D02*
X90640571Y53722705D01*
X90640571Y53722705D02*
X90640571Y53627467D01*
X90640571Y53627467D02*
X90592952Y53484610D01*
X90592952Y53484610D02*
X90021524Y52913181D01*
X90021524Y52913181D02*
X90640571Y52913181D01*
X91069143Y53008420D02*
X91116762Y52960800D01*
X91116762Y52960800D02*
X91069143Y52913181D01*
X91069143Y52913181D02*
X91021524Y52960800D01*
X91021524Y52960800D02*
X91069143Y53008420D01*
X91069143Y53008420D02*
X91069143Y52913181D01*
X91069143Y53532229D02*
X91116762Y53484610D01*
X91116762Y53484610D02*
X91069143Y53436991D01*
X91069143Y53436991D02*
X91021524Y53484610D01*
X91021524Y53484610D02*
X91069143Y53532229D01*
X91069143Y53532229D02*
X91069143Y53436991D01*
X91545333Y52913181D02*
X91545333Y53913181D01*
X91545333Y53913181D02*
X91926285Y53913181D01*
X91926285Y53913181D02*
X92021523Y53865562D01*
X92021523Y53865562D02*
X92069142Y53817943D01*
X92069142Y53817943D02*
X92116761Y53722705D01*
X92116761Y53722705D02*
X92116761Y53579848D01*
X92116761Y53579848D02*
X92069142Y53484610D01*
X92069142Y53484610D02*
X92021523Y53436991D01*
X92021523Y53436991D02*
X91926285Y53389372D01*
X91926285Y53389372D02*
X91545333Y53389372D01*
X92545333Y53294134D02*
X93307238Y53294134D01*
X95569143Y64413181D02*
X96188190Y64413181D01*
X96188190Y64413181D02*
X95854857Y64032229D01*
X95854857Y64032229D02*
X95997714Y64032229D01*
X95997714Y64032229D02*
X96092952Y63984610D01*
X96092952Y63984610D02*
X96140571Y63936991D01*
X96140571Y63936991D02*
X96188190Y63841753D01*
X96188190Y63841753D02*
X96188190Y63603658D01*
X96188190Y63603658D02*
X96140571Y63508420D01*
X96140571Y63508420D02*
X96092952Y63460800D01*
X96092952Y63460800D02*
X95997714Y63413181D01*
X95997714Y63413181D02*
X95712000Y63413181D01*
X95712000Y63413181D02*
X95616762Y63460800D01*
X95616762Y63460800D02*
X95569143Y63508420D01*
X96616762Y63508420D02*
X96664381Y63460800D01*
X96664381Y63460800D02*
X96616762Y63413181D01*
X96616762Y63413181D02*
X96569143Y63460800D01*
X96569143Y63460800D02*
X96616762Y63508420D01*
X96616762Y63508420D02*
X96616762Y63413181D01*
X96616762Y64032229D02*
X96664381Y63984610D01*
X96664381Y63984610D02*
X96616762Y63936991D01*
X96616762Y63936991D02*
X96569143Y63984610D01*
X96569143Y63984610D02*
X96616762Y64032229D01*
X96616762Y64032229D02*
X96616762Y63936991D01*
X97092952Y63936991D02*
X97426285Y63936991D01*
X97569142Y63413181D02*
X97092952Y63413181D01*
X97092952Y63413181D02*
X97092952Y64413181D01*
X97092952Y64413181D02*
X97569142Y64413181D01*
X97997714Y63794134D02*
X98759619Y63794134D01*
X98378666Y63413181D02*
X98378666Y64175086D01*
X10419059Y47126445D02*
X10419059Y47745492D01*
X10419059Y47745492D02*
X10800011Y47412159D01*
X10800011Y47412159D02*
X10800011Y47555016D01*
X10800011Y47555016D02*
X10847630Y47650254D01*
X10847630Y47650254D02*
X10895249Y47697873D01*
X10895249Y47697873D02*
X10990487Y47745492D01*
X10990487Y47745492D02*
X11228582Y47745492D01*
X11228582Y47745492D02*
X11323820Y47697873D01*
X11323820Y47697873D02*
X11371440Y47650254D01*
X11371440Y47650254D02*
X11419059Y47555016D01*
X11419059Y47555016D02*
X11419059Y47269302D01*
X11419059Y47269302D02*
X11371440Y47174064D01*
X11371440Y47174064D02*
X11323820Y47126445D01*
X11323820Y48174064D02*
X11371440Y48221683D01*
X11371440Y48221683D02*
X11419059Y48174064D01*
X11419059Y48174064D02*
X11371440Y48126445D01*
X11371440Y48126445D02*
X11323820Y48174064D01*
X11323820Y48174064D02*
X11419059Y48174064D01*
X10800011Y48174064D02*
X10847630Y48221683D01*
X10847630Y48221683D02*
X10895249Y48174064D01*
X10895249Y48174064D02*
X10847630Y48126445D01*
X10847630Y48126445D02*
X10800011Y48174064D01*
X10800011Y48174064D02*
X10895249Y48174064D01*
X11371440Y48602635D02*
X11419059Y48745492D01*
X11419059Y48745492D02*
X11419059Y48983587D01*
X11419059Y48983587D02*
X11371440Y49078825D01*
X11371440Y49078825D02*
X11323820Y49126444D01*
X11323820Y49126444D02*
X11228582Y49174063D01*
X11228582Y49174063D02*
X11133344Y49174063D01*
X11133344Y49174063D02*
X11038106Y49126444D01*
X11038106Y49126444D02*
X10990487Y49078825D01*
X10990487Y49078825D02*
X10942868Y48983587D01*
X10942868Y48983587D02*
X10895249Y48793111D01*
X10895249Y48793111D02*
X10847630Y48697873D01*
X10847630Y48697873D02*
X10800011Y48650254D01*
X10800011Y48650254D02*
X10704773Y48602635D01*
X10704773Y48602635D02*
X10609535Y48602635D01*
X10609535Y48602635D02*
X10514297Y48650254D01*
X10514297Y48650254D02*
X10466678Y48697873D01*
X10466678Y48697873D02*
X10419059Y48793111D01*
X10419059Y48793111D02*
X10419059Y49031206D01*
X10419059Y49031206D02*
X10466678Y49174063D01*
X11419059Y49602635D02*
X10419059Y49602635D01*
X10419059Y49602635D02*
X10419059Y49840730D01*
X10419059Y49840730D02*
X10466678Y49983587D01*
X10466678Y49983587D02*
X10561916Y50078825D01*
X10561916Y50078825D02*
X10657154Y50126444D01*
X10657154Y50126444D02*
X10847630Y50174063D01*
X10847630Y50174063D02*
X10990487Y50174063D01*
X10990487Y50174063D02*
X11180963Y50126444D01*
X11180963Y50126444D02*
X11276201Y50078825D01*
X11276201Y50078825D02*
X11371440Y49983587D01*
X11371440Y49983587D02*
X11419059Y49840730D01*
X11419059Y49840730D02*
X11419059Y49602635D01*
X11133344Y50555016D02*
X11133344Y51031206D01*
X11419059Y50459778D02*
X10419059Y50793111D01*
X10419059Y50793111D02*
X11419059Y51126444D01*
X33666819Y42534667D02*
X33666819Y41963239D01*
X33666819Y42248953D02*
X32666819Y42248953D01*
X32666819Y42248953D02*
X32809676Y42153715D01*
X32809676Y42153715D02*
X32904914Y42058477D01*
X32904914Y42058477D02*
X32952533Y41963239D01*
X33571580Y42963239D02*
X33619200Y43010858D01*
X33619200Y43010858D02*
X33666819Y42963239D01*
X33666819Y42963239D02*
X33619200Y42915620D01*
X33619200Y42915620D02*
X33571580Y42963239D01*
X33571580Y42963239D02*
X33666819Y42963239D01*
X33047771Y42963239D02*
X33095390Y43010858D01*
X33095390Y43010858D02*
X33143009Y42963239D01*
X33143009Y42963239D02*
X33095390Y42915620D01*
X33095390Y42915620D02*
X33047771Y42963239D01*
X33047771Y42963239D02*
X33143009Y42963239D01*
X32666819Y43344191D02*
X32666819Y43963238D01*
X32666819Y43963238D02*
X33047771Y43629905D01*
X33047771Y43629905D02*
X33047771Y43772762D01*
X33047771Y43772762D02*
X33095390Y43868000D01*
X33095390Y43868000D02*
X33143009Y43915619D01*
X33143009Y43915619D02*
X33238247Y43963238D01*
X33238247Y43963238D02*
X33476342Y43963238D01*
X33476342Y43963238D02*
X33571580Y43915619D01*
X33571580Y43915619D02*
X33619200Y43868000D01*
X33619200Y43868000D02*
X33666819Y43772762D01*
X33666819Y43772762D02*
X33666819Y43487048D01*
X33666819Y43487048D02*
X33619200Y43391810D01*
X33619200Y43391810D02*
X33571580Y43344191D01*
X32666819Y44248953D02*
X33666819Y44582286D01*
X33666819Y44582286D02*
X32666819Y44915619D01*
X32666819Y45153715D02*
X32666819Y45772762D01*
X32666819Y45772762D02*
X33047771Y45439429D01*
X33047771Y45439429D02*
X33047771Y45582286D01*
X33047771Y45582286D02*
X33095390Y45677524D01*
X33095390Y45677524D02*
X33143009Y45725143D01*
X33143009Y45725143D02*
X33238247Y45772762D01*
X33238247Y45772762D02*
X33476342Y45772762D01*
X33476342Y45772762D02*
X33571580Y45725143D01*
X33571580Y45725143D02*
X33619200Y45677524D01*
X33619200Y45677524D02*
X33666819Y45582286D01*
X33666819Y45582286D02*
X33666819Y45296572D01*
X33666819Y45296572D02*
X33619200Y45201334D01*
X33619200Y45201334D02*
X33571580Y45153715D01*
X35246819Y42391811D02*
X35246819Y43010858D01*
X35246819Y43010858D02*
X35627771Y42677525D01*
X35627771Y42677525D02*
X35627771Y42820382D01*
X35627771Y42820382D02*
X35675390Y42915620D01*
X35675390Y42915620D02*
X35723009Y42963239D01*
X35723009Y42963239D02*
X35818247Y43010858D01*
X35818247Y43010858D02*
X36056342Y43010858D01*
X36056342Y43010858D02*
X36151580Y42963239D01*
X36151580Y42963239D02*
X36199200Y42915620D01*
X36199200Y42915620D02*
X36246819Y42820382D01*
X36246819Y42820382D02*
X36246819Y42534668D01*
X36246819Y42534668D02*
X36199200Y42439430D01*
X36199200Y42439430D02*
X36151580Y42391811D01*
X36151580Y43439430D02*
X36199200Y43487049D01*
X36199200Y43487049D02*
X36246819Y43439430D01*
X36246819Y43439430D02*
X36199200Y43391811D01*
X36199200Y43391811D02*
X36151580Y43439430D01*
X36151580Y43439430D02*
X36246819Y43439430D01*
X35627771Y43439430D02*
X35675390Y43487049D01*
X35675390Y43487049D02*
X35723009Y43439430D01*
X35723009Y43439430D02*
X35675390Y43391811D01*
X35675390Y43391811D02*
X35627771Y43439430D01*
X35627771Y43439430D02*
X35723009Y43439430D01*
X35246819Y44106096D02*
X35246819Y44201334D01*
X35246819Y44201334D02*
X35294438Y44296572D01*
X35294438Y44296572D02*
X35342057Y44344191D01*
X35342057Y44344191D02*
X35437295Y44391810D01*
X35437295Y44391810D02*
X35627771Y44439429D01*
X35627771Y44439429D02*
X35865866Y44439429D01*
X35865866Y44439429D02*
X36056342Y44391810D01*
X36056342Y44391810D02*
X36151580Y44344191D01*
X36151580Y44344191D02*
X36199200Y44296572D01*
X36199200Y44296572D02*
X36246819Y44201334D01*
X36246819Y44201334D02*
X36246819Y44106096D01*
X36246819Y44106096D02*
X36199200Y44010858D01*
X36199200Y44010858D02*
X36151580Y43963239D01*
X36151580Y43963239D02*
X36056342Y43915620D01*
X36056342Y43915620D02*
X35865866Y43868001D01*
X35865866Y43868001D02*
X35627771Y43868001D01*
X35627771Y43868001D02*
X35437295Y43915620D01*
X35437295Y43915620D02*
X35342057Y43963239D01*
X35342057Y43963239D02*
X35294438Y44010858D01*
X35294438Y44010858D02*
X35246819Y44106096D01*
X35246819Y44725144D02*
X36246819Y45058477D01*
X36246819Y45058477D02*
X35246819Y45391810D01*
X54166819Y58534667D02*
X54166819Y57963239D01*
X54166819Y58248953D02*
X53166819Y58248953D01*
X53166819Y58248953D02*
X53309676Y58153715D01*
X53309676Y58153715D02*
X53404914Y58058477D01*
X53404914Y58058477D02*
X53452533Y57963239D01*
X54071580Y58963239D02*
X54119200Y59010858D01*
X54119200Y59010858D02*
X54166819Y58963239D01*
X54166819Y58963239D02*
X54119200Y58915620D01*
X54119200Y58915620D02*
X54071580Y58963239D01*
X54071580Y58963239D02*
X54166819Y58963239D01*
X53547771Y58963239D02*
X53595390Y59010858D01*
X53595390Y59010858D02*
X53643009Y58963239D01*
X53643009Y58963239D02*
X53595390Y58915620D01*
X53595390Y58915620D02*
X53547771Y58963239D01*
X53547771Y58963239D02*
X53643009Y58963239D01*
X53166819Y59868000D02*
X53166819Y59677524D01*
X53166819Y59677524D02*
X53214438Y59582286D01*
X53214438Y59582286D02*
X53262057Y59534667D01*
X53262057Y59534667D02*
X53404914Y59439429D01*
X53404914Y59439429D02*
X53595390Y59391810D01*
X53595390Y59391810D02*
X53976342Y59391810D01*
X53976342Y59391810D02*
X54071580Y59439429D01*
X54071580Y59439429D02*
X54119200Y59487048D01*
X54119200Y59487048D02*
X54166819Y59582286D01*
X54166819Y59582286D02*
X54166819Y59772762D01*
X54166819Y59772762D02*
X54119200Y59868000D01*
X54119200Y59868000D02*
X54071580Y59915619D01*
X54071580Y59915619D02*
X53976342Y59963238D01*
X53976342Y59963238D02*
X53738247Y59963238D01*
X53738247Y59963238D02*
X53643009Y59915619D01*
X53643009Y59915619D02*
X53595390Y59868000D01*
X53595390Y59868000D02*
X53547771Y59772762D01*
X53547771Y59772762D02*
X53547771Y59582286D01*
X53547771Y59582286D02*
X53595390Y59487048D01*
X53595390Y59487048D02*
X53643009Y59439429D01*
X53643009Y59439429D02*
X53738247Y59391810D01*
X53166819Y60248953D02*
X54166819Y60582286D01*
X54166819Y60582286D02*
X53166819Y60915619D01*
X53166819Y61725143D02*
X53166819Y61248953D01*
X53166819Y61248953D02*
X53643009Y61201334D01*
X53643009Y61201334D02*
X53595390Y61248953D01*
X53595390Y61248953D02*
X53547771Y61344191D01*
X53547771Y61344191D02*
X53547771Y61582286D01*
X53547771Y61582286D02*
X53595390Y61677524D01*
X53595390Y61677524D02*
X53643009Y61725143D01*
X53643009Y61725143D02*
X53738247Y61772762D01*
X53738247Y61772762D02*
X53976342Y61772762D01*
X53976342Y61772762D02*
X54071580Y61725143D01*
X54071580Y61725143D02*
X54119200Y61677524D01*
X54119200Y61677524D02*
X54166819Y61582286D01*
X54166819Y61582286D02*
X54166819Y61344191D01*
X54166819Y61344191D02*
X54119200Y61248953D01*
X54119200Y61248953D02*
X54071580Y61201334D01*
X66262057Y58344192D02*
X66214438Y58391811D01*
X66214438Y58391811D02*
X66166819Y58487049D01*
X66166819Y58487049D02*
X66166819Y58725144D01*
X66166819Y58725144D02*
X66214438Y58820382D01*
X66214438Y58820382D02*
X66262057Y58868001D01*
X66262057Y58868001D02*
X66357295Y58915620D01*
X66357295Y58915620D02*
X66452533Y58915620D01*
X66452533Y58915620D02*
X66595390Y58868001D01*
X66595390Y58868001D02*
X67166819Y58296573D01*
X67166819Y58296573D02*
X67166819Y58915620D01*
X67071580Y59344192D02*
X67119200Y59391811D01*
X67119200Y59391811D02*
X67166819Y59344192D01*
X67166819Y59344192D02*
X67119200Y59296573D01*
X67119200Y59296573D02*
X67071580Y59344192D01*
X67071580Y59344192D02*
X67166819Y59344192D01*
X66547771Y59344192D02*
X66595390Y59391811D01*
X66595390Y59391811D02*
X66643009Y59344192D01*
X66643009Y59344192D02*
X66595390Y59296573D01*
X66595390Y59296573D02*
X66547771Y59344192D01*
X66547771Y59344192D02*
X66643009Y59344192D01*
X67166819Y60391810D02*
X66690628Y60058477D01*
X67166819Y59820382D02*
X66166819Y59820382D01*
X66166819Y59820382D02*
X66166819Y60201334D01*
X66166819Y60201334D02*
X66214438Y60296572D01*
X66214438Y60296572D02*
X66262057Y60344191D01*
X66262057Y60344191D02*
X66357295Y60391810D01*
X66357295Y60391810D02*
X66500152Y60391810D01*
X66500152Y60391810D02*
X66595390Y60344191D01*
X66595390Y60344191D02*
X66643009Y60296572D01*
X66643009Y60296572D02*
X66690628Y60201334D01*
X66690628Y60201334D02*
X66690628Y59820382D01*
X67071580Y61391810D02*
X67119200Y61344191D01*
X67119200Y61344191D02*
X67166819Y61201334D01*
X67166819Y61201334D02*
X67166819Y61106096D01*
X67166819Y61106096D02*
X67119200Y60963239D01*
X67119200Y60963239D02*
X67023961Y60868001D01*
X67023961Y60868001D02*
X66928723Y60820382D01*
X66928723Y60820382D02*
X66738247Y60772763D01*
X66738247Y60772763D02*
X66595390Y60772763D01*
X66595390Y60772763D02*
X66404914Y60820382D01*
X66404914Y60820382D02*
X66309676Y60868001D01*
X66309676Y60868001D02*
X66214438Y60963239D01*
X66214438Y60963239D02*
X66166819Y61106096D01*
X66166819Y61106096D02*
X66166819Y61201334D01*
X66166819Y61201334D02*
X66214438Y61344191D01*
X66214438Y61344191D02*
X66262057Y61391810D01*
X77338177Y35342461D02*
X77290558Y35390080D01*
X77290558Y35390080D02*
X77242939Y35485318D01*
X77242939Y35485318D02*
X77242939Y35723413D01*
X77242939Y35723413D02*
X77290558Y35818651D01*
X77290558Y35818651D02*
X77338177Y35866270D01*
X77338177Y35866270D02*
X77433415Y35913889D01*
X77433415Y35913889D02*
X77528653Y35913889D01*
X77528653Y35913889D02*
X77671510Y35866270D01*
X77671510Y35866270D02*
X78242939Y35294842D01*
X78242939Y35294842D02*
X78242939Y35913889D01*
X78147700Y36342461D02*
X78195320Y36390080D01*
X78195320Y36390080D02*
X78242939Y36342461D01*
X78242939Y36342461D02*
X78195320Y36294842D01*
X78195320Y36294842D02*
X78147700Y36342461D01*
X78147700Y36342461D02*
X78242939Y36342461D01*
X77623891Y36342461D02*
X77671510Y36390080D01*
X77671510Y36390080D02*
X77719129Y36342461D01*
X77719129Y36342461D02*
X77671510Y36294842D01*
X77671510Y36294842D02*
X77623891Y36342461D01*
X77623891Y36342461D02*
X77719129Y36342461D01*
X77719129Y37151984D02*
X77766748Y37294841D01*
X77766748Y37294841D02*
X77814367Y37342460D01*
X77814367Y37342460D02*
X77909605Y37390079D01*
X77909605Y37390079D02*
X78052462Y37390079D01*
X78052462Y37390079D02*
X78147700Y37342460D01*
X78147700Y37342460D02*
X78195320Y37294841D01*
X78195320Y37294841D02*
X78242939Y37199603D01*
X78242939Y37199603D02*
X78242939Y36818651D01*
X78242939Y36818651D02*
X77242939Y36818651D01*
X77242939Y36818651D02*
X77242939Y37151984D01*
X77242939Y37151984D02*
X77290558Y37247222D01*
X77290558Y37247222D02*
X77338177Y37294841D01*
X77338177Y37294841D02*
X77433415Y37342460D01*
X77433415Y37342460D02*
X77528653Y37342460D01*
X77528653Y37342460D02*
X77623891Y37294841D01*
X77623891Y37294841D02*
X77671510Y37247222D01*
X77671510Y37247222D02*
X77719129Y37151984D01*
X77719129Y37151984D02*
X77719129Y36818651D01*
X77861986Y37818651D02*
X77861986Y38580555D01*
X84262057Y58320382D02*
X84214438Y58368001D01*
X84214438Y58368001D02*
X84166819Y58463239D01*
X84166819Y58463239D02*
X84166819Y58701334D01*
X84166819Y58701334D02*
X84214438Y58796572D01*
X84214438Y58796572D02*
X84262057Y58844191D01*
X84262057Y58844191D02*
X84357295Y58891810D01*
X84357295Y58891810D02*
X84452533Y58891810D01*
X84452533Y58891810D02*
X84595390Y58844191D01*
X84595390Y58844191D02*
X85166819Y58272763D01*
X85166819Y58272763D02*
X85166819Y58891810D01*
X85071580Y59320382D02*
X85119200Y59368001D01*
X85119200Y59368001D02*
X85166819Y59320382D01*
X85166819Y59320382D02*
X85119200Y59272763D01*
X85119200Y59272763D02*
X85071580Y59320382D01*
X85071580Y59320382D02*
X85166819Y59320382D01*
X84547771Y59320382D02*
X84595390Y59368001D01*
X84595390Y59368001D02*
X84643009Y59320382D01*
X84643009Y59320382D02*
X84595390Y59272763D01*
X84595390Y59272763D02*
X84547771Y59320382D01*
X84547771Y59320382D02*
X84643009Y59320382D01*
X85166819Y60368000D02*
X84690628Y60034667D01*
X85166819Y59796572D02*
X84166819Y59796572D01*
X84166819Y59796572D02*
X84166819Y60177524D01*
X84166819Y60177524D02*
X84214438Y60272762D01*
X84214438Y60272762D02*
X84262057Y60320381D01*
X84262057Y60320381D02*
X84357295Y60368000D01*
X84357295Y60368000D02*
X84500152Y60368000D01*
X84500152Y60368000D02*
X84595390Y60320381D01*
X84595390Y60320381D02*
X84643009Y60272762D01*
X84643009Y60272762D02*
X84690628Y60177524D01*
X84690628Y60177524D02*
X84690628Y59796572D01*
X84166819Y60987048D02*
X84166819Y61177524D01*
X84166819Y61177524D02*
X84214438Y61272762D01*
X84214438Y61272762D02*
X84309676Y61368000D01*
X84309676Y61368000D02*
X84500152Y61415619D01*
X84500152Y61415619D02*
X84833485Y61415619D01*
X84833485Y61415619D02*
X85023961Y61368000D01*
X85023961Y61368000D02*
X85119200Y61272762D01*
X85119200Y61272762D02*
X85166819Y61177524D01*
X85166819Y61177524D02*
X85166819Y60987048D01*
X85166819Y60987048D02*
X85119200Y60891810D01*
X85119200Y60891810D02*
X85023961Y60796572D01*
X85023961Y60796572D02*
X84833485Y60748953D01*
X84833485Y60748953D02*
X84500152Y60748953D01*
X84500152Y60748953D02*
X84309676Y60796572D01*
X84309676Y60796572D02*
X84214438Y60891810D01*
X84214438Y60891810D02*
X84166819Y60987048D01*
X89666819Y34725144D02*
X89666819Y35344191D01*
X89666819Y35344191D02*
X90047771Y35010858D01*
X90047771Y35010858D02*
X90047771Y35153715D01*
X90047771Y35153715D02*
X90095390Y35248953D01*
X90095390Y35248953D02*
X90143009Y35296572D01*
X90143009Y35296572D02*
X90238247Y35344191D01*
X90238247Y35344191D02*
X90476342Y35344191D01*
X90476342Y35344191D02*
X90571580Y35296572D01*
X90571580Y35296572D02*
X90619200Y35248953D01*
X90619200Y35248953D02*
X90666819Y35153715D01*
X90666819Y35153715D02*
X90666819Y34868001D01*
X90666819Y34868001D02*
X90619200Y34772763D01*
X90619200Y34772763D02*
X90571580Y34725144D01*
X90571580Y35772763D02*
X90619200Y35820382D01*
X90619200Y35820382D02*
X90666819Y35772763D01*
X90666819Y35772763D02*
X90619200Y35725144D01*
X90619200Y35725144D02*
X90571580Y35772763D01*
X90571580Y35772763D02*
X90666819Y35772763D01*
X90047771Y35772763D02*
X90095390Y35820382D01*
X90095390Y35820382D02*
X90143009Y35772763D01*
X90143009Y35772763D02*
X90095390Y35725144D01*
X90095390Y35725144D02*
X90047771Y35772763D01*
X90047771Y35772763D02*
X90143009Y35772763D01*
X90143009Y36248953D02*
X90143009Y36582286D01*
X90666819Y36725143D02*
X90666819Y36248953D01*
X90666819Y36248953D02*
X89666819Y36248953D01*
X89666819Y36248953D02*
X89666819Y36725143D01*
X90285866Y37153715D02*
X90285866Y37915619D01*
X89973905Y14113181D02*
X89973905Y13303658D01*
X89973905Y13303658D02*
X90021524Y13208420D01*
X90021524Y13208420D02*
X90069143Y13160800D01*
X90069143Y13160800D02*
X90164381Y13113181D01*
X90164381Y13113181D02*
X90354857Y13113181D01*
X90354857Y13113181D02*
X90450095Y13160800D01*
X90450095Y13160800D02*
X90497714Y13208420D01*
X90497714Y13208420D02*
X90545333Y13303658D01*
X90545333Y13303658D02*
X90545333Y14113181D01*
X90973905Y14017943D02*
X91021524Y14065562D01*
X91021524Y14065562D02*
X91116762Y14113181D01*
X91116762Y14113181D02*
X91354857Y14113181D01*
X91354857Y14113181D02*
X91450095Y14065562D01*
X91450095Y14065562D02*
X91497714Y14017943D01*
X91497714Y14017943D02*
X91545333Y13922705D01*
X91545333Y13922705D02*
X91545333Y13827467D01*
X91545333Y13827467D02*
X91497714Y13684610D01*
X91497714Y13684610D02*
X90926286Y13113181D01*
X90926286Y13113181D02*
X91545333Y13113181D01*
X92164381Y14113181D02*
X92259619Y14113181D01*
X92259619Y14113181D02*
X92354857Y14065562D01*
X92354857Y14065562D02*
X92402476Y14017943D01*
X92402476Y14017943D02*
X92450095Y13922705D01*
X92450095Y13922705D02*
X92497714Y13732229D01*
X92497714Y13732229D02*
X92497714Y13494134D01*
X92497714Y13494134D02*
X92450095Y13303658D01*
X92450095Y13303658D02*
X92402476Y13208420D01*
X92402476Y13208420D02*
X92354857Y13160800D01*
X92354857Y13160800D02*
X92259619Y13113181D01*
X92259619Y13113181D02*
X92164381Y13113181D01*
X92164381Y13113181D02*
X92069143Y13160800D01*
X92069143Y13160800D02*
X92021524Y13208420D01*
X92021524Y13208420D02*
X91973905Y13303658D01*
X91973905Y13303658D02*
X91926286Y13494134D01*
X91926286Y13494134D02*
X91926286Y13732229D01*
X91926286Y13732229D02*
X91973905Y13922705D01*
X91973905Y13922705D02*
X92021524Y14017943D01*
X92021524Y14017943D02*
X92069143Y14065562D01*
X92069143Y14065562D02*
X92164381Y14113181D01*
X21813297Y44679603D02*
X21813297Y45679603D01*
X21813297Y45679603D02*
X22051392Y45679603D01*
X22051392Y45679603D02*
X22194249Y45631984D01*
X22194249Y45631984D02*
X22289487Y45536746D01*
X22289487Y45536746D02*
X22337106Y45441508D01*
X22337106Y45441508D02*
X22384725Y45251032D01*
X22384725Y45251032D02*
X22384725Y45108175D01*
X22384725Y45108175D02*
X22337106Y44917699D01*
X22337106Y44917699D02*
X22289487Y44822461D01*
X22289487Y44822461D02*
X22194249Y44727222D01*
X22194249Y44727222D02*
X22051392Y44679603D01*
X22051392Y44679603D02*
X21813297Y44679603D01*
X22956154Y45251032D02*
X22860916Y45298651D01*
X22860916Y45298651D02*
X22813297Y45346270D01*
X22813297Y45346270D02*
X22765678Y45441508D01*
X22765678Y45441508D02*
X22765678Y45489127D01*
X22765678Y45489127D02*
X22813297Y45584365D01*
X22813297Y45584365D02*
X22860916Y45631984D01*
X22860916Y45631984D02*
X22956154Y45679603D01*
X22956154Y45679603D02*
X23146630Y45679603D01*
X23146630Y45679603D02*
X23241868Y45631984D01*
X23241868Y45631984D02*
X23289487Y45584365D01*
X23289487Y45584365D02*
X23337106Y45489127D01*
X23337106Y45489127D02*
X23337106Y45441508D01*
X23337106Y45441508D02*
X23289487Y45346270D01*
X23289487Y45346270D02*
X23241868Y45298651D01*
X23241868Y45298651D02*
X23146630Y45251032D01*
X23146630Y45251032D02*
X22956154Y45251032D01*
X22956154Y45251032D02*
X22860916Y45203413D01*
X22860916Y45203413D02*
X22813297Y45155794D01*
X22813297Y45155794D02*
X22765678Y45060556D01*
X22765678Y45060556D02*
X22765678Y44870080D01*
X22765678Y44870080D02*
X22813297Y44774842D01*
X22813297Y44774842D02*
X22860916Y44727222D01*
X22860916Y44727222D02*
X22956154Y44679603D01*
X22956154Y44679603D02*
X23146630Y44679603D01*
X23146630Y44679603D02*
X23241868Y44727222D01*
X23241868Y44727222D02*
X23289487Y44774842D01*
X23289487Y44774842D02*
X23337106Y44870080D01*
X23337106Y44870080D02*
X23337106Y45060556D01*
X23337106Y45060556D02*
X23289487Y45155794D01*
X23289487Y45155794D02*
X23241868Y45203413D01*
X23241868Y45203413D02*
X23146630Y45251032D01*
X23973905Y6413181D02*
X23973905Y5603658D01*
X23973905Y5603658D02*
X24021524Y5508420D01*
X24021524Y5508420D02*
X24069143Y5460800D01*
X24069143Y5460800D02*
X24164381Y5413181D01*
X24164381Y5413181D02*
X24354857Y5413181D01*
X24354857Y5413181D02*
X24450095Y5460800D01*
X24450095Y5460800D02*
X24497714Y5508420D01*
X24497714Y5508420D02*
X24545333Y5603658D01*
X24545333Y5603658D02*
X24545333Y6413181D01*
X24973905Y6317943D02*
X25021524Y6365562D01*
X25021524Y6365562D02*
X25116762Y6413181D01*
X25116762Y6413181D02*
X25354857Y6413181D01*
X25354857Y6413181D02*
X25450095Y6365562D01*
X25450095Y6365562D02*
X25497714Y6317943D01*
X25497714Y6317943D02*
X25545333Y6222705D01*
X25545333Y6222705D02*
X25545333Y6127467D01*
X25545333Y6127467D02*
X25497714Y5984610D01*
X25497714Y5984610D02*
X24926286Y5413181D01*
X24926286Y5413181D02*
X25545333Y5413181D01*
X26402476Y6079848D02*
X26402476Y5413181D01*
X26164381Y6460800D02*
X25926286Y5746515D01*
X25926286Y5746515D02*
X26545333Y5746515D01*
X23788139Y54937157D02*
X24502424Y54937157D01*
X24502424Y54937157D02*
X24645281Y54889538D01*
X24645281Y54889538D02*
X24740520Y54794300D01*
X24740520Y54794300D02*
X24788139Y54651443D01*
X24788139Y54651443D02*
X24788139Y54556205D01*
X24788139Y55937157D02*
X24788139Y55365729D01*
X24788139Y55651443D02*
X23788139Y55651443D01*
X23788139Y55651443D02*
X23930996Y55556205D01*
X23930996Y55556205D02*
X24026234Y55460967D01*
X24026234Y55460967D02*
X24073853Y55365729D01*
X24788139Y56413348D02*
X24788139Y56603824D01*
X24788139Y56603824D02*
X24740520Y56699062D01*
X24740520Y56699062D02*
X24692900Y56746681D01*
X24692900Y56746681D02*
X24550043Y56841919D01*
X24550043Y56841919D02*
X24359567Y56889538D01*
X24359567Y56889538D02*
X23978615Y56889538D01*
X23978615Y56889538D02*
X23883377Y56841919D01*
X23883377Y56841919D02*
X23835758Y56794300D01*
X23835758Y56794300D02*
X23788139Y56699062D01*
X23788139Y56699062D02*
X23788139Y56508586D01*
X23788139Y56508586D02*
X23835758Y56413348D01*
X23835758Y56413348D02*
X23883377Y56365729D01*
X23883377Y56365729D02*
X23978615Y56318110D01*
X23978615Y56318110D02*
X24216710Y56318110D01*
X24216710Y56318110D02*
X24311948Y56365729D01*
X24311948Y56365729D02*
X24359567Y56413348D01*
X24359567Y56413348D02*
X24407186Y56508586D01*
X24407186Y56508586D02*
X24407186Y56699062D01*
X24407186Y56699062D02*
X24359567Y56794300D01*
X24359567Y56794300D02*
X24311948Y56841919D01*
X24311948Y56841919D02*
X24216710Y56889538D01*
X79402476Y58713181D02*
X79402476Y57998896D01*
X79402476Y57998896D02*
X79354857Y57856039D01*
X79354857Y57856039D02*
X79259619Y57760800D01*
X79259619Y57760800D02*
X79116762Y57713181D01*
X79116762Y57713181D02*
X79021524Y57713181D01*
X80402476Y57713181D02*
X79831048Y57713181D01*
X80116762Y57713181D02*
X80116762Y58713181D01*
X80116762Y58713181D02*
X80021524Y58570324D01*
X80021524Y58570324D02*
X79926286Y58475086D01*
X79926286Y58475086D02*
X79831048Y58427467D01*
X80973905Y58284610D02*
X80878667Y58332229D01*
X80878667Y58332229D02*
X80831048Y58379848D01*
X80831048Y58379848D02*
X80783429Y58475086D01*
X80783429Y58475086D02*
X80783429Y58522705D01*
X80783429Y58522705D02*
X80831048Y58617943D01*
X80831048Y58617943D02*
X80878667Y58665562D01*
X80878667Y58665562D02*
X80973905Y58713181D01*
X80973905Y58713181D02*
X81164381Y58713181D01*
X81164381Y58713181D02*
X81259619Y58665562D01*
X81259619Y58665562D02*
X81307238Y58617943D01*
X81307238Y58617943D02*
X81354857Y58522705D01*
X81354857Y58522705D02*
X81354857Y58475086D01*
X81354857Y58475086D02*
X81307238Y58379848D01*
X81307238Y58379848D02*
X81259619Y58332229D01*
X81259619Y58332229D02*
X81164381Y58284610D01*
X81164381Y58284610D02*
X80973905Y58284610D01*
X80973905Y58284610D02*
X80878667Y58236991D01*
X80878667Y58236991D02*
X80831048Y58189372D01*
X80831048Y58189372D02*
X80783429Y58094134D01*
X80783429Y58094134D02*
X80783429Y57903658D01*
X80783429Y57903658D02*
X80831048Y57808420D01*
X80831048Y57808420D02*
X80878667Y57760800D01*
X80878667Y57760800D02*
X80973905Y57713181D01*
X80973905Y57713181D02*
X81164381Y57713181D01*
X81164381Y57713181D02*
X81259619Y57760800D01*
X81259619Y57760800D02*
X81307238Y57808420D01*
X81307238Y57808420D02*
X81354857Y57903658D01*
X81354857Y57903658D02*
X81354857Y58094134D01*
X81354857Y58094134D02*
X81307238Y58189372D01*
X81307238Y58189372D02*
X81259619Y58236991D01*
X81259619Y58236991D02*
X81164381Y58284610D01*
X79402476Y65913181D02*
X79402476Y65198896D01*
X79402476Y65198896D02*
X79354857Y65056039D01*
X79354857Y65056039D02*
X79259619Y64960800D01*
X79259619Y64960800D02*
X79116762Y64913181D01*
X79116762Y64913181D02*
X79021524Y64913181D01*
X80402476Y64913181D02*
X79831048Y64913181D01*
X80116762Y64913181D02*
X80116762Y65913181D01*
X80116762Y65913181D02*
X80021524Y65770324D01*
X80021524Y65770324D02*
X79926286Y65675086D01*
X79926286Y65675086D02*
X79831048Y65627467D01*
X81307238Y65913181D02*
X80831048Y65913181D01*
X80831048Y65913181D02*
X80783429Y65436991D01*
X80783429Y65436991D02*
X80831048Y65484610D01*
X80831048Y65484610D02*
X80926286Y65532229D01*
X80926286Y65532229D02*
X81164381Y65532229D01*
X81164381Y65532229D02*
X81259619Y65484610D01*
X81259619Y65484610D02*
X81307238Y65436991D01*
X81307238Y65436991D02*
X81354857Y65341753D01*
X81354857Y65341753D02*
X81354857Y65103658D01*
X81354857Y65103658D02*
X81307238Y65008420D01*
X81307238Y65008420D02*
X81259619Y64960800D01*
X81259619Y64960800D02*
X81164381Y64913181D01*
X81164381Y64913181D02*
X80926286Y64913181D01*
X80926286Y64913181D02*
X80831048Y64960800D01*
X80831048Y64960800D02*
X80783429Y65008420D01*
X76069142Y43258420D02*
X76021523Y43210800D01*
X76021523Y43210800D02*
X75878666Y43163181D01*
X75878666Y43163181D02*
X75783428Y43163181D01*
X75783428Y43163181D02*
X75640571Y43210800D01*
X75640571Y43210800D02*
X75545333Y43306039D01*
X75545333Y43306039D02*
X75497714Y43401277D01*
X75497714Y43401277D02*
X75450095Y43591753D01*
X75450095Y43591753D02*
X75450095Y43734610D01*
X75450095Y43734610D02*
X75497714Y43925086D01*
X75497714Y43925086D02*
X75545333Y44020324D01*
X75545333Y44020324D02*
X75640571Y44115562D01*
X75640571Y44115562D02*
X75783428Y44163181D01*
X75783428Y44163181D02*
X75878666Y44163181D01*
X75878666Y44163181D02*
X76021523Y44115562D01*
X76021523Y44115562D02*
X76069142Y44067943D01*
X76402476Y44163181D02*
X77021523Y44163181D01*
X77021523Y44163181D02*
X76688190Y43782229D01*
X76688190Y43782229D02*
X76831047Y43782229D01*
X76831047Y43782229D02*
X76926285Y43734610D01*
X76926285Y43734610D02*
X76973904Y43686991D01*
X76973904Y43686991D02*
X77021523Y43591753D01*
X77021523Y43591753D02*
X77021523Y43353658D01*
X77021523Y43353658D02*
X76973904Y43258420D01*
X76973904Y43258420D02*
X76926285Y43210800D01*
X76926285Y43210800D02*
X76831047Y43163181D01*
X76831047Y43163181D02*
X76545333Y43163181D01*
X76545333Y43163181D02*
X76450095Y43210800D01*
X76450095Y43210800D02*
X76402476Y43258420D01*
X77878666Y44163181D02*
X77688190Y44163181D01*
X77688190Y44163181D02*
X77592952Y44115562D01*
X77592952Y44115562D02*
X77545333Y44067943D01*
X77545333Y44067943D02*
X77450095Y43925086D01*
X77450095Y43925086D02*
X77402476Y43734610D01*
X77402476Y43734610D02*
X77402476Y43353658D01*
X77402476Y43353658D02*
X77450095Y43258420D01*
X77450095Y43258420D02*
X77497714Y43210800D01*
X77497714Y43210800D02*
X77592952Y43163181D01*
X77592952Y43163181D02*
X77783428Y43163181D01*
X77783428Y43163181D02*
X77878666Y43210800D01*
X77878666Y43210800D02*
X77926285Y43258420D01*
X77926285Y43258420D02*
X77973904Y43353658D01*
X77973904Y43353658D02*
X77973904Y43591753D01*
X77973904Y43591753D02*
X77926285Y43686991D01*
X77926285Y43686991D02*
X77878666Y43734610D01*
X77878666Y43734610D02*
X77783428Y43782229D01*
X77783428Y43782229D02*
X77592952Y43782229D01*
X77592952Y43782229D02*
X77497714Y43734610D01*
X77497714Y43734610D02*
X77450095Y43686991D01*
X77450095Y43686991D02*
X77402476Y43591753D01*
X35450095Y47413181D02*
X35450095Y46603658D01*
X35450095Y46603658D02*
X35497714Y46508420D01*
X35497714Y46508420D02*
X35545333Y46460800D01*
X35545333Y46460800D02*
X35640571Y46413181D01*
X35640571Y46413181D02*
X35831047Y46413181D01*
X35831047Y46413181D02*
X35926285Y46460800D01*
X35926285Y46460800D02*
X35973904Y46508420D01*
X35973904Y46508420D02*
X36021523Y46603658D01*
X36021523Y46603658D02*
X36021523Y47413181D01*
X37021523Y46413181D02*
X36450095Y46413181D01*
X36735809Y46413181D02*
X36735809Y47413181D01*
X36735809Y47413181D02*
X36640571Y47270324D01*
X36640571Y47270324D02*
X36545333Y47175086D01*
X36545333Y47175086D02*
X36450095Y47127467D01*
X56803775Y64106180D02*
X56756156Y64058560D01*
X56756156Y64058560D02*
X56613299Y64010941D01*
X56613299Y64010941D02*
X56518061Y64010941D01*
X56518061Y64010941D02*
X56375204Y64058560D01*
X56375204Y64058560D02*
X56279966Y64153799D01*
X56279966Y64153799D02*
X56232347Y64249037D01*
X56232347Y64249037D02*
X56184728Y64439513D01*
X56184728Y64439513D02*
X56184728Y64582370D01*
X56184728Y64582370D02*
X56232347Y64772846D01*
X56232347Y64772846D02*
X56279966Y64868084D01*
X56279966Y64868084D02*
X56375204Y64963322D01*
X56375204Y64963322D02*
X56518061Y65010941D01*
X56518061Y65010941D02*
X56613299Y65010941D01*
X56613299Y65010941D02*
X56756156Y64963322D01*
X56756156Y64963322D02*
X56803775Y64915703D01*
X57137109Y65010941D02*
X57756156Y65010941D01*
X57756156Y65010941D02*
X57422823Y64629989D01*
X57422823Y64629989D02*
X57565680Y64629989D01*
X57565680Y64629989D02*
X57660918Y64582370D01*
X57660918Y64582370D02*
X57708537Y64534751D01*
X57708537Y64534751D02*
X57756156Y64439513D01*
X57756156Y64439513D02*
X57756156Y64201418D01*
X57756156Y64201418D02*
X57708537Y64106180D01*
X57708537Y64106180D02*
X57660918Y64058560D01*
X57660918Y64058560D02*
X57565680Y64010941D01*
X57565680Y64010941D02*
X57279966Y64010941D01*
X57279966Y64010941D02*
X57184728Y64058560D01*
X57184728Y64058560D02*
X57137109Y64106180D01*
X58660918Y65010941D02*
X58184728Y65010941D01*
X58184728Y65010941D02*
X58137109Y64534751D01*
X58137109Y64534751D02*
X58184728Y64582370D01*
X58184728Y64582370D02*
X58279966Y64629989D01*
X58279966Y64629989D02*
X58518061Y64629989D01*
X58518061Y64629989D02*
X58613299Y64582370D01*
X58613299Y64582370D02*
X58660918Y64534751D01*
X58660918Y64534751D02*
X58708537Y64439513D01*
X58708537Y64439513D02*
X58708537Y64201418D01*
X58708537Y64201418D02*
X58660918Y64106180D01*
X58660918Y64106180D02*
X58613299Y64058560D01*
X58613299Y64058560D02*
X58518061Y64010941D01*
X58518061Y64010941D02*
X58279966Y64010941D01*
X58279966Y64010941D02*
X58184728Y64058560D01*
X58184728Y64058560D02*
X58137109Y64106180D01*
X18819142Y50413181D02*
X18485809Y50889372D01*
X18247714Y50413181D02*
X18247714Y51413181D01*
X18247714Y51413181D02*
X18628666Y51413181D01*
X18628666Y51413181D02*
X18723904Y51365562D01*
X18723904Y51365562D02*
X18771523Y51317943D01*
X18771523Y51317943D02*
X18819142Y51222705D01*
X18819142Y51222705D02*
X18819142Y51079848D01*
X18819142Y51079848D02*
X18771523Y50984610D01*
X18771523Y50984610D02*
X18723904Y50936991D01*
X18723904Y50936991D02*
X18628666Y50889372D01*
X18628666Y50889372D02*
X18247714Y50889372D01*
X19676285Y51413181D02*
X19485809Y51413181D01*
X19485809Y51413181D02*
X19390571Y51365562D01*
X19390571Y51365562D02*
X19342952Y51317943D01*
X19342952Y51317943D02*
X19247714Y51175086D01*
X19247714Y51175086D02*
X19200095Y50984610D01*
X19200095Y50984610D02*
X19200095Y50603658D01*
X19200095Y50603658D02*
X19247714Y50508420D01*
X19247714Y50508420D02*
X19295333Y50460800D01*
X19295333Y50460800D02*
X19390571Y50413181D01*
X19390571Y50413181D02*
X19581047Y50413181D01*
X19581047Y50413181D02*
X19676285Y50460800D01*
X19676285Y50460800D02*
X19723904Y50508420D01*
X19723904Y50508420D02*
X19771523Y50603658D01*
X19771523Y50603658D02*
X19771523Y50841753D01*
X19771523Y50841753D02*
X19723904Y50936991D01*
X19723904Y50936991D02*
X19676285Y50984610D01*
X19676285Y50984610D02*
X19581047Y51032229D01*
X19581047Y51032229D02*
X19390571Y51032229D01*
X19390571Y51032229D02*
X19295333Y50984610D01*
X19295333Y50984610D02*
X19247714Y50936991D01*
X19247714Y50936991D02*
X19200095Y50841753D01*
X20723904Y50413181D02*
X20152476Y50413181D01*
X20438190Y50413181D02*
X20438190Y51413181D01*
X20438190Y51413181D02*
X20342952Y51270324D01*
X20342952Y51270324D02*
X20247714Y51175086D01*
X20247714Y51175086D02*
X20152476Y51127467D01*
X29450095Y27413181D02*
X29450095Y26603658D01*
X29450095Y26603658D02*
X29497714Y26508420D01*
X29497714Y26508420D02*
X29545333Y26460800D01*
X29545333Y26460800D02*
X29640571Y26413181D01*
X29640571Y26413181D02*
X29831047Y26413181D01*
X29831047Y26413181D02*
X29926285Y26460800D01*
X29926285Y26460800D02*
X29973904Y26508420D01*
X29973904Y26508420D02*
X30021523Y26603658D01*
X30021523Y26603658D02*
X30021523Y27413181D01*
X30450095Y27317943D02*
X30497714Y27365562D01*
X30497714Y27365562D02*
X30592952Y27413181D01*
X30592952Y27413181D02*
X30831047Y27413181D01*
X30831047Y27413181D02*
X30926285Y27365562D01*
X30926285Y27365562D02*
X30973904Y27317943D01*
X30973904Y27317943D02*
X31021523Y27222705D01*
X31021523Y27222705D02*
X31021523Y27127467D01*
X31021523Y27127467D02*
X30973904Y26984610D01*
X30973904Y26984610D02*
X30402476Y26413181D01*
X30402476Y26413181D02*
X31021523Y26413181D01*
X89506748Y51234397D02*
X89506748Y50424874D01*
X89506748Y50424874D02*
X89554367Y50329636D01*
X89554367Y50329636D02*
X89601986Y50282016D01*
X89601986Y50282016D02*
X89697224Y50234397D01*
X89697224Y50234397D02*
X89887700Y50234397D01*
X89887700Y50234397D02*
X89982938Y50282016D01*
X89982938Y50282016D02*
X90030557Y50329636D01*
X90030557Y50329636D02*
X90078176Y50424874D01*
X90078176Y50424874D02*
X90078176Y51234397D01*
X91078176Y50234397D02*
X90506748Y50234397D01*
X90792462Y50234397D02*
X90792462Y51234397D01*
X90792462Y51234397D02*
X90697224Y51091540D01*
X90697224Y51091540D02*
X90601986Y50996302D01*
X90601986Y50996302D02*
X90506748Y50948683D01*
X91649605Y50805826D02*
X91554367Y50853445D01*
X91554367Y50853445D02*
X91506748Y50901064D01*
X91506748Y50901064D02*
X91459129Y50996302D01*
X91459129Y50996302D02*
X91459129Y51043921D01*
X91459129Y51043921D02*
X91506748Y51139159D01*
X91506748Y51139159D02*
X91554367Y51186778D01*
X91554367Y51186778D02*
X91649605Y51234397D01*
X91649605Y51234397D02*
X91840081Y51234397D01*
X91840081Y51234397D02*
X91935319Y51186778D01*
X91935319Y51186778D02*
X91982938Y51139159D01*
X91982938Y51139159D02*
X92030557Y51043921D01*
X92030557Y51043921D02*
X92030557Y50996302D01*
X92030557Y50996302D02*
X91982938Y50901064D01*
X91982938Y50901064D02*
X91935319Y50853445D01*
X91935319Y50853445D02*
X91840081Y50805826D01*
X91840081Y50805826D02*
X91649605Y50805826D01*
X91649605Y50805826D02*
X91554367Y50758207D01*
X91554367Y50758207D02*
X91506748Y50710588D01*
X91506748Y50710588D02*
X91459129Y50615350D01*
X91459129Y50615350D02*
X91459129Y50424874D01*
X91459129Y50424874D02*
X91506748Y50329636D01*
X91506748Y50329636D02*
X91554367Y50282016D01*
X91554367Y50282016D02*
X91649605Y50234397D01*
X91649605Y50234397D02*
X91840081Y50234397D01*
X91840081Y50234397D02*
X91935319Y50282016D01*
X91935319Y50282016D02*
X91982938Y50329636D01*
X91982938Y50329636D02*
X92030557Y50424874D01*
X92030557Y50424874D02*
X92030557Y50615350D01*
X92030557Y50615350D02*
X91982938Y50710588D01*
X91982938Y50710588D02*
X91935319Y50758207D01*
X91935319Y50758207D02*
X91840081Y50805826D01*
X55569142Y57163181D02*
X55235809Y57639372D01*
X54997714Y57163181D02*
X54997714Y58163181D01*
X54997714Y58163181D02*
X55378666Y58163181D01*
X55378666Y58163181D02*
X55473904Y58115562D01*
X55473904Y58115562D02*
X55521523Y58067943D01*
X55521523Y58067943D02*
X55569142Y57972705D01*
X55569142Y57972705D02*
X55569142Y57829848D01*
X55569142Y57829848D02*
X55521523Y57734610D01*
X55521523Y57734610D02*
X55473904Y57686991D01*
X55473904Y57686991D02*
X55378666Y57639372D01*
X55378666Y57639372D02*
X54997714Y57639372D01*
X56473904Y58163181D02*
X55997714Y58163181D01*
X55997714Y58163181D02*
X55950095Y57686991D01*
X55950095Y57686991D02*
X55997714Y57734610D01*
X55997714Y57734610D02*
X56092952Y57782229D01*
X56092952Y57782229D02*
X56331047Y57782229D01*
X56331047Y57782229D02*
X56426285Y57734610D01*
X56426285Y57734610D02*
X56473904Y57686991D01*
X56473904Y57686991D02*
X56521523Y57591753D01*
X56521523Y57591753D02*
X56521523Y57353658D01*
X56521523Y57353658D02*
X56473904Y57258420D01*
X56473904Y57258420D02*
X56426285Y57210800D01*
X56426285Y57210800D02*
X56331047Y57163181D01*
X56331047Y57163181D02*
X56092952Y57163181D01*
X56092952Y57163181D02*
X55997714Y57210800D01*
X55997714Y57210800D02*
X55950095Y57258420D01*
X56854857Y58163181D02*
X57521523Y58163181D01*
X57521523Y58163181D02*
X57092952Y57163181D01*
X47166819Y41225143D02*
X46690628Y40891810D01*
X47166819Y40653715D02*
X46166819Y40653715D01*
X46166819Y40653715D02*
X46166819Y41034667D01*
X46166819Y41034667D02*
X46214438Y41129905D01*
X46214438Y41129905D02*
X46262057Y41177524D01*
X46262057Y41177524D02*
X46357295Y41225143D01*
X46357295Y41225143D02*
X46500152Y41225143D01*
X46500152Y41225143D02*
X46595390Y41177524D01*
X46595390Y41177524D02*
X46643009Y41129905D01*
X46643009Y41129905D02*
X46690628Y41034667D01*
X46690628Y41034667D02*
X46690628Y40653715D01*
X46166819Y42129905D02*
X46166819Y41653715D01*
X46166819Y41653715D02*
X46643009Y41606096D01*
X46643009Y41606096D02*
X46595390Y41653715D01*
X46595390Y41653715D02*
X46547771Y41748953D01*
X46547771Y41748953D02*
X46547771Y41987048D01*
X46547771Y41987048D02*
X46595390Y42082286D01*
X46595390Y42082286D02*
X46643009Y42129905D01*
X46643009Y42129905D02*
X46738247Y42177524D01*
X46738247Y42177524D02*
X46976342Y42177524D01*
X46976342Y42177524D02*
X47071580Y42129905D01*
X47071580Y42129905D02*
X47119200Y42082286D01*
X47119200Y42082286D02*
X47166819Y41987048D01*
X47166819Y41987048D02*
X47166819Y41748953D01*
X47166819Y41748953D02*
X47119200Y41653715D01*
X47119200Y41653715D02*
X47071580Y41606096D01*
X47166819Y42653715D02*
X47166819Y42844191D01*
X47166819Y42844191D02*
X47119200Y42939429D01*
X47119200Y42939429D02*
X47071580Y42987048D01*
X47071580Y42987048D02*
X46928723Y43082286D01*
X46928723Y43082286D02*
X46738247Y43129905D01*
X46738247Y43129905D02*
X46357295Y43129905D01*
X46357295Y43129905D02*
X46262057Y43082286D01*
X46262057Y43082286D02*
X46214438Y43034667D01*
X46214438Y43034667D02*
X46166819Y42939429D01*
X46166819Y42939429D02*
X46166819Y42748953D01*
X46166819Y42748953D02*
X46214438Y42653715D01*
X46214438Y42653715D02*
X46262057Y42606096D01*
X46262057Y42606096D02*
X46357295Y42558477D01*
X46357295Y42558477D02*
X46595390Y42558477D01*
X46595390Y42558477D02*
X46690628Y42606096D01*
X46690628Y42606096D02*
X46738247Y42653715D01*
X46738247Y42653715D02*
X46785866Y42748953D01*
X46785866Y42748953D02*
X46785866Y42939429D01*
X46785866Y42939429D02*
X46738247Y43034667D01*
X46738247Y43034667D02*
X46690628Y43082286D01*
X46690628Y43082286D02*
X46595390Y43129905D01*
X23878666Y65913181D02*
X23878666Y65198896D01*
X23878666Y65198896D02*
X23831047Y65056039D01*
X23831047Y65056039D02*
X23735809Y64960800D01*
X23735809Y64960800D02*
X23592952Y64913181D01*
X23592952Y64913181D02*
X23497714Y64913181D01*
X24878666Y64913181D02*
X24307238Y64913181D01*
X24592952Y64913181D02*
X24592952Y65913181D01*
X24592952Y65913181D02*
X24497714Y65770324D01*
X24497714Y65770324D02*
X24402476Y65675086D01*
X24402476Y65675086D02*
X24307238Y65627467D01*
X10658321Y52146760D02*
X10658321Y53146760D01*
X10658321Y53146760D02*
X10896416Y53146760D01*
X10896416Y53146760D02*
X11039273Y53099141D01*
X11039273Y53099141D02*
X11134511Y53003903D01*
X11134511Y53003903D02*
X11182130Y52908665D01*
X11182130Y52908665D02*
X11229749Y52718189D01*
X11229749Y52718189D02*
X11229749Y52575332D01*
X11229749Y52575332D02*
X11182130Y52384856D01*
X11182130Y52384856D02*
X11134511Y52289618D01*
X11134511Y52289618D02*
X11039273Y52194379D01*
X11039273Y52194379D02*
X10896416Y52146760D01*
X10896416Y52146760D02*
X10658321Y52146760D01*
X12182130Y52146760D02*
X11610702Y52146760D01*
X11896416Y52146760D02*
X11896416Y53146760D01*
X11896416Y53146760D02*
X11801178Y53003903D01*
X11801178Y53003903D02*
X11705940Y52908665D01*
X11705940Y52908665D02*
X11610702Y52861046D01*
X13086892Y53146760D02*
X12610702Y53146760D01*
X12610702Y53146760D02*
X12563083Y52670570D01*
X12563083Y52670570D02*
X12610702Y52718189D01*
X12610702Y52718189D02*
X12705940Y52765808D01*
X12705940Y52765808D02*
X12944035Y52765808D01*
X12944035Y52765808D02*
X13039273Y52718189D01*
X13039273Y52718189D02*
X13086892Y52670570D01*
X13086892Y52670570D02*
X13134511Y52575332D01*
X13134511Y52575332D02*
X13134511Y52337237D01*
X13134511Y52337237D02*
X13086892Y52241999D01*
X13086892Y52241999D02*
X13039273Y52194379D01*
X13039273Y52194379D02*
X12944035Y52146760D01*
X12944035Y52146760D02*
X12705940Y52146760D01*
X12705940Y52146760D02*
X12610702Y52194379D01*
X12610702Y52194379D02*
X12563083Y52241999D01*
X9416819Y48225143D02*
X8940628Y47891810D01*
X9416819Y47653715D02*
X8416819Y47653715D01*
X8416819Y47653715D02*
X8416819Y48034667D01*
X8416819Y48034667D02*
X8464438Y48129905D01*
X8464438Y48129905D02*
X8512057Y48177524D01*
X8512057Y48177524D02*
X8607295Y48225143D01*
X8607295Y48225143D02*
X8750152Y48225143D01*
X8750152Y48225143D02*
X8845390Y48177524D01*
X8845390Y48177524D02*
X8893009Y48129905D01*
X8893009Y48129905D02*
X8940628Y48034667D01*
X8940628Y48034667D02*
X8940628Y47653715D01*
X8416819Y49082286D02*
X8416819Y48891810D01*
X8416819Y48891810D02*
X8464438Y48796572D01*
X8464438Y48796572D02*
X8512057Y48748953D01*
X8512057Y48748953D02*
X8654914Y48653715D01*
X8654914Y48653715D02*
X8845390Y48606096D01*
X8845390Y48606096D02*
X9226342Y48606096D01*
X9226342Y48606096D02*
X9321580Y48653715D01*
X9321580Y48653715D02*
X9369200Y48701334D01*
X9369200Y48701334D02*
X9416819Y48796572D01*
X9416819Y48796572D02*
X9416819Y48987048D01*
X9416819Y48987048D02*
X9369200Y49082286D01*
X9369200Y49082286D02*
X9321580Y49129905D01*
X9321580Y49129905D02*
X9226342Y49177524D01*
X9226342Y49177524D02*
X8988247Y49177524D01*
X8988247Y49177524D02*
X8893009Y49129905D01*
X8893009Y49129905D02*
X8845390Y49082286D01*
X8845390Y49082286D02*
X8797771Y48987048D01*
X8797771Y48987048D02*
X8797771Y48796572D01*
X8797771Y48796572D02*
X8845390Y48701334D01*
X8845390Y48701334D02*
X8893009Y48653715D01*
X8893009Y48653715D02*
X8988247Y48606096D01*
X8512057Y49558477D02*
X8464438Y49606096D01*
X8464438Y49606096D02*
X8416819Y49701334D01*
X8416819Y49701334D02*
X8416819Y49939429D01*
X8416819Y49939429D02*
X8464438Y50034667D01*
X8464438Y50034667D02*
X8512057Y50082286D01*
X8512057Y50082286D02*
X8607295Y50129905D01*
X8607295Y50129905D02*
X8702533Y50129905D01*
X8702533Y50129905D02*
X8845390Y50082286D01*
X8845390Y50082286D02*
X9416819Y49510858D01*
X9416819Y49510858D02*
X9416819Y50129905D01*
X2738095Y63165181D02*
X2738095Y64165181D01*
X2738095Y63688991D02*
X3309523Y63688991D01*
X3309523Y63165181D02*
X3309523Y64165181D01*
X4309523Y63165181D02*
X3738095Y63165181D01*
X4023809Y63165181D02*
X4023809Y64165181D01*
X4023809Y64165181D02*
X3928571Y64022324D01*
X3928571Y64022324D02*
X3833333Y63927086D01*
X3833333Y63927086D02*
X3738095Y63879467D01*
X95434819Y66858096D02*
X94434819Y66858096D01*
X94911009Y66858096D02*
X94911009Y67429524D01*
X95434819Y67429524D02*
X94434819Y67429524D01*
X94530057Y67858096D02*
X94482438Y67905715D01*
X94482438Y67905715D02*
X94434819Y68000953D01*
X94434819Y68000953D02*
X94434819Y68239048D01*
X94434819Y68239048D02*
X94482438Y68334286D01*
X94482438Y68334286D02*
X94530057Y68381905D01*
X94530057Y68381905D02*
X94625295Y68429524D01*
X94625295Y68429524D02*
X94720533Y68429524D01*
X94720533Y68429524D02*
X94863390Y68381905D01*
X94863390Y68381905D02*
X95434819Y67810477D01*
X95434819Y67810477D02*
X95434819Y68429524D01*
X90081047Y39686991D02*
X90223904Y39639372D01*
X90223904Y39639372D02*
X90271523Y39591753D01*
X90271523Y39591753D02*
X90319142Y39496515D01*
X90319142Y39496515D02*
X90319142Y39353658D01*
X90319142Y39353658D02*
X90271523Y39258420D01*
X90271523Y39258420D02*
X90223904Y39210800D01*
X90223904Y39210800D02*
X90128666Y39163181D01*
X90128666Y39163181D02*
X89747714Y39163181D01*
X89747714Y39163181D02*
X89747714Y40163181D01*
X89747714Y40163181D02*
X90081047Y40163181D01*
X90081047Y40163181D02*
X90176285Y40115562D01*
X90176285Y40115562D02*
X90223904Y40067943D01*
X90223904Y40067943D02*
X90271523Y39972705D01*
X90271523Y39972705D02*
X90271523Y39877467D01*
X90271523Y39877467D02*
X90223904Y39782229D01*
X90223904Y39782229D02*
X90176285Y39734610D01*
X90176285Y39734610D02*
X90081047Y39686991D01*
X90081047Y39686991D02*
X89747714Y39686991D01*
X90652476Y40163181D02*
X91319142Y40163181D01*
X91319142Y40163181D02*
X90652476Y39163181D01*
X90652476Y39163181D02*
X91319142Y39163181D01*
X92223904Y39163181D02*
X91652476Y39163181D01*
X91938190Y39163181D02*
X91938190Y40163181D01*
X91938190Y40163181D02*
X91842952Y40020324D01*
X91842952Y40020324D02*
X91747714Y39925086D01*
X91747714Y39925086D02*
X91652476Y39877467D01*
X83581048Y32544134D02*
X84342953Y32544134D01*
X83962000Y32163181D02*
X83962000Y32925086D01*
X60803775Y64010941D02*
X60470442Y64487132D01*
X60232347Y64010941D02*
X60232347Y65010941D01*
X60232347Y65010941D02*
X60613299Y65010941D01*
X60613299Y65010941D02*
X60708537Y64963322D01*
X60708537Y64963322D02*
X60756156Y64915703D01*
X60756156Y64915703D02*
X60803775Y64820465D01*
X60803775Y64820465D02*
X60803775Y64677608D01*
X60803775Y64677608D02*
X60756156Y64582370D01*
X60756156Y64582370D02*
X60708537Y64534751D01*
X60708537Y64534751D02*
X60613299Y64487132D01*
X60613299Y64487132D02*
X60232347Y64487132D01*
X61708537Y65010941D02*
X61232347Y65010941D01*
X61232347Y65010941D02*
X61184728Y64534751D01*
X61184728Y64534751D02*
X61232347Y64582370D01*
X61232347Y64582370D02*
X61327585Y64629989D01*
X61327585Y64629989D02*
X61565680Y64629989D01*
X61565680Y64629989D02*
X61660918Y64582370D01*
X61660918Y64582370D02*
X61708537Y64534751D01*
X61708537Y64534751D02*
X61756156Y64439513D01*
X61756156Y64439513D02*
X61756156Y64201418D01*
X61756156Y64201418D02*
X61708537Y64106180D01*
X61708537Y64106180D02*
X61660918Y64058560D01*
X61660918Y64058560D02*
X61565680Y64010941D01*
X61565680Y64010941D02*
X61327585Y64010941D01*
X61327585Y64010941D02*
X61232347Y64058560D01*
X61232347Y64058560D02*
X61184728Y64106180D01*
X62327585Y64582370D02*
X62232347Y64629989D01*
X62232347Y64629989D02*
X62184728Y64677608D01*
X62184728Y64677608D02*
X62137109Y64772846D01*
X62137109Y64772846D02*
X62137109Y64820465D01*
X62137109Y64820465D02*
X62184728Y64915703D01*
X62184728Y64915703D02*
X62232347Y64963322D01*
X62232347Y64963322D02*
X62327585Y65010941D01*
X62327585Y65010941D02*
X62518061Y65010941D01*
X62518061Y65010941D02*
X62613299Y64963322D01*
X62613299Y64963322D02*
X62660918Y64915703D01*
X62660918Y64915703D02*
X62708537Y64820465D01*
X62708537Y64820465D02*
X62708537Y64772846D01*
X62708537Y64772846D02*
X62660918Y64677608D01*
X62660918Y64677608D02*
X62613299Y64629989D01*
X62613299Y64629989D02*
X62518061Y64582370D01*
X62518061Y64582370D02*
X62327585Y64582370D01*
X62327585Y64582370D02*
X62232347Y64534751D01*
X62232347Y64534751D02*
X62184728Y64487132D01*
X62184728Y64487132D02*
X62137109Y64391894D01*
X62137109Y64391894D02*
X62137109Y64201418D01*
X62137109Y64201418D02*
X62184728Y64106180D01*
X62184728Y64106180D02*
X62232347Y64058560D01*
X62232347Y64058560D02*
X62327585Y64010941D01*
X62327585Y64010941D02*
X62518061Y64010941D01*
X62518061Y64010941D02*
X62613299Y64058560D01*
X62613299Y64058560D02*
X62660918Y64106180D01*
X62660918Y64106180D02*
X62708537Y64201418D01*
X62708537Y64201418D02*
X62708537Y64391894D01*
X62708537Y64391894D02*
X62660918Y64487132D01*
X62660918Y64487132D02*
X62613299Y64534751D01*
X62613299Y64534751D02*
X62518061Y64582370D01*
X2738095Y7045181D02*
X2738095Y8045181D01*
X2738095Y7568991D02*
X3309523Y7568991D01*
X3309523Y7045181D02*
X3309523Y8045181D01*
X4214285Y7711848D02*
X4214285Y7045181D01*
X3976190Y8092800D02*
X3738095Y7378515D01*
X3738095Y7378515D02*
X4357142Y7378515D01*
X49973905Y47413181D02*
X49973905Y46603658D01*
X49973905Y46603658D02*
X50021524Y46508420D01*
X50021524Y46508420D02*
X50069143Y46460800D01*
X50069143Y46460800D02*
X50164381Y46413181D01*
X50164381Y46413181D02*
X50354857Y46413181D01*
X50354857Y46413181D02*
X50450095Y46460800D01*
X50450095Y46460800D02*
X50497714Y46508420D01*
X50497714Y46508420D02*
X50545333Y46603658D01*
X50545333Y46603658D02*
X50545333Y47413181D01*
X51545333Y46413181D02*
X50973905Y46413181D01*
X51259619Y46413181D02*
X51259619Y47413181D01*
X51259619Y47413181D02*
X51164381Y47270324D01*
X51164381Y47270324D02*
X51069143Y47175086D01*
X51069143Y47175086D02*
X50973905Y47127467D01*
X52497714Y46413181D02*
X51926286Y46413181D01*
X52212000Y46413181D02*
X52212000Y47413181D01*
X52212000Y47413181D02*
X52116762Y47270324D01*
X52116762Y47270324D02*
X52021524Y47175086D01*
X52021524Y47175086D02*
X51926286Y47127467D01*
X58973905Y57413181D02*
X58973905Y56603658D01*
X58973905Y56603658D02*
X59021524Y56508420D01*
X59021524Y56508420D02*
X59069143Y56460800D01*
X59069143Y56460800D02*
X59164381Y56413181D01*
X59164381Y56413181D02*
X59354857Y56413181D01*
X59354857Y56413181D02*
X59450095Y56460800D01*
X59450095Y56460800D02*
X59497714Y56508420D01*
X59497714Y56508420D02*
X59545333Y56603658D01*
X59545333Y56603658D02*
X59545333Y57413181D01*
X60450095Y57079848D02*
X60450095Y56413181D01*
X60212000Y57460800D02*
X59973905Y56746515D01*
X59973905Y56746515D02*
X60592952Y56746515D01*
X61450095Y57413181D02*
X60973905Y57413181D01*
X60973905Y57413181D02*
X60926286Y56936991D01*
X60926286Y56936991D02*
X60973905Y56984610D01*
X60973905Y56984610D02*
X61069143Y57032229D01*
X61069143Y57032229D02*
X61307238Y57032229D01*
X61307238Y57032229D02*
X61402476Y56984610D01*
X61402476Y56984610D02*
X61450095Y56936991D01*
X61450095Y56936991D02*
X61497714Y56841753D01*
X61497714Y56841753D02*
X61497714Y56603658D01*
X61497714Y56603658D02*
X61450095Y56508420D01*
X61450095Y56508420D02*
X61402476Y56460800D01*
X61402476Y56460800D02*
X61307238Y56413181D01*
X61307238Y56413181D02*
X61069143Y56413181D01*
X61069143Y56413181D02*
X60973905Y56460800D01*
X60973905Y56460800D02*
X60926286Y56508420D01*
X13063083Y41179603D02*
X13063083Y40465318D01*
X13063083Y40465318D02*
X13015464Y40322461D01*
X13015464Y40322461D02*
X12920226Y40227222D01*
X12920226Y40227222D02*
X12777369Y40179603D01*
X12777369Y40179603D02*
X12682131Y40179603D01*
X14063083Y40179603D02*
X13491655Y40179603D01*
X13777369Y40179603D02*
X13777369Y41179603D01*
X13777369Y41179603D02*
X13682131Y41036746D01*
X13682131Y41036746D02*
X13586893Y40941508D01*
X13586893Y40941508D02*
X13491655Y40893889D01*
X14920226Y41179603D02*
X14729750Y41179603D01*
X14729750Y41179603D02*
X14634512Y41131984D01*
X14634512Y41131984D02*
X14586893Y41084365D01*
X14586893Y41084365D02*
X14491655Y40941508D01*
X14491655Y40941508D02*
X14444036Y40751032D01*
X14444036Y40751032D02*
X14444036Y40370080D01*
X14444036Y40370080D02*
X14491655Y40274842D01*
X14491655Y40274842D02*
X14539274Y40227222D01*
X14539274Y40227222D02*
X14634512Y40179603D01*
X14634512Y40179603D02*
X14824988Y40179603D01*
X14824988Y40179603D02*
X14920226Y40227222D01*
X14920226Y40227222D02*
X14967845Y40274842D01*
X14967845Y40274842D02*
X15015464Y40370080D01*
X15015464Y40370080D02*
X15015464Y40608175D01*
X15015464Y40608175D02*
X14967845Y40703413D01*
X14967845Y40703413D02*
X14920226Y40751032D01*
X14920226Y40751032D02*
X14824988Y40798651D01*
X14824988Y40798651D02*
X14634512Y40798651D01*
X14634512Y40798651D02*
X14539274Y40751032D01*
X14539274Y40751032D02*
X14491655Y40703413D01*
X14491655Y40703413D02*
X14444036Y40608175D01*
X30400397Y55469299D02*
X29400397Y55469299D01*
X29400397Y55469299D02*
X29400397Y55707394D01*
X29400397Y55707394D02*
X29448016Y55850251D01*
X29448016Y55850251D02*
X29543254Y55945489D01*
X29543254Y55945489D02*
X29638492Y55993108D01*
X29638492Y55993108D02*
X29828968Y56040727D01*
X29828968Y56040727D02*
X29971825Y56040727D01*
X29971825Y56040727D02*
X30162301Y55993108D01*
X30162301Y55993108D02*
X30257539Y55945489D01*
X30257539Y55945489D02*
X30352778Y55850251D01*
X30352778Y55850251D02*
X30400397Y55707394D01*
X30400397Y55707394D02*
X30400397Y55469299D01*
X30400397Y56993108D02*
X30400397Y56421680D01*
X30400397Y56707394D02*
X29400397Y56707394D01*
X29400397Y56707394D02*
X29543254Y56612156D01*
X29543254Y56612156D02*
X29638492Y56516918D01*
X29638492Y56516918D02*
X29686111Y56421680D01*
X68450095Y38413181D02*
X68450095Y39413181D01*
X68450095Y38936991D02*
X69021523Y38936991D01*
X69021523Y38413181D02*
X69021523Y39413181D01*
X69926285Y39413181D02*
X69735809Y39413181D01*
X69735809Y39413181D02*
X69640571Y39365562D01*
X69640571Y39365562D02*
X69592952Y39317943D01*
X69592952Y39317943D02*
X69497714Y39175086D01*
X69497714Y39175086D02*
X69450095Y38984610D01*
X69450095Y38984610D02*
X69450095Y38603658D01*
X69450095Y38603658D02*
X69497714Y38508420D01*
X69497714Y38508420D02*
X69545333Y38460800D01*
X69545333Y38460800D02*
X69640571Y38413181D01*
X69640571Y38413181D02*
X69831047Y38413181D01*
X69831047Y38413181D02*
X69926285Y38460800D01*
X69926285Y38460800D02*
X69973904Y38508420D01*
X69973904Y38508420D02*
X70021523Y38603658D01*
X70021523Y38603658D02*
X70021523Y38841753D01*
X70021523Y38841753D02*
X69973904Y38936991D01*
X69973904Y38936991D02*
X69926285Y38984610D01*
X69926285Y38984610D02*
X69831047Y39032229D01*
X69831047Y39032229D02*
X69640571Y39032229D01*
X69640571Y39032229D02*
X69545333Y38984610D01*
X69545333Y38984610D02*
X69497714Y38936991D01*
X69497714Y38936991D02*
X69450095Y38841753D01*
X79270005Y11956459D02*
X79270005Y11146936D01*
X79270005Y11146936D02*
X79317624Y11051698D01*
X79317624Y11051698D02*
X79365243Y11004078D01*
X79365243Y11004078D02*
X79460481Y10956459D01*
X79460481Y10956459D02*
X79650957Y10956459D01*
X79650957Y10956459D02*
X79746195Y11004078D01*
X79746195Y11004078D02*
X79793814Y11051698D01*
X79793814Y11051698D02*
X79841433Y11146936D01*
X79841433Y11146936D02*
X79841433Y11956459D01*
X80270005Y11861221D02*
X80317624Y11908840D01*
X80317624Y11908840D02*
X80412862Y11956459D01*
X80412862Y11956459D02*
X80650957Y11956459D01*
X80650957Y11956459D02*
X80746195Y11908840D01*
X80746195Y11908840D02*
X80793814Y11861221D01*
X80793814Y11861221D02*
X80841433Y11765983D01*
X80841433Y11765983D02*
X80841433Y11670745D01*
X80841433Y11670745D02*
X80793814Y11527888D01*
X80793814Y11527888D02*
X80222386Y10956459D01*
X80222386Y10956459D02*
X80841433Y10956459D01*
X81174767Y11956459D02*
X81793814Y11956459D01*
X81793814Y11956459D02*
X81460481Y11575507D01*
X81460481Y11575507D02*
X81603338Y11575507D01*
X81603338Y11575507D02*
X81698576Y11527888D01*
X81698576Y11527888D02*
X81746195Y11480269D01*
X81746195Y11480269D02*
X81793814Y11385031D01*
X81793814Y11385031D02*
X81793814Y11146936D01*
X81793814Y11146936D02*
X81746195Y11051698D01*
X81746195Y11051698D02*
X81698576Y11004078D01*
X81698576Y11004078D02*
X81603338Y10956459D01*
X81603338Y10956459D02*
X81317624Y10956459D01*
X81317624Y10956459D02*
X81222386Y11004078D01*
X81222386Y11004078D02*
X81174767Y11051698D01*
X4073905Y40913181D02*
X4073905Y40103658D01*
X4073905Y40103658D02*
X4121524Y40008420D01*
X4121524Y40008420D02*
X4169143Y39960800D01*
X4169143Y39960800D02*
X4264381Y39913181D01*
X4264381Y39913181D02*
X4454857Y39913181D01*
X4454857Y39913181D02*
X4550095Y39960800D01*
X4550095Y39960800D02*
X4597714Y40008420D01*
X4597714Y40008420D02*
X4645333Y40103658D01*
X4645333Y40103658D02*
X4645333Y40913181D01*
X5026286Y40913181D02*
X5645333Y40913181D01*
X5645333Y40913181D02*
X5312000Y40532229D01*
X5312000Y40532229D02*
X5454857Y40532229D01*
X5454857Y40532229D02*
X5550095Y40484610D01*
X5550095Y40484610D02*
X5597714Y40436991D01*
X5597714Y40436991D02*
X5645333Y40341753D01*
X5645333Y40341753D02*
X5645333Y40103658D01*
X5645333Y40103658D02*
X5597714Y40008420D01*
X5597714Y40008420D02*
X5550095Y39960800D01*
X5550095Y39960800D02*
X5454857Y39913181D01*
X5454857Y39913181D02*
X5169143Y39913181D01*
X5169143Y39913181D02*
X5073905Y39960800D01*
X5073905Y39960800D02*
X5026286Y40008420D01*
X6264381Y40913181D02*
X6359619Y40913181D01*
X6359619Y40913181D02*
X6454857Y40865562D01*
X6454857Y40865562D02*
X6502476Y40817943D01*
X6502476Y40817943D02*
X6550095Y40722705D01*
X6550095Y40722705D02*
X6597714Y40532229D01*
X6597714Y40532229D02*
X6597714Y40294134D01*
X6597714Y40294134D02*
X6550095Y40103658D01*
X6550095Y40103658D02*
X6502476Y40008420D01*
X6502476Y40008420D02*
X6454857Y39960800D01*
X6454857Y39960800D02*
X6359619Y39913181D01*
X6359619Y39913181D02*
X6264381Y39913181D01*
X6264381Y39913181D02*
X6169143Y39960800D01*
X6169143Y39960800D02*
X6121524Y40008420D01*
X6121524Y40008420D02*
X6073905Y40103658D01*
X6073905Y40103658D02*
X6026286Y40294134D01*
X6026286Y40294134D02*
X6026286Y40532229D01*
X6026286Y40532229D02*
X6073905Y40722705D01*
X6073905Y40722705D02*
X6121524Y40817943D01*
X6121524Y40817943D02*
X6169143Y40865562D01*
X6169143Y40865562D02*
X6264381Y40913181D01*
X75402476Y65913181D02*
X75402476Y65198896D01*
X75402476Y65198896D02*
X75354857Y65056039D01*
X75354857Y65056039D02*
X75259619Y64960800D01*
X75259619Y64960800D02*
X75116762Y64913181D01*
X75116762Y64913181D02*
X75021524Y64913181D01*
X76402476Y64913181D02*
X75831048Y64913181D01*
X76116762Y64913181D02*
X76116762Y65913181D01*
X76116762Y65913181D02*
X76021524Y65770324D01*
X76021524Y65770324D02*
X75926286Y65675086D01*
X75926286Y65675086D02*
X75831048Y65627467D01*
X77259619Y65579848D02*
X77259619Y64913181D01*
X77021524Y65960800D02*
X76783429Y65246515D01*
X76783429Y65246515D02*
X77402476Y65246515D01*
X84571580Y27225143D02*
X84619200Y27177524D01*
X84619200Y27177524D02*
X84666819Y27034667D01*
X84666819Y27034667D02*
X84666819Y26939429D01*
X84666819Y26939429D02*
X84619200Y26796572D01*
X84619200Y26796572D02*
X84523961Y26701334D01*
X84523961Y26701334D02*
X84428723Y26653715D01*
X84428723Y26653715D02*
X84238247Y26606096D01*
X84238247Y26606096D02*
X84095390Y26606096D01*
X84095390Y26606096D02*
X83904914Y26653715D01*
X83904914Y26653715D02*
X83809676Y26701334D01*
X83809676Y26701334D02*
X83714438Y26796572D01*
X83714438Y26796572D02*
X83666819Y26939429D01*
X83666819Y26939429D02*
X83666819Y27034667D01*
X83666819Y27034667D02*
X83714438Y27177524D01*
X83714438Y27177524D02*
X83762057Y27225143D01*
X83762057Y27606096D02*
X83714438Y27653715D01*
X83714438Y27653715D02*
X83666819Y27748953D01*
X83666819Y27748953D02*
X83666819Y27987048D01*
X83666819Y27987048D02*
X83714438Y28082286D01*
X83714438Y28082286D02*
X83762057Y28129905D01*
X83762057Y28129905D02*
X83857295Y28177524D01*
X83857295Y28177524D02*
X83952533Y28177524D01*
X83952533Y28177524D02*
X84095390Y28129905D01*
X84095390Y28129905D02*
X84666819Y27558477D01*
X84666819Y27558477D02*
X84666819Y28177524D01*
X83666819Y29034667D02*
X83666819Y28844191D01*
X83666819Y28844191D02*
X83714438Y28748953D01*
X83714438Y28748953D02*
X83762057Y28701334D01*
X83762057Y28701334D02*
X83904914Y28606096D01*
X83904914Y28606096D02*
X84095390Y28558477D01*
X84095390Y28558477D02*
X84476342Y28558477D01*
X84476342Y28558477D02*
X84571580Y28606096D01*
X84571580Y28606096D02*
X84619200Y28653715D01*
X84619200Y28653715D02*
X84666819Y28748953D01*
X84666819Y28748953D02*
X84666819Y28939429D01*
X84666819Y28939429D02*
X84619200Y29034667D01*
X84619200Y29034667D02*
X84571580Y29082286D01*
X84571580Y29082286D02*
X84476342Y29129905D01*
X84476342Y29129905D02*
X84238247Y29129905D01*
X84238247Y29129905D02*
X84143009Y29082286D01*
X84143009Y29082286D02*
X84095390Y29034667D01*
X84095390Y29034667D02*
X84047771Y28939429D01*
X84047771Y28939429D02*
X84047771Y28748953D01*
X84047771Y28748953D02*
X84095390Y28653715D01*
X84095390Y28653715D02*
X84143009Y28606096D01*
X84143009Y28606096D02*
X84238247Y28558477D01*
X98218095Y7045181D02*
X98218095Y8045181D01*
X98218095Y7568991D02*
X98789523Y7568991D01*
X98789523Y7045181D02*
X98789523Y8045181D01*
X99170476Y8045181D02*
X99789523Y8045181D01*
X99789523Y8045181D02*
X99456190Y7664229D01*
X99456190Y7664229D02*
X99599047Y7664229D01*
X99599047Y7664229D02*
X99694285Y7616610D01*
X99694285Y7616610D02*
X99741904Y7568991D01*
X99741904Y7568991D02*
X99789523Y7473753D01*
X99789523Y7473753D02*
X99789523Y7235658D01*
X99789523Y7235658D02*
X99741904Y7140420D01*
X99741904Y7140420D02*
X99694285Y7092800D01*
X99694285Y7092800D02*
X99599047Y7045181D01*
X99599047Y7045181D02*
X99313333Y7045181D01*
X99313333Y7045181D02*
X99218095Y7092800D01*
X99218095Y7092800D02*
X99170476Y7140420D01*
X25550526Y41641543D02*
X25550526Y40927258D01*
X25550526Y40927258D02*
X25502907Y40784401D01*
X25502907Y40784401D02*
X25407669Y40689162D01*
X25407669Y40689162D02*
X25264812Y40641543D01*
X25264812Y40641543D02*
X25169574Y40641543D01*
X26550526Y40641543D02*
X25979098Y40641543D01*
X26264812Y40641543D02*
X26264812Y41641543D01*
X26264812Y41641543D02*
X26169574Y41498686D01*
X26169574Y41498686D02*
X26074336Y41403448D01*
X26074336Y41403448D02*
X25979098Y41355829D01*
X26883860Y41641543D02*
X27550526Y41641543D01*
X27550526Y41641543D02*
X27121955Y40641543D01*
X59270005Y11956459D02*
X59270005Y11146936D01*
X59270005Y11146936D02*
X59317624Y11051698D01*
X59317624Y11051698D02*
X59365243Y11004078D01*
X59365243Y11004078D02*
X59460481Y10956459D01*
X59460481Y10956459D02*
X59650957Y10956459D01*
X59650957Y10956459D02*
X59746195Y11004078D01*
X59746195Y11004078D02*
X59793814Y11051698D01*
X59793814Y11051698D02*
X59841433Y11146936D01*
X59841433Y11146936D02*
X59841433Y11956459D01*
X60270005Y11861221D02*
X60317624Y11908840D01*
X60317624Y11908840D02*
X60412862Y11956459D01*
X60412862Y11956459D02*
X60650957Y11956459D01*
X60650957Y11956459D02*
X60746195Y11908840D01*
X60746195Y11908840D02*
X60793814Y11861221D01*
X60793814Y11861221D02*
X60841433Y11765983D01*
X60841433Y11765983D02*
X60841433Y11670745D01*
X60841433Y11670745D02*
X60793814Y11527888D01*
X60793814Y11527888D02*
X60222386Y10956459D01*
X60222386Y10956459D02*
X60841433Y10956459D01*
X61222386Y11861221D02*
X61270005Y11908840D01*
X61270005Y11908840D02*
X61365243Y11956459D01*
X61365243Y11956459D02*
X61603338Y11956459D01*
X61603338Y11956459D02*
X61698576Y11908840D01*
X61698576Y11908840D02*
X61746195Y11861221D01*
X61746195Y11861221D02*
X61793814Y11765983D01*
X61793814Y11765983D02*
X61793814Y11670745D01*
X61793814Y11670745D02*
X61746195Y11527888D01*
X61746195Y11527888D02*
X61174767Y10956459D01*
X61174767Y10956459D02*
X61793814Y10956459D01*
X26666819Y65034667D02*
X27381104Y65034667D01*
X27381104Y65034667D02*
X27523961Y64987048D01*
X27523961Y64987048D02*
X27619200Y64891810D01*
X27619200Y64891810D02*
X27666819Y64748953D01*
X27666819Y64748953D02*
X27666819Y64653715D01*
X26666819Y65415620D02*
X26666819Y66034667D01*
X26666819Y66034667D02*
X27047771Y65701334D01*
X27047771Y65701334D02*
X27047771Y65844191D01*
X27047771Y65844191D02*
X27095390Y65939429D01*
X27095390Y65939429D02*
X27143009Y65987048D01*
X27143009Y65987048D02*
X27238247Y66034667D01*
X27238247Y66034667D02*
X27476342Y66034667D01*
X27476342Y66034667D02*
X27571580Y65987048D01*
X27571580Y65987048D02*
X27619200Y65939429D01*
X27619200Y65939429D02*
X27666819Y65844191D01*
X27666819Y65844191D02*
X27666819Y65558477D01*
X27666819Y65558477D02*
X27619200Y65463239D01*
X27619200Y65463239D02*
X27571580Y65415620D01*
X50303775Y42356180D02*
X50256156Y42308560D01*
X50256156Y42308560D02*
X50113299Y42260941D01*
X50113299Y42260941D02*
X50018061Y42260941D01*
X50018061Y42260941D02*
X49875204Y42308560D01*
X49875204Y42308560D02*
X49779966Y42403799D01*
X49779966Y42403799D02*
X49732347Y42499037D01*
X49732347Y42499037D02*
X49684728Y42689513D01*
X49684728Y42689513D02*
X49684728Y42832370D01*
X49684728Y42832370D02*
X49732347Y43022846D01*
X49732347Y43022846D02*
X49779966Y43118084D01*
X49779966Y43118084D02*
X49875204Y43213322D01*
X49875204Y43213322D02*
X50018061Y43260941D01*
X50018061Y43260941D02*
X50113299Y43260941D01*
X50113299Y43260941D02*
X50256156Y43213322D01*
X50256156Y43213322D02*
X50303775Y43165703D01*
X50637109Y43260941D02*
X51256156Y43260941D01*
X51256156Y43260941D02*
X50922823Y42879989D01*
X50922823Y42879989D02*
X51065680Y42879989D01*
X51065680Y42879989D02*
X51160918Y42832370D01*
X51160918Y42832370D02*
X51208537Y42784751D01*
X51208537Y42784751D02*
X51256156Y42689513D01*
X51256156Y42689513D02*
X51256156Y42451418D01*
X51256156Y42451418D02*
X51208537Y42356180D01*
X51208537Y42356180D02*
X51160918Y42308560D01*
X51160918Y42308560D02*
X51065680Y42260941D01*
X51065680Y42260941D02*
X50779966Y42260941D01*
X50779966Y42260941D02*
X50684728Y42308560D01*
X50684728Y42308560D02*
X50637109Y42356180D01*
X51875204Y43260941D02*
X51970442Y43260941D01*
X51970442Y43260941D02*
X52065680Y43213322D01*
X52065680Y43213322D02*
X52113299Y43165703D01*
X52113299Y43165703D02*
X52160918Y43070465D01*
X52160918Y43070465D02*
X52208537Y42879989D01*
X52208537Y42879989D02*
X52208537Y42641894D01*
X52208537Y42641894D02*
X52160918Y42451418D01*
X52160918Y42451418D02*
X52113299Y42356180D01*
X52113299Y42356180D02*
X52065680Y42308560D01*
X52065680Y42308560D02*
X51970442Y42260941D01*
X51970442Y42260941D02*
X51875204Y42260941D01*
X51875204Y42260941D02*
X51779966Y42308560D01*
X51779966Y42308560D02*
X51732347Y42356180D01*
X51732347Y42356180D02*
X51684728Y42451418D01*
X51684728Y42451418D02*
X51637109Y42641894D01*
X51637109Y42641894D02*
X51637109Y42879989D01*
X51637109Y42879989D02*
X51684728Y43070465D01*
X51684728Y43070465D02*
X51732347Y43165703D01*
X51732347Y43165703D02*
X51779966Y43213322D01*
X51779966Y43213322D02*
X51875204Y43260941D01*
X39450095Y46413181D02*
X39450095Y47413181D01*
X39450095Y46936991D02*
X40021523Y46936991D01*
X40021523Y46413181D02*
X40021523Y47413181D01*
X40973904Y47413181D02*
X40497714Y47413181D01*
X40497714Y47413181D02*
X40450095Y46936991D01*
X40450095Y46936991D02*
X40497714Y46984610D01*
X40497714Y46984610D02*
X40592952Y47032229D01*
X40592952Y47032229D02*
X40831047Y47032229D01*
X40831047Y47032229D02*
X40926285Y46984610D01*
X40926285Y46984610D02*
X40973904Y46936991D01*
X40973904Y46936991D02*
X41021523Y46841753D01*
X41021523Y46841753D02*
X41021523Y46603658D01*
X41021523Y46603658D02*
X40973904Y46508420D01*
X40973904Y46508420D02*
X40926285Y46460800D01*
X40926285Y46460800D02*
X40831047Y46413181D01*
X40831047Y46413181D02*
X40592952Y46413181D01*
X40592952Y46413181D02*
X40497714Y46460800D01*
X40497714Y46460800D02*
X40450095Y46508420D01*
X89506748Y29234397D02*
X89506748Y28424874D01*
X89506748Y28424874D02*
X89554367Y28329636D01*
X89554367Y28329636D02*
X89601986Y28282016D01*
X89601986Y28282016D02*
X89697224Y28234397D01*
X89697224Y28234397D02*
X89887700Y28234397D01*
X89887700Y28234397D02*
X89982938Y28282016D01*
X89982938Y28282016D02*
X90030557Y28329636D01*
X90030557Y28329636D02*
X90078176Y28424874D01*
X90078176Y28424874D02*
X90078176Y29234397D01*
X91078176Y28234397D02*
X90506748Y28234397D01*
X90792462Y28234397D02*
X90792462Y29234397D01*
X90792462Y29234397D02*
X90697224Y29091540D01*
X90697224Y29091540D02*
X90601986Y28996302D01*
X90601986Y28996302D02*
X90506748Y28948683D01*
X91554367Y28234397D02*
X91744843Y28234397D01*
X91744843Y28234397D02*
X91840081Y28282016D01*
X91840081Y28282016D02*
X91887700Y28329636D01*
X91887700Y28329636D02*
X91982938Y28472493D01*
X91982938Y28472493D02*
X92030557Y28662969D01*
X92030557Y28662969D02*
X92030557Y29043921D01*
X92030557Y29043921D02*
X91982938Y29139159D01*
X91982938Y29139159D02*
X91935319Y29186778D01*
X91935319Y29186778D02*
X91840081Y29234397D01*
X91840081Y29234397D02*
X91649605Y29234397D01*
X91649605Y29234397D02*
X91554367Y29186778D01*
X91554367Y29186778D02*
X91506748Y29139159D01*
X91506748Y29139159D02*
X91459129Y29043921D01*
X91459129Y29043921D02*
X91459129Y28805826D01*
X91459129Y28805826D02*
X91506748Y28710588D01*
X91506748Y28710588D02*
X91554367Y28662969D01*
X91554367Y28662969D02*
X91649605Y28615350D01*
X91649605Y28615350D02*
X91840081Y28615350D01*
X91840081Y28615350D02*
X91935319Y28662969D01*
X91935319Y28662969D02*
X91982938Y28710588D01*
X91982938Y28710588D02*
X92030557Y28805826D01*
X64973905Y47413181D02*
X64973905Y46603658D01*
X64973905Y46603658D02*
X65021524Y46508420D01*
X65021524Y46508420D02*
X65069143Y46460800D01*
X65069143Y46460800D02*
X65164381Y46413181D01*
X65164381Y46413181D02*
X65354857Y46413181D01*
X65354857Y46413181D02*
X65450095Y46460800D01*
X65450095Y46460800D02*
X65497714Y46508420D01*
X65497714Y46508420D02*
X65545333Y46603658D01*
X65545333Y46603658D02*
X65545333Y47413181D01*
X65926286Y47413181D02*
X66545333Y47413181D01*
X66545333Y47413181D02*
X66212000Y47032229D01*
X66212000Y47032229D02*
X66354857Y47032229D01*
X66354857Y47032229D02*
X66450095Y46984610D01*
X66450095Y46984610D02*
X66497714Y46936991D01*
X66497714Y46936991D02*
X66545333Y46841753D01*
X66545333Y46841753D02*
X66545333Y46603658D01*
X66545333Y46603658D02*
X66497714Y46508420D01*
X66497714Y46508420D02*
X66450095Y46460800D01*
X66450095Y46460800D02*
X66354857Y46413181D01*
X66354857Y46413181D02*
X66069143Y46413181D01*
X66069143Y46413181D02*
X65973905Y46460800D01*
X65973905Y46460800D02*
X65926286Y46508420D01*
X66878667Y47413181D02*
X67497714Y47413181D01*
X67497714Y47413181D02*
X67164381Y47032229D01*
X67164381Y47032229D02*
X67307238Y47032229D01*
X67307238Y47032229D02*
X67402476Y46984610D01*
X67402476Y46984610D02*
X67450095Y46936991D01*
X67450095Y46936991D02*
X67497714Y46841753D01*
X67497714Y46841753D02*
X67497714Y46603658D01*
X67497714Y46603658D02*
X67450095Y46508420D01*
X67450095Y46508420D02*
X67402476Y46460800D01*
X67402476Y46460800D02*
X67307238Y46413181D01*
X67307238Y46413181D02*
X67021524Y46413181D01*
X67021524Y46413181D02*
X66926286Y46460800D01*
X66926286Y46460800D02*
X66878667Y46508420D01*
X43402476Y65913181D02*
X43402476Y65198896D01*
X43402476Y65198896D02*
X43354857Y65056039D01*
X43354857Y65056039D02*
X43259619Y64960800D01*
X43259619Y64960800D02*
X43116762Y64913181D01*
X43116762Y64913181D02*
X43021524Y64913181D01*
X44402476Y64913181D02*
X43831048Y64913181D01*
X44116762Y64913181D02*
X44116762Y65913181D01*
X44116762Y65913181D02*
X44021524Y65770324D01*
X44021524Y65770324D02*
X43926286Y65675086D01*
X43926286Y65675086D02*
X43831048Y65627467D01*
X44735810Y65913181D02*
X45354857Y65913181D01*
X45354857Y65913181D02*
X45021524Y65532229D01*
X45021524Y65532229D02*
X45164381Y65532229D01*
X45164381Y65532229D02*
X45259619Y65484610D01*
X45259619Y65484610D02*
X45307238Y65436991D01*
X45307238Y65436991D02*
X45354857Y65341753D01*
X45354857Y65341753D02*
X45354857Y65103658D01*
X45354857Y65103658D02*
X45307238Y65008420D01*
X45307238Y65008420D02*
X45259619Y64960800D01*
X45259619Y64960800D02*
X45164381Y64913181D01*
X45164381Y64913181D02*
X44878667Y64913181D01*
X44878667Y64913181D02*
X44783429Y64960800D01*
X44783429Y64960800D02*
X44735810Y65008420D01*
X39270005Y11956459D02*
X39270005Y11146936D01*
X39270005Y11146936D02*
X39317624Y11051698D01*
X39317624Y11051698D02*
X39365243Y11004078D01*
X39365243Y11004078D02*
X39460481Y10956459D01*
X39460481Y10956459D02*
X39650957Y10956459D01*
X39650957Y10956459D02*
X39746195Y11004078D01*
X39746195Y11004078D02*
X39793814Y11051698D01*
X39793814Y11051698D02*
X39841433Y11146936D01*
X39841433Y11146936D02*
X39841433Y11956459D01*
X40270005Y11861221D02*
X40317624Y11908840D01*
X40317624Y11908840D02*
X40412862Y11956459D01*
X40412862Y11956459D02*
X40650957Y11956459D01*
X40650957Y11956459D02*
X40746195Y11908840D01*
X40746195Y11908840D02*
X40793814Y11861221D01*
X40793814Y11861221D02*
X40841433Y11765983D01*
X40841433Y11765983D02*
X40841433Y11670745D01*
X40841433Y11670745D02*
X40793814Y11527888D01*
X40793814Y11527888D02*
X40222386Y10956459D01*
X40222386Y10956459D02*
X40841433Y10956459D01*
X41793814Y10956459D02*
X41222386Y10956459D01*
X41508100Y10956459D02*
X41508100Y11956459D01*
X41508100Y11956459D02*
X41412862Y11813602D01*
X41412862Y11813602D02*
X41317624Y11718364D01*
X41317624Y11718364D02*
X41222386Y11670745D01*
X16050238Y56765419D02*
X15716905Y56765419D01*
X15716905Y56241609D02*
X15716905Y57241609D01*
X15716905Y57241609D02*
X16193095Y57241609D01*
X17097857Y56241609D02*
X16526429Y56241609D01*
X16812143Y56241609D02*
X16812143Y57241609D01*
X16812143Y57241609D02*
X16716905Y57098752D01*
X16716905Y57098752D02*
X16621667Y57003514D01*
X16621667Y57003514D02*
X16526429Y56955895D01*
X63319142Y57663181D02*
X62985809Y58139372D01*
X62747714Y57663181D02*
X62747714Y58663181D01*
X62747714Y58663181D02*
X63128666Y58663181D01*
X63128666Y58663181D02*
X63223904Y58615562D01*
X63223904Y58615562D02*
X63271523Y58567943D01*
X63271523Y58567943D02*
X63319142Y58472705D01*
X63319142Y58472705D02*
X63319142Y58329848D01*
X63319142Y58329848D02*
X63271523Y58234610D01*
X63271523Y58234610D02*
X63223904Y58186991D01*
X63223904Y58186991D02*
X63128666Y58139372D01*
X63128666Y58139372D02*
X62747714Y58139372D01*
X64176285Y58663181D02*
X63985809Y58663181D01*
X63985809Y58663181D02*
X63890571Y58615562D01*
X63890571Y58615562D02*
X63842952Y58567943D01*
X63842952Y58567943D02*
X63747714Y58425086D01*
X63747714Y58425086D02*
X63700095Y58234610D01*
X63700095Y58234610D02*
X63700095Y57853658D01*
X63700095Y57853658D02*
X63747714Y57758420D01*
X63747714Y57758420D02*
X63795333Y57710800D01*
X63795333Y57710800D02*
X63890571Y57663181D01*
X63890571Y57663181D02*
X64081047Y57663181D01*
X64081047Y57663181D02*
X64176285Y57710800D01*
X64176285Y57710800D02*
X64223904Y57758420D01*
X64223904Y57758420D02*
X64271523Y57853658D01*
X64271523Y57853658D02*
X64271523Y58091753D01*
X64271523Y58091753D02*
X64223904Y58186991D01*
X64223904Y58186991D02*
X64176285Y58234610D01*
X64176285Y58234610D02*
X64081047Y58282229D01*
X64081047Y58282229D02*
X63890571Y58282229D01*
X63890571Y58282229D02*
X63795333Y58234610D01*
X63795333Y58234610D02*
X63747714Y58186991D01*
X63747714Y58186991D02*
X63700095Y58091753D01*
X64890571Y58663181D02*
X64985809Y58663181D01*
X64985809Y58663181D02*
X65081047Y58615562D01*
X65081047Y58615562D02*
X65128666Y58567943D01*
X65128666Y58567943D02*
X65176285Y58472705D01*
X65176285Y58472705D02*
X65223904Y58282229D01*
X65223904Y58282229D02*
X65223904Y58044134D01*
X65223904Y58044134D02*
X65176285Y57853658D01*
X65176285Y57853658D02*
X65128666Y57758420D01*
X65128666Y57758420D02*
X65081047Y57710800D01*
X65081047Y57710800D02*
X64985809Y57663181D01*
X64985809Y57663181D02*
X64890571Y57663181D01*
X64890571Y57663181D02*
X64795333Y57710800D01*
X64795333Y57710800D02*
X64747714Y57758420D01*
X64747714Y57758420D02*
X64700095Y57853658D01*
X64700095Y57853658D02*
X64652476Y58044134D01*
X64652476Y58044134D02*
X64652476Y58282229D01*
X64652476Y58282229D02*
X64700095Y58472705D01*
X64700095Y58472705D02*
X64747714Y58567943D01*
X64747714Y58567943D02*
X64795333Y58615562D01*
X64795333Y58615562D02*
X64890571Y58663181D01*
%TO.C,J19*%
D11*
X18292000Y59248000D02*
X18292000Y56488000D01*
X20942000Y59248000D02*
X18292000Y59248000D01*
X20942000Y59248000D02*
X20942000Y56488000D01*
X20942000Y56488000D02*
X18292000Y56488000D01*
X22212000Y59248000D02*
X23592000Y59248000D01*
X23592000Y59248000D02*
X23592000Y57868000D01*
%TO.C,D15*%
X12786432Y50303000D02*
X13922000Y50303000D01*
X13922000Y49433000D02*
X13922000Y49303000D01*
X13922000Y48433000D02*
X12502000Y48433000D01*
X12492000Y50308000D02*
X12352000Y50498000D01*
X12632000Y50498000D01*
X12492000Y50308000D01*
G36*
X12492000Y50308000D02*
G01*
X12352000Y50498000D01*
X12632000Y50498000D01*
X12492000Y50308000D01*
G37*
%TO.C,BZ1*%
X79012000Y44568000D02*
X79012000Y34668000D01*
X79012000Y44568000D02*
X82512000Y44568000D01*
X79012000Y34668000D02*
X82512000Y34668000D01*
X85412000Y44568000D02*
X88912000Y44568000D01*
X85412000Y34668000D02*
X88912000Y34668000D01*
X88912000Y44568000D02*
X88912000Y34668000D01*
%TO.C,U45*%
X58602000Y58258000D02*
X58602000Y58468000D01*
X58602000Y58258000D02*
X59502000Y58258000D01*
X59512000Y61478000D02*
X58902000Y61478000D01*
X60912000Y61478000D02*
X61822000Y61478000D01*
X60912000Y58258000D02*
X61822000Y58258000D01*
X61822000Y61478000D02*
X61822000Y61258000D01*
X61822000Y58258000D02*
X61822000Y58478000D01*
X58602000Y61478000D02*
X58362000Y61808000D01*
X58842000Y61808000D01*
X58602000Y61478000D01*
G36*
X58602000Y61478000D02*
G01*
X58362000Y61808000D01*
X58842000Y61808000D01*
X58602000Y61478000D01*
G37*
%TD*%
M02*
