%TF.GenerationSoftware,KiCad,Pcbnew,10.0.6*%
%TF.CreationDate,2026-10-04T09:53:25+08:00*%
%TF.ProjectId,CurtainDrive_V3_2_2L,43757274-6169-46e4-9472-6976655f5633,V3.2 2L*%
%TF.SameCoordinates,Original*%
%TF.FileFunction,Legend,Bot*%
%TF.FilePolarity,Positive*%
%FSLAX46Y46*%
G04 Gerber Fmt 4.6, Leading zero omitted, Abs format (unit mm)*
G04 Created by KiCad (PCBNEW 10.0.6) date 2026-10-04 09:53:25*
%MOMM*%
%LPD*%
G01*
G04 APERTURE LIST*
%ADD10C,0.150000*%
%ADD11C,0.120000*%
G04 APERTURE END LIST*
D10*
X37307238Y12817943D02*
X37402476Y12865562D01*
X37402476Y12865562D02*
X37497714Y12960800D01*
X37497714Y12960800D02*
X37640571Y13103658D01*
X37640571Y13103658D02*
X37735809Y13151277D01*
X37735809Y13151277D02*
X37831047Y13151277D01*
X37783428Y12913181D02*
X37878666Y12960800D01*
X37878666Y12960800D02*
X37973904Y13056039D01*
X37973904Y13056039D02*
X38021523Y13246515D01*
X38021523Y13246515D02*
X38021523Y13579848D01*
X38021523Y13579848D02*
X37973904Y13770324D01*
X37973904Y13770324D02*
X37878666Y13865562D01*
X37878666Y13865562D02*
X37783428Y13913181D01*
X37783428Y13913181D02*
X37592952Y13913181D01*
X37592952Y13913181D02*
X37497714Y13865562D01*
X37497714Y13865562D02*
X37402476Y13770324D01*
X37402476Y13770324D02*
X37354857Y13579848D01*
X37354857Y13579848D02*
X37354857Y13246515D01*
X37354857Y13246515D02*
X37402476Y13056039D01*
X37402476Y13056039D02*
X37497714Y12960800D01*
X37497714Y12960800D02*
X37592952Y12913181D01*
X37592952Y12913181D02*
X37783428Y12913181D01*
X36450095Y13913181D02*
X36926285Y13913181D01*
X36926285Y13913181D02*
X36973904Y13436991D01*
X36973904Y13436991D02*
X36926285Y13484610D01*
X36926285Y13484610D02*
X36831047Y13532229D01*
X36831047Y13532229D02*
X36592952Y13532229D01*
X36592952Y13532229D02*
X36497714Y13484610D01*
X36497714Y13484610D02*
X36450095Y13436991D01*
X36450095Y13436991D02*
X36402476Y13341753D01*
X36402476Y13341753D02*
X36402476Y13103658D01*
X36402476Y13103658D02*
X36450095Y13008420D01*
X36450095Y13008420D02*
X36497714Y12960800D01*
X36497714Y12960800D02*
X36592952Y12913181D01*
X36592952Y12913181D02*
X36831047Y12913181D01*
X36831047Y12913181D02*
X36926285Y12960800D01*
X36926285Y12960800D02*
X36973904Y13008420D01*
X59416819Y62010858D02*
X58940628Y62344191D01*
X59416819Y62582286D02*
X58416819Y62582286D01*
X58416819Y62582286D02*
X58416819Y62201334D01*
X58416819Y62201334D02*
X58464438Y62106096D01*
X58464438Y62106096D02*
X58512057Y62058477D01*
X58512057Y62058477D02*
X58607295Y62010858D01*
X58607295Y62010858D02*
X58750152Y62010858D01*
X58750152Y62010858D02*
X58845390Y62058477D01*
X58845390Y62058477D02*
X58893009Y62106096D01*
X58893009Y62106096D02*
X58940628Y62201334D01*
X58940628Y62201334D02*
X58940628Y62582286D01*
X58750152Y61153715D02*
X59416819Y61153715D01*
X58369200Y61391810D02*
X59083485Y61629905D01*
X59083485Y61629905D02*
X59083485Y61010858D01*
X58845390Y60487048D02*
X58797771Y60582286D01*
X58797771Y60582286D02*
X58750152Y60629905D01*
X58750152Y60629905D02*
X58654914Y60677524D01*
X58654914Y60677524D02*
X58607295Y60677524D01*
X58607295Y60677524D02*
X58512057Y60629905D01*
X58512057Y60629905D02*
X58464438Y60582286D01*
X58464438Y60582286D02*
X58416819Y60487048D01*
X58416819Y60487048D02*
X58416819Y60296572D01*
X58416819Y60296572D02*
X58464438Y60201334D01*
X58464438Y60201334D02*
X58512057Y60153715D01*
X58512057Y60153715D02*
X58607295Y60106096D01*
X58607295Y60106096D02*
X58654914Y60106096D01*
X58654914Y60106096D02*
X58750152Y60153715D01*
X58750152Y60153715D02*
X58797771Y60201334D01*
X58797771Y60201334D02*
X58845390Y60296572D01*
X58845390Y60296572D02*
X58845390Y60487048D01*
X58845390Y60487048D02*
X58893009Y60582286D01*
X58893009Y60582286D02*
X58940628Y60629905D01*
X58940628Y60629905D02*
X59035866Y60677524D01*
X59035866Y60677524D02*
X59226342Y60677524D01*
X59226342Y60677524D02*
X59321580Y60629905D01*
X59321580Y60629905D02*
X59369200Y60582286D01*
X59369200Y60582286D02*
X59416819Y60487048D01*
X59416819Y60487048D02*
X59416819Y60296572D01*
X59416819Y60296572D02*
X59369200Y60201334D01*
X59369200Y60201334D02*
X59321580Y60153715D01*
X59321580Y60153715D02*
X59226342Y60106096D01*
X59226342Y60106096D02*
X59035866Y60106096D01*
X59035866Y60106096D02*
X58940628Y60153715D01*
X58940628Y60153715D02*
X58893009Y60201334D01*
X58893009Y60201334D02*
X58845390Y60296572D01*
X44406819Y33510858D02*
X43930628Y33844191D01*
X44406819Y34082286D02*
X43406819Y34082286D01*
X43406819Y34082286D02*
X43406819Y33701334D01*
X43406819Y33701334D02*
X43454438Y33606096D01*
X43454438Y33606096D02*
X43502057Y33558477D01*
X43502057Y33558477D02*
X43597295Y33510858D01*
X43597295Y33510858D02*
X43740152Y33510858D01*
X43740152Y33510858D02*
X43835390Y33558477D01*
X43835390Y33558477D02*
X43883009Y33606096D01*
X43883009Y33606096D02*
X43930628Y33701334D01*
X43930628Y33701334D02*
X43930628Y34082286D01*
X44406819Y32558477D02*
X44406819Y33129905D01*
X44406819Y32844191D02*
X43406819Y32844191D01*
X43406819Y32844191D02*
X43549676Y32939429D01*
X43549676Y32939429D02*
X43644914Y33034667D01*
X43644914Y33034667D02*
X43692533Y33129905D01*
X43406819Y32225143D02*
X43406819Y31558477D01*
X43406819Y31558477D02*
X44406819Y31987048D01*
X32224032Y30660661D02*
X32271651Y30613041D01*
X32271651Y30613041D02*
X32414508Y30565422D01*
X32414508Y30565422D02*
X32509746Y30565422D01*
X32509746Y30565422D02*
X32652603Y30613041D01*
X32652603Y30613041D02*
X32747841Y30708280D01*
X32747841Y30708280D02*
X32795460Y30803518D01*
X32795460Y30803518D02*
X32843079Y30993994D01*
X32843079Y30993994D02*
X32843079Y31136851D01*
X32843079Y31136851D02*
X32795460Y31327327D01*
X32795460Y31327327D02*
X32747841Y31422565D01*
X32747841Y31422565D02*
X32652603Y31517803D01*
X32652603Y31517803D02*
X32509746Y31565422D01*
X32509746Y31565422D02*
X32414508Y31565422D01*
X32414508Y31565422D02*
X32271651Y31517803D01*
X32271651Y31517803D02*
X32224032Y31470184D01*
X31652603Y31136851D02*
X31747841Y31184470D01*
X31747841Y31184470D02*
X31795460Y31232089D01*
X31795460Y31232089D02*
X31843079Y31327327D01*
X31843079Y31327327D02*
X31843079Y31374946D01*
X31843079Y31374946D02*
X31795460Y31470184D01*
X31795460Y31470184D02*
X31747841Y31517803D01*
X31747841Y31517803D02*
X31652603Y31565422D01*
X31652603Y31565422D02*
X31462127Y31565422D01*
X31462127Y31565422D02*
X31366889Y31517803D01*
X31366889Y31517803D02*
X31319270Y31470184D01*
X31319270Y31470184D02*
X31271651Y31374946D01*
X31271651Y31374946D02*
X31271651Y31327327D01*
X31271651Y31327327D02*
X31319270Y31232089D01*
X31319270Y31232089D02*
X31366889Y31184470D01*
X31366889Y31184470D02*
X31462127Y31136851D01*
X31462127Y31136851D02*
X31652603Y31136851D01*
X31652603Y31136851D02*
X31747841Y31089232D01*
X31747841Y31089232D02*
X31795460Y31041613D01*
X31795460Y31041613D02*
X31843079Y30946375D01*
X31843079Y30946375D02*
X31843079Y30755899D01*
X31843079Y30755899D02*
X31795460Y30660661D01*
X31795460Y30660661D02*
X31747841Y30613041D01*
X31747841Y30613041D02*
X31652603Y30565422D01*
X31652603Y30565422D02*
X31462127Y30565422D01*
X31462127Y30565422D02*
X31366889Y30613041D01*
X31366889Y30613041D02*
X31319270Y30660661D01*
X31319270Y30660661D02*
X31271651Y30755899D01*
X31271651Y30755899D02*
X31271651Y30946375D01*
X31271651Y30946375D02*
X31319270Y31041613D01*
X31319270Y31041613D02*
X31366889Y31089232D01*
X31366889Y31089232D02*
X31462127Y31136851D01*
X78450094Y22913181D02*
X78450094Y22103658D01*
X78450094Y22103658D02*
X78402475Y22008420D01*
X78402475Y22008420D02*
X78354856Y21960800D01*
X78354856Y21960800D02*
X78259618Y21913181D01*
X78259618Y21913181D02*
X78069142Y21913181D01*
X78069142Y21913181D02*
X77973904Y21960800D01*
X77973904Y21960800D02*
X77926285Y22008420D01*
X77926285Y22008420D02*
X77878666Y22103658D01*
X77878666Y22103658D02*
X77878666Y22913181D01*
X76973904Y22579848D02*
X76973904Y21913181D01*
X77211999Y22960800D02*
X77450094Y22246515D01*
X77450094Y22246515D02*
X76831047Y22246515D01*
X76545332Y22913181D02*
X75926285Y22913181D01*
X75926285Y22913181D02*
X76259618Y22532229D01*
X76259618Y22532229D02*
X76116761Y22532229D01*
X76116761Y22532229D02*
X76021523Y22484610D01*
X76021523Y22484610D02*
X75973904Y22436991D01*
X75973904Y22436991D02*
X75926285Y22341753D01*
X75926285Y22341753D02*
X75926285Y22103658D01*
X75926285Y22103658D02*
X75973904Y22008420D01*
X75973904Y22008420D02*
X76021523Y21960800D01*
X76021523Y21960800D02*
X76116761Y21913181D01*
X76116761Y21913181D02*
X76402475Y21913181D01*
X76402475Y21913181D02*
X76497713Y21960800D01*
X76497713Y21960800D02*
X76545332Y22008420D01*
X46986819Y31010858D02*
X46510628Y31344191D01*
X46986819Y31582286D02*
X45986819Y31582286D01*
X45986819Y31582286D02*
X45986819Y31201334D01*
X45986819Y31201334D02*
X46034438Y31106096D01*
X46034438Y31106096D02*
X46082057Y31058477D01*
X46082057Y31058477D02*
X46177295Y31010858D01*
X46177295Y31010858D02*
X46320152Y31010858D01*
X46320152Y31010858D02*
X46415390Y31058477D01*
X46415390Y31058477D02*
X46463009Y31106096D01*
X46463009Y31106096D02*
X46510628Y31201334D01*
X46510628Y31201334D02*
X46510628Y31582286D01*
X46082057Y30629905D02*
X46034438Y30582286D01*
X46034438Y30582286D02*
X45986819Y30487048D01*
X45986819Y30487048D02*
X45986819Y30248953D01*
X45986819Y30248953D02*
X46034438Y30153715D01*
X46034438Y30153715D02*
X46082057Y30106096D01*
X46082057Y30106096D02*
X46177295Y30058477D01*
X46177295Y30058477D02*
X46272533Y30058477D01*
X46272533Y30058477D02*
X46415390Y30106096D01*
X46415390Y30106096D02*
X46986819Y30677524D01*
X46986819Y30677524D02*
X46986819Y30058477D01*
X46415390Y29487048D02*
X46367771Y29582286D01*
X46367771Y29582286D02*
X46320152Y29629905D01*
X46320152Y29629905D02*
X46224914Y29677524D01*
X46224914Y29677524D02*
X46177295Y29677524D01*
X46177295Y29677524D02*
X46082057Y29629905D01*
X46082057Y29629905D02*
X46034438Y29582286D01*
X46034438Y29582286D02*
X45986819Y29487048D01*
X45986819Y29487048D02*
X45986819Y29296572D01*
X45986819Y29296572D02*
X46034438Y29201334D01*
X46034438Y29201334D02*
X46082057Y29153715D01*
X46082057Y29153715D02*
X46177295Y29106096D01*
X46177295Y29106096D02*
X46224914Y29106096D01*
X46224914Y29106096D02*
X46320152Y29153715D01*
X46320152Y29153715D02*
X46367771Y29201334D01*
X46367771Y29201334D02*
X46415390Y29296572D01*
X46415390Y29296572D02*
X46415390Y29487048D01*
X46415390Y29487048D02*
X46463009Y29582286D01*
X46463009Y29582286D02*
X46510628Y29629905D01*
X46510628Y29629905D02*
X46605866Y29677524D01*
X46605866Y29677524D02*
X46796342Y29677524D01*
X46796342Y29677524D02*
X46891580Y29629905D01*
X46891580Y29629905D02*
X46939200Y29582286D01*
X46939200Y29582286D02*
X46986819Y29487048D01*
X46986819Y29487048D02*
X46986819Y29296572D01*
X46986819Y29296572D02*
X46939200Y29201334D01*
X46939200Y29201334D02*
X46891580Y29153715D01*
X46891580Y29153715D02*
X46796342Y29106096D01*
X46796342Y29106096D02*
X46605866Y29106096D01*
X46605866Y29106096D02*
X46510628Y29153715D01*
X46510628Y29153715D02*
X46463009Y29201334D01*
X46463009Y29201334D02*
X46415390Y29296572D01*
X41644032Y44860661D02*
X41691651Y44813041D01*
X41691651Y44813041D02*
X41834508Y44765422D01*
X41834508Y44765422D02*
X41929746Y44765422D01*
X41929746Y44765422D02*
X42072603Y44813041D01*
X42072603Y44813041D02*
X42167841Y44908280D01*
X42167841Y44908280D02*
X42215460Y45003518D01*
X42215460Y45003518D02*
X42263079Y45193994D01*
X42263079Y45193994D02*
X42263079Y45336851D01*
X42263079Y45336851D02*
X42215460Y45527327D01*
X42215460Y45527327D02*
X42167841Y45622565D01*
X42167841Y45622565D02*
X42072603Y45717803D01*
X42072603Y45717803D02*
X41929746Y45765422D01*
X41929746Y45765422D02*
X41834508Y45765422D01*
X41834508Y45765422D02*
X41691651Y45717803D01*
X41691651Y45717803D02*
X41644032Y45670184D01*
X40786889Y45765422D02*
X40977365Y45765422D01*
X40977365Y45765422D02*
X41072603Y45717803D01*
X41072603Y45717803D02*
X41120222Y45670184D01*
X41120222Y45670184D02*
X41215460Y45527327D01*
X41215460Y45527327D02*
X41263079Y45336851D01*
X41263079Y45336851D02*
X41263079Y44955899D01*
X41263079Y44955899D02*
X41215460Y44860661D01*
X41215460Y44860661D02*
X41167841Y44813041D01*
X41167841Y44813041D02*
X41072603Y44765422D01*
X41072603Y44765422D02*
X40882127Y44765422D01*
X40882127Y44765422D02*
X40786889Y44813041D01*
X40786889Y44813041D02*
X40739270Y44860661D01*
X40739270Y44860661D02*
X40691651Y44955899D01*
X40691651Y44955899D02*
X40691651Y45193994D01*
X40691651Y45193994D02*
X40739270Y45289232D01*
X40739270Y45289232D02*
X40786889Y45336851D01*
X40786889Y45336851D02*
X40882127Y45384470D01*
X40882127Y45384470D02*
X41072603Y45384470D01*
X41072603Y45384470D02*
X41167841Y45336851D01*
X41167841Y45336851D02*
X41215460Y45289232D01*
X41215460Y45289232D02*
X41263079Y45193994D01*
X62414857Y30008420D02*
X62462476Y29960800D01*
X62462476Y29960800D02*
X62605333Y29913181D01*
X62605333Y29913181D02*
X62700571Y29913181D01*
X62700571Y29913181D02*
X62843428Y29960800D01*
X62843428Y29960800D02*
X62938666Y30056039D01*
X62938666Y30056039D02*
X62986285Y30151277D01*
X62986285Y30151277D02*
X63033904Y30341753D01*
X63033904Y30341753D02*
X63033904Y30484610D01*
X63033904Y30484610D02*
X62986285Y30675086D01*
X62986285Y30675086D02*
X62938666Y30770324D01*
X62938666Y30770324D02*
X62843428Y30865562D01*
X62843428Y30865562D02*
X62700571Y30913181D01*
X62700571Y30913181D02*
X62605333Y30913181D01*
X62605333Y30913181D02*
X62462476Y30865562D01*
X62462476Y30865562D02*
X62414857Y30817943D01*
X61462476Y29913181D02*
X62033904Y29913181D01*
X61748190Y29913181D02*
X61748190Y30913181D01*
X61748190Y30913181D02*
X61843428Y30770324D01*
X61843428Y30770324D02*
X61938666Y30675086D01*
X61938666Y30675086D02*
X62033904Y30627467D01*
X60986285Y29913181D02*
X60795809Y29913181D01*
X60795809Y29913181D02*
X60700571Y29960800D01*
X60700571Y29960800D02*
X60652952Y30008420D01*
X60652952Y30008420D02*
X60557714Y30151277D01*
X60557714Y30151277D02*
X60510095Y30341753D01*
X60510095Y30341753D02*
X60510095Y30722705D01*
X60510095Y30722705D02*
X60557714Y30817943D01*
X60557714Y30817943D02*
X60605333Y30865562D01*
X60605333Y30865562D02*
X60700571Y30913181D01*
X60700571Y30913181D02*
X60891047Y30913181D01*
X60891047Y30913181D02*
X60986285Y30865562D01*
X60986285Y30865562D02*
X61033904Y30817943D01*
X61033904Y30817943D02*
X61081523Y30722705D01*
X61081523Y30722705D02*
X61081523Y30484610D01*
X61081523Y30484610D02*
X61033904Y30389372D01*
X61033904Y30389372D02*
X60986285Y30341753D01*
X60986285Y30341753D02*
X60891047Y30294134D01*
X60891047Y30294134D02*
X60700571Y30294134D01*
X60700571Y30294134D02*
X60605333Y30341753D01*
X60605333Y30341753D02*
X60557714Y30389372D01*
X60557714Y30389372D02*
X60510095Y30484610D01*
X74017357Y37108421D02*
X74064976Y37060801D01*
X74064976Y37060801D02*
X74207833Y37013182D01*
X74207833Y37013182D02*
X74303071Y37013182D01*
X74303071Y37013182D02*
X74445928Y37060801D01*
X74445928Y37060801D02*
X74541166Y37156040D01*
X74541166Y37156040D02*
X74588785Y37251278D01*
X74588785Y37251278D02*
X74636404Y37441754D01*
X74636404Y37441754D02*
X74636404Y37584611D01*
X74636404Y37584611D02*
X74588785Y37775087D01*
X74588785Y37775087D02*
X74541166Y37870325D01*
X74541166Y37870325D02*
X74445928Y37965563D01*
X74445928Y37965563D02*
X74303071Y38013182D01*
X74303071Y38013182D02*
X74207833Y38013182D01*
X74207833Y38013182D02*
X74064976Y37965563D01*
X74064976Y37965563D02*
X74017357Y37917944D01*
X73636404Y37917944D02*
X73588785Y37965563D01*
X73588785Y37965563D02*
X73493547Y38013182D01*
X73493547Y38013182D02*
X73255452Y38013182D01*
X73255452Y38013182D02*
X73160214Y37965563D01*
X73160214Y37965563D02*
X73112595Y37917944D01*
X73112595Y37917944D02*
X73064976Y37822706D01*
X73064976Y37822706D02*
X73064976Y37727468D01*
X73064976Y37727468D02*
X73112595Y37584611D01*
X73112595Y37584611D02*
X73684023Y37013182D01*
X73684023Y37013182D02*
X73064976Y37013182D01*
X72160214Y38013182D02*
X72636404Y38013182D01*
X72636404Y38013182D02*
X72684023Y37536992D01*
X72684023Y37536992D02*
X72636404Y37584611D01*
X72636404Y37584611D02*
X72541166Y37632230D01*
X72541166Y37632230D02*
X72303071Y37632230D01*
X72303071Y37632230D02*
X72207833Y37584611D01*
X72207833Y37584611D02*
X72160214Y37536992D01*
X72160214Y37536992D02*
X72112595Y37441754D01*
X72112595Y37441754D02*
X72112595Y37203659D01*
X72112595Y37203659D02*
X72160214Y37108421D01*
X72160214Y37108421D02*
X72207833Y37060801D01*
X72207833Y37060801D02*
X72303071Y37013182D01*
X72303071Y37013182D02*
X72541166Y37013182D01*
X72541166Y37013182D02*
X72636404Y37060801D01*
X72636404Y37060801D02*
X72684023Y37108421D01*
X26666819Y26034667D02*
X26190628Y26368000D01*
X26666819Y26606095D02*
X25666819Y26606095D01*
X25666819Y26606095D02*
X25666819Y26225143D01*
X25666819Y26225143D02*
X25714438Y26129905D01*
X25714438Y26129905D02*
X25762057Y26082286D01*
X25762057Y26082286D02*
X25857295Y26034667D01*
X25857295Y26034667D02*
X26000152Y26034667D01*
X26000152Y26034667D02*
X26095390Y26082286D01*
X26095390Y26082286D02*
X26143009Y26129905D01*
X26143009Y26129905D02*
X26190628Y26225143D01*
X26190628Y26225143D02*
X26190628Y26606095D01*
X26095390Y25463238D02*
X26047771Y25558476D01*
X26047771Y25558476D02*
X26000152Y25606095D01*
X26000152Y25606095D02*
X25904914Y25653714D01*
X25904914Y25653714D02*
X25857295Y25653714D01*
X25857295Y25653714D02*
X25762057Y25606095D01*
X25762057Y25606095D02*
X25714438Y25558476D01*
X25714438Y25558476D02*
X25666819Y25463238D01*
X25666819Y25463238D02*
X25666819Y25272762D01*
X25666819Y25272762D02*
X25714438Y25177524D01*
X25714438Y25177524D02*
X25762057Y25129905D01*
X25762057Y25129905D02*
X25857295Y25082286D01*
X25857295Y25082286D02*
X25904914Y25082286D01*
X25904914Y25082286D02*
X26000152Y25129905D01*
X26000152Y25129905D02*
X26047771Y25177524D01*
X26047771Y25177524D02*
X26095390Y25272762D01*
X26095390Y25272762D02*
X26095390Y25463238D01*
X26095390Y25463238D02*
X26143009Y25558476D01*
X26143009Y25558476D02*
X26190628Y25606095D01*
X26190628Y25606095D02*
X26285866Y25653714D01*
X26285866Y25653714D02*
X26476342Y25653714D01*
X26476342Y25653714D02*
X26571580Y25606095D01*
X26571580Y25606095D02*
X26619200Y25558476D01*
X26619200Y25558476D02*
X26666819Y25463238D01*
X26666819Y25463238D02*
X26666819Y25272762D01*
X26666819Y25272762D02*
X26619200Y25177524D01*
X26619200Y25177524D02*
X26571580Y25129905D01*
X26571580Y25129905D02*
X26476342Y25082286D01*
X26476342Y25082286D02*
X26285866Y25082286D01*
X26285866Y25082286D02*
X26190628Y25129905D01*
X26190628Y25129905D02*
X26143009Y25177524D01*
X26143009Y25177524D02*
X26095390Y25272762D01*
X47919360Y46608700D02*
X47919360Y45799177D01*
X47919360Y45799177D02*
X47871741Y45703939D01*
X47871741Y45703939D02*
X47824122Y45656319D01*
X47824122Y45656319D02*
X47728884Y45608700D01*
X47728884Y45608700D02*
X47538408Y45608700D01*
X47538408Y45608700D02*
X47443170Y45656319D01*
X47443170Y45656319D02*
X47395551Y45703939D01*
X47395551Y45703939D02*
X47347932Y45799177D01*
X47347932Y45799177D02*
X47347932Y46608700D01*
X46443170Y46275367D02*
X46443170Y45608700D01*
X46681265Y46656319D02*
X46919360Y45942034D01*
X46919360Y45942034D02*
X46300313Y45942034D01*
X45728884Y46608700D02*
X45633646Y46608700D01*
X45633646Y46608700D02*
X45538408Y46561081D01*
X45538408Y46561081D02*
X45490789Y46513462D01*
X45490789Y46513462D02*
X45443170Y46418224D01*
X45443170Y46418224D02*
X45395551Y46227748D01*
X45395551Y46227748D02*
X45395551Y45989653D01*
X45395551Y45989653D02*
X45443170Y45799177D01*
X45443170Y45799177D02*
X45490789Y45703939D01*
X45490789Y45703939D02*
X45538408Y45656319D01*
X45538408Y45656319D02*
X45633646Y45608700D01*
X45633646Y45608700D02*
X45728884Y45608700D01*
X45728884Y45608700D02*
X45824122Y45656319D01*
X45824122Y45656319D02*
X45871741Y45703939D01*
X45871741Y45703939D02*
X45919360Y45799177D01*
X45919360Y45799177D02*
X45966979Y45989653D01*
X45966979Y45989653D02*
X45966979Y46227748D01*
X45966979Y46227748D02*
X45919360Y46418224D01*
X45919360Y46418224D02*
X45871741Y46513462D01*
X45871741Y46513462D02*
X45824122Y46561081D01*
X45824122Y46561081D02*
X45728884Y46608700D01*
X27302043Y49684820D02*
X27302043Y50684820D01*
X27302043Y50684820D02*
X27063948Y50684820D01*
X27063948Y50684820D02*
X26921091Y50637201D01*
X26921091Y50637201D02*
X26825853Y50541963D01*
X26825853Y50541963D02*
X26778234Y50446725D01*
X26778234Y50446725D02*
X26730615Y50256249D01*
X26730615Y50256249D02*
X26730615Y50113392D01*
X26730615Y50113392D02*
X26778234Y49922916D01*
X26778234Y49922916D02*
X26825853Y49827678D01*
X26825853Y49827678D02*
X26921091Y49732439D01*
X26921091Y49732439D02*
X27063948Y49684820D01*
X27063948Y49684820D02*
X27302043Y49684820D01*
X26254424Y49684820D02*
X26063948Y49684820D01*
X26063948Y49684820D02*
X25968710Y49732439D01*
X25968710Y49732439D02*
X25921091Y49780059D01*
X25921091Y49780059D02*
X25825853Y49922916D01*
X25825853Y49922916D02*
X25778234Y50113392D01*
X25778234Y50113392D02*
X25778234Y50494344D01*
X25778234Y50494344D02*
X25825853Y50589582D01*
X25825853Y50589582D02*
X25873472Y50637201D01*
X25873472Y50637201D02*
X25968710Y50684820D01*
X25968710Y50684820D02*
X26159186Y50684820D01*
X26159186Y50684820D02*
X26254424Y50637201D01*
X26254424Y50637201D02*
X26302043Y50589582D01*
X26302043Y50589582D02*
X26349662Y50494344D01*
X26349662Y50494344D02*
X26349662Y50256249D01*
X26349662Y50256249D02*
X26302043Y50161011D01*
X26302043Y50161011D02*
X26254424Y50113392D01*
X26254424Y50113392D02*
X26159186Y50065773D01*
X26159186Y50065773D02*
X25968710Y50065773D01*
X25968710Y50065773D02*
X25873472Y50113392D01*
X25873472Y50113392D02*
X25825853Y50161011D01*
X25825853Y50161011D02*
X25778234Y50256249D01*
X56002907Y34684820D02*
X56336240Y35161011D01*
X56574335Y34684820D02*
X56574335Y35684820D01*
X56574335Y35684820D02*
X56193383Y35684820D01*
X56193383Y35684820D02*
X56098145Y35637201D01*
X56098145Y35637201D02*
X56050526Y35589582D01*
X56050526Y35589582D02*
X56002907Y35494344D01*
X56002907Y35494344D02*
X56002907Y35351487D01*
X56002907Y35351487D02*
X56050526Y35256249D01*
X56050526Y35256249D02*
X56098145Y35208630D01*
X56098145Y35208630D02*
X56193383Y35161011D01*
X56193383Y35161011D02*
X56574335Y35161011D01*
X55145764Y35351487D02*
X55145764Y34684820D01*
X55383859Y35732439D02*
X55621954Y35018154D01*
X55621954Y35018154D02*
X55002907Y35018154D01*
X54098145Y34684820D02*
X54669573Y34684820D01*
X54383859Y34684820D02*
X54383859Y35684820D01*
X54383859Y35684820D02*
X54479097Y35541963D01*
X54479097Y35541963D02*
X54574335Y35446725D01*
X54574335Y35446725D02*
X54669573Y35399106D01*
X69950094Y44913181D02*
X69950094Y45913181D01*
X69950094Y45913181D02*
X69711999Y45913181D01*
X69711999Y45913181D02*
X69569142Y45865562D01*
X69569142Y45865562D02*
X69473904Y45770324D01*
X69473904Y45770324D02*
X69426285Y45675086D01*
X69426285Y45675086D02*
X69378666Y45484610D01*
X69378666Y45484610D02*
X69378666Y45341753D01*
X69378666Y45341753D02*
X69426285Y45151277D01*
X69426285Y45151277D02*
X69473904Y45056039D01*
X69473904Y45056039D02*
X69569142Y44960800D01*
X69569142Y44960800D02*
X69711999Y44913181D01*
X69711999Y44913181D02*
X69950094Y44913181D01*
X68521523Y45579848D02*
X68521523Y44913181D01*
X68759618Y45960800D02*
X68997713Y45246515D01*
X68997713Y45246515D02*
X68378666Y45246515D01*
X60620223Y26260941D02*
X60953556Y26737132D01*
X61191651Y26260941D02*
X61191651Y27260941D01*
X61191651Y27260941D02*
X60810699Y27260941D01*
X60810699Y27260941D02*
X60715461Y27213322D01*
X60715461Y27213322D02*
X60667842Y27165703D01*
X60667842Y27165703D02*
X60620223Y27070465D01*
X60620223Y27070465D02*
X60620223Y26927608D01*
X60620223Y26927608D02*
X60667842Y26832370D01*
X60667842Y26832370D02*
X60715461Y26784751D01*
X60715461Y26784751D02*
X60810699Y26737132D01*
X60810699Y26737132D02*
X61191651Y26737132D01*
X59763080Y26927608D02*
X59763080Y26260941D01*
X60001175Y27308560D02*
X60239270Y26594275D01*
X60239270Y26594275D02*
X59620223Y26594275D01*
X58763080Y27260941D02*
X59239270Y27260941D01*
X59239270Y27260941D02*
X59286889Y26784751D01*
X59286889Y26784751D02*
X59239270Y26832370D01*
X59239270Y26832370D02*
X59144032Y26879989D01*
X59144032Y26879989D02*
X58905937Y26879989D01*
X58905937Y26879989D02*
X58810699Y26832370D01*
X58810699Y26832370D02*
X58763080Y26784751D01*
X58763080Y26784751D02*
X58715461Y26689513D01*
X58715461Y26689513D02*
X58715461Y26451418D01*
X58715461Y26451418D02*
X58763080Y26356180D01*
X58763080Y26356180D02*
X58810699Y26308560D01*
X58810699Y26308560D02*
X58905937Y26260941D01*
X58905937Y26260941D02*
X59144032Y26260941D01*
X59144032Y26260941D02*
X59239270Y26308560D01*
X59239270Y26308560D02*
X59286889Y26356180D01*
X87428666Y47313181D02*
X87761999Y47789372D01*
X88000094Y47313181D02*
X88000094Y48313181D01*
X88000094Y48313181D02*
X87619142Y48313181D01*
X87619142Y48313181D02*
X87523904Y48265562D01*
X87523904Y48265562D02*
X87476285Y48217943D01*
X87476285Y48217943D02*
X87428666Y48122705D01*
X87428666Y48122705D02*
X87428666Y47979848D01*
X87428666Y47979848D02*
X87476285Y47884610D01*
X87476285Y47884610D02*
X87523904Y47836991D01*
X87523904Y47836991D02*
X87619142Y47789372D01*
X87619142Y47789372D02*
X88000094Y47789372D01*
X86476285Y47313181D02*
X87047713Y47313181D01*
X86761999Y47313181D02*
X86761999Y48313181D01*
X86761999Y48313181D02*
X86857237Y48170324D01*
X86857237Y48170324D02*
X86952475Y48075086D01*
X86952475Y48075086D02*
X87047713Y48027467D01*
X33607490Y26767691D02*
X33702728Y26815310D01*
X33702728Y26815310D02*
X33797966Y26910548D01*
X33797966Y26910548D02*
X33940823Y27053406D01*
X33940823Y27053406D02*
X34036061Y27101025D01*
X34036061Y27101025D02*
X34131299Y27101025D01*
X34083680Y26862929D02*
X34178918Y26910548D01*
X34178918Y26910548D02*
X34274156Y27005787D01*
X34274156Y27005787D02*
X34321775Y27196263D01*
X34321775Y27196263D02*
X34321775Y27529596D01*
X34321775Y27529596D02*
X34274156Y27720072D01*
X34274156Y27720072D02*
X34178918Y27815310D01*
X34178918Y27815310D02*
X34083680Y27862929D01*
X34083680Y27862929D02*
X33893204Y27862929D01*
X33893204Y27862929D02*
X33797966Y27815310D01*
X33797966Y27815310D02*
X33702728Y27720072D01*
X33702728Y27720072D02*
X33655109Y27529596D01*
X33655109Y27529596D02*
X33655109Y27196263D01*
X33655109Y27196263D02*
X33702728Y27005787D01*
X33702728Y27005787D02*
X33797966Y26910548D01*
X33797966Y26910548D02*
X33893204Y26862929D01*
X33893204Y26862929D02*
X34083680Y26862929D01*
X33321775Y27862929D02*
X32655109Y27862929D01*
X32655109Y27862929D02*
X33083680Y26862929D01*
X58944743Y34263553D02*
X59754266Y34263553D01*
X59754266Y34263553D02*
X59849504Y34215934D01*
X59849504Y34215934D02*
X59897124Y34168315D01*
X59897124Y34168315D02*
X59944743Y34073077D01*
X59944743Y34073077D02*
X59944743Y33882601D01*
X59944743Y33882601D02*
X59897124Y33787363D01*
X59897124Y33787363D02*
X59849504Y33739744D01*
X59849504Y33739744D02*
X59754266Y33692125D01*
X59754266Y33692125D02*
X58944743Y33692125D01*
X59944743Y32692125D02*
X59944743Y33263553D01*
X59944743Y32977839D02*
X58944743Y32977839D01*
X58944743Y32977839D02*
X59087600Y33073077D01*
X59087600Y33073077D02*
X59182838Y33168315D01*
X59182838Y33168315D02*
X59230457Y33263553D01*
X58944743Y31834982D02*
X58944743Y32025458D01*
X58944743Y32025458D02*
X58992362Y32120696D01*
X58992362Y32120696D02*
X59039981Y32168315D01*
X59039981Y32168315D02*
X59182838Y32263553D01*
X59182838Y32263553D02*
X59373314Y32311172D01*
X59373314Y32311172D02*
X59754266Y32311172D01*
X59754266Y32311172D02*
X59849504Y32263553D01*
X59849504Y32263553D02*
X59897124Y32215934D01*
X59897124Y32215934D02*
X59944743Y32120696D01*
X59944743Y32120696D02*
X59944743Y31930220D01*
X59944743Y31930220D02*
X59897124Y31834982D01*
X59897124Y31834982D02*
X59849504Y31787363D01*
X59849504Y31787363D02*
X59754266Y31739744D01*
X59754266Y31739744D02*
X59516171Y31739744D01*
X59516171Y31739744D02*
X59420933Y31787363D01*
X59420933Y31787363D02*
X59373314Y31834982D01*
X59373314Y31834982D02*
X59325695Y31930220D01*
X59325695Y31930220D02*
X59325695Y32120696D01*
X59325695Y32120696D02*
X59373314Y32215934D01*
X59373314Y32215934D02*
X59420933Y32263553D01*
X59420933Y32263553D02*
X59516171Y32311172D01*
X30644032Y59660661D02*
X30691651Y59613041D01*
X30691651Y59613041D02*
X30834508Y59565422D01*
X30834508Y59565422D02*
X30929746Y59565422D01*
X30929746Y59565422D02*
X31072603Y59613041D01*
X31072603Y59613041D02*
X31167841Y59708280D01*
X31167841Y59708280D02*
X31215460Y59803518D01*
X31215460Y59803518D02*
X31263079Y59993994D01*
X31263079Y59993994D02*
X31263079Y60136851D01*
X31263079Y60136851D02*
X31215460Y60327327D01*
X31215460Y60327327D02*
X31167841Y60422565D01*
X31167841Y60422565D02*
X31072603Y60517803D01*
X31072603Y60517803D02*
X30929746Y60565422D01*
X30929746Y60565422D02*
X30834508Y60565422D01*
X30834508Y60565422D02*
X30691651Y60517803D01*
X30691651Y60517803D02*
X30644032Y60470184D01*
X30310698Y60565422D02*
X29644032Y60565422D01*
X29644032Y60565422D02*
X30072603Y59565422D01*
X32700223Y22565422D02*
X33033556Y23041613D01*
X33271651Y22565422D02*
X33271651Y23565422D01*
X33271651Y23565422D02*
X32890699Y23565422D01*
X32890699Y23565422D02*
X32795461Y23517803D01*
X32795461Y23517803D02*
X32747842Y23470184D01*
X32747842Y23470184D02*
X32700223Y23374946D01*
X32700223Y23374946D02*
X32700223Y23232089D01*
X32700223Y23232089D02*
X32747842Y23136851D01*
X32747842Y23136851D02*
X32795461Y23089232D01*
X32795461Y23089232D02*
X32890699Y23041613D01*
X32890699Y23041613D02*
X33271651Y23041613D01*
X31747842Y22565422D02*
X32319270Y22565422D01*
X32033556Y22565422D02*
X32033556Y23565422D01*
X32033556Y23565422D02*
X32128794Y23422565D01*
X32128794Y23422565D02*
X32224032Y23327327D01*
X32224032Y23327327D02*
X32319270Y23279708D01*
X30795461Y22565422D02*
X31366889Y22565422D01*
X31081175Y22565422D02*
X31081175Y23565422D01*
X31081175Y23565422D02*
X31176413Y23422565D01*
X31176413Y23422565D02*
X31271651Y23327327D01*
X31271651Y23327327D02*
X31366889Y23279708D01*
X35137090Y49588687D02*
X35184709Y49541067D01*
X35184709Y49541067D02*
X35327566Y49493448D01*
X35327566Y49493448D02*
X35422804Y49493448D01*
X35422804Y49493448D02*
X35565661Y49541067D01*
X35565661Y49541067D02*
X35660899Y49636306D01*
X35660899Y49636306D02*
X35708518Y49731544D01*
X35708518Y49731544D02*
X35756137Y49922020D01*
X35756137Y49922020D02*
X35756137Y50064877D01*
X35756137Y50064877D02*
X35708518Y50255353D01*
X35708518Y50255353D02*
X35660899Y50350591D01*
X35660899Y50350591D02*
X35565661Y50445829D01*
X35565661Y50445829D02*
X35422804Y50493448D01*
X35422804Y50493448D02*
X35327566Y50493448D01*
X35327566Y50493448D02*
X35184709Y50445829D01*
X35184709Y50445829D02*
X35137090Y50398210D01*
X34803756Y50493448D02*
X34184709Y50493448D01*
X34184709Y50493448D02*
X34518042Y50112496D01*
X34518042Y50112496D02*
X34375185Y50112496D01*
X34375185Y50112496D02*
X34279947Y50064877D01*
X34279947Y50064877D02*
X34232328Y50017258D01*
X34232328Y50017258D02*
X34184709Y49922020D01*
X34184709Y49922020D02*
X34184709Y49683925D01*
X34184709Y49683925D02*
X34232328Y49588687D01*
X34232328Y49588687D02*
X34279947Y49541067D01*
X34279947Y49541067D02*
X34375185Y49493448D01*
X34375185Y49493448D02*
X34660899Y49493448D01*
X34660899Y49493448D02*
X34756137Y49541067D01*
X34756137Y49541067D02*
X34803756Y49588687D01*
X33803756Y50398210D02*
X33756137Y50445829D01*
X33756137Y50445829D02*
X33660899Y50493448D01*
X33660899Y50493448D02*
X33422804Y50493448D01*
X33422804Y50493448D02*
X33327566Y50445829D01*
X33327566Y50445829D02*
X33279947Y50398210D01*
X33279947Y50398210D02*
X33232328Y50302972D01*
X33232328Y50302972D02*
X33232328Y50207734D01*
X33232328Y50207734D02*
X33279947Y50064877D01*
X33279947Y50064877D02*
X33851375Y49493448D01*
X33851375Y49493448D02*
X33232328Y49493448D01*
X101450094Y45413181D02*
X101450094Y46413181D01*
X101450094Y46413181D02*
X101211999Y46413181D01*
X101211999Y46413181D02*
X101069142Y46365562D01*
X101069142Y46365562D02*
X100973904Y46270324D01*
X100973904Y46270324D02*
X100926285Y46175086D01*
X100926285Y46175086D02*
X100878666Y45984610D01*
X100878666Y45984610D02*
X100878666Y45841753D01*
X100878666Y45841753D02*
X100926285Y45651277D01*
X100926285Y45651277D02*
X100973904Y45556039D01*
X100973904Y45556039D02*
X101069142Y45460800D01*
X101069142Y45460800D02*
X101211999Y45413181D01*
X101211999Y45413181D02*
X101450094Y45413181D01*
X100021523Y46413181D02*
X100211999Y46413181D01*
X100211999Y46413181D02*
X100307237Y46365562D01*
X100307237Y46365562D02*
X100354856Y46317943D01*
X100354856Y46317943D02*
X100450094Y46175086D01*
X100450094Y46175086D02*
X100497713Y45984610D01*
X100497713Y45984610D02*
X100497713Y45603658D01*
X100497713Y45603658D02*
X100450094Y45508420D01*
X100450094Y45508420D02*
X100402475Y45460800D01*
X100402475Y45460800D02*
X100307237Y45413181D01*
X100307237Y45413181D02*
X100116761Y45413181D01*
X100116761Y45413181D02*
X100021523Y45460800D01*
X100021523Y45460800D02*
X99973904Y45508420D01*
X99973904Y45508420D02*
X99926285Y45603658D01*
X99926285Y45603658D02*
X99926285Y45841753D01*
X99926285Y45841753D02*
X99973904Y45936991D01*
X99973904Y45936991D02*
X100021523Y45984610D01*
X100021523Y45984610D02*
X100116761Y46032229D01*
X100116761Y46032229D02*
X100307237Y46032229D01*
X100307237Y46032229D02*
X100402475Y45984610D01*
X100402475Y45984610D02*
X100450094Y45936991D01*
X100450094Y45936991D02*
X100497713Y45841753D01*
X78700094Y13163181D02*
X78700094Y12353658D01*
X78700094Y12353658D02*
X78652475Y12258420D01*
X78652475Y12258420D02*
X78604856Y12210800D01*
X78604856Y12210800D02*
X78509618Y12163181D01*
X78509618Y12163181D02*
X78319142Y12163181D01*
X78319142Y12163181D02*
X78223904Y12210800D01*
X78223904Y12210800D02*
X78176285Y12258420D01*
X78176285Y12258420D02*
X78128666Y12353658D01*
X78128666Y12353658D02*
X78128666Y13163181D01*
X77223904Y12829848D02*
X77223904Y12163181D01*
X77461999Y13210800D02*
X77700094Y12496515D01*
X77700094Y12496515D02*
X77081047Y12496515D01*
X76271523Y12829848D02*
X76271523Y12163181D01*
X76509618Y13210800D02*
X76747713Y12496515D01*
X76747713Y12496515D02*
X76128666Y12496515D01*
X49187680Y29967581D02*
X49235300Y30015200D01*
X49235300Y30015200D02*
X49282919Y30158057D01*
X49282919Y30158057D02*
X49282919Y30253295D01*
X49282919Y30253295D02*
X49235300Y30396152D01*
X49235300Y30396152D02*
X49140061Y30491390D01*
X49140061Y30491390D02*
X49044823Y30539009D01*
X49044823Y30539009D02*
X48854347Y30586628D01*
X48854347Y30586628D02*
X48711490Y30586628D01*
X48711490Y30586628D02*
X48521014Y30539009D01*
X48521014Y30539009D02*
X48425776Y30491390D01*
X48425776Y30491390D02*
X48330538Y30396152D01*
X48330538Y30396152D02*
X48282919Y30253295D01*
X48282919Y30253295D02*
X48282919Y30158057D01*
X48282919Y30158057D02*
X48330538Y30015200D01*
X48330538Y30015200D02*
X48378157Y29967581D01*
X48378157Y29586628D02*
X48330538Y29539009D01*
X48330538Y29539009D02*
X48282919Y29443771D01*
X48282919Y29443771D02*
X48282919Y29205676D01*
X48282919Y29205676D02*
X48330538Y29110438D01*
X48330538Y29110438D02*
X48378157Y29062819D01*
X48378157Y29062819D02*
X48473395Y29015200D01*
X48473395Y29015200D02*
X48568633Y29015200D01*
X48568633Y29015200D02*
X48711490Y29062819D01*
X48711490Y29062819D02*
X49282919Y29634247D01*
X49282919Y29634247D02*
X49282919Y29015200D01*
X48282919Y28396152D02*
X48282919Y28300914D01*
X48282919Y28300914D02*
X48330538Y28205676D01*
X48330538Y28205676D02*
X48378157Y28158057D01*
X48378157Y28158057D02*
X48473395Y28110438D01*
X48473395Y28110438D02*
X48663871Y28062819D01*
X48663871Y28062819D02*
X48901966Y28062819D01*
X48901966Y28062819D02*
X49092442Y28110438D01*
X49092442Y28110438D02*
X49187680Y28158057D01*
X49187680Y28158057D02*
X49235300Y28205676D01*
X49235300Y28205676D02*
X49282919Y28300914D01*
X49282919Y28300914D02*
X49282919Y28396152D01*
X49282919Y28396152D02*
X49235300Y28491390D01*
X49235300Y28491390D02*
X49187680Y28539009D01*
X49187680Y28539009D02*
X49092442Y28586628D01*
X49092442Y28586628D02*
X48901966Y28634247D01*
X48901966Y28634247D02*
X48663871Y28634247D01*
X48663871Y28634247D02*
X48473395Y28586628D01*
X48473395Y28586628D02*
X48378157Y28539009D01*
X48378157Y28539009D02*
X48330538Y28491390D01*
X48330538Y28491390D02*
X48282919Y28396152D01*
X89327426Y42777280D02*
X88851235Y43110613D01*
X89327426Y43348708D02*
X88327426Y43348708D01*
X88327426Y43348708D02*
X88327426Y42967756D01*
X88327426Y42967756D02*
X88375045Y42872518D01*
X88375045Y42872518D02*
X88422664Y42824899D01*
X88422664Y42824899D02*
X88517902Y42777280D01*
X88517902Y42777280D02*
X88660759Y42777280D01*
X88660759Y42777280D02*
X88755997Y42824899D01*
X88755997Y42824899D02*
X88803616Y42872518D01*
X88803616Y42872518D02*
X88851235Y42967756D01*
X88851235Y42967756D02*
X88851235Y43348708D01*
X89327426Y41824899D02*
X89327426Y42396327D01*
X89327426Y42110613D02*
X88327426Y42110613D01*
X88327426Y42110613D02*
X88470283Y42205851D01*
X88470283Y42205851D02*
X88565521Y42301089D01*
X88565521Y42301089D02*
X88613140Y42396327D01*
X88327426Y40967756D02*
X88327426Y41158232D01*
X88327426Y41158232D02*
X88375045Y41253470D01*
X88375045Y41253470D02*
X88422664Y41301089D01*
X88422664Y41301089D02*
X88565521Y41396327D01*
X88565521Y41396327D02*
X88755997Y41443946D01*
X88755997Y41443946D02*
X89136949Y41443946D01*
X89136949Y41443946D02*
X89232187Y41396327D01*
X89232187Y41396327D02*
X89279807Y41348708D01*
X89279807Y41348708D02*
X89327426Y41253470D01*
X89327426Y41253470D02*
X89327426Y41062994D01*
X89327426Y41062994D02*
X89279807Y40967756D01*
X89279807Y40967756D02*
X89232187Y40920137D01*
X89232187Y40920137D02*
X89136949Y40872518D01*
X89136949Y40872518D02*
X88898854Y40872518D01*
X88898854Y40872518D02*
X88803616Y40920137D01*
X88803616Y40920137D02*
X88755997Y40967756D01*
X88755997Y40967756D02*
X88708378Y41062994D01*
X88708378Y41062994D02*
X88708378Y41253470D01*
X88708378Y41253470D02*
X88755997Y41348708D01*
X88755997Y41348708D02*
X88803616Y41396327D01*
X88803616Y41396327D02*
X88898854Y41443946D01*
X54819059Y25776225D02*
X54342868Y26109558D01*
X54819059Y26347653D02*
X53819059Y26347653D01*
X53819059Y26347653D02*
X53819059Y25966701D01*
X53819059Y25966701D02*
X53866678Y25871463D01*
X53866678Y25871463D02*
X53914297Y25823844D01*
X53914297Y25823844D02*
X54009535Y25776225D01*
X54009535Y25776225D02*
X54152392Y25776225D01*
X54152392Y25776225D02*
X54247630Y25823844D01*
X54247630Y25823844D02*
X54295249Y25871463D01*
X54295249Y25871463D02*
X54342868Y25966701D01*
X54342868Y25966701D02*
X54342868Y26347653D01*
X54152392Y24919082D02*
X54819059Y24919082D01*
X53771440Y25157177D02*
X54485725Y25395272D01*
X54485725Y25395272D02*
X54485725Y24776225D01*
X53819059Y24204796D02*
X53819059Y24109558D01*
X53819059Y24109558D02*
X53866678Y24014320D01*
X53866678Y24014320D02*
X53914297Y23966701D01*
X53914297Y23966701D02*
X54009535Y23919082D01*
X54009535Y23919082D02*
X54200011Y23871463D01*
X54200011Y23871463D02*
X54438106Y23871463D01*
X54438106Y23871463D02*
X54628582Y23919082D01*
X54628582Y23919082D02*
X54723820Y23966701D01*
X54723820Y23966701D02*
X54771440Y24014320D01*
X54771440Y24014320D02*
X54819059Y24109558D01*
X54819059Y24109558D02*
X54819059Y24204796D01*
X54819059Y24204796D02*
X54771440Y24300034D01*
X54771440Y24300034D02*
X54723820Y24347653D01*
X54723820Y24347653D02*
X54628582Y24395272D01*
X54628582Y24395272D02*
X54438106Y24442891D01*
X54438106Y24442891D02*
X54200011Y24442891D01*
X54200011Y24442891D02*
X54009535Y24395272D01*
X54009535Y24395272D02*
X53914297Y24347653D01*
X53914297Y24347653D02*
X53866678Y24300034D01*
X53866678Y24300034D02*
X53819059Y24204796D01*
X48388894Y34263553D02*
X49198417Y34263553D01*
X49198417Y34263553D02*
X49293655Y34215934D01*
X49293655Y34215934D02*
X49341275Y34168315D01*
X49341275Y34168315D02*
X49388894Y34073077D01*
X49388894Y34073077D02*
X49388894Y33882601D01*
X49388894Y33882601D02*
X49341275Y33787363D01*
X49341275Y33787363D02*
X49293655Y33739744D01*
X49293655Y33739744D02*
X49198417Y33692125D01*
X49198417Y33692125D02*
X48388894Y33692125D01*
X49388894Y32692125D02*
X49388894Y33263553D01*
X49388894Y32977839D02*
X48388894Y32977839D01*
X48388894Y32977839D02*
X48531751Y33073077D01*
X48531751Y33073077D02*
X48626989Y33168315D01*
X48626989Y33168315D02*
X48674608Y33263553D01*
X48722227Y31834982D02*
X49388894Y31834982D01*
X48341275Y32073077D02*
X49055560Y32311172D01*
X49055560Y32311172D02*
X49055560Y31692125D01*
X94455288Y7046305D02*
X94550526Y7093924D01*
X94550526Y7093924D02*
X94645764Y7189162D01*
X94645764Y7189162D02*
X94788621Y7332020D01*
X94788621Y7332020D02*
X94883859Y7379639D01*
X94883859Y7379639D02*
X94979097Y7379639D01*
X94931478Y7141543D02*
X95026716Y7189162D01*
X95026716Y7189162D02*
X95121954Y7284401D01*
X95121954Y7284401D02*
X95169573Y7474877D01*
X95169573Y7474877D02*
X95169573Y7808210D01*
X95169573Y7808210D02*
X95121954Y7998686D01*
X95121954Y7998686D02*
X95026716Y8093924D01*
X95026716Y8093924D02*
X94931478Y8141543D01*
X94931478Y8141543D02*
X94741002Y8141543D01*
X94741002Y8141543D02*
X94645764Y8093924D01*
X94645764Y8093924D02*
X94550526Y7998686D01*
X94550526Y7998686D02*
X94502907Y7808210D01*
X94502907Y7808210D02*
X94502907Y7474877D01*
X94502907Y7474877D02*
X94550526Y7284401D01*
X94550526Y7284401D02*
X94645764Y7189162D01*
X94645764Y7189162D02*
X94741002Y7141543D01*
X94741002Y7141543D02*
X94931478Y7141543D01*
X93645764Y7808210D02*
X93645764Y7141543D01*
X93883859Y8189162D02*
X94121954Y7474877D01*
X94121954Y7474877D02*
X93502907Y7474877D01*
X67531580Y57810858D02*
X67579200Y57858477D01*
X67579200Y57858477D02*
X67626819Y58001334D01*
X67626819Y58001334D02*
X67626819Y58096572D01*
X67626819Y58096572D02*
X67579200Y58239429D01*
X67579200Y58239429D02*
X67483961Y58334667D01*
X67483961Y58334667D02*
X67388723Y58382286D01*
X67388723Y58382286D02*
X67198247Y58429905D01*
X67198247Y58429905D02*
X67055390Y58429905D01*
X67055390Y58429905D02*
X66864914Y58382286D01*
X66864914Y58382286D02*
X66769676Y58334667D01*
X66769676Y58334667D02*
X66674438Y58239429D01*
X66674438Y58239429D02*
X66626819Y58096572D01*
X66626819Y58096572D02*
X66626819Y58001334D01*
X66626819Y58001334D02*
X66674438Y57858477D01*
X66674438Y57858477D02*
X66722057Y57810858D01*
X66722057Y57429905D02*
X66674438Y57382286D01*
X66674438Y57382286D02*
X66626819Y57287048D01*
X66626819Y57287048D02*
X66626819Y57048953D01*
X66626819Y57048953D02*
X66674438Y56953715D01*
X66674438Y56953715D02*
X66722057Y56906096D01*
X66722057Y56906096D02*
X66817295Y56858477D01*
X66817295Y56858477D02*
X66912533Y56858477D01*
X66912533Y56858477D02*
X67055390Y56906096D01*
X67055390Y56906096D02*
X67626819Y57477524D01*
X67626819Y57477524D02*
X67626819Y56858477D01*
X66722057Y56477524D02*
X66674438Y56429905D01*
X66674438Y56429905D02*
X66626819Y56334667D01*
X66626819Y56334667D02*
X66626819Y56096572D01*
X66626819Y56096572D02*
X66674438Y56001334D01*
X66674438Y56001334D02*
X66722057Y55953715D01*
X66722057Y55953715D02*
X66817295Y55906096D01*
X66817295Y55906096D02*
X66912533Y55906096D01*
X66912533Y55906096D02*
X67055390Y55953715D01*
X67055390Y55953715D02*
X67626819Y56525143D01*
X67626819Y56525143D02*
X67626819Y55906096D01*
X72354857Y2913181D02*
X72688190Y3389372D01*
X72926285Y2913181D02*
X72926285Y3913181D01*
X72926285Y3913181D02*
X72545333Y3913181D01*
X72545333Y3913181D02*
X72450095Y3865562D01*
X72450095Y3865562D02*
X72402476Y3817943D01*
X72402476Y3817943D02*
X72354857Y3722705D01*
X72354857Y3722705D02*
X72354857Y3579848D01*
X72354857Y3579848D02*
X72402476Y3484610D01*
X72402476Y3484610D02*
X72450095Y3436991D01*
X72450095Y3436991D02*
X72545333Y3389372D01*
X72545333Y3389372D02*
X72926285Y3389372D01*
X71973904Y3817943D02*
X71926285Y3865562D01*
X71926285Y3865562D02*
X71831047Y3913181D01*
X71831047Y3913181D02*
X71592952Y3913181D01*
X71592952Y3913181D02*
X71497714Y3865562D01*
X71497714Y3865562D02*
X71450095Y3817943D01*
X71450095Y3817943D02*
X71402476Y3722705D01*
X71402476Y3722705D02*
X71402476Y3627467D01*
X71402476Y3627467D02*
X71450095Y3484610D01*
X71450095Y3484610D02*
X72021523Y2913181D01*
X72021523Y2913181D02*
X71402476Y2913181D01*
X70497714Y3913181D02*
X70973904Y3913181D01*
X70973904Y3913181D02*
X71021523Y3436991D01*
X71021523Y3436991D02*
X70973904Y3484610D01*
X70973904Y3484610D02*
X70878666Y3532229D01*
X70878666Y3532229D02*
X70640571Y3532229D01*
X70640571Y3532229D02*
X70545333Y3484610D01*
X70545333Y3484610D02*
X70497714Y3436991D01*
X70497714Y3436991D02*
X70450095Y3341753D01*
X70450095Y3341753D02*
X70450095Y3103658D01*
X70450095Y3103658D02*
X70497714Y3008420D01*
X70497714Y3008420D02*
X70545333Y2960800D01*
X70545333Y2960800D02*
X70640571Y2913181D01*
X70640571Y2913181D02*
X70878666Y2913181D01*
X70878666Y2913181D02*
X70973904Y2960800D01*
X70973904Y2960800D02*
X71021523Y3008420D01*
X53918666Y48708420D02*
X53966285Y48660800D01*
X53966285Y48660800D02*
X54109142Y48613181D01*
X54109142Y48613181D02*
X54204380Y48613181D01*
X54204380Y48613181D02*
X54347237Y48660800D01*
X54347237Y48660800D02*
X54442475Y48756039D01*
X54442475Y48756039D02*
X54490094Y48851277D01*
X54490094Y48851277D02*
X54537713Y49041753D01*
X54537713Y49041753D02*
X54537713Y49184610D01*
X54537713Y49184610D02*
X54490094Y49375086D01*
X54490094Y49375086D02*
X54442475Y49470324D01*
X54442475Y49470324D02*
X54347237Y49565562D01*
X54347237Y49565562D02*
X54204380Y49613181D01*
X54204380Y49613181D02*
X54109142Y49613181D01*
X54109142Y49613181D02*
X53966285Y49565562D01*
X53966285Y49565562D02*
X53918666Y49517943D01*
X53013904Y49613181D02*
X53490094Y49613181D01*
X53490094Y49613181D02*
X53537713Y49136991D01*
X53537713Y49136991D02*
X53490094Y49184610D01*
X53490094Y49184610D02*
X53394856Y49232229D01*
X53394856Y49232229D02*
X53156761Y49232229D01*
X53156761Y49232229D02*
X53061523Y49184610D01*
X53061523Y49184610D02*
X53013904Y49136991D01*
X53013904Y49136991D02*
X52966285Y49041753D01*
X52966285Y49041753D02*
X52966285Y48803658D01*
X52966285Y48803658D02*
X53013904Y48708420D01*
X53013904Y48708420D02*
X53061523Y48660800D01*
X53061523Y48660800D02*
X53156761Y48613181D01*
X53156761Y48613181D02*
X53394856Y48613181D01*
X53394856Y48613181D02*
X53490094Y48660800D01*
X53490094Y48660800D02*
X53537713Y48708420D01*
X46598002Y26756327D02*
X46931335Y27232518D01*
X47169430Y26756327D02*
X47169430Y27756327D01*
X47169430Y27756327D02*
X46788478Y27756327D01*
X46788478Y27756327D02*
X46693240Y27708708D01*
X46693240Y27708708D02*
X46645621Y27661089D01*
X46645621Y27661089D02*
X46598002Y27565851D01*
X46598002Y27565851D02*
X46598002Y27422994D01*
X46598002Y27422994D02*
X46645621Y27327756D01*
X46645621Y27327756D02*
X46693240Y27280137D01*
X46693240Y27280137D02*
X46788478Y27232518D01*
X46788478Y27232518D02*
X47169430Y27232518D01*
X46217049Y27661089D02*
X46169430Y27708708D01*
X46169430Y27708708D02*
X46074192Y27756327D01*
X46074192Y27756327D02*
X45836097Y27756327D01*
X45836097Y27756327D02*
X45740859Y27708708D01*
X45740859Y27708708D02*
X45693240Y27661089D01*
X45693240Y27661089D02*
X45645621Y27565851D01*
X45645621Y27565851D02*
X45645621Y27470613D01*
X45645621Y27470613D02*
X45693240Y27327756D01*
X45693240Y27327756D02*
X46264668Y26756327D01*
X46264668Y26756327D02*
X45645621Y26756327D01*
X45264668Y27661089D02*
X45217049Y27708708D01*
X45217049Y27708708D02*
X45121811Y27756327D01*
X45121811Y27756327D02*
X44883716Y27756327D01*
X44883716Y27756327D02*
X44788478Y27708708D01*
X44788478Y27708708D02*
X44740859Y27661089D01*
X44740859Y27661089D02*
X44693240Y27565851D01*
X44693240Y27565851D02*
X44693240Y27470613D01*
X44693240Y27470613D02*
X44740859Y27327756D01*
X44740859Y27327756D02*
X45312287Y26756327D01*
X45312287Y26756327D02*
X44693240Y26756327D01*
X37666819Y44606095D02*
X38476342Y44606095D01*
X38476342Y44606095D02*
X38571580Y44558476D01*
X38571580Y44558476D02*
X38619200Y44510857D01*
X38619200Y44510857D02*
X38666819Y44415619D01*
X38666819Y44415619D02*
X38666819Y44225143D01*
X38666819Y44225143D02*
X38619200Y44129905D01*
X38619200Y44129905D02*
X38571580Y44082286D01*
X38571580Y44082286D02*
X38476342Y44034667D01*
X38476342Y44034667D02*
X37666819Y44034667D01*
X38000152Y43129905D02*
X38666819Y43129905D01*
X37619200Y43368000D02*
X38333485Y43606095D01*
X38333485Y43606095D02*
X38333485Y42987048D01*
X37762057Y42653714D02*
X37714438Y42606095D01*
X37714438Y42606095D02*
X37666819Y42510857D01*
X37666819Y42510857D02*
X37666819Y42272762D01*
X37666819Y42272762D02*
X37714438Y42177524D01*
X37714438Y42177524D02*
X37762057Y42129905D01*
X37762057Y42129905D02*
X37857295Y42082286D01*
X37857295Y42082286D02*
X37952533Y42082286D01*
X37952533Y42082286D02*
X38095390Y42129905D01*
X38095390Y42129905D02*
X38666819Y42701333D01*
X38666819Y42701333D02*
X38666819Y42082286D01*
X29544032Y6565422D02*
X29877365Y7041613D01*
X30115460Y6565422D02*
X30115460Y7565422D01*
X30115460Y7565422D02*
X29734508Y7565422D01*
X29734508Y7565422D02*
X29639270Y7517803D01*
X29639270Y7517803D02*
X29591651Y7470184D01*
X29591651Y7470184D02*
X29544032Y7374946D01*
X29544032Y7374946D02*
X29544032Y7232089D01*
X29544032Y7232089D02*
X29591651Y7136851D01*
X29591651Y7136851D02*
X29639270Y7089232D01*
X29639270Y7089232D02*
X29734508Y7041613D01*
X29734508Y7041613D02*
X30115460Y7041613D01*
X28686889Y7232089D02*
X28686889Y6565422D01*
X28924984Y7613041D02*
X29163079Y6898756D01*
X29163079Y6898756D02*
X28544032Y6898756D01*
X24210110Y9924969D02*
X23733919Y10258302D01*
X24210110Y10496397D02*
X23210110Y10496397D01*
X23210110Y10496397D02*
X23210110Y10115445D01*
X23210110Y10115445D02*
X23257729Y10020207D01*
X23257729Y10020207D02*
X23305348Y9972588D01*
X23305348Y9972588D02*
X23400586Y9924969D01*
X23400586Y9924969D02*
X23543443Y9924969D01*
X23543443Y9924969D02*
X23638681Y9972588D01*
X23638681Y9972588D02*
X23686300Y10020207D01*
X23686300Y10020207D02*
X23733919Y10115445D01*
X23733919Y10115445D02*
X23733919Y10496397D01*
X23210110Y9591635D02*
X23210110Y8972588D01*
X23210110Y8972588D02*
X23591062Y9305921D01*
X23591062Y9305921D02*
X23591062Y9163064D01*
X23591062Y9163064D02*
X23638681Y9067826D01*
X23638681Y9067826D02*
X23686300Y9020207D01*
X23686300Y9020207D02*
X23781538Y8972588D01*
X23781538Y8972588D02*
X24019633Y8972588D01*
X24019633Y8972588D02*
X24114871Y9020207D01*
X24114871Y9020207D02*
X24162491Y9067826D01*
X24162491Y9067826D02*
X24210110Y9163064D01*
X24210110Y9163064D02*
X24210110Y9448778D01*
X24210110Y9448778D02*
X24162491Y9544016D01*
X24162491Y9544016D02*
X24114871Y9591635D01*
X83666819Y42510858D02*
X83190628Y42844191D01*
X83666819Y43082286D02*
X82666819Y43082286D01*
X82666819Y43082286D02*
X82666819Y42701334D01*
X82666819Y42701334D02*
X82714438Y42606096D01*
X82714438Y42606096D02*
X82762057Y42558477D01*
X82762057Y42558477D02*
X82857295Y42510858D01*
X82857295Y42510858D02*
X83000152Y42510858D01*
X83000152Y42510858D02*
X83095390Y42558477D01*
X83095390Y42558477D02*
X83143009Y42606096D01*
X83143009Y42606096D02*
X83190628Y42701334D01*
X83190628Y42701334D02*
X83190628Y43082286D01*
X82666819Y41606096D02*
X82666819Y42082286D01*
X82666819Y42082286D02*
X83143009Y42129905D01*
X83143009Y42129905D02*
X83095390Y42082286D01*
X83095390Y42082286D02*
X83047771Y41987048D01*
X83047771Y41987048D02*
X83047771Y41748953D01*
X83047771Y41748953D02*
X83095390Y41653715D01*
X83095390Y41653715D02*
X83143009Y41606096D01*
X83143009Y41606096D02*
X83238247Y41558477D01*
X83238247Y41558477D02*
X83476342Y41558477D01*
X83476342Y41558477D02*
X83571580Y41606096D01*
X83571580Y41606096D02*
X83619200Y41653715D01*
X83619200Y41653715D02*
X83666819Y41748953D01*
X83666819Y41748953D02*
X83666819Y41987048D01*
X83666819Y41987048D02*
X83619200Y42082286D01*
X83619200Y42082286D02*
X83571580Y42129905D01*
X83666819Y40606096D02*
X83666819Y41177524D01*
X83666819Y40891810D02*
X82666819Y40891810D01*
X82666819Y40891810D02*
X82809676Y40987048D01*
X82809676Y40987048D02*
X82904914Y41082286D01*
X82904914Y41082286D02*
X82952533Y41177524D01*
X38378666Y2913181D02*
X38711999Y3389372D01*
X38950094Y2913181D02*
X38950094Y3913181D01*
X38950094Y3913181D02*
X38569142Y3913181D01*
X38569142Y3913181D02*
X38473904Y3865562D01*
X38473904Y3865562D02*
X38426285Y3817943D01*
X38426285Y3817943D02*
X38378666Y3722705D01*
X38378666Y3722705D02*
X38378666Y3579848D01*
X38378666Y3579848D02*
X38426285Y3484610D01*
X38426285Y3484610D02*
X38473904Y3436991D01*
X38473904Y3436991D02*
X38569142Y3389372D01*
X38569142Y3389372D02*
X38950094Y3389372D01*
X37521523Y3913181D02*
X37711999Y3913181D01*
X37711999Y3913181D02*
X37807237Y3865562D01*
X37807237Y3865562D02*
X37854856Y3817943D01*
X37854856Y3817943D02*
X37950094Y3675086D01*
X37950094Y3675086D02*
X37997713Y3484610D01*
X37997713Y3484610D02*
X37997713Y3103658D01*
X37997713Y3103658D02*
X37950094Y3008420D01*
X37950094Y3008420D02*
X37902475Y2960800D01*
X37902475Y2960800D02*
X37807237Y2913181D01*
X37807237Y2913181D02*
X37616761Y2913181D01*
X37616761Y2913181D02*
X37521523Y2960800D01*
X37521523Y2960800D02*
X37473904Y3008420D01*
X37473904Y3008420D02*
X37426285Y3103658D01*
X37426285Y3103658D02*
X37426285Y3341753D01*
X37426285Y3341753D02*
X37473904Y3436991D01*
X37473904Y3436991D02*
X37521523Y3484610D01*
X37521523Y3484610D02*
X37616761Y3532229D01*
X37616761Y3532229D02*
X37807237Y3532229D01*
X37807237Y3532229D02*
X37902475Y3484610D01*
X37902475Y3484610D02*
X37950094Y3436991D01*
X37950094Y3436991D02*
X37997713Y3341753D01*
X92157238Y52317943D02*
X92252476Y52365562D01*
X92252476Y52365562D02*
X92347714Y52460800D01*
X92347714Y52460800D02*
X92490571Y52603658D01*
X92490571Y52603658D02*
X92585809Y52651277D01*
X92585809Y52651277D02*
X92681047Y52651277D01*
X92633428Y52413181D02*
X92728666Y52460800D01*
X92728666Y52460800D02*
X92823904Y52556039D01*
X92823904Y52556039D02*
X92871523Y52746515D01*
X92871523Y52746515D02*
X92871523Y53079848D01*
X92871523Y53079848D02*
X92823904Y53270324D01*
X92823904Y53270324D02*
X92728666Y53365562D01*
X92728666Y53365562D02*
X92633428Y53413181D01*
X92633428Y53413181D02*
X92442952Y53413181D01*
X92442952Y53413181D02*
X92347714Y53365562D01*
X92347714Y53365562D02*
X92252476Y53270324D01*
X92252476Y53270324D02*
X92204857Y53079848D01*
X92204857Y53079848D02*
X92204857Y52746515D01*
X92204857Y52746515D02*
X92252476Y52556039D01*
X92252476Y52556039D02*
X92347714Y52460800D01*
X92347714Y52460800D02*
X92442952Y52413181D01*
X92442952Y52413181D02*
X92633428Y52413181D01*
X91252476Y52413181D02*
X91823904Y52413181D01*
X91538190Y52413181D02*
X91538190Y53413181D01*
X91538190Y53413181D02*
X91633428Y53270324D01*
X91633428Y53270324D02*
X91728666Y53175086D01*
X91728666Y53175086D02*
X91823904Y53127467D01*
X33914560Y7377648D02*
X33914560Y6568125D01*
X33914560Y6568125D02*
X33866941Y6472887D01*
X33866941Y6472887D02*
X33819322Y6425267D01*
X33819322Y6425267D02*
X33724084Y6377648D01*
X33724084Y6377648D02*
X33533608Y6377648D01*
X33533608Y6377648D02*
X33438370Y6425267D01*
X33438370Y6425267D02*
X33390751Y6472887D01*
X33390751Y6472887D02*
X33343132Y6568125D01*
X33343132Y6568125D02*
X33343132Y7377648D01*
X32914560Y7282410D02*
X32866941Y7330029D01*
X32866941Y7330029D02*
X32771703Y7377648D01*
X32771703Y7377648D02*
X32533608Y7377648D01*
X32533608Y7377648D02*
X32438370Y7330029D01*
X32438370Y7330029D02*
X32390751Y7282410D01*
X32390751Y7282410D02*
X32343132Y7187172D01*
X32343132Y7187172D02*
X32343132Y7091934D01*
X32343132Y7091934D02*
X32390751Y6949077D01*
X32390751Y6949077D02*
X32962179Y6377648D01*
X32962179Y6377648D02*
X32343132Y6377648D01*
X31438370Y7377648D02*
X31914560Y7377648D01*
X31914560Y7377648D02*
X31962179Y6901458D01*
X31962179Y6901458D02*
X31914560Y6949077D01*
X31914560Y6949077D02*
X31819322Y6996696D01*
X31819322Y6996696D02*
X31581227Y6996696D01*
X31581227Y6996696D02*
X31485989Y6949077D01*
X31485989Y6949077D02*
X31438370Y6901458D01*
X31438370Y6901458D02*
X31390751Y6806220D01*
X31390751Y6806220D02*
X31390751Y6568125D01*
X31390751Y6568125D02*
X31438370Y6472887D01*
X31438370Y6472887D02*
X31485989Y6425267D01*
X31485989Y6425267D02*
X31581227Y6377648D01*
X31581227Y6377648D02*
X31819322Y6377648D01*
X31819322Y6377648D02*
X31914560Y6425267D01*
X31914560Y6425267D02*
X31962179Y6472887D01*
X95666819Y41106095D02*
X96476342Y41106095D01*
X96476342Y41106095D02*
X96571580Y41058476D01*
X96571580Y41058476D02*
X96619200Y41010857D01*
X96619200Y41010857D02*
X96666819Y40915619D01*
X96666819Y40915619D02*
X96666819Y40725143D01*
X96666819Y40725143D02*
X96619200Y40629905D01*
X96619200Y40629905D02*
X96571580Y40582286D01*
X96571580Y40582286D02*
X96476342Y40534667D01*
X96476342Y40534667D02*
X95666819Y40534667D01*
X95666819Y40153714D02*
X95666819Y39534667D01*
X95666819Y39534667D02*
X96047771Y39868000D01*
X96047771Y39868000D02*
X96047771Y39725143D01*
X96047771Y39725143D02*
X96095390Y39629905D01*
X96095390Y39629905D02*
X96143009Y39582286D01*
X96143009Y39582286D02*
X96238247Y39534667D01*
X96238247Y39534667D02*
X96476342Y39534667D01*
X96476342Y39534667D02*
X96571580Y39582286D01*
X96571580Y39582286D02*
X96619200Y39629905D01*
X96619200Y39629905D02*
X96666819Y39725143D01*
X96666819Y39725143D02*
X96666819Y40010857D01*
X96666819Y40010857D02*
X96619200Y40106095D01*
X96619200Y40106095D02*
X96571580Y40153714D01*
X96666819Y39058476D02*
X96666819Y38868000D01*
X96666819Y38868000D02*
X96619200Y38772762D01*
X96619200Y38772762D02*
X96571580Y38725143D01*
X96571580Y38725143D02*
X96428723Y38629905D01*
X96428723Y38629905D02*
X96238247Y38582286D01*
X96238247Y38582286D02*
X95857295Y38582286D01*
X95857295Y38582286D02*
X95762057Y38629905D01*
X95762057Y38629905D02*
X95714438Y38677524D01*
X95714438Y38677524D02*
X95666819Y38772762D01*
X95666819Y38772762D02*
X95666819Y38963238D01*
X95666819Y38963238D02*
X95714438Y39058476D01*
X95714438Y39058476D02*
X95762057Y39106095D01*
X95762057Y39106095D02*
X95857295Y39153714D01*
X95857295Y39153714D02*
X96095390Y39153714D01*
X96095390Y39153714D02*
X96190628Y39106095D01*
X96190628Y39106095D02*
X96238247Y39058476D01*
X96238247Y39058476D02*
X96285866Y38963238D01*
X96285866Y38963238D02*
X96285866Y38772762D01*
X96285866Y38772762D02*
X96238247Y38677524D01*
X96238247Y38677524D02*
X96190628Y38629905D01*
X96190628Y38629905D02*
X96095390Y38582286D01*
X76666819Y54410858D02*
X76190628Y54744191D01*
X76666819Y54982286D02*
X75666819Y54982286D01*
X75666819Y54982286D02*
X75666819Y54601334D01*
X75666819Y54601334D02*
X75714438Y54506096D01*
X75714438Y54506096D02*
X75762057Y54458477D01*
X75762057Y54458477D02*
X75857295Y54410858D01*
X75857295Y54410858D02*
X76000152Y54410858D01*
X76000152Y54410858D02*
X76095390Y54458477D01*
X76095390Y54458477D02*
X76143009Y54506096D01*
X76143009Y54506096D02*
X76190628Y54601334D01*
X76190628Y54601334D02*
X76190628Y54982286D01*
X76000152Y53553715D02*
X76666819Y53553715D01*
X75619200Y53791810D02*
X76333485Y54029905D01*
X76333485Y54029905D02*
X76333485Y53410858D01*
X76666819Y52982286D02*
X76666819Y52791810D01*
X76666819Y52791810D02*
X76619200Y52696572D01*
X76619200Y52696572D02*
X76571580Y52648953D01*
X76571580Y52648953D02*
X76428723Y52553715D01*
X76428723Y52553715D02*
X76238247Y52506096D01*
X76238247Y52506096D02*
X75857295Y52506096D01*
X75857295Y52506096D02*
X75762057Y52553715D01*
X75762057Y52553715D02*
X75714438Y52601334D01*
X75714438Y52601334D02*
X75666819Y52696572D01*
X75666819Y52696572D02*
X75666819Y52887048D01*
X75666819Y52887048D02*
X75714438Y52982286D01*
X75714438Y52982286D02*
X75762057Y53029905D01*
X75762057Y53029905D02*
X75857295Y53077524D01*
X75857295Y53077524D02*
X76095390Y53077524D01*
X76095390Y53077524D02*
X76190628Y53029905D01*
X76190628Y53029905D02*
X76238247Y52982286D01*
X76238247Y52982286D02*
X76285866Y52887048D01*
X76285866Y52887048D02*
X76285866Y52696572D01*
X76285866Y52696572D02*
X76238247Y52601334D01*
X76238247Y52601334D02*
X76190628Y52553715D01*
X76190628Y52553715D02*
X76095390Y52506096D01*
X68006211Y6872517D02*
X68815734Y6872517D01*
X68815734Y6872517D02*
X68910972Y6824898D01*
X68910972Y6824898D02*
X68958592Y6777279D01*
X68958592Y6777279D02*
X69006211Y6682041D01*
X69006211Y6682041D02*
X69006211Y6491565D01*
X69006211Y6491565D02*
X68958592Y6396327D01*
X68958592Y6396327D02*
X68910972Y6348708D01*
X68910972Y6348708D02*
X68815734Y6301089D01*
X68815734Y6301089D02*
X68006211Y6301089D01*
X68339544Y5396327D02*
X69006211Y5396327D01*
X67958592Y5634422D02*
X68672877Y5872517D01*
X68672877Y5872517D02*
X68672877Y5253470D01*
X69006211Y4348708D02*
X69006211Y4920136D01*
X69006211Y4634422D02*
X68006211Y4634422D01*
X68006211Y4634422D02*
X68149068Y4729660D01*
X68149068Y4729660D02*
X68244306Y4824898D01*
X68244306Y4824898D02*
X68291925Y4920136D01*
X58819059Y57245492D02*
X58342868Y57578825D01*
X58819059Y57816920D02*
X57819059Y57816920D01*
X57819059Y57816920D02*
X57819059Y57435968D01*
X57819059Y57435968D02*
X57866678Y57340730D01*
X57866678Y57340730D02*
X57914297Y57293111D01*
X57914297Y57293111D02*
X58009535Y57245492D01*
X58009535Y57245492D02*
X58152392Y57245492D01*
X58152392Y57245492D02*
X58247630Y57293111D01*
X58247630Y57293111D02*
X58295249Y57340730D01*
X58295249Y57340730D02*
X58342868Y57435968D01*
X58342868Y57435968D02*
X58342868Y57816920D01*
X57819059Y56340730D02*
X57819059Y56816920D01*
X57819059Y56816920D02*
X58295249Y56864539D01*
X58295249Y56864539D02*
X58247630Y56816920D01*
X58247630Y56816920D02*
X58200011Y56721682D01*
X58200011Y56721682D02*
X58200011Y56483587D01*
X58200011Y56483587D02*
X58247630Y56388349D01*
X58247630Y56388349D02*
X58295249Y56340730D01*
X58295249Y56340730D02*
X58390487Y56293111D01*
X58390487Y56293111D02*
X58628582Y56293111D01*
X58628582Y56293111D02*
X58723820Y56340730D01*
X58723820Y56340730D02*
X58771440Y56388349D01*
X58771440Y56388349D02*
X58819059Y56483587D01*
X58819059Y56483587D02*
X58819059Y56721682D01*
X58819059Y56721682D02*
X58771440Y56816920D01*
X58771440Y56816920D02*
X58723820Y56864539D01*
X57819059Y55674063D02*
X57819059Y55578825D01*
X57819059Y55578825D02*
X57866678Y55483587D01*
X57866678Y55483587D02*
X57914297Y55435968D01*
X57914297Y55435968D02*
X58009535Y55388349D01*
X58009535Y55388349D02*
X58200011Y55340730D01*
X58200011Y55340730D02*
X58438106Y55340730D01*
X58438106Y55340730D02*
X58628582Y55388349D01*
X58628582Y55388349D02*
X58723820Y55435968D01*
X58723820Y55435968D02*
X58771440Y55483587D01*
X58771440Y55483587D02*
X58819059Y55578825D01*
X58819059Y55578825D02*
X58819059Y55674063D01*
X58819059Y55674063D02*
X58771440Y55769301D01*
X58771440Y55769301D02*
X58723820Y55816920D01*
X58723820Y55816920D02*
X58628582Y55864539D01*
X58628582Y55864539D02*
X58438106Y55912158D01*
X58438106Y55912158D02*
X58200011Y55912158D01*
X58200011Y55912158D02*
X58009535Y55864539D01*
X58009535Y55864539D02*
X57914297Y55816920D01*
X57914297Y55816920D02*
X57866678Y55769301D01*
X57866678Y55769301D02*
X57819059Y55674063D01*
X97512314Y43786345D02*
X97559933Y43738725D01*
X97559933Y43738725D02*
X97702790Y43691106D01*
X97702790Y43691106D02*
X97798028Y43691106D01*
X97798028Y43691106D02*
X97940885Y43738725D01*
X97940885Y43738725D02*
X98036123Y43833964D01*
X98036123Y43833964D02*
X98083742Y43929202D01*
X98083742Y43929202D02*
X98131361Y44119678D01*
X98131361Y44119678D02*
X98131361Y44262535D01*
X98131361Y44262535D02*
X98083742Y44453011D01*
X98083742Y44453011D02*
X98036123Y44548249D01*
X98036123Y44548249D02*
X97940885Y44643487D01*
X97940885Y44643487D02*
X97798028Y44691106D01*
X97798028Y44691106D02*
X97702790Y44691106D01*
X97702790Y44691106D02*
X97559933Y44643487D01*
X97559933Y44643487D02*
X97512314Y44595868D01*
X97131361Y44595868D02*
X97083742Y44643487D01*
X97083742Y44643487D02*
X96988504Y44691106D01*
X96988504Y44691106D02*
X96750409Y44691106D01*
X96750409Y44691106D02*
X96655171Y44643487D01*
X96655171Y44643487D02*
X96607552Y44595868D01*
X96607552Y44595868D02*
X96559933Y44500630D01*
X96559933Y44500630D02*
X96559933Y44405392D01*
X96559933Y44405392D02*
X96607552Y44262535D01*
X96607552Y44262535D02*
X97178980Y43691106D01*
X97178980Y43691106D02*
X96559933Y43691106D01*
X96083742Y43691106D02*
X95893266Y43691106D01*
X95893266Y43691106D02*
X95798028Y43738725D01*
X95798028Y43738725D02*
X95750409Y43786345D01*
X95750409Y43786345D02*
X95655171Y43929202D01*
X95655171Y43929202D02*
X95607552Y44119678D01*
X95607552Y44119678D02*
X95607552Y44500630D01*
X95607552Y44500630D02*
X95655171Y44595868D01*
X95655171Y44595868D02*
X95702790Y44643487D01*
X95702790Y44643487D02*
X95798028Y44691106D01*
X95798028Y44691106D02*
X95988504Y44691106D01*
X95988504Y44691106D02*
X96083742Y44643487D01*
X96083742Y44643487D02*
X96131361Y44595868D01*
X96131361Y44595868D02*
X96178980Y44500630D01*
X96178980Y44500630D02*
X96178980Y44262535D01*
X96178980Y44262535D02*
X96131361Y44167297D01*
X96131361Y44167297D02*
X96083742Y44119678D01*
X96083742Y44119678D02*
X95988504Y44072059D01*
X95988504Y44072059D02*
X95798028Y44072059D01*
X95798028Y44072059D02*
X95702790Y44119678D01*
X95702790Y44119678D02*
X95655171Y44167297D01*
X95655171Y44167297D02*
X95607552Y44262535D01*
X66919360Y39108700D02*
X66919360Y38299177D01*
X66919360Y38299177D02*
X66871741Y38203939D01*
X66871741Y38203939D02*
X66824122Y38156319D01*
X66824122Y38156319D02*
X66728884Y38108700D01*
X66728884Y38108700D02*
X66538408Y38108700D01*
X66538408Y38108700D02*
X66443170Y38156319D01*
X66443170Y38156319D02*
X66395551Y38203939D01*
X66395551Y38203939D02*
X66347932Y38299177D01*
X66347932Y38299177D02*
X66347932Y39108700D01*
X65966979Y39108700D02*
X65347932Y39108700D01*
X65347932Y39108700D02*
X65681265Y38727748D01*
X65681265Y38727748D02*
X65538408Y38727748D01*
X65538408Y38727748D02*
X65443170Y38680129D01*
X65443170Y38680129D02*
X65395551Y38632510D01*
X65395551Y38632510D02*
X65347932Y38537272D01*
X65347932Y38537272D02*
X65347932Y38299177D01*
X65347932Y38299177D02*
X65395551Y38203939D01*
X65395551Y38203939D02*
X65443170Y38156319D01*
X65443170Y38156319D02*
X65538408Y38108700D01*
X65538408Y38108700D02*
X65824122Y38108700D01*
X65824122Y38108700D02*
X65919360Y38156319D01*
X65919360Y38156319D02*
X65966979Y38203939D01*
X64443170Y39108700D02*
X64919360Y39108700D01*
X64919360Y39108700D02*
X64966979Y38632510D01*
X64966979Y38632510D02*
X64919360Y38680129D01*
X64919360Y38680129D02*
X64824122Y38727748D01*
X64824122Y38727748D02*
X64586027Y38727748D01*
X64586027Y38727748D02*
X64490789Y38680129D01*
X64490789Y38680129D02*
X64443170Y38632510D01*
X64443170Y38632510D02*
X64395551Y38537272D01*
X64395551Y38537272D02*
X64395551Y38299177D01*
X64395551Y38299177D02*
X64443170Y38203939D01*
X64443170Y38203939D02*
X64490789Y38156319D01*
X64490789Y38156319D02*
X64586027Y38108700D01*
X64586027Y38108700D02*
X64824122Y38108700D01*
X64824122Y38108700D02*
X64919360Y38156319D01*
X64919360Y38156319D02*
X64966979Y38203939D01*
X13166819Y48010858D02*
X12690628Y48344191D01*
X13166819Y48582286D02*
X12166819Y48582286D01*
X12166819Y48582286D02*
X12166819Y48201334D01*
X12166819Y48201334D02*
X12214438Y48106096D01*
X12214438Y48106096D02*
X12262057Y48058477D01*
X12262057Y48058477D02*
X12357295Y48010858D01*
X12357295Y48010858D02*
X12500152Y48010858D01*
X12500152Y48010858D02*
X12595390Y48058477D01*
X12595390Y48058477D02*
X12643009Y48106096D01*
X12643009Y48106096D02*
X12690628Y48201334D01*
X12690628Y48201334D02*
X12690628Y48582286D01*
X12166819Y47677524D02*
X12166819Y47058477D01*
X12166819Y47058477D02*
X12547771Y47391810D01*
X12547771Y47391810D02*
X12547771Y47248953D01*
X12547771Y47248953D02*
X12595390Y47153715D01*
X12595390Y47153715D02*
X12643009Y47106096D01*
X12643009Y47106096D02*
X12738247Y47058477D01*
X12738247Y47058477D02*
X12976342Y47058477D01*
X12976342Y47058477D02*
X13071580Y47106096D01*
X13071580Y47106096D02*
X13119200Y47153715D01*
X13119200Y47153715D02*
X13166819Y47248953D01*
X13166819Y47248953D02*
X13166819Y47534667D01*
X13166819Y47534667D02*
X13119200Y47629905D01*
X13119200Y47629905D02*
X13071580Y47677524D01*
X13166819Y46106096D02*
X13166819Y46677524D01*
X13166819Y46391810D02*
X12166819Y46391810D01*
X12166819Y46391810D02*
X12309676Y46487048D01*
X12309676Y46487048D02*
X12404914Y46582286D01*
X12404914Y46582286D02*
X12452533Y46677524D01*
X65354857Y2413181D02*
X65688190Y2889372D01*
X65926285Y2413181D02*
X65926285Y3413181D01*
X65926285Y3413181D02*
X65545333Y3413181D01*
X65545333Y3413181D02*
X65450095Y3365562D01*
X65450095Y3365562D02*
X65402476Y3317943D01*
X65402476Y3317943D02*
X65354857Y3222705D01*
X65354857Y3222705D02*
X65354857Y3079848D01*
X65354857Y3079848D02*
X65402476Y2984610D01*
X65402476Y2984610D02*
X65450095Y2936991D01*
X65450095Y2936991D02*
X65545333Y2889372D01*
X65545333Y2889372D02*
X65926285Y2889372D01*
X64973904Y3317943D02*
X64926285Y3365562D01*
X64926285Y3365562D02*
X64831047Y3413181D01*
X64831047Y3413181D02*
X64592952Y3413181D01*
X64592952Y3413181D02*
X64497714Y3365562D01*
X64497714Y3365562D02*
X64450095Y3317943D01*
X64450095Y3317943D02*
X64402476Y3222705D01*
X64402476Y3222705D02*
X64402476Y3127467D01*
X64402476Y3127467D02*
X64450095Y2984610D01*
X64450095Y2984610D02*
X65021523Y2413181D01*
X65021523Y2413181D02*
X64402476Y2413181D01*
X64069142Y3413181D02*
X63450095Y3413181D01*
X63450095Y3413181D02*
X63783428Y3032229D01*
X63783428Y3032229D02*
X63640571Y3032229D01*
X63640571Y3032229D02*
X63545333Y2984610D01*
X63545333Y2984610D02*
X63497714Y2936991D01*
X63497714Y2936991D02*
X63450095Y2841753D01*
X63450095Y2841753D02*
X63450095Y2603658D01*
X63450095Y2603658D02*
X63497714Y2508420D01*
X63497714Y2508420D02*
X63545333Y2460800D01*
X63545333Y2460800D02*
X63640571Y2413181D01*
X63640571Y2413181D02*
X63926285Y2413181D01*
X63926285Y2413181D02*
X64021523Y2460800D01*
X64021523Y2460800D02*
X64069142Y2508420D01*
X60086320Y37745492D02*
X60133940Y37793111D01*
X60133940Y37793111D02*
X60181559Y37935968D01*
X60181559Y37935968D02*
X60181559Y38031206D01*
X60181559Y38031206D02*
X60133940Y38174063D01*
X60133940Y38174063D02*
X60038701Y38269301D01*
X60038701Y38269301D02*
X59943463Y38316920D01*
X59943463Y38316920D02*
X59752987Y38364539D01*
X59752987Y38364539D02*
X59610130Y38364539D01*
X59610130Y38364539D02*
X59419654Y38316920D01*
X59419654Y38316920D02*
X59324416Y38269301D01*
X59324416Y38269301D02*
X59229178Y38174063D01*
X59229178Y38174063D02*
X59181559Y38031206D01*
X59181559Y38031206D02*
X59181559Y37935968D01*
X59181559Y37935968D02*
X59229178Y37793111D01*
X59229178Y37793111D02*
X59276797Y37745492D01*
X59276797Y37364539D02*
X59229178Y37316920D01*
X59229178Y37316920D02*
X59181559Y37221682D01*
X59181559Y37221682D02*
X59181559Y36983587D01*
X59181559Y36983587D02*
X59229178Y36888349D01*
X59229178Y36888349D02*
X59276797Y36840730D01*
X59276797Y36840730D02*
X59372035Y36793111D01*
X59372035Y36793111D02*
X59467273Y36793111D01*
X59467273Y36793111D02*
X59610130Y36840730D01*
X59610130Y36840730D02*
X60181559Y37412158D01*
X60181559Y37412158D02*
X60181559Y36793111D01*
X59514892Y35935968D02*
X60181559Y35935968D01*
X59133940Y36174063D02*
X59848225Y36412158D01*
X59848225Y36412158D02*
X59848225Y35793111D01*
X92235634Y13980283D02*
X92568967Y13980283D01*
X92568967Y13456473D02*
X92568967Y14456473D01*
X92568967Y14456473D02*
X92092777Y14456473D01*
X91759443Y14361235D02*
X91711824Y14408854D01*
X91711824Y14408854D02*
X91616586Y14456473D01*
X91616586Y14456473D02*
X91378491Y14456473D01*
X91378491Y14456473D02*
X91283253Y14408854D01*
X91283253Y14408854D02*
X91235634Y14361235D01*
X91235634Y14361235D02*
X91188015Y14265997D01*
X91188015Y14265997D02*
X91188015Y14170759D01*
X91188015Y14170759D02*
X91235634Y14027902D01*
X91235634Y14027902D02*
X91807062Y13456473D01*
X91807062Y13456473D02*
X91188015Y13456473D01*
X50854857Y22413181D02*
X51188190Y22889372D01*
X51426285Y22413181D02*
X51426285Y23413181D01*
X51426285Y23413181D02*
X51045333Y23413181D01*
X51045333Y23413181D02*
X50950095Y23365562D01*
X50950095Y23365562D02*
X50902476Y23317943D01*
X50902476Y23317943D02*
X50854857Y23222705D01*
X50854857Y23222705D02*
X50854857Y23079848D01*
X50854857Y23079848D02*
X50902476Y22984610D01*
X50902476Y22984610D02*
X50950095Y22936991D01*
X50950095Y22936991D02*
X51045333Y22889372D01*
X51045333Y22889372D02*
X51426285Y22889372D01*
X49997714Y23079848D02*
X49997714Y22413181D01*
X50235809Y23460800D02*
X50473904Y22746515D01*
X50473904Y22746515D02*
X49854857Y22746515D01*
X49521523Y23317943D02*
X49473904Y23365562D01*
X49473904Y23365562D02*
X49378666Y23413181D01*
X49378666Y23413181D02*
X49140571Y23413181D01*
X49140571Y23413181D02*
X49045333Y23365562D01*
X49045333Y23365562D02*
X48997714Y23317943D01*
X48997714Y23317943D02*
X48950095Y23222705D01*
X48950095Y23222705D02*
X48950095Y23127467D01*
X48950095Y23127467D02*
X48997714Y22984610D01*
X48997714Y22984610D02*
X49569142Y22413181D01*
X49569142Y22413181D02*
X48950095Y22413181D01*
X94950094Y4413181D02*
X94950094Y5413181D01*
X94950094Y5413181D02*
X94711999Y5413181D01*
X94711999Y5413181D02*
X94569142Y5365562D01*
X94569142Y5365562D02*
X94473904Y5270324D01*
X94473904Y5270324D02*
X94426285Y5175086D01*
X94426285Y5175086D02*
X94378666Y4984610D01*
X94378666Y4984610D02*
X94378666Y4841753D01*
X94378666Y4841753D02*
X94426285Y4651277D01*
X94426285Y4651277D02*
X94473904Y4556039D01*
X94473904Y4556039D02*
X94569142Y4460800D01*
X94569142Y4460800D02*
X94711999Y4413181D01*
X94711999Y4413181D02*
X94950094Y4413181D01*
X94045332Y5413181D02*
X93378666Y5413181D01*
X93378666Y5413181D02*
X93807237Y4413181D01*
X81807238Y48317943D02*
X81902476Y48365562D01*
X81902476Y48365562D02*
X81997714Y48460800D01*
X81997714Y48460800D02*
X82140571Y48603658D01*
X82140571Y48603658D02*
X82235809Y48651277D01*
X82235809Y48651277D02*
X82331047Y48651277D01*
X82283428Y48413181D02*
X82378666Y48460800D01*
X82378666Y48460800D02*
X82473904Y48556039D01*
X82473904Y48556039D02*
X82521523Y48746515D01*
X82521523Y48746515D02*
X82521523Y49079848D01*
X82521523Y49079848D02*
X82473904Y49270324D01*
X82473904Y49270324D02*
X82378666Y49365562D01*
X82378666Y49365562D02*
X82283428Y49413181D01*
X82283428Y49413181D02*
X82092952Y49413181D01*
X82092952Y49413181D02*
X81997714Y49365562D01*
X81997714Y49365562D02*
X81902476Y49270324D01*
X81902476Y49270324D02*
X81854857Y49079848D01*
X81854857Y49079848D02*
X81854857Y48746515D01*
X81854857Y48746515D02*
X81902476Y48556039D01*
X81902476Y48556039D02*
X81997714Y48460800D01*
X81997714Y48460800D02*
X82092952Y48413181D01*
X82092952Y48413181D02*
X82283428Y48413181D01*
X80997714Y49413181D02*
X81188190Y49413181D01*
X81188190Y49413181D02*
X81283428Y49365562D01*
X81283428Y49365562D02*
X81331047Y49317943D01*
X81331047Y49317943D02*
X81426285Y49175086D01*
X81426285Y49175086D02*
X81473904Y48984610D01*
X81473904Y48984610D02*
X81473904Y48603658D01*
X81473904Y48603658D02*
X81426285Y48508420D01*
X81426285Y48508420D02*
X81378666Y48460800D01*
X81378666Y48460800D02*
X81283428Y48413181D01*
X81283428Y48413181D02*
X81092952Y48413181D01*
X81092952Y48413181D02*
X80997714Y48460800D01*
X80997714Y48460800D02*
X80950095Y48508420D01*
X80950095Y48508420D02*
X80902476Y48603658D01*
X80902476Y48603658D02*
X80902476Y48841753D01*
X80902476Y48841753D02*
X80950095Y48936991D01*
X80950095Y48936991D02*
X80997714Y48984610D01*
X80997714Y48984610D02*
X81092952Y49032229D01*
X81092952Y49032229D02*
X81283428Y49032229D01*
X81283428Y49032229D02*
X81378666Y48984610D01*
X81378666Y48984610D02*
X81426285Y48936991D01*
X81426285Y48936991D02*
X81473904Y48841753D01*
X47206806Y21141543D02*
X47540139Y21617734D01*
X47778234Y21141543D02*
X47778234Y22141543D01*
X47778234Y22141543D02*
X47397282Y22141543D01*
X47397282Y22141543D02*
X47302044Y22093924D01*
X47302044Y22093924D02*
X47254425Y22046305D01*
X47254425Y22046305D02*
X47206806Y21951067D01*
X47206806Y21951067D02*
X47206806Y21808210D01*
X47206806Y21808210D02*
X47254425Y21712972D01*
X47254425Y21712972D02*
X47302044Y21665353D01*
X47302044Y21665353D02*
X47397282Y21617734D01*
X47397282Y21617734D02*
X47778234Y21617734D01*
X46349663Y21808210D02*
X46349663Y21141543D01*
X46587758Y22189162D02*
X46825853Y21474877D01*
X46825853Y21474877D02*
X46206806Y21474877D01*
X45397282Y22141543D02*
X45587758Y22141543D01*
X45587758Y22141543D02*
X45682996Y22093924D01*
X45682996Y22093924D02*
X45730615Y22046305D01*
X45730615Y22046305D02*
X45825853Y21903448D01*
X45825853Y21903448D02*
X45873472Y21712972D01*
X45873472Y21712972D02*
X45873472Y21332020D01*
X45873472Y21332020D02*
X45825853Y21236782D01*
X45825853Y21236782D02*
X45778234Y21189162D01*
X45778234Y21189162D02*
X45682996Y21141543D01*
X45682996Y21141543D02*
X45492520Y21141543D01*
X45492520Y21141543D02*
X45397282Y21189162D01*
X45397282Y21189162D02*
X45349663Y21236782D01*
X45349663Y21236782D02*
X45302044Y21332020D01*
X45302044Y21332020D02*
X45302044Y21570115D01*
X45302044Y21570115D02*
X45349663Y21665353D01*
X45349663Y21665353D02*
X45397282Y21712972D01*
X45397282Y21712972D02*
X45492520Y21760591D01*
X45492520Y21760591D02*
X45682996Y21760591D01*
X45682996Y21760591D02*
X45778234Y21712972D01*
X45778234Y21712972D02*
X45825853Y21665353D01*
X45825853Y21665353D02*
X45873472Y21570115D01*
X17388894Y7448638D02*
X18198417Y7448638D01*
X18198417Y7448638D02*
X18293655Y7401019D01*
X18293655Y7401019D02*
X18341275Y7353400D01*
X18341275Y7353400D02*
X18388894Y7258162D01*
X18388894Y7258162D02*
X18388894Y7067686D01*
X18388894Y7067686D02*
X18341275Y6972448D01*
X18341275Y6972448D02*
X18293655Y6924829D01*
X18293655Y6924829D02*
X18198417Y6877210D01*
X18198417Y6877210D02*
X17388894Y6877210D01*
X17484132Y6448638D02*
X17436513Y6401019D01*
X17436513Y6401019D02*
X17388894Y6305781D01*
X17388894Y6305781D02*
X17388894Y6067686D01*
X17388894Y6067686D02*
X17436513Y5972448D01*
X17436513Y5972448D02*
X17484132Y5924829D01*
X17484132Y5924829D02*
X17579370Y5877210D01*
X17579370Y5877210D02*
X17674608Y5877210D01*
X17674608Y5877210D02*
X17817465Y5924829D01*
X17817465Y5924829D02*
X18388894Y6496257D01*
X18388894Y6496257D02*
X18388894Y5877210D01*
X17817465Y5305781D02*
X17769846Y5401019D01*
X17769846Y5401019D02*
X17722227Y5448638D01*
X17722227Y5448638D02*
X17626989Y5496257D01*
X17626989Y5496257D02*
X17579370Y5496257D01*
X17579370Y5496257D02*
X17484132Y5448638D01*
X17484132Y5448638D02*
X17436513Y5401019D01*
X17436513Y5401019D02*
X17388894Y5305781D01*
X17388894Y5305781D02*
X17388894Y5115305D01*
X17388894Y5115305D02*
X17436513Y5020067D01*
X17436513Y5020067D02*
X17484132Y4972448D01*
X17484132Y4972448D02*
X17579370Y4924829D01*
X17579370Y4924829D02*
X17626989Y4924829D01*
X17626989Y4924829D02*
X17722227Y4972448D01*
X17722227Y4972448D02*
X17769846Y5020067D01*
X17769846Y5020067D02*
X17817465Y5115305D01*
X17817465Y5115305D02*
X17817465Y5305781D01*
X17817465Y5305781D02*
X17865084Y5401019D01*
X17865084Y5401019D02*
X17912703Y5448638D01*
X17912703Y5448638D02*
X18007941Y5496257D01*
X18007941Y5496257D02*
X18198417Y5496257D01*
X18198417Y5496257D02*
X18293655Y5448638D01*
X18293655Y5448638D02*
X18341275Y5401019D01*
X18341275Y5401019D02*
X18388894Y5305781D01*
X18388894Y5305781D02*
X18388894Y5115305D01*
X18388894Y5115305D02*
X18341275Y5020067D01*
X18341275Y5020067D02*
X18293655Y4972448D01*
X18293655Y4972448D02*
X18198417Y4924829D01*
X18198417Y4924829D02*
X18007941Y4924829D01*
X18007941Y4924829D02*
X17912703Y4972448D01*
X17912703Y4972448D02*
X17865084Y5020067D01*
X17865084Y5020067D02*
X17817465Y5115305D01*
X82666819Y61510858D02*
X82190628Y61844191D01*
X82666819Y62082286D02*
X81666819Y62082286D01*
X81666819Y62082286D02*
X81666819Y61701334D01*
X81666819Y61701334D02*
X81714438Y61606096D01*
X81714438Y61606096D02*
X81762057Y61558477D01*
X81762057Y61558477D02*
X81857295Y61510858D01*
X81857295Y61510858D02*
X82000152Y61510858D01*
X82000152Y61510858D02*
X82095390Y61558477D01*
X82095390Y61558477D02*
X82143009Y61606096D01*
X82143009Y61606096D02*
X82190628Y61701334D01*
X82190628Y61701334D02*
X82190628Y62082286D01*
X81666819Y60606096D02*
X81666819Y61082286D01*
X81666819Y61082286D02*
X82143009Y61129905D01*
X82143009Y61129905D02*
X82095390Y61082286D01*
X82095390Y61082286D02*
X82047771Y60987048D01*
X82047771Y60987048D02*
X82047771Y60748953D01*
X82047771Y60748953D02*
X82095390Y60653715D01*
X82095390Y60653715D02*
X82143009Y60606096D01*
X82143009Y60606096D02*
X82238247Y60558477D01*
X82238247Y60558477D02*
X82476342Y60558477D01*
X82476342Y60558477D02*
X82571580Y60606096D01*
X82571580Y60606096D02*
X82619200Y60653715D01*
X82619200Y60653715D02*
X82666819Y60748953D01*
X82666819Y60748953D02*
X82666819Y60987048D01*
X82666819Y60987048D02*
X82619200Y61082286D01*
X82619200Y61082286D02*
X82571580Y61129905D01*
X81762057Y60177524D02*
X81714438Y60129905D01*
X81714438Y60129905D02*
X81666819Y60034667D01*
X81666819Y60034667D02*
X81666819Y59796572D01*
X81666819Y59796572D02*
X81714438Y59701334D01*
X81714438Y59701334D02*
X81762057Y59653715D01*
X81762057Y59653715D02*
X81857295Y59606096D01*
X81857295Y59606096D02*
X81952533Y59606096D01*
X81952533Y59606096D02*
X82095390Y59653715D01*
X82095390Y59653715D02*
X82666819Y60225143D01*
X82666819Y60225143D02*
X82666819Y59606096D01*
X56919360Y46608700D02*
X56919360Y45799177D01*
X56919360Y45799177D02*
X56871741Y45703939D01*
X56871741Y45703939D02*
X56824122Y45656319D01*
X56824122Y45656319D02*
X56728884Y45608700D01*
X56728884Y45608700D02*
X56538408Y45608700D01*
X56538408Y45608700D02*
X56443170Y45656319D01*
X56443170Y45656319D02*
X56395551Y45703939D01*
X56395551Y45703939D02*
X56347932Y45799177D01*
X56347932Y45799177D02*
X56347932Y46608700D01*
X55966979Y46608700D02*
X55347932Y46608700D01*
X55347932Y46608700D02*
X55681265Y46227748D01*
X55681265Y46227748D02*
X55538408Y46227748D01*
X55538408Y46227748D02*
X55443170Y46180129D01*
X55443170Y46180129D02*
X55395551Y46132510D01*
X55395551Y46132510D02*
X55347932Y46037272D01*
X55347932Y46037272D02*
X55347932Y45799177D01*
X55347932Y45799177D02*
X55395551Y45703939D01*
X55395551Y45703939D02*
X55443170Y45656319D01*
X55443170Y45656319D02*
X55538408Y45608700D01*
X55538408Y45608700D02*
X55824122Y45608700D01*
X55824122Y45608700D02*
X55919360Y45656319D01*
X55919360Y45656319D02*
X55966979Y45703939D01*
X54490789Y46275367D02*
X54490789Y45608700D01*
X54728884Y46656319D02*
X54966979Y45942034D01*
X54966979Y45942034D02*
X54347932Y45942034D01*
X91620223Y19565422D02*
X91953556Y20041613D01*
X92191651Y19565422D02*
X92191651Y20565422D01*
X92191651Y20565422D02*
X91810699Y20565422D01*
X91810699Y20565422D02*
X91715461Y20517803D01*
X91715461Y20517803D02*
X91667842Y20470184D01*
X91667842Y20470184D02*
X91620223Y20374946D01*
X91620223Y20374946D02*
X91620223Y20232089D01*
X91620223Y20232089D02*
X91667842Y20136851D01*
X91667842Y20136851D02*
X91715461Y20089232D01*
X91715461Y20089232D02*
X91810699Y20041613D01*
X91810699Y20041613D02*
X92191651Y20041613D01*
X91286889Y20565422D02*
X90667842Y20565422D01*
X90667842Y20565422D02*
X91001175Y20184470D01*
X91001175Y20184470D02*
X90858318Y20184470D01*
X90858318Y20184470D02*
X90763080Y20136851D01*
X90763080Y20136851D02*
X90715461Y20089232D01*
X90715461Y20089232D02*
X90667842Y19993994D01*
X90667842Y19993994D02*
X90667842Y19755899D01*
X90667842Y19755899D02*
X90715461Y19660661D01*
X90715461Y19660661D02*
X90763080Y19613041D01*
X90763080Y19613041D02*
X90858318Y19565422D01*
X90858318Y19565422D02*
X91144032Y19565422D01*
X91144032Y19565422D02*
X91239270Y19613041D01*
X91239270Y19613041D02*
X91286889Y19660661D01*
X89810699Y20232089D02*
X89810699Y19565422D01*
X90048794Y20613041D02*
X90286889Y19898756D01*
X90286889Y19898756D02*
X89667842Y19898756D01*
X91666819Y18010858D02*
X91190628Y18344191D01*
X91666819Y18582286D02*
X90666819Y18582286D01*
X90666819Y18582286D02*
X90666819Y18201334D01*
X90666819Y18201334D02*
X90714438Y18106096D01*
X90714438Y18106096D02*
X90762057Y18058477D01*
X90762057Y18058477D02*
X90857295Y18010858D01*
X90857295Y18010858D02*
X91000152Y18010858D01*
X91000152Y18010858D02*
X91095390Y18058477D01*
X91095390Y18058477D02*
X91143009Y18106096D01*
X91143009Y18106096D02*
X91190628Y18201334D01*
X91190628Y18201334D02*
X91190628Y18582286D01*
X90666819Y17677524D02*
X90666819Y17058477D01*
X90666819Y17058477D02*
X91047771Y17391810D01*
X91047771Y17391810D02*
X91047771Y17248953D01*
X91047771Y17248953D02*
X91095390Y17153715D01*
X91095390Y17153715D02*
X91143009Y17106096D01*
X91143009Y17106096D02*
X91238247Y17058477D01*
X91238247Y17058477D02*
X91476342Y17058477D01*
X91476342Y17058477D02*
X91571580Y17106096D01*
X91571580Y17106096D02*
X91619200Y17153715D01*
X91619200Y17153715D02*
X91666819Y17248953D01*
X91666819Y17248953D02*
X91666819Y17534667D01*
X91666819Y17534667D02*
X91619200Y17629905D01*
X91619200Y17629905D02*
X91571580Y17677524D01*
X90666819Y16725143D02*
X90666819Y16106096D01*
X90666819Y16106096D02*
X91047771Y16439429D01*
X91047771Y16439429D02*
X91047771Y16296572D01*
X91047771Y16296572D02*
X91095390Y16201334D01*
X91095390Y16201334D02*
X91143009Y16153715D01*
X91143009Y16153715D02*
X91238247Y16106096D01*
X91238247Y16106096D02*
X91476342Y16106096D01*
X91476342Y16106096D02*
X91571580Y16153715D01*
X91571580Y16153715D02*
X91619200Y16201334D01*
X91619200Y16201334D02*
X91666819Y16296572D01*
X91666819Y16296572D02*
X91666819Y16582286D01*
X91666819Y16582286D02*
X91619200Y16677524D01*
X91619200Y16677524D02*
X91571580Y16725143D01*
X45895180Y7862808D02*
X45418989Y8196141D01*
X45895180Y8434236D02*
X44895180Y8434236D01*
X44895180Y8434236D02*
X44895180Y8053284D01*
X44895180Y8053284D02*
X44942799Y7958046D01*
X44942799Y7958046D02*
X44990418Y7910427D01*
X44990418Y7910427D02*
X45085656Y7862808D01*
X45085656Y7862808D02*
X45228513Y7862808D01*
X45228513Y7862808D02*
X45323751Y7910427D01*
X45323751Y7910427D02*
X45371370Y7958046D01*
X45371370Y7958046D02*
X45418989Y8053284D01*
X45418989Y8053284D02*
X45418989Y8434236D01*
X44990418Y7481855D02*
X44942799Y7434236D01*
X44942799Y7434236D02*
X44895180Y7338998D01*
X44895180Y7338998D02*
X44895180Y7100903D01*
X44895180Y7100903D02*
X44942799Y7005665D01*
X44942799Y7005665D02*
X44990418Y6958046D01*
X44990418Y6958046D02*
X45085656Y6910427D01*
X45085656Y6910427D02*
X45180894Y6910427D01*
X45180894Y6910427D02*
X45323751Y6958046D01*
X45323751Y6958046D02*
X45895180Y7529474D01*
X45895180Y7529474D02*
X45895180Y6910427D01*
X45895180Y5958046D02*
X45895180Y6529474D01*
X45895180Y6243760D02*
X44895180Y6243760D01*
X44895180Y6243760D02*
X45038037Y6338998D01*
X45038037Y6338998D02*
X45133275Y6434236D01*
X45133275Y6434236D02*
X45180894Y6529474D01*
X39684032Y48860661D02*
X39731651Y48813041D01*
X39731651Y48813041D02*
X39874508Y48765422D01*
X39874508Y48765422D02*
X39969746Y48765422D01*
X39969746Y48765422D02*
X40112603Y48813041D01*
X40112603Y48813041D02*
X40207841Y48908280D01*
X40207841Y48908280D02*
X40255460Y49003518D01*
X40255460Y49003518D02*
X40303079Y49193994D01*
X40303079Y49193994D02*
X40303079Y49336851D01*
X40303079Y49336851D02*
X40255460Y49527327D01*
X40255460Y49527327D02*
X40207841Y49622565D01*
X40207841Y49622565D02*
X40112603Y49717803D01*
X40112603Y49717803D02*
X39969746Y49765422D01*
X39969746Y49765422D02*
X39874508Y49765422D01*
X39874508Y49765422D02*
X39731651Y49717803D01*
X39731651Y49717803D02*
X39684032Y49670184D01*
X39303079Y49670184D02*
X39255460Y49717803D01*
X39255460Y49717803D02*
X39160222Y49765422D01*
X39160222Y49765422D02*
X38922127Y49765422D01*
X38922127Y49765422D02*
X38826889Y49717803D01*
X38826889Y49717803D02*
X38779270Y49670184D01*
X38779270Y49670184D02*
X38731651Y49574946D01*
X38731651Y49574946D02*
X38731651Y49479708D01*
X38731651Y49479708D02*
X38779270Y49336851D01*
X38779270Y49336851D02*
X39350698Y48765422D01*
X39350698Y48765422D02*
X38731651Y48765422D01*
X39326819Y33510858D02*
X38850628Y33844191D01*
X39326819Y34082286D02*
X38326819Y34082286D01*
X38326819Y34082286D02*
X38326819Y33701334D01*
X38326819Y33701334D02*
X38374438Y33606096D01*
X38374438Y33606096D02*
X38422057Y33558477D01*
X38422057Y33558477D02*
X38517295Y33510858D01*
X38517295Y33510858D02*
X38660152Y33510858D01*
X38660152Y33510858D02*
X38755390Y33558477D01*
X38755390Y33558477D02*
X38803009Y33606096D01*
X38803009Y33606096D02*
X38850628Y33701334D01*
X38850628Y33701334D02*
X38850628Y34082286D01*
X39326819Y32558477D02*
X39326819Y33129905D01*
X39326819Y32844191D02*
X38326819Y32844191D01*
X38326819Y32844191D02*
X38469676Y32939429D01*
X38469676Y32939429D02*
X38564914Y33034667D01*
X38564914Y33034667D02*
X38612533Y33129905D01*
X38660152Y31701334D02*
X39326819Y31701334D01*
X38279200Y31939429D02*
X38993485Y32177524D01*
X38993485Y32177524D02*
X38993485Y31558477D01*
X40666819Y25510858D02*
X40190628Y25844191D01*
X40666819Y26082286D02*
X39666819Y26082286D01*
X39666819Y26082286D02*
X39666819Y25701334D01*
X39666819Y25701334D02*
X39714438Y25606096D01*
X39714438Y25606096D02*
X39762057Y25558477D01*
X39762057Y25558477D02*
X39857295Y25510858D01*
X39857295Y25510858D02*
X40000152Y25510858D01*
X40000152Y25510858D02*
X40095390Y25558477D01*
X40095390Y25558477D02*
X40143009Y25606096D01*
X40143009Y25606096D02*
X40190628Y25701334D01*
X40190628Y25701334D02*
X40190628Y26082286D01*
X40000152Y24653715D02*
X40666819Y24653715D01*
X39619200Y24891810D02*
X40333485Y25129905D01*
X40333485Y25129905D02*
X40333485Y24510858D01*
X40000152Y23701334D02*
X40666819Y23701334D01*
X39619200Y23939429D02*
X40333485Y24177524D01*
X40333485Y24177524D02*
X40333485Y23558477D01*
X82659080Y15310859D02*
X82706700Y15358478D01*
X82706700Y15358478D02*
X82754319Y15501335D01*
X82754319Y15501335D02*
X82754319Y15596573D01*
X82754319Y15596573D02*
X82706700Y15739430D01*
X82706700Y15739430D02*
X82611461Y15834668D01*
X82611461Y15834668D02*
X82516223Y15882287D01*
X82516223Y15882287D02*
X82325747Y15929906D01*
X82325747Y15929906D02*
X82182890Y15929906D01*
X82182890Y15929906D02*
X81992414Y15882287D01*
X81992414Y15882287D02*
X81897176Y15834668D01*
X81897176Y15834668D02*
X81801938Y15739430D01*
X81801938Y15739430D02*
X81754319Y15596573D01*
X81754319Y15596573D02*
X81754319Y15501335D01*
X81754319Y15501335D02*
X81801938Y15358478D01*
X81801938Y15358478D02*
X81849557Y15310859D01*
X81754319Y14977525D02*
X81754319Y14358478D01*
X81754319Y14358478D02*
X82135271Y14691811D01*
X82135271Y14691811D02*
X82135271Y14548954D01*
X82135271Y14548954D02*
X82182890Y14453716D01*
X82182890Y14453716D02*
X82230509Y14406097D01*
X82230509Y14406097D02*
X82325747Y14358478D01*
X82325747Y14358478D02*
X82563842Y14358478D01*
X82563842Y14358478D02*
X82659080Y14406097D01*
X82659080Y14406097D02*
X82706700Y14453716D01*
X82706700Y14453716D02*
X82754319Y14548954D01*
X82754319Y14548954D02*
X82754319Y14834668D01*
X82754319Y14834668D02*
X82706700Y14929906D01*
X82706700Y14929906D02*
X82659080Y14977525D01*
X82087652Y13501335D02*
X82754319Y13501335D01*
X81706700Y13739430D02*
X82420985Y13977525D01*
X82420985Y13977525D02*
X82420985Y13358478D01*
X19973904Y25913181D02*
X19973904Y25103658D01*
X19973904Y25103658D02*
X19926285Y25008420D01*
X19926285Y25008420D02*
X19878666Y24960800D01*
X19878666Y24960800D02*
X19783428Y24913181D01*
X19783428Y24913181D02*
X19592952Y24913181D01*
X19592952Y24913181D02*
X19497714Y24960800D01*
X19497714Y24960800D02*
X19450095Y25008420D01*
X19450095Y25008420D02*
X19402476Y25103658D01*
X19402476Y25103658D02*
X19402476Y25913181D01*
X19021523Y25913181D02*
X18402476Y25913181D01*
X18402476Y25913181D02*
X18735809Y25532229D01*
X18735809Y25532229D02*
X18592952Y25532229D01*
X18592952Y25532229D02*
X18497714Y25484610D01*
X18497714Y25484610D02*
X18450095Y25436991D01*
X18450095Y25436991D02*
X18402476Y25341753D01*
X18402476Y25341753D02*
X18402476Y25103658D01*
X18402476Y25103658D02*
X18450095Y25008420D01*
X18450095Y25008420D02*
X18497714Y24960800D01*
X18497714Y24960800D02*
X18592952Y24913181D01*
X18592952Y24913181D02*
X18878666Y24913181D01*
X18878666Y24913181D02*
X18973904Y24960800D01*
X18973904Y24960800D02*
X19021523Y25008420D01*
X79450094Y28413181D02*
X79450094Y27603658D01*
X79450094Y27603658D02*
X79402475Y27508420D01*
X79402475Y27508420D02*
X79354856Y27460800D01*
X79354856Y27460800D02*
X79259618Y27413181D01*
X79259618Y27413181D02*
X79069142Y27413181D01*
X79069142Y27413181D02*
X78973904Y27460800D01*
X78973904Y27460800D02*
X78926285Y27508420D01*
X78926285Y27508420D02*
X78878666Y27603658D01*
X78878666Y27603658D02*
X78878666Y28413181D01*
X78497713Y28413181D02*
X77878666Y28413181D01*
X77878666Y28413181D02*
X78211999Y28032229D01*
X78211999Y28032229D02*
X78069142Y28032229D01*
X78069142Y28032229D02*
X77973904Y27984610D01*
X77973904Y27984610D02*
X77926285Y27936991D01*
X77926285Y27936991D02*
X77878666Y27841753D01*
X77878666Y27841753D02*
X77878666Y27603658D01*
X77878666Y27603658D02*
X77926285Y27508420D01*
X77926285Y27508420D02*
X77973904Y27460800D01*
X77973904Y27460800D02*
X78069142Y27413181D01*
X78069142Y27413181D02*
X78354856Y27413181D01*
X78354856Y27413181D02*
X78450094Y27460800D01*
X78450094Y27460800D02*
X78497713Y27508420D01*
X77021523Y28413181D02*
X77211999Y28413181D01*
X77211999Y28413181D02*
X77307237Y28365562D01*
X77307237Y28365562D02*
X77354856Y28317943D01*
X77354856Y28317943D02*
X77450094Y28175086D01*
X77450094Y28175086D02*
X77497713Y27984610D01*
X77497713Y27984610D02*
X77497713Y27603658D01*
X77497713Y27603658D02*
X77450094Y27508420D01*
X77450094Y27508420D02*
X77402475Y27460800D01*
X77402475Y27460800D02*
X77307237Y27413181D01*
X77307237Y27413181D02*
X77116761Y27413181D01*
X77116761Y27413181D02*
X77021523Y27460800D01*
X77021523Y27460800D02*
X76973904Y27508420D01*
X76973904Y27508420D02*
X76926285Y27603658D01*
X76926285Y27603658D02*
X76926285Y27841753D01*
X76926285Y27841753D02*
X76973904Y27936991D01*
X76973904Y27936991D02*
X77021523Y27984610D01*
X77021523Y27984610D02*
X77116761Y28032229D01*
X77116761Y28032229D02*
X77307237Y28032229D01*
X77307237Y28032229D02*
X77402475Y27984610D01*
X77402475Y27984610D02*
X77450094Y27936991D01*
X77450094Y27936991D02*
X77497713Y27841753D01*
X59834857Y28413181D02*
X60168190Y28889372D01*
X60406285Y28413181D02*
X60406285Y29413181D01*
X60406285Y29413181D02*
X60025333Y29413181D01*
X60025333Y29413181D02*
X59930095Y29365562D01*
X59930095Y29365562D02*
X59882476Y29317943D01*
X59882476Y29317943D02*
X59834857Y29222705D01*
X59834857Y29222705D02*
X59834857Y29079848D01*
X59834857Y29079848D02*
X59882476Y28984610D01*
X59882476Y28984610D02*
X59930095Y28936991D01*
X59930095Y28936991D02*
X60025333Y28889372D01*
X60025333Y28889372D02*
X60406285Y28889372D01*
X59453904Y29317943D02*
X59406285Y29365562D01*
X59406285Y29365562D02*
X59311047Y29413181D01*
X59311047Y29413181D02*
X59072952Y29413181D01*
X59072952Y29413181D02*
X58977714Y29365562D01*
X58977714Y29365562D02*
X58930095Y29317943D01*
X58930095Y29317943D02*
X58882476Y29222705D01*
X58882476Y29222705D02*
X58882476Y29127467D01*
X58882476Y29127467D02*
X58930095Y28984610D01*
X58930095Y28984610D02*
X59501523Y28413181D01*
X59501523Y28413181D02*
X58882476Y28413181D01*
X58025333Y29079848D02*
X58025333Y28413181D01*
X58263428Y29460800D02*
X58501523Y28746515D01*
X58501523Y28746515D02*
X57882476Y28746515D01*
X86426285Y16413181D02*
X86426285Y17413181D01*
X86426285Y17413181D02*
X86188190Y17413181D01*
X86188190Y17413181D02*
X86045333Y17365562D01*
X86045333Y17365562D02*
X85950095Y17270324D01*
X85950095Y17270324D02*
X85902476Y17175086D01*
X85902476Y17175086D02*
X85854857Y16984610D01*
X85854857Y16984610D02*
X85854857Y16841753D01*
X85854857Y16841753D02*
X85902476Y16651277D01*
X85902476Y16651277D02*
X85950095Y16556039D01*
X85950095Y16556039D02*
X86045333Y16460800D01*
X86045333Y16460800D02*
X86188190Y16413181D01*
X86188190Y16413181D02*
X86426285Y16413181D01*
X84902476Y16413181D02*
X85473904Y16413181D01*
X85188190Y16413181D02*
X85188190Y17413181D01*
X85188190Y17413181D02*
X85283428Y17270324D01*
X85283428Y17270324D02*
X85378666Y17175086D01*
X85378666Y17175086D02*
X85473904Y17127467D01*
X84569142Y17413181D02*
X83950095Y17413181D01*
X83950095Y17413181D02*
X84283428Y17032229D01*
X84283428Y17032229D02*
X84140571Y17032229D01*
X84140571Y17032229D02*
X84045333Y16984610D01*
X84045333Y16984610D02*
X83997714Y16936991D01*
X83997714Y16936991D02*
X83950095Y16841753D01*
X83950095Y16841753D02*
X83950095Y16603658D01*
X83950095Y16603658D02*
X83997714Y16508420D01*
X83997714Y16508420D02*
X84045333Y16460800D01*
X84045333Y16460800D02*
X84140571Y16413181D01*
X84140571Y16413181D02*
X84426285Y16413181D01*
X84426285Y16413181D02*
X84521523Y16460800D01*
X84521523Y16460800D02*
X84569142Y16508420D01*
X65126495Y22765131D02*
X65459828Y23241322D01*
X65697923Y22765131D02*
X65697923Y23765131D01*
X65697923Y23765131D02*
X65316971Y23765131D01*
X65316971Y23765131D02*
X65221733Y23717512D01*
X65221733Y23717512D02*
X65174114Y23669893D01*
X65174114Y23669893D02*
X65126495Y23574655D01*
X65126495Y23574655D02*
X65126495Y23431798D01*
X65126495Y23431798D02*
X65174114Y23336560D01*
X65174114Y23336560D02*
X65221733Y23288941D01*
X65221733Y23288941D02*
X65316971Y23241322D01*
X65316971Y23241322D02*
X65697923Y23241322D01*
X64269352Y23431798D02*
X64269352Y22765131D01*
X64507447Y23812750D02*
X64745542Y23098465D01*
X64745542Y23098465D02*
X64126495Y23098465D01*
X63840780Y23765131D02*
X63174114Y23765131D01*
X63174114Y23765131D02*
X63602685Y22765131D01*
X55076932Y19755724D02*
X55410265Y20231915D01*
X55648360Y19755724D02*
X55648360Y20755724D01*
X55648360Y20755724D02*
X55267408Y20755724D01*
X55267408Y20755724D02*
X55172170Y20708105D01*
X55172170Y20708105D02*
X55124551Y20660486D01*
X55124551Y20660486D02*
X55076932Y20565248D01*
X55076932Y20565248D02*
X55076932Y20422391D01*
X55076932Y20422391D02*
X55124551Y20327153D01*
X55124551Y20327153D02*
X55172170Y20279534D01*
X55172170Y20279534D02*
X55267408Y20231915D01*
X55267408Y20231915D02*
X55648360Y20231915D01*
X54743598Y20755724D02*
X54124551Y20755724D01*
X54124551Y20755724D02*
X54457884Y20374772D01*
X54457884Y20374772D02*
X54315027Y20374772D01*
X54315027Y20374772D02*
X54219789Y20327153D01*
X54219789Y20327153D02*
X54172170Y20279534D01*
X54172170Y20279534D02*
X54124551Y20184296D01*
X54124551Y20184296D02*
X54124551Y19946201D01*
X54124551Y19946201D02*
X54172170Y19850963D01*
X54172170Y19850963D02*
X54219789Y19803343D01*
X54219789Y19803343D02*
X54315027Y19755724D01*
X54315027Y19755724D02*
X54600741Y19755724D01*
X54600741Y19755724D02*
X54695979Y19803343D01*
X54695979Y19803343D02*
X54743598Y19850963D01*
X53648360Y19755724D02*
X53457884Y19755724D01*
X53457884Y19755724D02*
X53362646Y19803343D01*
X53362646Y19803343D02*
X53315027Y19850963D01*
X53315027Y19850963D02*
X53219789Y19993820D01*
X53219789Y19993820D02*
X53172170Y20184296D01*
X53172170Y20184296D02*
X53172170Y20565248D01*
X53172170Y20565248D02*
X53219789Y20660486D01*
X53219789Y20660486D02*
X53267408Y20708105D01*
X53267408Y20708105D02*
X53362646Y20755724D01*
X53362646Y20755724D02*
X53553122Y20755724D01*
X53553122Y20755724D02*
X53648360Y20708105D01*
X53648360Y20708105D02*
X53695979Y20660486D01*
X53695979Y20660486D02*
X53743598Y20565248D01*
X53743598Y20565248D02*
X53743598Y20327153D01*
X53743598Y20327153D02*
X53695979Y20231915D01*
X53695979Y20231915D02*
X53648360Y20184296D01*
X53648360Y20184296D02*
X53553122Y20136677D01*
X53553122Y20136677D02*
X53362646Y20136677D01*
X53362646Y20136677D02*
X53267408Y20184296D01*
X53267408Y20184296D02*
X53219789Y20231915D01*
X53219789Y20231915D02*
X53172170Y20327153D01*
X75066819Y49510858D02*
X74590628Y49844191D01*
X75066819Y50082286D02*
X74066819Y50082286D01*
X74066819Y50082286D02*
X74066819Y49701334D01*
X74066819Y49701334D02*
X74114438Y49606096D01*
X74114438Y49606096D02*
X74162057Y49558477D01*
X74162057Y49558477D02*
X74257295Y49510858D01*
X74257295Y49510858D02*
X74400152Y49510858D01*
X74400152Y49510858D02*
X74495390Y49558477D01*
X74495390Y49558477D02*
X74543009Y49606096D01*
X74543009Y49606096D02*
X74590628Y49701334D01*
X74590628Y49701334D02*
X74590628Y50082286D01*
X75066819Y48558477D02*
X75066819Y49129905D01*
X75066819Y48844191D02*
X74066819Y48844191D01*
X74066819Y48844191D02*
X74209676Y48939429D01*
X74209676Y48939429D02*
X74304914Y49034667D01*
X74304914Y49034667D02*
X74352533Y49129905D01*
X74066819Y47939429D02*
X74066819Y47844191D01*
X74066819Y47844191D02*
X74114438Y47748953D01*
X74114438Y47748953D02*
X74162057Y47701334D01*
X74162057Y47701334D02*
X74257295Y47653715D01*
X74257295Y47653715D02*
X74447771Y47606096D01*
X74447771Y47606096D02*
X74685866Y47606096D01*
X74685866Y47606096D02*
X74876342Y47653715D01*
X74876342Y47653715D02*
X74971580Y47701334D01*
X74971580Y47701334D02*
X75019200Y47748953D01*
X75019200Y47748953D02*
X75066819Y47844191D01*
X75066819Y47844191D02*
X75066819Y47939429D01*
X75066819Y47939429D02*
X75019200Y48034667D01*
X75019200Y48034667D02*
X74971580Y48082286D01*
X74971580Y48082286D02*
X74876342Y48129905D01*
X74876342Y48129905D02*
X74685866Y48177524D01*
X74685866Y48177524D02*
X74447771Y48177524D01*
X74447771Y48177524D02*
X74257295Y48129905D01*
X74257295Y48129905D02*
X74162057Y48082286D01*
X74162057Y48082286D02*
X74114438Y48034667D01*
X74114438Y48034667D02*
X74066819Y47939429D01*
X68620223Y13356180D02*
X68667842Y13308560D01*
X68667842Y13308560D02*
X68810699Y13260941D01*
X68810699Y13260941D02*
X68905937Y13260941D01*
X68905937Y13260941D02*
X69048794Y13308560D01*
X69048794Y13308560D02*
X69144032Y13403799D01*
X69144032Y13403799D02*
X69191651Y13499037D01*
X69191651Y13499037D02*
X69239270Y13689513D01*
X69239270Y13689513D02*
X69239270Y13832370D01*
X69239270Y13832370D02*
X69191651Y14022846D01*
X69191651Y14022846D02*
X69144032Y14118084D01*
X69144032Y14118084D02*
X69048794Y14213322D01*
X69048794Y14213322D02*
X68905937Y14260941D01*
X68905937Y14260941D02*
X68810699Y14260941D01*
X68810699Y14260941D02*
X68667842Y14213322D01*
X68667842Y14213322D02*
X68620223Y14165703D01*
X68286889Y14260941D02*
X67667842Y14260941D01*
X67667842Y14260941D02*
X68001175Y13879989D01*
X68001175Y13879989D02*
X67858318Y13879989D01*
X67858318Y13879989D02*
X67763080Y13832370D01*
X67763080Y13832370D02*
X67715461Y13784751D01*
X67715461Y13784751D02*
X67667842Y13689513D01*
X67667842Y13689513D02*
X67667842Y13451418D01*
X67667842Y13451418D02*
X67715461Y13356180D01*
X67715461Y13356180D02*
X67763080Y13308560D01*
X67763080Y13308560D02*
X67858318Y13260941D01*
X67858318Y13260941D02*
X68144032Y13260941D01*
X68144032Y13260941D02*
X68239270Y13308560D01*
X68239270Y13308560D02*
X68286889Y13356180D01*
X66715461Y13260941D02*
X67286889Y13260941D01*
X67001175Y13260941D02*
X67001175Y14260941D01*
X67001175Y14260941D02*
X67096413Y14118084D01*
X67096413Y14118084D02*
X67191651Y14022846D01*
X67191651Y14022846D02*
X67286889Y13975227D01*
X61544032Y47065422D02*
X61877365Y47541613D01*
X62115460Y47065422D02*
X62115460Y48065422D01*
X62115460Y48065422D02*
X61734508Y48065422D01*
X61734508Y48065422D02*
X61639270Y48017803D01*
X61639270Y48017803D02*
X61591651Y47970184D01*
X61591651Y47970184D02*
X61544032Y47874946D01*
X61544032Y47874946D02*
X61544032Y47732089D01*
X61544032Y47732089D02*
X61591651Y47636851D01*
X61591651Y47636851D02*
X61639270Y47589232D01*
X61639270Y47589232D02*
X61734508Y47541613D01*
X61734508Y47541613D02*
X62115460Y47541613D01*
X61210698Y48065422D02*
X60544032Y48065422D01*
X60544032Y48065422D02*
X60972603Y47065422D01*
X14400398Y56350251D02*
X13924207Y56683584D01*
X14400398Y56921679D02*
X13400398Y56921679D01*
X13400398Y56921679D02*
X13400398Y56540727D01*
X13400398Y56540727D02*
X13448017Y56445489D01*
X13448017Y56445489D02*
X13495636Y56397870D01*
X13495636Y56397870D02*
X13590874Y56350251D01*
X13590874Y56350251D02*
X13733731Y56350251D01*
X13733731Y56350251D02*
X13828969Y56397870D01*
X13828969Y56397870D02*
X13876588Y56445489D01*
X13876588Y56445489D02*
X13924207Y56540727D01*
X13924207Y56540727D02*
X13924207Y56921679D01*
X13400398Y56016917D02*
X13400398Y55397870D01*
X13400398Y55397870D02*
X13781350Y55731203D01*
X13781350Y55731203D02*
X13781350Y55588346D01*
X13781350Y55588346D02*
X13828969Y55493108D01*
X13828969Y55493108D02*
X13876588Y55445489D01*
X13876588Y55445489D02*
X13971826Y55397870D01*
X13971826Y55397870D02*
X14209921Y55397870D01*
X14209921Y55397870D02*
X14305159Y55445489D01*
X14305159Y55445489D02*
X14352779Y55493108D01*
X14352779Y55493108D02*
X14400398Y55588346D01*
X14400398Y55588346D02*
X14400398Y55874060D01*
X14400398Y55874060D02*
X14352779Y55969298D01*
X14352779Y55969298D02*
X14305159Y56016917D01*
X13495636Y55016917D02*
X13448017Y54969298D01*
X13448017Y54969298D02*
X13400398Y54874060D01*
X13400398Y54874060D02*
X13400398Y54635965D01*
X13400398Y54635965D02*
X13448017Y54540727D01*
X13448017Y54540727D02*
X13495636Y54493108D01*
X13495636Y54493108D02*
X13590874Y54445489D01*
X13590874Y54445489D02*
X13686112Y54445489D01*
X13686112Y54445489D02*
X13828969Y54493108D01*
X13828969Y54493108D02*
X14400398Y55064536D01*
X14400398Y55064536D02*
X14400398Y54445489D01*
X69394857Y48708420D02*
X69442476Y48660800D01*
X69442476Y48660800D02*
X69585333Y48613181D01*
X69585333Y48613181D02*
X69680571Y48613181D01*
X69680571Y48613181D02*
X69823428Y48660800D01*
X69823428Y48660800D02*
X69918666Y48756039D01*
X69918666Y48756039D02*
X69966285Y48851277D01*
X69966285Y48851277D02*
X70013904Y49041753D01*
X70013904Y49041753D02*
X70013904Y49184610D01*
X70013904Y49184610D02*
X69966285Y49375086D01*
X69966285Y49375086D02*
X69918666Y49470324D01*
X69918666Y49470324D02*
X69823428Y49565562D01*
X69823428Y49565562D02*
X69680571Y49613181D01*
X69680571Y49613181D02*
X69585333Y49613181D01*
X69585333Y49613181D02*
X69442476Y49565562D01*
X69442476Y49565562D02*
X69394857Y49517943D01*
X69013904Y49517943D02*
X68966285Y49565562D01*
X68966285Y49565562D02*
X68871047Y49613181D01*
X68871047Y49613181D02*
X68632952Y49613181D01*
X68632952Y49613181D02*
X68537714Y49565562D01*
X68537714Y49565562D02*
X68490095Y49517943D01*
X68490095Y49517943D02*
X68442476Y49422705D01*
X68442476Y49422705D02*
X68442476Y49327467D01*
X68442476Y49327467D02*
X68490095Y49184610D01*
X68490095Y49184610D02*
X69061523Y48613181D01*
X69061523Y48613181D02*
X68442476Y48613181D01*
X68109142Y49613181D02*
X67490095Y49613181D01*
X67490095Y49613181D02*
X67823428Y49232229D01*
X67823428Y49232229D02*
X67680571Y49232229D01*
X67680571Y49232229D02*
X67585333Y49184610D01*
X67585333Y49184610D02*
X67537714Y49136991D01*
X67537714Y49136991D02*
X67490095Y49041753D01*
X67490095Y49041753D02*
X67490095Y48803658D01*
X67490095Y48803658D02*
X67537714Y48708420D01*
X67537714Y48708420D02*
X67585333Y48660800D01*
X67585333Y48660800D02*
X67680571Y48613181D01*
X67680571Y48613181D02*
X67966285Y48613181D01*
X67966285Y48613181D02*
X68061523Y48660800D01*
X68061523Y48660800D02*
X68109142Y48708420D01*
X87378666Y50513181D02*
X87711999Y50989372D01*
X87950094Y50513181D02*
X87950094Y51513181D01*
X87950094Y51513181D02*
X87569142Y51513181D01*
X87569142Y51513181D02*
X87473904Y51465562D01*
X87473904Y51465562D02*
X87426285Y51417943D01*
X87426285Y51417943D02*
X87378666Y51322705D01*
X87378666Y51322705D02*
X87378666Y51179848D01*
X87378666Y51179848D02*
X87426285Y51084610D01*
X87426285Y51084610D02*
X87473904Y51036991D01*
X87473904Y51036991D02*
X87569142Y50989372D01*
X87569142Y50989372D02*
X87950094Y50989372D01*
X86997713Y51417943D02*
X86950094Y51465562D01*
X86950094Y51465562D02*
X86854856Y51513181D01*
X86854856Y51513181D02*
X86616761Y51513181D01*
X86616761Y51513181D02*
X86521523Y51465562D01*
X86521523Y51465562D02*
X86473904Y51417943D01*
X86473904Y51417943D02*
X86426285Y51322705D01*
X86426285Y51322705D02*
X86426285Y51227467D01*
X86426285Y51227467D02*
X86473904Y51084610D01*
X86473904Y51084610D02*
X87045332Y50513181D01*
X87045332Y50513181D02*
X86426285Y50513181D01*
X46166819Y20082286D02*
X45166819Y20082286D01*
X45166819Y20082286D02*
X45166819Y19844191D01*
X45166819Y19844191D02*
X45214438Y19701334D01*
X45214438Y19701334D02*
X45309676Y19606096D01*
X45309676Y19606096D02*
X45404914Y19558477D01*
X45404914Y19558477D02*
X45595390Y19510858D01*
X45595390Y19510858D02*
X45738247Y19510858D01*
X45738247Y19510858D02*
X45928723Y19558477D01*
X45928723Y19558477D02*
X46023961Y19606096D01*
X46023961Y19606096D02*
X46119200Y19701334D01*
X46119200Y19701334D02*
X46166819Y19844191D01*
X46166819Y19844191D02*
X46166819Y20082286D01*
X46166819Y18558477D02*
X46166819Y19129905D01*
X46166819Y18844191D02*
X45166819Y18844191D01*
X45166819Y18844191D02*
X45309676Y18939429D01*
X45309676Y18939429D02*
X45404914Y19034667D01*
X45404914Y19034667D02*
X45452533Y19129905D01*
X45166819Y17939429D02*
X45166819Y17844191D01*
X45166819Y17844191D02*
X45214438Y17748953D01*
X45214438Y17748953D02*
X45262057Y17701334D01*
X45262057Y17701334D02*
X45357295Y17653715D01*
X45357295Y17653715D02*
X45547771Y17606096D01*
X45547771Y17606096D02*
X45785866Y17606096D01*
X45785866Y17606096D02*
X45976342Y17653715D01*
X45976342Y17653715D02*
X46071580Y17701334D01*
X46071580Y17701334D02*
X46119200Y17748953D01*
X46119200Y17748953D02*
X46166819Y17844191D01*
X46166819Y17844191D02*
X46166819Y17939429D01*
X46166819Y17939429D02*
X46119200Y18034667D01*
X46119200Y18034667D02*
X46071580Y18082286D01*
X46071580Y18082286D02*
X45976342Y18129905D01*
X45976342Y18129905D02*
X45785866Y18177524D01*
X45785866Y18177524D02*
X45547771Y18177524D01*
X45547771Y18177524D02*
X45357295Y18129905D01*
X45357295Y18129905D02*
X45262057Y18082286D01*
X45262057Y18082286D02*
X45214438Y18034667D01*
X45214438Y18034667D02*
X45166819Y17939429D01*
X71571580Y31010858D02*
X71619200Y31058477D01*
X71619200Y31058477D02*
X71666819Y31201334D01*
X71666819Y31201334D02*
X71666819Y31296572D01*
X71666819Y31296572D02*
X71619200Y31439429D01*
X71619200Y31439429D02*
X71523961Y31534667D01*
X71523961Y31534667D02*
X71428723Y31582286D01*
X71428723Y31582286D02*
X71238247Y31629905D01*
X71238247Y31629905D02*
X71095390Y31629905D01*
X71095390Y31629905D02*
X70904914Y31582286D01*
X70904914Y31582286D02*
X70809676Y31534667D01*
X70809676Y31534667D02*
X70714438Y31439429D01*
X70714438Y31439429D02*
X70666819Y31296572D01*
X70666819Y31296572D02*
X70666819Y31201334D01*
X70666819Y31201334D02*
X70714438Y31058477D01*
X70714438Y31058477D02*
X70762057Y31010858D01*
X70762057Y30629905D02*
X70714438Y30582286D01*
X70714438Y30582286D02*
X70666819Y30487048D01*
X70666819Y30487048D02*
X70666819Y30248953D01*
X70666819Y30248953D02*
X70714438Y30153715D01*
X70714438Y30153715D02*
X70762057Y30106096D01*
X70762057Y30106096D02*
X70857295Y30058477D01*
X70857295Y30058477D02*
X70952533Y30058477D01*
X70952533Y30058477D02*
X71095390Y30106096D01*
X71095390Y30106096D02*
X71666819Y30677524D01*
X71666819Y30677524D02*
X71666819Y30058477D01*
X71666819Y29106096D02*
X71666819Y29677524D01*
X71666819Y29391810D02*
X70666819Y29391810D01*
X70666819Y29391810D02*
X70809676Y29487048D01*
X70809676Y29487048D02*
X70904914Y29582286D01*
X70904914Y29582286D02*
X70952533Y29677524D01*
X73944743Y15763553D02*
X74754266Y15763553D01*
X74754266Y15763553D02*
X74849504Y15715934D01*
X74849504Y15715934D02*
X74897124Y15668315D01*
X74897124Y15668315D02*
X74944743Y15573077D01*
X74944743Y15573077D02*
X74944743Y15382601D01*
X74944743Y15382601D02*
X74897124Y15287363D01*
X74897124Y15287363D02*
X74849504Y15239744D01*
X74849504Y15239744D02*
X74754266Y15192125D01*
X74754266Y15192125D02*
X73944743Y15192125D01*
X74039981Y14763553D02*
X73992362Y14715934D01*
X73992362Y14715934D02*
X73944743Y14620696D01*
X73944743Y14620696D02*
X73944743Y14382601D01*
X73944743Y14382601D02*
X73992362Y14287363D01*
X73992362Y14287363D02*
X74039981Y14239744D01*
X74039981Y14239744D02*
X74135219Y14192125D01*
X74135219Y14192125D02*
X74230457Y14192125D01*
X74230457Y14192125D02*
X74373314Y14239744D01*
X74373314Y14239744D02*
X74944743Y14811172D01*
X74944743Y14811172D02*
X74944743Y14192125D01*
X73944743Y13858791D02*
X73944743Y13192125D01*
X73944743Y13192125D02*
X74944743Y13620696D01*
X57051580Y42510858D02*
X57099200Y42558477D01*
X57099200Y42558477D02*
X57146819Y42701334D01*
X57146819Y42701334D02*
X57146819Y42796572D01*
X57146819Y42796572D02*
X57099200Y42939429D01*
X57099200Y42939429D02*
X57003961Y43034667D01*
X57003961Y43034667D02*
X56908723Y43082286D01*
X56908723Y43082286D02*
X56718247Y43129905D01*
X56718247Y43129905D02*
X56575390Y43129905D01*
X56575390Y43129905D02*
X56384914Y43082286D01*
X56384914Y43082286D02*
X56289676Y43034667D01*
X56289676Y43034667D02*
X56194438Y42939429D01*
X56194438Y42939429D02*
X56146819Y42796572D01*
X56146819Y42796572D02*
X56146819Y42701334D01*
X56146819Y42701334D02*
X56194438Y42558477D01*
X56194438Y42558477D02*
X56242057Y42510858D01*
X57146819Y41558477D02*
X57146819Y42129905D01*
X57146819Y41844191D02*
X56146819Y41844191D01*
X56146819Y41844191D02*
X56289676Y41939429D01*
X56289676Y41939429D02*
X56384914Y42034667D01*
X56384914Y42034667D02*
X56432533Y42129905D01*
X56575390Y40987048D02*
X56527771Y41082286D01*
X56527771Y41082286D02*
X56480152Y41129905D01*
X56480152Y41129905D02*
X56384914Y41177524D01*
X56384914Y41177524D02*
X56337295Y41177524D01*
X56337295Y41177524D02*
X56242057Y41129905D01*
X56242057Y41129905D02*
X56194438Y41082286D01*
X56194438Y41082286D02*
X56146819Y40987048D01*
X56146819Y40987048D02*
X56146819Y40796572D01*
X56146819Y40796572D02*
X56194438Y40701334D01*
X56194438Y40701334D02*
X56242057Y40653715D01*
X56242057Y40653715D02*
X56337295Y40606096D01*
X56337295Y40606096D02*
X56384914Y40606096D01*
X56384914Y40606096D02*
X56480152Y40653715D01*
X56480152Y40653715D02*
X56527771Y40701334D01*
X56527771Y40701334D02*
X56575390Y40796572D01*
X56575390Y40796572D02*
X56575390Y40987048D01*
X56575390Y40987048D02*
X56623009Y41082286D01*
X56623009Y41082286D02*
X56670628Y41129905D01*
X56670628Y41129905D02*
X56765866Y41177524D01*
X56765866Y41177524D02*
X56956342Y41177524D01*
X56956342Y41177524D02*
X57051580Y41129905D01*
X57051580Y41129905D02*
X57099200Y41082286D01*
X57099200Y41082286D02*
X57146819Y40987048D01*
X57146819Y40987048D02*
X57146819Y40796572D01*
X57146819Y40796572D02*
X57099200Y40701334D01*
X57099200Y40701334D02*
X57051580Y40653715D01*
X57051580Y40653715D02*
X56956342Y40606096D01*
X56956342Y40606096D02*
X56765866Y40606096D01*
X56765866Y40606096D02*
X56670628Y40653715D01*
X56670628Y40653715D02*
X56623009Y40701334D01*
X56623009Y40701334D02*
X56575390Y40796572D01*
X86002907Y23641543D02*
X86336240Y24117734D01*
X86574335Y23641543D02*
X86574335Y24641543D01*
X86574335Y24641543D02*
X86193383Y24641543D01*
X86193383Y24641543D02*
X86098145Y24593924D01*
X86098145Y24593924D02*
X86050526Y24546305D01*
X86050526Y24546305D02*
X86002907Y24451067D01*
X86002907Y24451067D02*
X86002907Y24308210D01*
X86002907Y24308210D02*
X86050526Y24212972D01*
X86050526Y24212972D02*
X86098145Y24165353D01*
X86098145Y24165353D02*
X86193383Y24117734D01*
X86193383Y24117734D02*
X86574335Y24117734D01*
X85621954Y24546305D02*
X85574335Y24593924D01*
X85574335Y24593924D02*
X85479097Y24641543D01*
X85479097Y24641543D02*
X85241002Y24641543D01*
X85241002Y24641543D02*
X85145764Y24593924D01*
X85145764Y24593924D02*
X85098145Y24546305D01*
X85098145Y24546305D02*
X85050526Y24451067D01*
X85050526Y24451067D02*
X85050526Y24355829D01*
X85050526Y24355829D02*
X85098145Y24212972D01*
X85098145Y24212972D02*
X85669573Y23641543D01*
X85669573Y23641543D02*
X85050526Y23641543D01*
X84574335Y23641543D02*
X84383859Y23641543D01*
X84383859Y23641543D02*
X84288621Y23689162D01*
X84288621Y23689162D02*
X84241002Y23736782D01*
X84241002Y23736782D02*
X84145764Y23879639D01*
X84145764Y23879639D02*
X84098145Y24070115D01*
X84098145Y24070115D02*
X84098145Y24451067D01*
X84098145Y24451067D02*
X84145764Y24546305D01*
X84145764Y24546305D02*
X84193383Y24593924D01*
X84193383Y24593924D02*
X84288621Y24641543D01*
X84288621Y24641543D02*
X84479097Y24641543D01*
X84479097Y24641543D02*
X84574335Y24593924D01*
X84574335Y24593924D02*
X84621954Y24546305D01*
X84621954Y24546305D02*
X84669573Y24451067D01*
X84669573Y24451067D02*
X84669573Y24212972D01*
X84669573Y24212972D02*
X84621954Y24117734D01*
X84621954Y24117734D02*
X84574335Y24070115D01*
X84574335Y24070115D02*
X84479097Y24022496D01*
X84479097Y24022496D02*
X84288621Y24022496D01*
X84288621Y24022496D02*
X84193383Y24070115D01*
X84193383Y24070115D02*
X84145764Y24117734D01*
X84145764Y24117734D02*
X84098145Y24212972D01*
X40694743Y29168316D02*
X40218552Y29501649D01*
X40694743Y29739744D02*
X39694743Y29739744D01*
X39694743Y29739744D02*
X39694743Y29358792D01*
X39694743Y29358792D02*
X39742362Y29263554D01*
X39742362Y29263554D02*
X39789981Y29215935D01*
X39789981Y29215935D02*
X39885219Y29168316D01*
X39885219Y29168316D02*
X40028076Y29168316D01*
X40028076Y29168316D02*
X40123314Y29215935D01*
X40123314Y29215935D02*
X40170933Y29263554D01*
X40170933Y29263554D02*
X40218552Y29358792D01*
X40218552Y29358792D02*
X40218552Y29739744D01*
X39694743Y28263554D02*
X39694743Y28739744D01*
X39694743Y28739744D02*
X40170933Y28787363D01*
X40170933Y28787363D02*
X40123314Y28739744D01*
X40123314Y28739744D02*
X40075695Y28644506D01*
X40075695Y28644506D02*
X40075695Y28406411D01*
X40075695Y28406411D02*
X40123314Y28311173D01*
X40123314Y28311173D02*
X40170933Y28263554D01*
X40170933Y28263554D02*
X40266171Y28215935D01*
X40266171Y28215935D02*
X40504266Y28215935D01*
X40504266Y28215935D02*
X40599504Y28263554D01*
X40599504Y28263554D02*
X40647124Y28311173D01*
X40647124Y28311173D02*
X40694743Y28406411D01*
X40694743Y28406411D02*
X40694743Y28644506D01*
X40694743Y28644506D02*
X40647124Y28739744D01*
X40647124Y28739744D02*
X40599504Y28787363D01*
X40028076Y27358792D02*
X40694743Y27358792D01*
X39647124Y27596887D02*
X40361409Y27834982D01*
X40361409Y27834982D02*
X40361409Y27215935D01*
X67726819Y25510858D02*
X67250628Y25844191D01*
X67726819Y26082286D02*
X66726819Y26082286D01*
X66726819Y26082286D02*
X66726819Y25701334D01*
X66726819Y25701334D02*
X66774438Y25606096D01*
X66774438Y25606096D02*
X66822057Y25558477D01*
X66822057Y25558477D02*
X66917295Y25510858D01*
X66917295Y25510858D02*
X67060152Y25510858D01*
X67060152Y25510858D02*
X67155390Y25558477D01*
X67155390Y25558477D02*
X67203009Y25606096D01*
X67203009Y25606096D02*
X67250628Y25701334D01*
X67250628Y25701334D02*
X67250628Y26082286D01*
X66822057Y25129905D02*
X66774438Y25082286D01*
X66774438Y25082286D02*
X66726819Y24987048D01*
X66726819Y24987048D02*
X66726819Y24748953D01*
X66726819Y24748953D02*
X66774438Y24653715D01*
X66774438Y24653715D02*
X66822057Y24606096D01*
X66822057Y24606096D02*
X66917295Y24558477D01*
X66917295Y24558477D02*
X67012533Y24558477D01*
X67012533Y24558477D02*
X67155390Y24606096D01*
X67155390Y24606096D02*
X67726819Y25177524D01*
X67726819Y25177524D02*
X67726819Y24558477D01*
X66726819Y23701334D02*
X66726819Y23891810D01*
X66726819Y23891810D02*
X66774438Y23987048D01*
X66774438Y23987048D02*
X66822057Y24034667D01*
X66822057Y24034667D02*
X66964914Y24129905D01*
X66964914Y24129905D02*
X67155390Y24177524D01*
X67155390Y24177524D02*
X67536342Y24177524D01*
X67536342Y24177524D02*
X67631580Y24129905D01*
X67631580Y24129905D02*
X67679200Y24082286D01*
X67679200Y24082286D02*
X67726819Y23987048D01*
X67726819Y23987048D02*
X67726819Y23796572D01*
X67726819Y23796572D02*
X67679200Y23701334D01*
X67679200Y23701334D02*
X67631580Y23653715D01*
X67631580Y23653715D02*
X67536342Y23606096D01*
X67536342Y23606096D02*
X67298247Y23606096D01*
X67298247Y23606096D02*
X67203009Y23653715D01*
X67203009Y23653715D02*
X67155390Y23701334D01*
X67155390Y23701334D02*
X67107771Y23796572D01*
X67107771Y23796572D02*
X67107771Y23987048D01*
X67107771Y23987048D02*
X67155390Y24082286D01*
X67155390Y24082286D02*
X67203009Y24129905D01*
X67203009Y24129905D02*
X67298247Y24177524D01*
X49676819Y19010858D02*
X49200628Y19344191D01*
X49676819Y19582286D02*
X48676819Y19582286D01*
X48676819Y19582286D02*
X48676819Y19201334D01*
X48676819Y19201334D02*
X48724438Y19106096D01*
X48724438Y19106096D02*
X48772057Y19058477D01*
X48772057Y19058477D02*
X48867295Y19010858D01*
X48867295Y19010858D02*
X49010152Y19010858D01*
X49010152Y19010858D02*
X49105390Y19058477D01*
X49105390Y19058477D02*
X49153009Y19106096D01*
X49153009Y19106096D02*
X49200628Y19201334D01*
X49200628Y19201334D02*
X49200628Y19582286D01*
X48676819Y18677524D02*
X48676819Y18058477D01*
X48676819Y18058477D02*
X49057771Y18391810D01*
X49057771Y18391810D02*
X49057771Y18248953D01*
X49057771Y18248953D02*
X49105390Y18153715D01*
X49105390Y18153715D02*
X49153009Y18106096D01*
X49153009Y18106096D02*
X49248247Y18058477D01*
X49248247Y18058477D02*
X49486342Y18058477D01*
X49486342Y18058477D02*
X49581580Y18106096D01*
X49581580Y18106096D02*
X49629200Y18153715D01*
X49629200Y18153715D02*
X49676819Y18248953D01*
X49676819Y18248953D02*
X49676819Y18534667D01*
X49676819Y18534667D02*
X49629200Y18629905D01*
X49629200Y18629905D02*
X49581580Y18677524D01*
X48676819Y17201334D02*
X48676819Y17391810D01*
X48676819Y17391810D02*
X48724438Y17487048D01*
X48724438Y17487048D02*
X48772057Y17534667D01*
X48772057Y17534667D02*
X48914914Y17629905D01*
X48914914Y17629905D02*
X49105390Y17677524D01*
X49105390Y17677524D02*
X49486342Y17677524D01*
X49486342Y17677524D02*
X49581580Y17629905D01*
X49581580Y17629905D02*
X49629200Y17582286D01*
X49629200Y17582286D02*
X49676819Y17487048D01*
X49676819Y17487048D02*
X49676819Y17296572D01*
X49676819Y17296572D02*
X49629200Y17201334D01*
X49629200Y17201334D02*
X49581580Y17153715D01*
X49581580Y17153715D02*
X49486342Y17106096D01*
X49486342Y17106096D02*
X49248247Y17106096D01*
X49248247Y17106096D02*
X49153009Y17153715D01*
X49153009Y17153715D02*
X49105390Y17201334D01*
X49105390Y17201334D02*
X49057771Y17296572D01*
X49057771Y17296572D02*
X49057771Y17487048D01*
X49057771Y17487048D02*
X49105390Y17582286D01*
X49105390Y17582286D02*
X49153009Y17629905D01*
X49153009Y17629905D02*
X49248247Y17677524D01*
X90666819Y33106095D02*
X91476342Y33106095D01*
X91476342Y33106095D02*
X91571580Y33058476D01*
X91571580Y33058476D02*
X91619200Y33010857D01*
X91619200Y33010857D02*
X91666819Y32915619D01*
X91666819Y32915619D02*
X91666819Y32725143D01*
X91666819Y32725143D02*
X91619200Y32629905D01*
X91619200Y32629905D02*
X91571580Y32582286D01*
X91571580Y32582286D02*
X91476342Y32534667D01*
X91476342Y32534667D02*
X90666819Y32534667D01*
X90666819Y32153714D02*
X90666819Y31534667D01*
X90666819Y31534667D02*
X91047771Y31868000D01*
X91047771Y31868000D02*
X91047771Y31725143D01*
X91047771Y31725143D02*
X91095390Y31629905D01*
X91095390Y31629905D02*
X91143009Y31582286D01*
X91143009Y31582286D02*
X91238247Y31534667D01*
X91238247Y31534667D02*
X91476342Y31534667D01*
X91476342Y31534667D02*
X91571580Y31582286D01*
X91571580Y31582286D02*
X91619200Y31629905D01*
X91619200Y31629905D02*
X91666819Y31725143D01*
X91666819Y31725143D02*
X91666819Y32010857D01*
X91666819Y32010857D02*
X91619200Y32106095D01*
X91619200Y32106095D02*
X91571580Y32153714D01*
X91095390Y30963238D02*
X91047771Y31058476D01*
X91047771Y31058476D02*
X91000152Y31106095D01*
X91000152Y31106095D02*
X90904914Y31153714D01*
X90904914Y31153714D02*
X90857295Y31153714D01*
X90857295Y31153714D02*
X90762057Y31106095D01*
X90762057Y31106095D02*
X90714438Y31058476D01*
X90714438Y31058476D02*
X90666819Y30963238D01*
X90666819Y30963238D02*
X90666819Y30772762D01*
X90666819Y30772762D02*
X90714438Y30677524D01*
X90714438Y30677524D02*
X90762057Y30629905D01*
X90762057Y30629905D02*
X90857295Y30582286D01*
X90857295Y30582286D02*
X90904914Y30582286D01*
X90904914Y30582286D02*
X91000152Y30629905D01*
X91000152Y30629905D02*
X91047771Y30677524D01*
X91047771Y30677524D02*
X91095390Y30772762D01*
X91095390Y30772762D02*
X91095390Y30963238D01*
X91095390Y30963238D02*
X91143009Y31058476D01*
X91143009Y31058476D02*
X91190628Y31106095D01*
X91190628Y31106095D02*
X91285866Y31153714D01*
X91285866Y31153714D02*
X91476342Y31153714D01*
X91476342Y31153714D02*
X91571580Y31106095D01*
X91571580Y31106095D02*
X91619200Y31058476D01*
X91619200Y31058476D02*
X91666819Y30963238D01*
X91666819Y30963238D02*
X91666819Y30772762D01*
X91666819Y30772762D02*
X91619200Y30677524D01*
X91619200Y30677524D02*
X91571580Y30629905D01*
X91571580Y30629905D02*
X91476342Y30582286D01*
X91476342Y30582286D02*
X91285866Y30582286D01*
X91285866Y30582286D02*
X91190628Y30629905D01*
X91190628Y30629905D02*
X91143009Y30677524D01*
X91143009Y30677524D02*
X91095390Y30772762D01*
X57388894Y7448638D02*
X58198417Y7448638D01*
X58198417Y7448638D02*
X58293655Y7401019D01*
X58293655Y7401019D02*
X58341275Y7353400D01*
X58341275Y7353400D02*
X58388894Y7258162D01*
X58388894Y7258162D02*
X58388894Y7067686D01*
X58388894Y7067686D02*
X58341275Y6972448D01*
X58341275Y6972448D02*
X58293655Y6924829D01*
X58293655Y6924829D02*
X58198417Y6877210D01*
X58198417Y6877210D02*
X57388894Y6877210D01*
X57484132Y6448638D02*
X57436513Y6401019D01*
X57436513Y6401019D02*
X57388894Y6305781D01*
X57388894Y6305781D02*
X57388894Y6067686D01*
X57388894Y6067686D02*
X57436513Y5972448D01*
X57436513Y5972448D02*
X57484132Y5924829D01*
X57484132Y5924829D02*
X57579370Y5877210D01*
X57579370Y5877210D02*
X57674608Y5877210D01*
X57674608Y5877210D02*
X57817465Y5924829D01*
X57817465Y5924829D02*
X58388894Y6496257D01*
X58388894Y6496257D02*
X58388894Y5877210D01*
X57388894Y5020067D02*
X57388894Y5210543D01*
X57388894Y5210543D02*
X57436513Y5305781D01*
X57436513Y5305781D02*
X57484132Y5353400D01*
X57484132Y5353400D02*
X57626989Y5448638D01*
X57626989Y5448638D02*
X57817465Y5496257D01*
X57817465Y5496257D02*
X58198417Y5496257D01*
X58198417Y5496257D02*
X58293655Y5448638D01*
X58293655Y5448638D02*
X58341275Y5401019D01*
X58341275Y5401019D02*
X58388894Y5305781D01*
X58388894Y5305781D02*
X58388894Y5115305D01*
X58388894Y5115305D02*
X58341275Y5020067D01*
X58341275Y5020067D02*
X58293655Y4972448D01*
X58293655Y4972448D02*
X58198417Y4924829D01*
X58198417Y4924829D02*
X57960322Y4924829D01*
X57960322Y4924829D02*
X57865084Y4972448D01*
X57865084Y4972448D02*
X57817465Y5020067D01*
X57817465Y5020067D02*
X57769846Y5115305D01*
X57769846Y5115305D02*
X57769846Y5305781D01*
X57769846Y5305781D02*
X57817465Y5401019D01*
X57817465Y5401019D02*
X57865084Y5448638D01*
X57865084Y5448638D02*
X57960322Y5496257D01*
X35980827Y25717663D02*
X35980827Y24908140D01*
X35980827Y24908140D02*
X35933208Y24812902D01*
X35933208Y24812902D02*
X35885589Y24765282D01*
X35885589Y24765282D02*
X35790351Y24717663D01*
X35790351Y24717663D02*
X35599875Y24717663D01*
X35599875Y24717663D02*
X35504637Y24765282D01*
X35504637Y24765282D02*
X35457018Y24812902D01*
X35457018Y24812902D02*
X35409399Y24908140D01*
X35409399Y24908140D02*
X35409399Y25717663D01*
X34409399Y24717663D02*
X34980827Y24717663D01*
X34695113Y24717663D02*
X34695113Y25717663D01*
X34695113Y25717663D02*
X34790351Y25574806D01*
X34790351Y25574806D02*
X34885589Y25479568D01*
X34885589Y25479568D02*
X34980827Y25431949D01*
X34028446Y25622425D02*
X33980827Y25670044D01*
X33980827Y25670044D02*
X33885589Y25717663D01*
X33885589Y25717663D02*
X33647494Y25717663D01*
X33647494Y25717663D02*
X33552256Y25670044D01*
X33552256Y25670044D02*
X33504637Y25622425D01*
X33504637Y25622425D02*
X33457018Y25527187D01*
X33457018Y25527187D02*
X33457018Y25431949D01*
X33457018Y25431949D02*
X33504637Y25289092D01*
X33504637Y25289092D02*
X34076065Y24717663D01*
X34076065Y24717663D02*
X33457018Y24717663D01*
X66666819Y42606095D02*
X65666819Y42606095D01*
X65666819Y42606095D02*
X65666819Y42368000D01*
X65666819Y42368000D02*
X65714438Y42225143D01*
X65714438Y42225143D02*
X65809676Y42129905D01*
X65809676Y42129905D02*
X65904914Y42082286D01*
X65904914Y42082286D02*
X66095390Y42034667D01*
X66095390Y42034667D02*
X66238247Y42034667D01*
X66238247Y42034667D02*
X66428723Y42082286D01*
X66428723Y42082286D02*
X66523961Y42129905D01*
X66523961Y42129905D02*
X66619200Y42225143D01*
X66619200Y42225143D02*
X66666819Y42368000D01*
X66666819Y42368000D02*
X66666819Y42606095D01*
X65666819Y41701333D02*
X65666819Y41082286D01*
X65666819Y41082286D02*
X66047771Y41415619D01*
X66047771Y41415619D02*
X66047771Y41272762D01*
X66047771Y41272762D02*
X66095390Y41177524D01*
X66095390Y41177524D02*
X66143009Y41129905D01*
X66143009Y41129905D02*
X66238247Y41082286D01*
X66238247Y41082286D02*
X66476342Y41082286D01*
X66476342Y41082286D02*
X66571580Y41129905D01*
X66571580Y41129905D02*
X66619200Y41177524D01*
X66619200Y41177524D02*
X66666819Y41272762D01*
X66666819Y41272762D02*
X66666819Y41558476D01*
X66666819Y41558476D02*
X66619200Y41653714D01*
X66619200Y41653714D02*
X66571580Y41701333D01*
X32104857Y20663181D02*
X32438190Y21139372D01*
X32676285Y20663181D02*
X32676285Y21663181D01*
X32676285Y21663181D02*
X32295333Y21663181D01*
X32295333Y21663181D02*
X32200095Y21615562D01*
X32200095Y21615562D02*
X32152476Y21567943D01*
X32152476Y21567943D02*
X32104857Y21472705D01*
X32104857Y21472705D02*
X32104857Y21329848D01*
X32104857Y21329848D02*
X32152476Y21234610D01*
X32152476Y21234610D02*
X32200095Y21186991D01*
X32200095Y21186991D02*
X32295333Y21139372D01*
X32295333Y21139372D02*
X32676285Y21139372D01*
X31200095Y21663181D02*
X31676285Y21663181D01*
X31676285Y21663181D02*
X31723904Y21186991D01*
X31723904Y21186991D02*
X31676285Y21234610D01*
X31676285Y21234610D02*
X31581047Y21282229D01*
X31581047Y21282229D02*
X31342952Y21282229D01*
X31342952Y21282229D02*
X31247714Y21234610D01*
X31247714Y21234610D02*
X31200095Y21186991D01*
X31200095Y21186991D02*
X31152476Y21091753D01*
X31152476Y21091753D02*
X31152476Y20853658D01*
X31152476Y20853658D02*
X31200095Y20758420D01*
X31200095Y20758420D02*
X31247714Y20710800D01*
X31247714Y20710800D02*
X31342952Y20663181D01*
X31342952Y20663181D02*
X31581047Y20663181D01*
X31581047Y20663181D02*
X31676285Y20710800D01*
X31676285Y20710800D02*
X31723904Y20758420D01*
X30295333Y21663181D02*
X30485809Y21663181D01*
X30485809Y21663181D02*
X30581047Y21615562D01*
X30581047Y21615562D02*
X30628666Y21567943D01*
X30628666Y21567943D02*
X30723904Y21425086D01*
X30723904Y21425086D02*
X30771523Y21234610D01*
X30771523Y21234610D02*
X30771523Y20853658D01*
X30771523Y20853658D02*
X30723904Y20758420D01*
X30723904Y20758420D02*
X30676285Y20710800D01*
X30676285Y20710800D02*
X30581047Y20663181D01*
X30581047Y20663181D02*
X30390571Y20663181D01*
X30390571Y20663181D02*
X30295333Y20710800D01*
X30295333Y20710800D02*
X30247714Y20758420D01*
X30247714Y20758420D02*
X30200095Y20853658D01*
X30200095Y20853658D02*
X30200095Y21091753D01*
X30200095Y21091753D02*
X30247714Y21186991D01*
X30247714Y21186991D02*
X30295333Y21234610D01*
X30295333Y21234610D02*
X30390571Y21282229D01*
X30390571Y21282229D02*
X30581047Y21282229D01*
X30581047Y21282229D02*
X30676285Y21234610D01*
X30676285Y21234610D02*
X30723904Y21186991D01*
X30723904Y21186991D02*
X30771523Y21091753D01*
X90002907Y23641543D02*
X90336240Y24117734D01*
X90574335Y23641543D02*
X90574335Y24641543D01*
X90574335Y24641543D02*
X90193383Y24641543D01*
X90193383Y24641543D02*
X90098145Y24593924D01*
X90098145Y24593924D02*
X90050526Y24546305D01*
X90050526Y24546305D02*
X90002907Y24451067D01*
X90002907Y24451067D02*
X90002907Y24308210D01*
X90002907Y24308210D02*
X90050526Y24212972D01*
X90050526Y24212972D02*
X90098145Y24165353D01*
X90098145Y24165353D02*
X90193383Y24117734D01*
X90193383Y24117734D02*
X90574335Y24117734D01*
X89669573Y24641543D02*
X89050526Y24641543D01*
X89050526Y24641543D02*
X89383859Y24260591D01*
X89383859Y24260591D02*
X89241002Y24260591D01*
X89241002Y24260591D02*
X89145764Y24212972D01*
X89145764Y24212972D02*
X89098145Y24165353D01*
X89098145Y24165353D02*
X89050526Y24070115D01*
X89050526Y24070115D02*
X89050526Y23832020D01*
X89050526Y23832020D02*
X89098145Y23736782D01*
X89098145Y23736782D02*
X89145764Y23689162D01*
X89145764Y23689162D02*
X89241002Y23641543D01*
X89241002Y23641543D02*
X89526716Y23641543D01*
X89526716Y23641543D02*
X89621954Y23689162D01*
X89621954Y23689162D02*
X89669573Y23736782D01*
X88431478Y24641543D02*
X88336240Y24641543D01*
X88336240Y24641543D02*
X88241002Y24593924D01*
X88241002Y24593924D02*
X88193383Y24546305D01*
X88193383Y24546305D02*
X88145764Y24451067D01*
X88145764Y24451067D02*
X88098145Y24260591D01*
X88098145Y24260591D02*
X88098145Y24022496D01*
X88098145Y24022496D02*
X88145764Y23832020D01*
X88145764Y23832020D02*
X88193383Y23736782D01*
X88193383Y23736782D02*
X88241002Y23689162D01*
X88241002Y23689162D02*
X88336240Y23641543D01*
X88336240Y23641543D02*
X88431478Y23641543D01*
X88431478Y23641543D02*
X88526716Y23689162D01*
X88526716Y23689162D02*
X88574335Y23736782D01*
X88574335Y23736782D02*
X88621954Y23832020D01*
X88621954Y23832020D02*
X88669573Y24022496D01*
X88669573Y24022496D02*
X88669573Y24260591D01*
X88669573Y24260591D02*
X88621954Y24451067D01*
X88621954Y24451067D02*
X88574335Y24546305D01*
X88574335Y24546305D02*
X88526716Y24593924D01*
X88526716Y24593924D02*
X88431478Y24641543D01*
X30584857Y16913181D02*
X30918190Y17389372D01*
X31156285Y16913181D02*
X31156285Y17913181D01*
X31156285Y17913181D02*
X30775333Y17913181D01*
X30775333Y17913181D02*
X30680095Y17865562D01*
X30680095Y17865562D02*
X30632476Y17817943D01*
X30632476Y17817943D02*
X30584857Y17722705D01*
X30584857Y17722705D02*
X30584857Y17579848D01*
X30584857Y17579848D02*
X30632476Y17484610D01*
X30632476Y17484610D02*
X30680095Y17436991D01*
X30680095Y17436991D02*
X30775333Y17389372D01*
X30775333Y17389372D02*
X31156285Y17389372D01*
X30251523Y17913181D02*
X29632476Y17913181D01*
X29632476Y17913181D02*
X29965809Y17532229D01*
X29965809Y17532229D02*
X29822952Y17532229D01*
X29822952Y17532229D02*
X29727714Y17484610D01*
X29727714Y17484610D02*
X29680095Y17436991D01*
X29680095Y17436991D02*
X29632476Y17341753D01*
X29632476Y17341753D02*
X29632476Y17103658D01*
X29632476Y17103658D02*
X29680095Y17008420D01*
X29680095Y17008420D02*
X29727714Y16960800D01*
X29727714Y16960800D02*
X29822952Y16913181D01*
X29822952Y16913181D02*
X30108666Y16913181D01*
X30108666Y16913181D02*
X30203904Y16960800D01*
X30203904Y16960800D02*
X30251523Y17008420D01*
X29299142Y17913181D02*
X28632476Y17913181D01*
X28632476Y17913181D02*
X29061047Y16913181D01*
X40441945Y19285985D02*
X39965754Y19619318D01*
X40441945Y19857413D02*
X39441945Y19857413D01*
X39441945Y19857413D02*
X39441945Y19476461D01*
X39441945Y19476461D02*
X39489564Y19381223D01*
X39489564Y19381223D02*
X39537183Y19333604D01*
X39537183Y19333604D02*
X39632421Y19285985D01*
X39632421Y19285985D02*
X39775278Y19285985D01*
X39775278Y19285985D02*
X39870516Y19333604D01*
X39870516Y19333604D02*
X39918135Y19381223D01*
X39918135Y19381223D02*
X39965754Y19476461D01*
X39965754Y19476461D02*
X39965754Y19857413D01*
X39441945Y18381223D02*
X39441945Y18857413D01*
X39441945Y18857413D02*
X39918135Y18905032D01*
X39918135Y18905032D02*
X39870516Y18857413D01*
X39870516Y18857413D02*
X39822897Y18762175D01*
X39822897Y18762175D02*
X39822897Y18524080D01*
X39822897Y18524080D02*
X39870516Y18428842D01*
X39870516Y18428842D02*
X39918135Y18381223D01*
X39918135Y18381223D02*
X40013373Y18333604D01*
X40013373Y18333604D02*
X40251468Y18333604D01*
X40251468Y18333604D02*
X40346706Y18381223D01*
X40346706Y18381223D02*
X40394326Y18428842D01*
X40394326Y18428842D02*
X40441945Y18524080D01*
X40441945Y18524080D02*
X40441945Y18762175D01*
X40441945Y18762175D02*
X40394326Y18857413D01*
X40394326Y18857413D02*
X40346706Y18905032D01*
X39441945Y17428842D02*
X39441945Y17905032D01*
X39441945Y17905032D02*
X39918135Y17952651D01*
X39918135Y17952651D02*
X39870516Y17905032D01*
X39870516Y17905032D02*
X39822897Y17809794D01*
X39822897Y17809794D02*
X39822897Y17571699D01*
X39822897Y17571699D02*
X39870516Y17476461D01*
X39870516Y17476461D02*
X39918135Y17428842D01*
X39918135Y17428842D02*
X40013373Y17381223D01*
X40013373Y17381223D02*
X40251468Y17381223D01*
X40251468Y17381223D02*
X40346706Y17428842D01*
X40346706Y17428842D02*
X40394326Y17476461D01*
X40394326Y17476461D02*
X40441945Y17571699D01*
X40441945Y17571699D02*
X40441945Y17809794D01*
X40441945Y17809794D02*
X40394326Y17905032D01*
X40394326Y17905032D02*
X40346706Y17952651D01*
X85610701Y47146760D02*
X85610701Y48146760D01*
X85610701Y48146760D02*
X85372606Y48146760D01*
X85372606Y48146760D02*
X85229749Y48099141D01*
X85229749Y48099141D02*
X85134511Y48003903D01*
X85134511Y48003903D02*
X85086892Y47908665D01*
X85086892Y47908665D02*
X85039273Y47718189D01*
X85039273Y47718189D02*
X85039273Y47575332D01*
X85039273Y47575332D02*
X85086892Y47384856D01*
X85086892Y47384856D02*
X85134511Y47289618D01*
X85134511Y47289618D02*
X85229749Y47194379D01*
X85229749Y47194379D02*
X85372606Y47146760D01*
X85372606Y47146760D02*
X85610701Y47146760D01*
X84134511Y48146760D02*
X84610701Y48146760D01*
X84610701Y48146760D02*
X84658320Y47670570D01*
X84658320Y47670570D02*
X84610701Y47718189D01*
X84610701Y47718189D02*
X84515463Y47765808D01*
X84515463Y47765808D02*
X84277368Y47765808D01*
X84277368Y47765808D02*
X84182130Y47718189D01*
X84182130Y47718189D02*
X84134511Y47670570D01*
X84134511Y47670570D02*
X84086892Y47575332D01*
X84086892Y47575332D02*
X84086892Y47337237D01*
X84086892Y47337237D02*
X84134511Y47241999D01*
X84134511Y47241999D02*
X84182130Y47194379D01*
X84182130Y47194379D02*
X84277368Y47146760D01*
X84277368Y47146760D02*
X84515463Y47146760D01*
X84515463Y47146760D02*
X84610701Y47194379D01*
X84610701Y47194379D02*
X84658320Y47241999D01*
X34231580Y35510858D02*
X34279200Y35558477D01*
X34279200Y35558477D02*
X34326819Y35701334D01*
X34326819Y35701334D02*
X34326819Y35796572D01*
X34326819Y35796572D02*
X34279200Y35939429D01*
X34279200Y35939429D02*
X34183961Y36034667D01*
X34183961Y36034667D02*
X34088723Y36082286D01*
X34088723Y36082286D02*
X33898247Y36129905D01*
X33898247Y36129905D02*
X33755390Y36129905D01*
X33755390Y36129905D02*
X33564914Y36082286D01*
X33564914Y36082286D02*
X33469676Y36034667D01*
X33469676Y36034667D02*
X33374438Y35939429D01*
X33374438Y35939429D02*
X33326819Y35796572D01*
X33326819Y35796572D02*
X33326819Y35701334D01*
X33326819Y35701334D02*
X33374438Y35558477D01*
X33374438Y35558477D02*
X33422057Y35510858D01*
X34326819Y34558477D02*
X34326819Y35129905D01*
X34326819Y34844191D02*
X33326819Y34844191D01*
X33326819Y34844191D02*
X33469676Y34939429D01*
X33469676Y34939429D02*
X33564914Y35034667D01*
X33564914Y35034667D02*
X33612533Y35129905D01*
X33422057Y34177524D02*
X33374438Y34129905D01*
X33374438Y34129905D02*
X33326819Y34034667D01*
X33326819Y34034667D02*
X33326819Y33796572D01*
X33326819Y33796572D02*
X33374438Y33701334D01*
X33374438Y33701334D02*
X33422057Y33653715D01*
X33422057Y33653715D02*
X33517295Y33606096D01*
X33517295Y33606096D02*
X33612533Y33606096D01*
X33612533Y33606096D02*
X33755390Y33653715D01*
X33755390Y33653715D02*
X34326819Y34225143D01*
X34326819Y34225143D02*
X34326819Y33606096D01*
X33838666Y59308420D02*
X33886285Y59260800D01*
X33886285Y59260800D02*
X34029142Y59213181D01*
X34029142Y59213181D02*
X34124380Y59213181D01*
X34124380Y59213181D02*
X34267237Y59260800D01*
X34267237Y59260800D02*
X34362475Y59356039D01*
X34362475Y59356039D02*
X34410094Y59451277D01*
X34410094Y59451277D02*
X34457713Y59641753D01*
X34457713Y59641753D02*
X34457713Y59784610D01*
X34457713Y59784610D02*
X34410094Y59975086D01*
X34410094Y59975086D02*
X34362475Y60070324D01*
X34362475Y60070324D02*
X34267237Y60165562D01*
X34267237Y60165562D02*
X34124380Y60213181D01*
X34124380Y60213181D02*
X34029142Y60213181D01*
X34029142Y60213181D02*
X33886285Y60165562D01*
X33886285Y60165562D02*
X33838666Y60117943D01*
X32886285Y59213181D02*
X33457713Y59213181D01*
X33171999Y59213181D02*
X33171999Y60213181D01*
X33171999Y60213181D02*
X33267237Y60070324D01*
X33267237Y60070324D02*
X33362475Y59975086D01*
X33362475Y59975086D02*
X33457713Y59927467D01*
X39798756Y40051698D02*
X39846375Y40004078D01*
X39846375Y40004078D02*
X39989232Y39956459D01*
X39989232Y39956459D02*
X40084470Y39956459D01*
X40084470Y39956459D02*
X40227327Y40004078D01*
X40227327Y40004078D02*
X40322565Y40099317D01*
X40322565Y40099317D02*
X40370184Y40194555D01*
X40370184Y40194555D02*
X40417803Y40385031D01*
X40417803Y40385031D02*
X40417803Y40527888D01*
X40417803Y40527888D02*
X40370184Y40718364D01*
X40370184Y40718364D02*
X40322565Y40813602D01*
X40322565Y40813602D02*
X40227327Y40908840D01*
X40227327Y40908840D02*
X40084470Y40956459D01*
X40084470Y40956459D02*
X39989232Y40956459D01*
X39989232Y40956459D02*
X39846375Y40908840D01*
X39846375Y40908840D02*
X39798756Y40861221D01*
X38846375Y39956459D02*
X39417803Y39956459D01*
X39132089Y39956459D02*
X39132089Y40956459D01*
X39132089Y40956459D02*
X39227327Y40813602D01*
X39227327Y40813602D02*
X39322565Y40718364D01*
X39322565Y40718364D02*
X39417803Y40670745D01*
X37989232Y40956459D02*
X38179708Y40956459D01*
X38179708Y40956459D02*
X38274946Y40908840D01*
X38274946Y40908840D02*
X38322565Y40861221D01*
X38322565Y40861221D02*
X38417803Y40718364D01*
X38417803Y40718364D02*
X38465422Y40527888D01*
X38465422Y40527888D02*
X38465422Y40146936D01*
X38465422Y40146936D02*
X38417803Y40051698D01*
X38417803Y40051698D02*
X38370184Y40004078D01*
X38370184Y40004078D02*
X38274946Y39956459D01*
X38274946Y39956459D02*
X38084470Y39956459D01*
X38084470Y39956459D02*
X37989232Y40004078D01*
X37989232Y40004078D02*
X37941613Y40051698D01*
X37941613Y40051698D02*
X37893994Y40146936D01*
X37893994Y40146936D02*
X37893994Y40385031D01*
X37893994Y40385031D02*
X37941613Y40480269D01*
X37941613Y40480269D02*
X37989232Y40527888D01*
X37989232Y40527888D02*
X38084470Y40575507D01*
X38084470Y40575507D02*
X38274946Y40575507D01*
X38274946Y40575507D02*
X38370184Y40527888D01*
X38370184Y40527888D02*
X38417803Y40480269D01*
X38417803Y40480269D02*
X38465422Y40385031D01*
X76819059Y45745492D02*
X76342868Y46078825D01*
X76819059Y46316920D02*
X75819059Y46316920D01*
X75819059Y46316920D02*
X75819059Y45935968D01*
X75819059Y45935968D02*
X75866678Y45840730D01*
X75866678Y45840730D02*
X75914297Y45793111D01*
X75914297Y45793111D02*
X76009535Y45745492D01*
X76009535Y45745492D02*
X76152392Y45745492D01*
X76152392Y45745492D02*
X76247630Y45793111D01*
X76247630Y45793111D02*
X76295249Y45840730D01*
X76295249Y45840730D02*
X76342868Y45935968D01*
X76342868Y45935968D02*
X76342868Y46316920D01*
X76819059Y44793111D02*
X76819059Y45364539D01*
X76819059Y45078825D02*
X75819059Y45078825D01*
X75819059Y45078825D02*
X75961916Y45174063D01*
X75961916Y45174063D02*
X76057154Y45269301D01*
X76057154Y45269301D02*
X76104773Y45364539D01*
X75819059Y44459777D02*
X75819059Y43840730D01*
X75819059Y43840730D02*
X76200011Y44174063D01*
X76200011Y44174063D02*
X76200011Y44031206D01*
X76200011Y44031206D02*
X76247630Y43935968D01*
X76247630Y43935968D02*
X76295249Y43888349D01*
X76295249Y43888349D02*
X76390487Y43840730D01*
X76390487Y43840730D02*
X76628582Y43840730D01*
X76628582Y43840730D02*
X76723820Y43888349D01*
X76723820Y43888349D02*
X76771440Y43935968D01*
X76771440Y43935968D02*
X76819059Y44031206D01*
X76819059Y44031206D02*
X76819059Y44316920D01*
X76819059Y44316920D02*
X76771440Y44412158D01*
X76771440Y44412158D02*
X76723820Y44459777D01*
X74426285Y19413181D02*
X74426285Y20413181D01*
X74426285Y20413181D02*
X74188190Y20413181D01*
X74188190Y20413181D02*
X74045333Y20365562D01*
X74045333Y20365562D02*
X73950095Y20270324D01*
X73950095Y20270324D02*
X73902476Y20175086D01*
X73902476Y20175086D02*
X73854857Y19984610D01*
X73854857Y19984610D02*
X73854857Y19841753D01*
X73854857Y19841753D02*
X73902476Y19651277D01*
X73902476Y19651277D02*
X73950095Y19556039D01*
X73950095Y19556039D02*
X74045333Y19460800D01*
X74045333Y19460800D02*
X74188190Y19413181D01*
X74188190Y19413181D02*
X74426285Y19413181D01*
X72902476Y19413181D02*
X73473904Y19413181D01*
X73188190Y19413181D02*
X73188190Y20413181D01*
X73188190Y20413181D02*
X73283428Y20270324D01*
X73283428Y20270324D02*
X73378666Y20175086D01*
X73378666Y20175086D02*
X73473904Y20127467D01*
X72521523Y20317943D02*
X72473904Y20365562D01*
X72473904Y20365562D02*
X72378666Y20413181D01*
X72378666Y20413181D02*
X72140571Y20413181D01*
X72140571Y20413181D02*
X72045333Y20365562D01*
X72045333Y20365562D02*
X71997714Y20317943D01*
X71997714Y20317943D02*
X71950095Y20222705D01*
X71950095Y20222705D02*
X71950095Y20127467D01*
X71950095Y20127467D02*
X71997714Y19984610D01*
X71997714Y19984610D02*
X72569142Y19413181D01*
X72569142Y19413181D02*
X71950095Y19413181D01*
X63382993Y18103483D02*
X63382993Y19103483D01*
X63382993Y19103483D02*
X63144898Y19103483D01*
X63144898Y19103483D02*
X63002041Y19055864D01*
X63002041Y19055864D02*
X62906803Y18960626D01*
X62906803Y18960626D02*
X62859184Y18865388D01*
X62859184Y18865388D02*
X62811565Y18674912D01*
X62811565Y18674912D02*
X62811565Y18532055D01*
X62811565Y18532055D02*
X62859184Y18341579D01*
X62859184Y18341579D02*
X62906803Y18246341D01*
X62906803Y18246341D02*
X63002041Y18151102D01*
X63002041Y18151102D02*
X63144898Y18103483D01*
X63144898Y18103483D02*
X63382993Y18103483D01*
X61859184Y18103483D02*
X62430612Y18103483D01*
X62144898Y18103483D02*
X62144898Y19103483D01*
X62144898Y19103483D02*
X62240136Y18960626D01*
X62240136Y18960626D02*
X62335374Y18865388D01*
X62335374Y18865388D02*
X62430612Y18817769D01*
X60906803Y18103483D02*
X61478231Y18103483D01*
X61192517Y18103483D02*
X61192517Y19103483D01*
X61192517Y19103483D02*
X61287755Y18960626D01*
X61287755Y18960626D02*
X61382993Y18865388D01*
X61382993Y18865388D02*
X61478231Y18817769D01*
X26287183Y9488366D02*
X26239564Y9583604D01*
X26239564Y9583604D02*
X26144326Y9678842D01*
X26144326Y9678842D02*
X26001468Y9821699D01*
X26001468Y9821699D02*
X25953849Y9916937D01*
X25953849Y9916937D02*
X25953849Y10012175D01*
X26191945Y9964556D02*
X26144326Y10059794D01*
X26144326Y10059794D02*
X26049087Y10155032D01*
X26049087Y10155032D02*
X25858611Y10202651D01*
X25858611Y10202651D02*
X25525278Y10202651D01*
X25525278Y10202651D02*
X25334802Y10155032D01*
X25334802Y10155032D02*
X25239564Y10059794D01*
X25239564Y10059794D02*
X25191945Y9964556D01*
X25191945Y9964556D02*
X25191945Y9774080D01*
X25191945Y9774080D02*
X25239564Y9678842D01*
X25239564Y9678842D02*
X25334802Y9583604D01*
X25334802Y9583604D02*
X25525278Y9535985D01*
X25525278Y9535985D02*
X25858611Y9535985D01*
X25858611Y9535985D02*
X26049087Y9583604D01*
X26049087Y9583604D02*
X26144326Y9678842D01*
X26144326Y9678842D02*
X26191945Y9774080D01*
X26191945Y9774080D02*
X26191945Y9964556D01*
X25287183Y9155032D02*
X25239564Y9107413D01*
X25239564Y9107413D02*
X25191945Y9012175D01*
X25191945Y9012175D02*
X25191945Y8774080D01*
X25191945Y8774080D02*
X25239564Y8678842D01*
X25239564Y8678842D02*
X25287183Y8631223D01*
X25287183Y8631223D02*
X25382421Y8583604D01*
X25382421Y8583604D02*
X25477659Y8583604D01*
X25477659Y8583604D02*
X25620516Y8631223D01*
X25620516Y8631223D02*
X26191945Y9202651D01*
X26191945Y9202651D02*
X26191945Y8583604D01*
X48838666Y59308420D02*
X48886285Y59260800D01*
X48886285Y59260800D02*
X49029142Y59213181D01*
X49029142Y59213181D02*
X49124380Y59213181D01*
X49124380Y59213181D02*
X49267237Y59260800D01*
X49267237Y59260800D02*
X49362475Y59356039D01*
X49362475Y59356039D02*
X49410094Y59451277D01*
X49410094Y59451277D02*
X49457713Y59641753D01*
X49457713Y59641753D02*
X49457713Y59784610D01*
X49457713Y59784610D02*
X49410094Y59975086D01*
X49410094Y59975086D02*
X49362475Y60070324D01*
X49362475Y60070324D02*
X49267237Y60165562D01*
X49267237Y60165562D02*
X49124380Y60213181D01*
X49124380Y60213181D02*
X49029142Y60213181D01*
X49029142Y60213181D02*
X48886285Y60165562D01*
X48886285Y60165562D02*
X48838666Y60117943D01*
X47981523Y59879848D02*
X47981523Y59213181D01*
X48219618Y60260800D02*
X48457713Y59546515D01*
X48457713Y59546515D02*
X47838666Y59546515D01*
X28378666Y32508420D02*
X28426285Y32460800D01*
X28426285Y32460800D02*
X28569142Y32413181D01*
X28569142Y32413181D02*
X28664380Y32413181D01*
X28664380Y32413181D02*
X28807237Y32460800D01*
X28807237Y32460800D02*
X28902475Y32556039D01*
X28902475Y32556039D02*
X28950094Y32651277D01*
X28950094Y32651277D02*
X28997713Y32841753D01*
X28997713Y32841753D02*
X28997713Y32984610D01*
X28997713Y32984610D02*
X28950094Y33175086D01*
X28950094Y33175086D02*
X28902475Y33270324D01*
X28902475Y33270324D02*
X28807237Y33365562D01*
X28807237Y33365562D02*
X28664380Y33413181D01*
X28664380Y33413181D02*
X28569142Y33413181D01*
X28569142Y33413181D02*
X28426285Y33365562D01*
X28426285Y33365562D02*
X28378666Y33317943D01*
X28045332Y33413181D02*
X27426285Y33413181D01*
X27426285Y33413181D02*
X27759618Y33032229D01*
X27759618Y33032229D02*
X27616761Y33032229D01*
X27616761Y33032229D02*
X27521523Y32984610D01*
X27521523Y32984610D02*
X27473904Y32936991D01*
X27473904Y32936991D02*
X27426285Y32841753D01*
X27426285Y32841753D02*
X27426285Y32603658D01*
X27426285Y32603658D02*
X27473904Y32508420D01*
X27473904Y32508420D02*
X27521523Y32460800D01*
X27521523Y32460800D02*
X27616761Y32413181D01*
X27616761Y32413181D02*
X27902475Y32413181D01*
X27902475Y32413181D02*
X27997713Y32460800D01*
X27997713Y32460800D02*
X28045332Y32508420D01*
X92666819Y60510858D02*
X92190628Y60844191D01*
X92666819Y61082286D02*
X91666819Y61082286D01*
X91666819Y61082286D02*
X91666819Y60701334D01*
X91666819Y60701334D02*
X91714438Y60606096D01*
X91714438Y60606096D02*
X91762057Y60558477D01*
X91762057Y60558477D02*
X91857295Y60510858D01*
X91857295Y60510858D02*
X92000152Y60510858D01*
X92000152Y60510858D02*
X92095390Y60558477D01*
X92095390Y60558477D02*
X92143009Y60606096D01*
X92143009Y60606096D02*
X92190628Y60701334D01*
X92190628Y60701334D02*
X92190628Y61082286D01*
X91666819Y59606096D02*
X91666819Y60082286D01*
X91666819Y60082286D02*
X92143009Y60129905D01*
X92143009Y60129905D02*
X92095390Y60082286D01*
X92095390Y60082286D02*
X92047771Y59987048D01*
X92047771Y59987048D02*
X92047771Y59748953D01*
X92047771Y59748953D02*
X92095390Y59653715D01*
X92095390Y59653715D02*
X92143009Y59606096D01*
X92143009Y59606096D02*
X92238247Y59558477D01*
X92238247Y59558477D02*
X92476342Y59558477D01*
X92476342Y59558477D02*
X92571580Y59606096D01*
X92571580Y59606096D02*
X92619200Y59653715D01*
X92619200Y59653715D02*
X92666819Y59748953D01*
X92666819Y59748953D02*
X92666819Y59987048D01*
X92666819Y59987048D02*
X92619200Y60082286D01*
X92619200Y60082286D02*
X92571580Y60129905D01*
X91666819Y59225143D02*
X91666819Y58606096D01*
X91666819Y58606096D02*
X92047771Y58939429D01*
X92047771Y58939429D02*
X92047771Y58796572D01*
X92047771Y58796572D02*
X92095390Y58701334D01*
X92095390Y58701334D02*
X92143009Y58653715D01*
X92143009Y58653715D02*
X92238247Y58606096D01*
X92238247Y58606096D02*
X92476342Y58606096D01*
X92476342Y58606096D02*
X92571580Y58653715D01*
X92571580Y58653715D02*
X92619200Y58701334D01*
X92619200Y58701334D02*
X92666819Y58796572D01*
X92666819Y58796572D02*
X92666819Y59082286D01*
X92666819Y59082286D02*
X92619200Y59177524D01*
X92619200Y59177524D02*
X92571580Y59225143D01*
X93834080Y28710858D02*
X93881700Y28758477D01*
X93881700Y28758477D02*
X93929319Y28901334D01*
X93929319Y28901334D02*
X93929319Y28996572D01*
X93929319Y28996572D02*
X93881700Y29139429D01*
X93881700Y29139429D02*
X93786461Y29234667D01*
X93786461Y29234667D02*
X93691223Y29282286D01*
X93691223Y29282286D02*
X93500747Y29329905D01*
X93500747Y29329905D02*
X93357890Y29329905D01*
X93357890Y29329905D02*
X93167414Y29282286D01*
X93167414Y29282286D02*
X93072176Y29234667D01*
X93072176Y29234667D02*
X92976938Y29139429D01*
X92976938Y29139429D02*
X92929319Y28996572D01*
X92929319Y28996572D02*
X92929319Y28901334D01*
X92929319Y28901334D02*
X92976938Y28758477D01*
X92976938Y28758477D02*
X93024557Y28710858D01*
X93024557Y28329905D02*
X92976938Y28282286D01*
X92976938Y28282286D02*
X92929319Y28187048D01*
X92929319Y28187048D02*
X92929319Y27948953D01*
X92929319Y27948953D02*
X92976938Y27853715D01*
X92976938Y27853715D02*
X93024557Y27806096D01*
X93024557Y27806096D02*
X93119795Y27758477D01*
X93119795Y27758477D02*
X93215033Y27758477D01*
X93215033Y27758477D02*
X93357890Y27806096D01*
X93357890Y27806096D02*
X93929319Y28377524D01*
X93929319Y28377524D02*
X93929319Y27758477D01*
X93357890Y27187048D02*
X93310271Y27282286D01*
X93310271Y27282286D02*
X93262652Y27329905D01*
X93262652Y27329905D02*
X93167414Y27377524D01*
X93167414Y27377524D02*
X93119795Y27377524D01*
X93119795Y27377524D02*
X93024557Y27329905D01*
X93024557Y27329905D02*
X92976938Y27282286D01*
X92976938Y27282286D02*
X92929319Y27187048D01*
X92929319Y27187048D02*
X92929319Y26996572D01*
X92929319Y26996572D02*
X92976938Y26901334D01*
X92976938Y26901334D02*
X93024557Y26853715D01*
X93024557Y26853715D02*
X93119795Y26806096D01*
X93119795Y26806096D02*
X93167414Y26806096D01*
X93167414Y26806096D02*
X93262652Y26853715D01*
X93262652Y26853715D02*
X93310271Y26901334D01*
X93310271Y26901334D02*
X93357890Y26996572D01*
X93357890Y26996572D02*
X93357890Y27187048D01*
X93357890Y27187048D02*
X93405509Y27282286D01*
X93405509Y27282286D02*
X93453128Y27329905D01*
X93453128Y27329905D02*
X93548366Y27377524D01*
X93548366Y27377524D02*
X93738842Y27377524D01*
X93738842Y27377524D02*
X93834080Y27329905D01*
X93834080Y27329905D02*
X93881700Y27282286D01*
X93881700Y27282286D02*
X93929319Y27187048D01*
X93929319Y27187048D02*
X93929319Y26996572D01*
X93929319Y26996572D02*
X93881700Y26901334D01*
X93881700Y26901334D02*
X93834080Y26853715D01*
X93834080Y26853715D02*
X93738842Y26806096D01*
X93738842Y26806096D02*
X93548366Y26806096D01*
X93548366Y26806096D02*
X93453128Y26853715D01*
X93453128Y26853715D02*
X93405509Y26901334D01*
X93405509Y26901334D02*
X93357890Y26996572D01*
X85854857Y5413181D02*
X86188190Y5889372D01*
X86426285Y5413181D02*
X86426285Y6413181D01*
X86426285Y6413181D02*
X86045333Y6413181D01*
X86045333Y6413181D02*
X85950095Y6365562D01*
X85950095Y6365562D02*
X85902476Y6317943D01*
X85902476Y6317943D02*
X85854857Y6222705D01*
X85854857Y6222705D02*
X85854857Y6079848D01*
X85854857Y6079848D02*
X85902476Y5984610D01*
X85902476Y5984610D02*
X85950095Y5936991D01*
X85950095Y5936991D02*
X86045333Y5889372D01*
X86045333Y5889372D02*
X86426285Y5889372D01*
X85473904Y6317943D02*
X85426285Y6365562D01*
X85426285Y6365562D02*
X85331047Y6413181D01*
X85331047Y6413181D02*
X85092952Y6413181D01*
X85092952Y6413181D02*
X84997714Y6365562D01*
X84997714Y6365562D02*
X84950095Y6317943D01*
X84950095Y6317943D02*
X84902476Y6222705D01*
X84902476Y6222705D02*
X84902476Y6127467D01*
X84902476Y6127467D02*
X84950095Y5984610D01*
X84950095Y5984610D02*
X85521523Y5413181D01*
X85521523Y5413181D02*
X84902476Y5413181D01*
X84569142Y6413181D02*
X83902476Y6413181D01*
X83902476Y6413181D02*
X84331047Y5413181D01*
X65120223Y49160661D02*
X65167842Y49113041D01*
X65167842Y49113041D02*
X65310699Y49065422D01*
X65310699Y49065422D02*
X65405937Y49065422D01*
X65405937Y49065422D02*
X65548794Y49113041D01*
X65548794Y49113041D02*
X65644032Y49208280D01*
X65644032Y49208280D02*
X65691651Y49303518D01*
X65691651Y49303518D02*
X65739270Y49493994D01*
X65739270Y49493994D02*
X65739270Y49636851D01*
X65739270Y49636851D02*
X65691651Y49827327D01*
X65691651Y49827327D02*
X65644032Y49922565D01*
X65644032Y49922565D02*
X65548794Y50017803D01*
X65548794Y50017803D02*
X65405937Y50065422D01*
X65405937Y50065422D02*
X65310699Y50065422D01*
X65310699Y50065422D02*
X65167842Y50017803D01*
X65167842Y50017803D02*
X65120223Y49970184D01*
X64786889Y50065422D02*
X64167842Y50065422D01*
X64167842Y50065422D02*
X64501175Y49684470D01*
X64501175Y49684470D02*
X64358318Y49684470D01*
X64358318Y49684470D02*
X64263080Y49636851D01*
X64263080Y49636851D02*
X64215461Y49589232D01*
X64215461Y49589232D02*
X64167842Y49493994D01*
X64167842Y49493994D02*
X64167842Y49255899D01*
X64167842Y49255899D02*
X64215461Y49160661D01*
X64215461Y49160661D02*
X64263080Y49113041D01*
X64263080Y49113041D02*
X64358318Y49065422D01*
X64358318Y49065422D02*
X64644032Y49065422D01*
X64644032Y49065422D02*
X64739270Y49113041D01*
X64739270Y49113041D02*
X64786889Y49160661D01*
X63834508Y50065422D02*
X63215461Y50065422D01*
X63215461Y50065422D02*
X63548794Y49684470D01*
X63548794Y49684470D02*
X63405937Y49684470D01*
X63405937Y49684470D02*
X63310699Y49636851D01*
X63310699Y49636851D02*
X63263080Y49589232D01*
X63263080Y49589232D02*
X63215461Y49493994D01*
X63215461Y49493994D02*
X63215461Y49255899D01*
X63215461Y49255899D02*
X63263080Y49160661D01*
X63263080Y49160661D02*
X63310699Y49113041D01*
X63310699Y49113041D02*
X63405937Y49065422D01*
X63405937Y49065422D02*
X63691651Y49065422D01*
X63691651Y49065422D02*
X63786889Y49113041D01*
X63786889Y49113041D02*
X63834508Y49160661D01*
X28378666Y18913181D02*
X28711999Y19389372D01*
X28950094Y18913181D02*
X28950094Y19913181D01*
X28950094Y19913181D02*
X28569142Y19913181D01*
X28569142Y19913181D02*
X28473904Y19865562D01*
X28473904Y19865562D02*
X28426285Y19817943D01*
X28426285Y19817943D02*
X28378666Y19722705D01*
X28378666Y19722705D02*
X28378666Y19579848D01*
X28378666Y19579848D02*
X28426285Y19484610D01*
X28426285Y19484610D02*
X28473904Y19436991D01*
X28473904Y19436991D02*
X28569142Y19389372D01*
X28569142Y19389372D02*
X28950094Y19389372D01*
X27473904Y19913181D02*
X27950094Y19913181D01*
X27950094Y19913181D02*
X27997713Y19436991D01*
X27997713Y19436991D02*
X27950094Y19484610D01*
X27950094Y19484610D02*
X27854856Y19532229D01*
X27854856Y19532229D02*
X27616761Y19532229D01*
X27616761Y19532229D02*
X27521523Y19484610D01*
X27521523Y19484610D02*
X27473904Y19436991D01*
X27473904Y19436991D02*
X27426285Y19341753D01*
X27426285Y19341753D02*
X27426285Y19103658D01*
X27426285Y19103658D02*
X27473904Y19008420D01*
X27473904Y19008420D02*
X27521523Y18960800D01*
X27521523Y18960800D02*
X27616761Y18913181D01*
X27616761Y18913181D02*
X27854856Y18913181D01*
X27854856Y18913181D02*
X27950094Y18960800D01*
X27950094Y18960800D02*
X27997713Y19008420D01*
X48804604Y12463434D02*
X49137937Y12939625D01*
X49376032Y12463434D02*
X49376032Y13463434D01*
X49376032Y13463434D02*
X48995080Y13463434D01*
X48995080Y13463434D02*
X48899842Y13415815D01*
X48899842Y13415815D02*
X48852223Y13368196D01*
X48852223Y13368196D02*
X48804604Y13272958D01*
X48804604Y13272958D02*
X48804604Y13130101D01*
X48804604Y13130101D02*
X48852223Y13034863D01*
X48852223Y13034863D02*
X48899842Y12987244D01*
X48899842Y12987244D02*
X48995080Y12939625D01*
X48995080Y12939625D02*
X49376032Y12939625D01*
X48471270Y13463434D02*
X47852223Y13463434D01*
X47852223Y13463434D02*
X48185556Y13082482D01*
X48185556Y13082482D02*
X48042699Y13082482D01*
X48042699Y13082482D02*
X47947461Y13034863D01*
X47947461Y13034863D02*
X47899842Y12987244D01*
X47899842Y12987244D02*
X47852223Y12892006D01*
X47852223Y12892006D02*
X47852223Y12653911D01*
X47852223Y12653911D02*
X47899842Y12558673D01*
X47899842Y12558673D02*
X47947461Y12511053D01*
X47947461Y12511053D02*
X48042699Y12463434D01*
X48042699Y12463434D02*
X48328413Y12463434D01*
X48328413Y12463434D02*
X48423651Y12511053D01*
X48423651Y12511053D02*
X48471270Y12558673D01*
X46947461Y13463434D02*
X47423651Y13463434D01*
X47423651Y13463434D02*
X47471270Y12987244D01*
X47471270Y12987244D02*
X47423651Y13034863D01*
X47423651Y13034863D02*
X47328413Y13082482D01*
X47328413Y13082482D02*
X47090318Y13082482D01*
X47090318Y13082482D02*
X46995080Y13034863D01*
X46995080Y13034863D02*
X46947461Y12987244D01*
X46947461Y12987244D02*
X46899842Y12892006D01*
X46899842Y12892006D02*
X46899842Y12653911D01*
X46899842Y12653911D02*
X46947461Y12558673D01*
X46947461Y12558673D02*
X46995080Y12511053D01*
X46995080Y12511053D02*
X47090318Y12463434D01*
X47090318Y12463434D02*
X47328413Y12463434D01*
X47328413Y12463434D02*
X47423651Y12511053D01*
X47423651Y12511053D02*
X47471270Y12558673D01*
X37840081Y8639159D02*
X37935319Y8686778D01*
X37935319Y8686778D02*
X38030557Y8782016D01*
X38030557Y8782016D02*
X38173414Y8924874D01*
X38173414Y8924874D02*
X38268652Y8972493D01*
X38268652Y8972493D02*
X38363890Y8972493D01*
X38316271Y8734397D02*
X38411509Y8782016D01*
X38411509Y8782016D02*
X38506747Y8877255D01*
X38506747Y8877255D02*
X38554366Y9067731D01*
X38554366Y9067731D02*
X38554366Y9401064D01*
X38554366Y9401064D02*
X38506747Y9591540D01*
X38506747Y9591540D02*
X38411509Y9686778D01*
X38411509Y9686778D02*
X38316271Y9734397D01*
X38316271Y9734397D02*
X38125795Y9734397D01*
X38125795Y9734397D02*
X38030557Y9686778D01*
X38030557Y9686778D02*
X37935319Y9591540D01*
X37935319Y9591540D02*
X37887700Y9401064D01*
X37887700Y9401064D02*
X37887700Y9067731D01*
X37887700Y9067731D02*
X37935319Y8877255D01*
X37935319Y8877255D02*
X38030557Y8782016D01*
X38030557Y8782016D02*
X38125795Y8734397D01*
X38125795Y8734397D02*
X38316271Y8734397D01*
X37554366Y9734397D02*
X36935319Y9734397D01*
X36935319Y9734397D02*
X37268652Y9353445D01*
X37268652Y9353445D02*
X37125795Y9353445D01*
X37125795Y9353445D02*
X37030557Y9305826D01*
X37030557Y9305826D02*
X36982938Y9258207D01*
X36982938Y9258207D02*
X36935319Y9162969D01*
X36935319Y9162969D02*
X36935319Y8924874D01*
X36935319Y8924874D02*
X36982938Y8829636D01*
X36982938Y8829636D02*
X37030557Y8782016D01*
X37030557Y8782016D02*
X37125795Y8734397D01*
X37125795Y8734397D02*
X37411509Y8734397D01*
X37411509Y8734397D02*
X37506747Y8782016D01*
X37506747Y8782016D02*
X37554366Y8829636D01*
X61737886Y15439791D02*
X61261695Y15773124D01*
X61737886Y16011219D02*
X60737886Y16011219D01*
X60737886Y16011219D02*
X60737886Y15630267D01*
X60737886Y15630267D02*
X60785505Y15535029D01*
X60785505Y15535029D02*
X60833124Y15487410D01*
X60833124Y15487410D02*
X60928362Y15439791D01*
X60928362Y15439791D02*
X61071219Y15439791D01*
X61071219Y15439791D02*
X61166457Y15487410D01*
X61166457Y15487410D02*
X61214076Y15535029D01*
X61214076Y15535029D02*
X61261695Y15630267D01*
X61261695Y15630267D02*
X61261695Y16011219D01*
X60737886Y15106457D02*
X60737886Y14487410D01*
X60737886Y14487410D02*
X61118838Y14820743D01*
X61118838Y14820743D02*
X61118838Y14677886D01*
X61118838Y14677886D02*
X61166457Y14582648D01*
X61166457Y14582648D02*
X61214076Y14535029D01*
X61214076Y14535029D02*
X61309314Y14487410D01*
X61309314Y14487410D02*
X61547409Y14487410D01*
X61547409Y14487410D02*
X61642647Y14535029D01*
X61642647Y14535029D02*
X61690267Y14582648D01*
X61690267Y14582648D02*
X61737886Y14677886D01*
X61737886Y14677886D02*
X61737886Y14963600D01*
X61737886Y14963600D02*
X61690267Y15058838D01*
X61690267Y15058838D02*
X61642647Y15106457D01*
X61166457Y13915981D02*
X61118838Y14011219D01*
X61118838Y14011219D02*
X61071219Y14058838D01*
X61071219Y14058838D02*
X60975981Y14106457D01*
X60975981Y14106457D02*
X60928362Y14106457D01*
X60928362Y14106457D02*
X60833124Y14058838D01*
X60833124Y14058838D02*
X60785505Y14011219D01*
X60785505Y14011219D02*
X60737886Y13915981D01*
X60737886Y13915981D02*
X60737886Y13725505D01*
X60737886Y13725505D02*
X60785505Y13630267D01*
X60785505Y13630267D02*
X60833124Y13582648D01*
X60833124Y13582648D02*
X60928362Y13535029D01*
X60928362Y13535029D02*
X60975981Y13535029D01*
X60975981Y13535029D02*
X61071219Y13582648D01*
X61071219Y13582648D02*
X61118838Y13630267D01*
X61118838Y13630267D02*
X61166457Y13725505D01*
X61166457Y13725505D02*
X61166457Y13915981D01*
X61166457Y13915981D02*
X61214076Y14011219D01*
X61214076Y14011219D02*
X61261695Y14058838D01*
X61261695Y14058838D02*
X61356933Y14106457D01*
X61356933Y14106457D02*
X61547409Y14106457D01*
X61547409Y14106457D02*
X61642647Y14058838D01*
X61642647Y14058838D02*
X61690267Y14011219D01*
X61690267Y14011219D02*
X61737886Y13915981D01*
X61737886Y13915981D02*
X61737886Y13725505D01*
X61737886Y13725505D02*
X61690267Y13630267D01*
X61690267Y13630267D02*
X61642647Y13582648D01*
X61642647Y13582648D02*
X61547409Y13535029D01*
X61547409Y13535029D02*
X61356933Y13535029D01*
X61356933Y13535029D02*
X61261695Y13582648D01*
X61261695Y13582648D02*
X61214076Y13630267D01*
X61214076Y13630267D02*
X61166457Y13725505D01*
X66426285Y61913181D02*
X66426285Y62913181D01*
X66426285Y62913181D02*
X66188190Y62913181D01*
X66188190Y62913181D02*
X66045333Y62865562D01*
X66045333Y62865562D02*
X65950095Y62770324D01*
X65950095Y62770324D02*
X65902476Y62675086D01*
X65902476Y62675086D02*
X65854857Y62484610D01*
X65854857Y62484610D02*
X65854857Y62341753D01*
X65854857Y62341753D02*
X65902476Y62151277D01*
X65902476Y62151277D02*
X65950095Y62056039D01*
X65950095Y62056039D02*
X66045333Y61960800D01*
X66045333Y61960800D02*
X66188190Y61913181D01*
X66188190Y61913181D02*
X66426285Y61913181D01*
X64902476Y61913181D02*
X65473904Y61913181D01*
X65188190Y61913181D02*
X65188190Y62913181D01*
X65188190Y62913181D02*
X65283428Y62770324D01*
X65283428Y62770324D02*
X65378666Y62675086D01*
X65378666Y62675086D02*
X65473904Y62627467D01*
X64045333Y62579848D02*
X64045333Y61913181D01*
X64283428Y62960800D02*
X64521523Y62246515D01*
X64521523Y62246515D02*
X63902476Y62246515D01*
X58017357Y11508420D02*
X58064976Y11460800D01*
X58064976Y11460800D02*
X58207833Y11413181D01*
X58207833Y11413181D02*
X58303071Y11413181D01*
X58303071Y11413181D02*
X58445928Y11460800D01*
X58445928Y11460800D02*
X58541166Y11556039D01*
X58541166Y11556039D02*
X58588785Y11651277D01*
X58588785Y11651277D02*
X58636404Y11841753D01*
X58636404Y11841753D02*
X58636404Y11984610D01*
X58636404Y11984610D02*
X58588785Y12175086D01*
X58588785Y12175086D02*
X58541166Y12270324D01*
X58541166Y12270324D02*
X58445928Y12365562D01*
X58445928Y12365562D02*
X58303071Y12413181D01*
X58303071Y12413181D02*
X58207833Y12413181D01*
X58207833Y12413181D02*
X58064976Y12365562D01*
X58064976Y12365562D02*
X58017357Y12317943D01*
X57636404Y12317943D02*
X57588785Y12365562D01*
X57588785Y12365562D02*
X57493547Y12413181D01*
X57493547Y12413181D02*
X57255452Y12413181D01*
X57255452Y12413181D02*
X57160214Y12365562D01*
X57160214Y12365562D02*
X57112595Y12317943D01*
X57112595Y12317943D02*
X57064976Y12222705D01*
X57064976Y12222705D02*
X57064976Y12127467D01*
X57064976Y12127467D02*
X57112595Y11984610D01*
X57112595Y11984610D02*
X57684023Y11413181D01*
X57684023Y11413181D02*
X57064976Y11413181D01*
X56731642Y12413181D02*
X56064976Y12413181D01*
X56064976Y12413181D02*
X56493547Y11413181D01*
X49292795Y41978015D02*
X49340415Y42025634D01*
X49340415Y42025634D02*
X49388034Y42168491D01*
X49388034Y42168491D02*
X49388034Y42263729D01*
X49388034Y42263729D02*
X49340415Y42406586D01*
X49340415Y42406586D02*
X49245176Y42501824D01*
X49245176Y42501824D02*
X49149938Y42549443D01*
X49149938Y42549443D02*
X48959462Y42597062D01*
X48959462Y42597062D02*
X48816605Y42597062D01*
X48816605Y42597062D02*
X48626129Y42549443D01*
X48626129Y42549443D02*
X48530891Y42501824D01*
X48530891Y42501824D02*
X48435653Y42406586D01*
X48435653Y42406586D02*
X48388034Y42263729D01*
X48388034Y42263729D02*
X48388034Y42168491D01*
X48388034Y42168491D02*
X48435653Y42025634D01*
X48435653Y42025634D02*
X48483272Y41978015D01*
X49388034Y41025634D02*
X49388034Y41597062D01*
X49388034Y41311348D02*
X48388034Y41311348D01*
X48388034Y41311348D02*
X48530891Y41406586D01*
X48530891Y41406586D02*
X48626129Y41501824D01*
X48626129Y41501824D02*
X48673748Y41597062D01*
X48388034Y40692300D02*
X48388034Y40025634D01*
X48388034Y40025634D02*
X49388034Y40454205D01*
X66666819Y17606095D02*
X67476342Y17606095D01*
X67476342Y17606095D02*
X67571580Y17558476D01*
X67571580Y17558476D02*
X67619200Y17510857D01*
X67619200Y17510857D02*
X67666819Y17415619D01*
X67666819Y17415619D02*
X67666819Y17225143D01*
X67666819Y17225143D02*
X67619200Y17129905D01*
X67619200Y17129905D02*
X67571580Y17082286D01*
X67571580Y17082286D02*
X67476342Y17034667D01*
X67476342Y17034667D02*
X66666819Y17034667D01*
X66666819Y16653714D02*
X66666819Y16034667D01*
X66666819Y16034667D02*
X67047771Y16368000D01*
X67047771Y16368000D02*
X67047771Y16225143D01*
X67047771Y16225143D02*
X67095390Y16129905D01*
X67095390Y16129905D02*
X67143009Y16082286D01*
X67143009Y16082286D02*
X67238247Y16034667D01*
X67238247Y16034667D02*
X67476342Y16034667D01*
X67476342Y16034667D02*
X67571580Y16082286D01*
X67571580Y16082286D02*
X67619200Y16129905D01*
X67619200Y16129905D02*
X67666819Y16225143D01*
X67666819Y16225143D02*
X67666819Y16510857D01*
X67666819Y16510857D02*
X67619200Y16606095D01*
X67619200Y16606095D02*
X67571580Y16653714D01*
X66666819Y15701333D02*
X66666819Y15034667D01*
X66666819Y15034667D02*
X67666819Y15463238D01*
X66354857Y20413181D02*
X66688190Y20889372D01*
X66926285Y20413181D02*
X66926285Y21413181D01*
X66926285Y21413181D02*
X66545333Y21413181D01*
X66545333Y21413181D02*
X66450095Y21365562D01*
X66450095Y21365562D02*
X66402476Y21317943D01*
X66402476Y21317943D02*
X66354857Y21222705D01*
X66354857Y21222705D02*
X66354857Y21079848D01*
X66354857Y21079848D02*
X66402476Y20984610D01*
X66402476Y20984610D02*
X66450095Y20936991D01*
X66450095Y20936991D02*
X66545333Y20889372D01*
X66545333Y20889372D02*
X66926285Y20889372D01*
X65497714Y21079848D02*
X65497714Y20413181D01*
X65735809Y21460800D02*
X65973904Y20746515D01*
X65973904Y20746515D02*
X65354857Y20746515D01*
X65069142Y21413181D02*
X64450095Y21413181D01*
X64450095Y21413181D02*
X64783428Y21032229D01*
X64783428Y21032229D02*
X64640571Y21032229D01*
X64640571Y21032229D02*
X64545333Y20984610D01*
X64545333Y20984610D02*
X64497714Y20936991D01*
X64497714Y20936991D02*
X64450095Y20841753D01*
X64450095Y20841753D02*
X64450095Y20603658D01*
X64450095Y20603658D02*
X64497714Y20508420D01*
X64497714Y20508420D02*
X64545333Y20460800D01*
X64545333Y20460800D02*
X64640571Y20413181D01*
X64640571Y20413181D02*
X64926285Y20413181D01*
X64926285Y20413181D02*
X65021523Y20460800D01*
X65021523Y20460800D02*
X65069142Y20508420D01*
%TO.C,R48*%
D11*
X60552000Y60640936D02*
X60552000Y62095064D01*
X62372000Y60640936D02*
X62372000Y62095064D01*
%TD*%
M02*
