%TF.GenerationSoftware,KiCad,Pcbnew,10.0.6*%
%TF.CreationDate,2026-10-04T09:53:25+08:00*%
%TF.ProjectId,CurtainDrive_V3_2_2L,43757274-6169-46e4-9472-6976655f5633,V3.2 2L*%
%TF.SameCoordinates,Original*%
%TF.FileFunction,Paste,Top*%
%TF.FilePolarity,Positive*%
%FSLAX46Y46*%
G04 Gerber Fmt 4.6, Leading zero omitted, Abs format (unit mm)*
G04 Created by KiCad (PCBNEW 10.0.6) date 2026-10-04 09:53:25*
%MOMM*%
%LPD*%
G01*
G04 APERTURE LIST*
G04 Aperture macros list*
%AMRoundRect*
0 Rectangle with rounded corners*
0 $1 Rounding radius*
0 $2 $3 $4 $5 $6 $7 $8 $9 X,Y pos of 4 corners*
0 Add a 4 corners polygon primitive as box body*
4,1,4,$2,$3,$4,$5,$6,$7,$8,$9,$2,$3,0*
0 Add four circle primitives for the rounded corners*
1,1,$1+$1,$2,$3*
1,1,$1+$1,$4,$5*
1,1,$1+$1,$6,$7*
1,1,$1+$1,$8,$9*
0 Add four rect primitives between the rounded corners*
20,1,$1+$1,$2,$3,$4,$5,0*
20,1,$1+$1,$4,$5,$6,$7,0*
20,1,$1+$1,$6,$7,$8,$9,0*
20,1,$1+$1,$8,$9,$2,$3,0*%
G04 Aperture macros list end*
%ADD10C,0.000000*%
%ADD11RoundRect,0.250000X-1.000000X-0.900000X1.000000X-0.900000X1.000000X0.900000X-1.000000X0.900000X0*%
%ADD12RoundRect,0.225000X-0.225000X-0.250000X0.225000X-0.250000X0.225000X0.250000X-0.225000X0.250000X0*%
%ADD13RoundRect,0.200000X-0.200000X-0.275000X0.200000X-0.275000X0.200000X0.275000X-0.200000X0.275000X0*%
%ADD14RoundRect,0.200000X0.275000X-0.200000X0.275000X0.200000X-0.275000X0.200000X-0.275000X-0.200000X0*%
%ADD15RoundRect,0.075000X-0.260000X-0.075000X0.260000X-0.075000X0.260000X0.075000X-0.260000X0.075000X0*%
%ADD16RoundRect,0.300000X-0.700000X-1.200000X0.700000X-1.200000X0.700000X1.200000X-0.700000X1.200000X0*%
%ADD17RoundRect,0.200000X0.200000X0.275000X-0.200000X0.275000X-0.200000X-0.275000X0.200000X-0.275000X0*%
%ADD18RoundRect,0.050600X-0.064400X-0.311900X0.064400X-0.311900X0.064400X0.311900X-0.064400X0.311900X0*%
%ADD19RoundRect,0.050920X-0.619080X-0.724080X0.619080X-0.724080X0.619080X0.724080X-0.619080X0.724080X0*%
%ADD20RoundRect,0.049600X-0.250400X-0.105400X0.250400X-0.105400X0.250400X0.105400X-0.250400X0.105400X0*%
%ADD21RoundRect,0.250000X0.900000X-1.000000X0.900000X1.000000X-0.900000X1.000000X-0.900000X-1.000000X0*%
%ADD22RoundRect,0.225000X-0.250000X0.225000X-0.250000X-0.225000X0.250000X-0.225000X0.250000X0.225000X0*%
%ADD23R,2.910000X2.910500*%
G04 APERTURE END LIST*
D10*
%TO.C,F1*%
G36*
X18337000Y55223500D02*
G01*
X18337000Y54463000D01*
X18237000Y54363000D01*
X17447500Y54363000D01*
X17347500Y54263000D01*
X17347500Y53473000D01*
X17447500Y53373000D01*
X18237000Y53373000D01*
X18337000Y53273000D01*
X18337000Y52512500D01*
X18237000Y52412500D01*
X15527000Y52412500D01*
X15427000Y52512500D01*
X15427000Y55223500D01*
X15527000Y55323500D01*
X18237000Y55323500D01*
X18337000Y55223500D01*
G37*
G36*
X22997000Y55223500D02*
G01*
X22997000Y52512500D01*
X22897000Y52412500D01*
X20187000Y52412500D01*
X20087000Y52512500D01*
X20087000Y53273000D01*
X20187000Y53373000D01*
X20976500Y53373000D01*
X21076500Y53473000D01*
X21076500Y54263000D01*
X20976500Y54363000D01*
X20187000Y54363000D01*
X20087000Y54463000D01*
X20087000Y55223500D01*
X20187000Y55323500D01*
X22897000Y55323500D01*
X22997000Y55223500D01*
G37*
%TD*%
D11*
%TO.C,D8*%
X19062000Y48368000D03*
X23362000Y48368000D03*
%TD*%
D12*
%TO.C,C36*%
X75937000Y45618000D03*
X77487000Y45618000D03*
%TD*%
%TO.C,C35*%
X57437000Y62618000D03*
X58987000Y62618000D03*
%TD*%
D13*
%TO.C,R61*%
X15137000Y50868000D03*
X16787000Y50868000D03*
%TD*%
%TO.C,R57*%
X55387000Y60118000D03*
X57037000Y60118000D03*
%TD*%
D14*
%TO.C,R59*%
X44712000Y41043000D03*
X44712000Y42693000D03*
%TD*%
D15*
%TO.C,D15*%
X12472000Y49868000D03*
X12472000Y49368000D03*
X12472000Y48868000D03*
X13952000Y48868000D03*
X13952000Y49868000D03*
%TD*%
D13*
%TO.C,R62*%
X15137000Y48868000D03*
X16787000Y48868000D03*
%TD*%
D16*
%TO.C,BZ1*%
X83962000Y43918000D03*
X83962000Y35318000D03*
%TD*%
D17*
%TO.C,R58*%
X63037000Y62618000D03*
X61387000Y62618000D03*
%TD*%
D18*
%TO.C,U45*%
X59887000Y61205000D03*
X59887000Y58531000D03*
D19*
X60212000Y59868000D03*
D18*
X60537000Y61205000D03*
X60537000Y58531000D03*
D20*
X58812000Y60843000D03*
X58812000Y60193000D03*
X58812000Y59543000D03*
X58812000Y58893000D03*
X61612000Y58893000D03*
X61612000Y59543000D03*
X61612000Y60193000D03*
X61612000Y60843000D03*
%TD*%
D21*
%TO.C,D1*%
X26712000Y52718000D03*
X26712000Y57018000D03*
%TD*%
D22*
%TO.C,C26*%
X82212000Y28643000D03*
X82212000Y27093000D03*
%TD*%
D12*
%TO.C,C30*%
X50937000Y40868000D03*
X52487000Y40868000D03*
%TD*%
D23*
%TO.C,F1*%
X16882000Y53868000D03*
X21542000Y53868000D03*
%TD*%
D13*
%TO.C,R60*%
X63137000Y60118000D03*
X64787000Y60118000D03*
%TD*%
M02*
