%TF.GenerationSoftware,KiCad,Pcbnew,10.0.6*%
%TF.CreationDate,2026-10-04T09:53:25+08:00*%
%TF.ProjectId,CurtainDrive_V3_2_2L,43757274-6169-46e4-9472-6976655f5633,V3.2 2L*%
%TF.SameCoordinates,Original*%
%TF.FileFunction,Soldermask,Top*%
%TF.FilePolarity,Negative*%
%FSLAX46Y46*%
G04 Gerber Fmt 4.6, Leading zero omitted, Abs format (unit mm)*
G04 Created by KiCad (PCBNEW 10.0.6) date 2026-10-04 09:53:25*
%MOMM*%
%LPD*%
G01*
G04 APERTURE LIST*
G04 Aperture macros list*
%AMRoundRect*
0 Rectangle with rounded corners*
0 $1 Rounding radius*
0 $2 $3 $4 $5 $6 $7 $8 $9 X,Y pos of 4 corners*
0 Add a 4 corners polygon primitive as box body*
4,1,4,$2,$3,$4,$5,$6,$7,$8,$9,$2,$3,0*
0 Add four circle primitives for the rounded corners*
1,1,$1+$1,$2,$3*
1,1,$1+$1,$4,$5*
1,1,$1+$1,$6,$7*
1,1,$1+$1,$8,$9*
0 Add four rect primitives between the rounded corners*
20,1,$1+$1,$2,$3,$4,$5,0*
20,1,$1+$1,$4,$5,$6,$7,0*
20,1,$1+$1,$6,$7,$8,$9,0*
20,1,$1+$1,$8,$9,$2,$3,0*%
G04 Aperture macros list end*
%ADD10R,2.200000X2.200000*%
%ADD11C,2.200000*%
%ADD12RoundRect,0.250000X-1.000000X-0.900000X1.000000X-0.900000X1.000000X0.900000X-1.000000X0.900000X0*%
%ADD13R,1.700000X1.700000*%
%ADD14C,1.700000*%
%ADD15RoundRect,0.250000X-0.600000X-0.725000X0.600000X-0.725000X0.600000X0.725000X-0.600000X0.725000X0*%
%ADD16O,1.700000X1.950000*%
%ADD17RoundRect,0.225000X-0.225000X-0.250000X0.225000X-0.250000X0.225000X0.250000X-0.225000X0.250000X0*%
%ADD18O,1.700000X2.500000*%
%ADD19O,2.200000X4.000000*%
%ADD20RoundRect,0.200000X-0.200000X-0.275000X0.200000X-0.275000X0.200000X0.275000X-0.200000X0.275000X0*%
%ADD21R,1.524000X1.524000*%
%ADD22C,1.524000*%
%ADD23RoundRect,0.200000X0.275000X-0.200000X0.275000X0.200000X-0.275000X0.200000X-0.275000X-0.200000X0*%
%ADD24RoundRect,0.075000X-0.260000X-0.075000X0.260000X-0.075000X0.260000X0.075000X-0.260000X0.075000X0*%
%ADD25C,2.700000*%
%ADD26RoundRect,0.300000X-0.700000X-1.200000X0.700000X-1.200000X0.700000X1.200000X-0.700000X1.200000X0*%
%ADD27RoundRect,0.200000X0.200000X0.275000X-0.200000X0.275000X-0.200000X-0.275000X0.200000X-0.275000X0*%
%ADD28RoundRect,0.119600X-0.250400X-0.105400X0.250400X-0.105400X0.250400X0.105400X-0.250400X0.105400X0*%
%ADD29RoundRect,0.120600X-0.064400X-0.461900X0.064400X-0.461900X0.064400X0.461900X-0.064400X0.461900X0*%
%ADD30RoundRect,0.121000X-0.699000X-0.824000X0.699000X-0.824000X0.699000X0.824000X-0.699000X0.824000X0*%
%ADD31RoundRect,0.250000X0.900000X-1.000000X0.900000X1.000000X-0.900000X1.000000X-0.900000X-1.000000X0*%
%ADD32R,2.600000X2.600000*%
%ADD33C,2.600000*%
%ADD34RoundRect,0.225000X-0.250000X0.225000X-0.250000X-0.225000X0.250000X-0.225000X0.250000X0.225000X0*%
%ADD35R,2.910000X2.910500*%
G04 APERTURE END LIST*
D10*
%TO.C,U20*%
X97212000Y11068000D03*
D11*
X97212000Y16068000D03*
%TD*%
D12*
%TO.C,D8*%
X19062000Y48368000D03*
X23362000Y48368000D03*
%TD*%
D10*
%TO.C,U24*%
X15712000Y5868000D03*
D11*
X20712000Y5868000D03*
%TD*%
D13*
%TO.C,J19*%
X22212000Y57868000D03*
D14*
X19672000Y57868000D03*
%TD*%
D15*
%TO.C,J18*%
X80212000Y54168000D03*
D16*
X82712000Y54168000D03*
X85212000Y54168000D03*
X87712000Y54168000D03*
%TD*%
D10*
%TO.C,J15*%
X89712000Y65368000D03*
D11*
X84712000Y65368000D03*
%TD*%
D17*
%TO.C,C36*%
X75937000Y45618000D03*
X77487000Y45618000D03*
%TD*%
D18*
%TO.C,U1*%
X33672000Y53868000D03*
X36212000Y53868000D03*
X38752000Y53868000D03*
D19*
X30462000Y52768000D03*
X41962000Y52768000D03*
%TD*%
D17*
%TO.C,C35*%
X57437000Y62618000D03*
X58987000Y62618000D03*
%TD*%
D20*
%TO.C,R61*%
X15137000Y50868000D03*
X16787000Y50868000D03*
%TD*%
D21*
%TO.C,U2*%
X3542000Y15438000D03*
D22*
X6082000Y15438000D03*
X8622000Y15438000D03*
X11162000Y15438000D03*
X13702000Y15438000D03*
X16242000Y15438000D03*
X18782000Y15438000D03*
X21322000Y15438000D03*
X23862000Y15438000D03*
X26402000Y15438000D03*
X28942000Y15438000D03*
X31482000Y15438000D03*
X34022000Y15438000D03*
X36562000Y15438000D03*
X39102000Y15438000D03*
X41642000Y15438000D03*
X44182000Y15438000D03*
X46722000Y15438000D03*
X49262000Y15438000D03*
X51802000Y15438000D03*
X54342000Y15438000D03*
X56882000Y15438000D03*
X56882000Y38298000D03*
X54342000Y38298000D03*
X51802000Y38298000D03*
X49262000Y38298000D03*
X46722000Y38298000D03*
X44182000Y38298000D03*
X41642000Y38298000D03*
X39102000Y38298000D03*
X36562000Y38298000D03*
X34022000Y38298000D03*
X31482000Y38298000D03*
X28942000Y38298000D03*
X26402000Y38298000D03*
X23862000Y38298000D03*
X21322000Y38298000D03*
X18782000Y38298000D03*
X16242000Y38298000D03*
X13702000Y38298000D03*
X11162000Y38298000D03*
X8622000Y38298000D03*
X6082000Y38298000D03*
X3542000Y38298000D03*
%TD*%
D10*
%TO.C,U18*%
X97212000Y48368000D03*
D11*
X97212000Y53368000D03*
X97212000Y58368000D03*
%TD*%
D20*
%TO.C,R57*%
X55387000Y60118000D03*
X57037000Y60118000D03*
%TD*%
D23*
%TO.C,R59*%
X44712000Y41043000D03*
X44712000Y42693000D03*
%TD*%
D10*
%TO.C,J1*%
X19712000Y65368000D03*
D11*
X14712000Y65368000D03*
%TD*%
D24*
%TO.C,D15*%
X12472000Y49868000D03*
X12472000Y49368000D03*
X12472000Y48868000D03*
X13952000Y48868000D03*
X13952000Y49868000D03*
%TD*%
D20*
%TO.C,R62*%
X15137000Y48868000D03*
X16787000Y48868000D03*
%TD*%
D25*
%TO.C,H1*%
X3500000Y67620000D03*
%TD*%
%TO.C,H2*%
X98980000Y67620000D03*
%TD*%
D26*
%TO.C,BZ1*%
X83962000Y43918000D03*
X83962000Y35318000D03*
%TD*%
D27*
%TO.C,R58*%
X63037000Y62618000D03*
X61387000Y62618000D03*
%TD*%
D25*
%TO.C,H4*%
X3500000Y3500000D03*
%TD*%
D18*
%TO.C,U11*%
X48672000Y53868000D03*
X51212000Y53868000D03*
X53752000Y53868000D03*
D19*
X45462000Y52768000D03*
X56962000Y52768000D03*
%TD*%
D28*
%TO.C,U45*%
X58812000Y60843000D03*
X58812000Y60193000D03*
X58812000Y59543000D03*
X58812000Y58893000D03*
X61612000Y58893000D03*
X61612000Y59543000D03*
X61612000Y60193000D03*
X61612000Y60843000D03*
D29*
X59887000Y61055500D03*
X59887000Y58680500D03*
D30*
X60212000Y59868000D03*
D29*
X60537000Y61055500D03*
X60537000Y58680500D03*
%TD*%
D13*
%TO.C,J16*%
X15212000Y43868000D03*
D14*
X17752000Y43868000D03*
X20292000Y43868000D03*
%TD*%
D31*
%TO.C,D1*%
X26712000Y52718000D03*
X26712000Y57018000D03*
%TD*%
D25*
%TO.C,H6*%
X69212000Y42868000D03*
%TD*%
D10*
%TO.C,U23*%
X75712000Y5868000D03*
D11*
X80712000Y5868000D03*
%TD*%
D32*
%TO.C,U30*%
X5312000Y59868000D03*
D33*
X5312000Y54868000D03*
X5312000Y49868000D03*
X5312000Y44868000D03*
%TD*%
D10*
%TO.C,J14*%
X71712000Y65368000D03*
D11*
X66712000Y65368000D03*
%TD*%
D34*
%TO.C,C26*%
X82212000Y28643000D03*
X82212000Y27093000D03*
%TD*%
D25*
%TO.C,H3*%
X98980000Y3500000D03*
%TD*%
D13*
%TO.C,J17*%
X25212000Y43868000D03*
D14*
X27752000Y43868000D03*
X30292000Y43868000D03*
%TD*%
D10*
%TO.C,U22*%
X55712000Y5868000D03*
D11*
X60712000Y5868000D03*
%TD*%
D10*
%TO.C,J3*%
X35712000Y65368000D03*
D11*
X30712000Y65368000D03*
%TD*%
D17*
%TO.C,C30*%
X50937000Y40868000D03*
X52487000Y40868000D03*
%TD*%
D25*
%TO.C,H5*%
X40212000Y42868000D03*
%TD*%
D10*
%TO.C,U19*%
X97212000Y26368000D03*
D11*
X97212000Y31368000D03*
X97212000Y36368000D03*
%TD*%
D18*
%TO.C,U33*%
X63672000Y53868000D03*
X66212000Y53868000D03*
X68752000Y53868000D03*
D19*
X60462000Y52768000D03*
X71962000Y52768000D03*
%TD*%
D10*
%TO.C,J13*%
X53712000Y65368000D03*
D11*
X48712000Y65368000D03*
%TD*%
D10*
%TO.C,U21*%
X35712000Y5868000D03*
D11*
X40712000Y5868000D03*
%TD*%
D35*
%TO.C,F1*%
X16882000Y53868000D03*
X21542000Y53868000D03*
%TD*%
D20*
%TO.C,R60*%
X63137000Y60118000D03*
X64787000Y60118000D03*
%TD*%
M02*
