%TF.GenerationSoftware,KiCad,Pcbnew,10.0.6*%
%TF.CreationDate,2026-10-04T09:53:25+08:00*%
%TF.ProjectId,CurtainDrive_V3_2_2L,43757274-6169-46e4-9472-6976655f5633,V3.2 2L*%
%TF.SameCoordinates,Original*%
%TF.FileFunction,Soldermask,Bot*%
%TF.FilePolarity,Negative*%
%FSLAX46Y46*%
G04 Gerber Fmt 4.6, Leading zero omitted, Abs format (unit mm)*
G04 Created by KiCad (PCBNEW 10.0.6) date 2026-10-04 09:53:25*
%MOMM*%
%LPD*%
G01*
G04 APERTURE LIST*
G04 Aperture macros list*
%AMRoundRect*
0 Rectangle with rounded corners*
0 $1 Rounding radius*
0 $2 $3 $4 $5 $6 $7 $8 $9 X,Y pos of 4 corners*
0 Add a 4 corners polygon primitive as box body*
4,1,4,$2,$3,$4,$5,$6,$7,$8,$9,$2,$3,0*
0 Add four circle primitives for the rounded corners*
1,1,$1+$1,$2,$3*
1,1,$1+$1,$4,$5*
1,1,$1+$1,$6,$7*
1,1,$1+$1,$8,$9*
0 Add four rect primitives between the rounded corners*
20,1,$1+$1,$2,$3,$4,$5,0*
20,1,$1+$1,$4,$5,$6,$7,0*
20,1,$1+$1,$6,$7,$8,$9,0*
20,1,$1+$1,$8,$9,$2,$3,0*%
G04 Aperture macros list end*
%ADD10R,2.200000X2.200000*%
%ADD11C,2.200000*%
%ADD12R,1.700000X1.700000*%
%ADD13C,1.700000*%
%ADD14RoundRect,0.250000X-0.600000X-0.725000X0.600000X-0.725000X0.600000X0.725000X-0.600000X0.725000X0*%
%ADD15O,1.700000X1.950000*%
%ADD16O,1.700000X2.500000*%
%ADD17O,2.200000X4.000000*%
%ADD18R,1.524000X1.524000*%
%ADD19C,1.524000*%
%ADD20C,2.700000*%
%ADD21R,2.600000X2.600000*%
%ADD22C,2.600000*%
%ADD23RoundRect,0.150000X-0.587500X-0.150000X0.587500X-0.150000X0.587500X0.150000X-0.587500X0.150000X0*%
%ADD24RoundRect,0.250000X0.625000X-0.312500X0.625000X0.312500X-0.625000X0.312500X-0.625000X-0.312500X0*%
%ADD25RoundRect,0.200000X-0.200000X-0.275000X0.200000X-0.275000X0.200000X0.275000X-0.200000X0.275000X0*%
%ADD26RoundRect,0.225000X-0.225000X-0.250000X0.225000X-0.250000X0.225000X0.250000X-0.225000X0.250000X0*%
%ADD27R,2.600000X1.422500*%
%ADD28RoundRect,0.225000X0.250000X-0.225000X0.250000X0.225000X-0.250000X0.225000X-0.250000X-0.225000X0*%
%ADD29RoundRect,0.200000X0.275000X-0.200000X0.275000X0.200000X-0.275000X0.200000X-0.275000X-0.200000X0*%
%ADD30RoundRect,0.100000X-0.637500X-0.100000X0.637500X-0.100000X0.637500X0.100000X-0.637500X0.100000X0*%
%ADD31RoundRect,0.250000X-1.000000X-0.650000X1.000000X-0.650000X1.000000X0.650000X-1.000000X0.650000X0*%
%ADD32RoundRect,0.225000X-0.225000X-0.375000X0.225000X-0.375000X0.225000X0.375000X-0.225000X0.375000X0*%
%ADD33RoundRect,0.150000X0.150000X-0.587500X0.150000X0.587500X-0.150000X0.587500X-0.150000X-0.587500X0*%
%ADD34RoundRect,0.250000X-0.325000X-1.100000X0.325000X-1.100000X0.325000X1.100000X-0.325000X1.100000X0*%
%ADD35RoundRect,0.250000X-0.312500X-1.075000X0.312500X-1.075000X0.312500X1.075000X-0.312500X1.075000X0*%
%ADD36RoundRect,0.250000X-0.250000X-0.475000X0.250000X-0.475000X0.250000X0.475000X-0.250000X0.475000X0*%
%ADD37RoundRect,0.100000X0.100000X-0.637500X0.100000X0.637500X-0.100000X0.637500X-0.100000X-0.637500X0*%
%ADD38RoundRect,0.150000X-0.150000X0.587500X-0.150000X-0.587500X0.150000X-0.587500X0.150000X0.587500X0*%
%ADD39RoundRect,0.250000X-1.075000X0.312500X-1.075000X-0.312500X1.075000X-0.312500X1.075000X0.312500X0*%
%ADD40RoundRect,0.225000X-0.250000X0.225000X-0.250000X-0.225000X0.250000X-0.225000X0.250000X0.225000X0*%
%ADD41RoundRect,0.250000X0.625000X-0.375000X0.625000X0.375000X-0.625000X0.375000X-0.625000X-0.375000X0*%
%ADD42RoundRect,0.250000X0.650000X-1.000000X0.650000X1.000000X-0.650000X1.000000X-0.650000X-1.000000X0*%
%ADD43RoundRect,0.250000X1.075000X-0.312500X1.075000X0.312500X-1.075000X0.312500X-1.075000X-0.312500X0*%
%ADD44RoundRect,0.225000X0.375000X-0.225000X0.375000X0.225000X-0.375000X0.225000X-0.375000X-0.225000X0*%
G04 APERTURE END LIST*
D10*
%TO.C,U20*%
X97212000Y11068000D03*
D11*
X97212000Y16068000D03*
%TD*%
D10*
%TO.C,U24*%
X15712000Y5868000D03*
D11*
X20712000Y5868000D03*
%TD*%
D12*
%TO.C,J19*%
X22212000Y57868000D03*
D13*
X19672000Y57868000D03*
%TD*%
D14*
%TO.C,J18*%
X80212000Y54168000D03*
D15*
X82712000Y54168000D03*
X85212000Y54168000D03*
X87712000Y54168000D03*
%TD*%
D10*
%TO.C,J15*%
X89712000Y65368000D03*
D11*
X84712000Y65368000D03*
%TD*%
D16*
%TO.C,U1*%
X33672000Y53868000D03*
X36212000Y53868000D03*
X38752000Y53868000D03*
D17*
X30462000Y52768000D03*
X41962000Y52768000D03*
%TD*%
D18*
%TO.C,U2*%
X3542000Y15438000D03*
D19*
X6082000Y15438000D03*
X8622000Y15438000D03*
X11162000Y15438000D03*
X13702000Y15438000D03*
X16242000Y15438000D03*
X18782000Y15438000D03*
X21322000Y15438000D03*
X23862000Y15438000D03*
X26402000Y15438000D03*
X28942000Y15438000D03*
X31482000Y15438000D03*
X34022000Y15438000D03*
X36562000Y15438000D03*
X39102000Y15438000D03*
X41642000Y15438000D03*
X44182000Y15438000D03*
X46722000Y15438000D03*
X49262000Y15438000D03*
X51802000Y15438000D03*
X54342000Y15438000D03*
X56882000Y15438000D03*
X56882000Y38298000D03*
X54342000Y38298000D03*
X51802000Y38298000D03*
X49262000Y38298000D03*
X46722000Y38298000D03*
X44182000Y38298000D03*
X41642000Y38298000D03*
X39102000Y38298000D03*
X36562000Y38298000D03*
X34022000Y38298000D03*
X31482000Y38298000D03*
X28942000Y38298000D03*
X26402000Y38298000D03*
X23862000Y38298000D03*
X21322000Y38298000D03*
X18782000Y38298000D03*
X16242000Y38298000D03*
X13702000Y38298000D03*
X11162000Y38298000D03*
X8622000Y38298000D03*
X6082000Y38298000D03*
X3542000Y38298000D03*
%TD*%
D10*
%TO.C,U18*%
X97212000Y48368000D03*
D11*
X97212000Y53368000D03*
X97212000Y58368000D03*
%TD*%
D10*
%TO.C,J1*%
X19712000Y65368000D03*
D11*
X14712000Y65368000D03*
%TD*%
D20*
%TO.C,H1*%
X3500000Y67620000D03*
%TD*%
%TO.C,H2*%
X98980000Y67620000D03*
%TD*%
%TO.C,H4*%
X3500000Y3500000D03*
%TD*%
D16*
%TO.C,U11*%
X48672000Y53868000D03*
X51212000Y53868000D03*
X53752000Y53868000D03*
D17*
X45462000Y52768000D03*
X56962000Y52768000D03*
%TD*%
D12*
%TO.C,J16*%
X15212000Y43868000D03*
D13*
X17752000Y43868000D03*
X20292000Y43868000D03*
%TD*%
D20*
%TO.C,H6*%
X69212000Y42868000D03*
%TD*%
D10*
%TO.C,U23*%
X75712000Y5868000D03*
D11*
X80712000Y5868000D03*
%TD*%
D21*
%TO.C,U30*%
X5312000Y59868000D03*
D22*
X5312000Y54868000D03*
X5312000Y49868000D03*
X5312000Y44868000D03*
%TD*%
D10*
%TO.C,J14*%
X71712000Y65368000D03*
D11*
X66712000Y65368000D03*
%TD*%
D20*
%TO.C,H3*%
X98980000Y3500000D03*
%TD*%
D12*
%TO.C,J17*%
X25212000Y43868000D03*
D13*
X27752000Y43868000D03*
X30292000Y43868000D03*
%TD*%
D10*
%TO.C,U22*%
X55712000Y5868000D03*
D11*
X60712000Y5868000D03*
%TD*%
D10*
%TO.C,J3*%
X35712000Y65368000D03*
D11*
X30712000Y65368000D03*
%TD*%
D20*
%TO.C,H5*%
X40212000Y42868000D03*
%TD*%
D10*
%TO.C,U19*%
X97212000Y26368000D03*
D11*
X97212000Y31368000D03*
X97212000Y36368000D03*
%TD*%
D16*
%TO.C,U33*%
X63672000Y53868000D03*
X66212000Y53868000D03*
X68752000Y53868000D03*
D17*
X60462000Y52768000D03*
X71962000Y52768000D03*
%TD*%
D10*
%TO.C,J13*%
X53712000Y65368000D03*
D11*
X48712000Y65368000D03*
%TD*%
D10*
%TO.C,U21*%
X35712000Y5868000D03*
D11*
X40712000Y5868000D03*
%TD*%
D23*
%TO.C,Q5*%
X36274500Y17418000D03*
X36274500Y19318000D03*
X38149500Y18368000D03*
%TD*%
D24*
%TO.C,R48*%
X61462000Y59905500D03*
X61462000Y62830500D03*
%TD*%
D25*
%TO.C,R17*%
X40627000Y32868000D03*
X42277000Y32868000D03*
%TD*%
D26*
%TO.C,C8*%
X30517000Y32868000D03*
X32067000Y32868000D03*
%TD*%
D27*
%TO.C,U43*%
X72762000Y24598000D03*
X72762000Y27138000D03*
X81662000Y27138000D03*
X81662000Y24598000D03*
%TD*%
D25*
%TO.C,R28*%
X45707000Y32868000D03*
X47357000Y32868000D03*
%TD*%
D26*
%TO.C,C6*%
X39937000Y47068000D03*
X41487000Y47068000D03*
%TD*%
D28*
%TO.C,C19*%
X61772000Y32593000D03*
X61772000Y34143000D03*
%TD*%
%TO.C,C25*%
X73374500Y34193001D03*
X73374500Y35743001D03*
%TD*%
D29*
%TO.C,R8*%
X26212000Y28043000D03*
X26212000Y29693000D03*
%TD*%
D30*
%TO.C,U40*%
X45349500Y40418000D03*
X45349500Y41068000D03*
X45349500Y41718000D03*
X45349500Y42368000D03*
X45349500Y43018000D03*
X45349500Y43668000D03*
X45349500Y44318000D03*
X51074500Y44318000D03*
X51074500Y43668000D03*
X51074500Y43018000D03*
X51074500Y42368000D03*
X51074500Y41718000D03*
X51074500Y41068000D03*
X51074500Y40418000D03*
%TD*%
D31*
%TO.C,D9*%
X25712000Y47368000D03*
X29712000Y47368000D03*
%TD*%
D29*
%TO.C,R41*%
X54212000Y31543000D03*
X54212000Y33193000D03*
%TD*%
D32*
%TO.C,D4*%
X67562000Y47368000D03*
X70862000Y47368000D03*
%TD*%
D25*
%TO.C,R45*%
X58387000Y24868000D03*
X60037000Y24868000D03*
%TD*%
D29*
%TO.C,R1*%
X89262000Y46943000D03*
X89262000Y48593000D03*
%TD*%
D33*
%TO.C,Q7*%
X39412000Y21430500D03*
X37512000Y21430500D03*
X38462000Y23305500D03*
%TD*%
D27*
%TO.C,U16*%
X56762000Y27598000D03*
X56762000Y30138000D03*
X65662000Y30138000D03*
X65662000Y27598000D03*
%TD*%
D26*
%TO.C,C7*%
X28937000Y61868000D03*
X30487000Y61868000D03*
%TD*%
D25*
%TO.C,R11*%
X30467000Y24868000D03*
X32117000Y24868000D03*
%TD*%
D26*
%TO.C,C32*%
X35487000Y48180500D03*
X37037000Y48180500D03*
%TD*%
D32*
%TO.C,D6*%
X95562000Y45868000D03*
X98862000Y45868000D03*
%TD*%
D23*
%TO.C,U44*%
X76524500Y14668000D03*
X76524500Y16568000D03*
X78399500Y15618000D03*
%TD*%
D26*
%TO.C,C20*%
X45757000Y34868000D03*
X47307000Y34868000D03*
%TD*%
D25*
%TO.C,R16*%
X89387000Y45368000D03*
X91037000Y45368000D03*
%TD*%
D29*
%TO.C,R40*%
X56212000Y23543000D03*
X56212000Y25193000D03*
%TD*%
D27*
%TO.C,U14*%
X42762000Y27598000D03*
X42762000Y30138000D03*
X51662000Y30138000D03*
X51662000Y27598000D03*
%TD*%
D23*
%TO.C,Q4*%
X92274500Y9418000D03*
X92274500Y11318000D03*
X94149500Y10368000D03*
%TD*%
D34*
%TO.C,C22*%
X62197000Y57168000D03*
X65147000Y57168000D03*
%TD*%
D35*
%TO.C,R25*%
X70249500Y5868000D03*
X73174500Y5868000D03*
%TD*%
D36*
%TO.C,C5*%
X52802000Y51068000D03*
X54702000Y51068000D03*
%TD*%
D25*
%TO.C,R22*%
X50787000Y32868000D03*
X52437000Y32868000D03*
%TD*%
D37*
%TO.C,U42*%
X36162000Y40505500D03*
X35512000Y40505500D03*
X34862000Y40505500D03*
X34212000Y40505500D03*
X33562000Y40505500D03*
X32912000Y40505500D03*
X32262000Y40505500D03*
X32262000Y46230500D03*
X32912000Y46230500D03*
X33562000Y46230500D03*
X34212000Y46230500D03*
X34862000Y46230500D03*
X35512000Y46230500D03*
X36162000Y46230500D03*
%TD*%
D25*
%TO.C,R4*%
X27787000Y8868000D03*
X29437000Y8868000D03*
%TD*%
%TO.C,R3*%
X23887000Y12068000D03*
X25537000Y12068000D03*
%TD*%
D29*
%TO.C,R51*%
X81212000Y41043000D03*
X81212000Y42693000D03*
%TD*%
%TO.C,R6*%
X38212000Y5043000D03*
X38212000Y6693000D03*
%TD*%
D38*
%TO.C,Q1*%
X91112000Y50805500D03*
X93012000Y50805500D03*
X92062000Y48930500D03*
%TD*%
D27*
%TO.C,U25*%
X31762000Y9098000D03*
X31762000Y11638000D03*
X40662000Y11638000D03*
X40662000Y9098000D03*
%TD*%
D37*
%TO.C,U39*%
X94162000Y37005500D03*
X93512000Y37005500D03*
X92862000Y37005500D03*
X92212000Y37005500D03*
X91562000Y37005500D03*
X90912000Y37005500D03*
X90262000Y37005500D03*
X90262000Y42730500D03*
X90912000Y42730500D03*
X91562000Y42730500D03*
X92212000Y42730500D03*
X92862000Y42730500D03*
X93512000Y42730500D03*
X94162000Y42730500D03*
%TD*%
D29*
%TO.C,R49*%
X74212000Y52943000D03*
X74212000Y54593000D03*
%TD*%
D23*
%TO.C,U41*%
X66274500Y7918000D03*
X66274500Y9818000D03*
X68149500Y8868000D03*
%TD*%
D29*
%TO.C,R50*%
X60212000Y56543000D03*
X60212000Y58193000D03*
%TD*%
D28*
%TO.C,C29*%
X92712000Y45093000D03*
X92712000Y46643000D03*
%TD*%
D30*
%TO.C,U35*%
X64349500Y32918000D03*
X64349500Y33568000D03*
X64349500Y34218000D03*
X64349500Y34868000D03*
X64349500Y35518000D03*
X64349500Y36168000D03*
X64349500Y36818000D03*
X70074500Y36818000D03*
X70074500Y36168000D03*
X70074500Y35518000D03*
X70074500Y34868000D03*
X70074500Y34218000D03*
X70074500Y33568000D03*
X70074500Y32918000D03*
%TD*%
D39*
%TO.C,R31*%
X15212000Y48830500D03*
X15212000Y45905500D03*
%TD*%
D35*
%TO.C,R23*%
X63249500Y5368000D03*
X66174500Y5368000D03*
%TD*%
D40*
%TO.C,C24*%
X61574500Y38643000D03*
X61574500Y37093000D03*
%TD*%
D41*
%TO.C,F2*%
X94212000Y13468000D03*
X94212000Y16268000D03*
%TD*%
D25*
%TO.C,R42*%
X49387000Y24868000D03*
X51037000Y24868000D03*
%TD*%
D42*
%TO.C,D7*%
X91212000Y2868000D03*
X91212000Y6868000D03*
%TD*%
D23*
%TO.C,Q6*%
X80774500Y45418000D03*
X80774500Y47318000D03*
X82649500Y46368000D03*
%TD*%
D29*
%TO.C,R46*%
X47712000Y23543000D03*
X47712000Y25193000D03*
%TD*%
D27*
%TO.C,U28*%
X11762000Y9098000D03*
X11762000Y11638000D03*
X20662000Y11638000D03*
X20662000Y9098000D03*
%TD*%
D29*
%TO.C,R52*%
X80212000Y60043000D03*
X80212000Y61693000D03*
%TD*%
D30*
%TO.C,U34*%
X54349500Y40418000D03*
X54349500Y41068000D03*
X54349500Y41718000D03*
X54349500Y42368000D03*
X54349500Y43018000D03*
X54349500Y43668000D03*
X54349500Y44318000D03*
X60074500Y44318000D03*
X60074500Y43668000D03*
X60074500Y43018000D03*
X60074500Y42368000D03*
X60074500Y41718000D03*
X60074500Y41068000D03*
X60074500Y40418000D03*
%TD*%
D25*
%TO.C,R34*%
X89387000Y21868000D03*
X91037000Y21868000D03*
%TD*%
D29*
%TO.C,R33*%
X89212000Y16543000D03*
X89212000Y18193000D03*
%TD*%
D43*
%TO.C,R21*%
X48212000Y6905500D03*
X48212000Y9830500D03*
%TD*%
D36*
%TO.C,C2*%
X37802000Y51068000D03*
X39702000Y51068000D03*
%TD*%
D25*
%TO.C,R14*%
X35547000Y32868000D03*
X37197000Y32868000D03*
%TD*%
%TO.C,R44*%
X44387000Y24868000D03*
X46037000Y24868000D03*
%TD*%
D40*
%TO.C,C34*%
X80299500Y15443001D03*
X80299500Y13893001D03*
%TD*%
D27*
%TO.C,U3*%
X14762000Y27598000D03*
X14762000Y30138000D03*
X23662000Y30138000D03*
X23662000Y27598000D03*
%TD*%
D30*
%TO.C,U36*%
X75349500Y29918000D03*
X75349500Y30568000D03*
X75349500Y31218000D03*
X75349500Y31868000D03*
X75349500Y32518000D03*
X75349500Y33168000D03*
X75349500Y33818000D03*
X81074500Y33818000D03*
X81074500Y33168000D03*
X81074500Y32518000D03*
X81074500Y31868000D03*
X81074500Y31218000D03*
X81074500Y30568000D03*
X81074500Y29918000D03*
%TD*%
D29*
%TO.C,R24*%
X54192000Y28043000D03*
X54192000Y29693000D03*
%TD*%
D32*
%TO.C,D13*%
X83562000Y18868000D03*
X86862000Y18868000D03*
%TD*%
D29*
%TO.C,R47*%
X61712000Y23543000D03*
X61712000Y25193000D03*
%TD*%
%TO.C,R39*%
X52712000Y23543000D03*
X52712000Y25193000D03*
%TD*%
%TO.C,R10*%
X72612000Y48043000D03*
X72612000Y49693000D03*
%TD*%
D26*
%TO.C,C31*%
X66437000Y11868000D03*
X67987000Y11868000D03*
%TD*%
D25*
%TO.C,R7*%
X59787000Y49368000D03*
X61437000Y49368000D03*
%TD*%
D35*
%TO.C,R32*%
X9249500Y54368000D03*
X12174500Y54368000D03*
%TD*%
D36*
%TO.C,C23*%
X67802000Y51068000D03*
X69702000Y51068000D03*
%TD*%
D29*
%TO.C,R2*%
X89212000Y50143000D03*
X89212000Y51793000D03*
%TD*%
D32*
%TO.C,D10*%
X47562000Y18868000D03*
X50862000Y18868000D03*
%TD*%
D28*
%TO.C,C21*%
X73212000Y29593000D03*
X73212000Y31143000D03*
%TD*%
D27*
%TO.C,U27*%
X71762000Y9098000D03*
X71762000Y11638000D03*
X80662000Y11638000D03*
X80662000Y9098000D03*
%TD*%
D26*
%TO.C,C18*%
X55917000Y32868000D03*
X57467000Y32868000D03*
%TD*%
D29*
%TO.C,R29*%
X84212000Y26043000D03*
X84212000Y27693000D03*
%TD*%
%TO.C,R54*%
X41962000Y23543000D03*
X41962000Y25193000D03*
%TD*%
D25*
%TO.C,R26*%
X63447000Y24868000D03*
X65097000Y24868000D03*
%TD*%
%TO.C,R36*%
X52897000Y18368000D03*
X54547000Y18368000D03*
%TD*%
D30*
%TO.C,U38*%
X83349500Y29918000D03*
X83349500Y30568000D03*
X83349500Y31218000D03*
X83349500Y31868000D03*
X83349500Y32518000D03*
X83349500Y33168000D03*
X83349500Y33818000D03*
X89074500Y33818000D03*
X89074500Y33168000D03*
X89074500Y32518000D03*
X89074500Y31868000D03*
X89074500Y31218000D03*
X89074500Y30568000D03*
X89074500Y29918000D03*
%TD*%
D27*
%TO.C,U26*%
X51762000Y9098000D03*
X51762000Y11638000D03*
X60662000Y11638000D03*
X60662000Y9098000D03*
%TD*%
%TO.C,U12*%
X28762000Y27598000D03*
X28762000Y30138000D03*
X37662000Y30138000D03*
X37662000Y27598000D03*
%TD*%
D44*
%TO.C,D3*%
X64212000Y40218000D03*
X64212000Y43518000D03*
%TD*%
D25*
%TO.C,R56*%
X34137000Y21118000D03*
X35787000Y21118000D03*
%TD*%
D35*
%TO.C,R30*%
X86749500Y26868000D03*
X89674500Y26868000D03*
%TD*%
D25*
%TO.C,R37*%
X32617000Y17368000D03*
X34267000Y17368000D03*
%TD*%
D29*
%TO.C,R55*%
X42462000Y20293000D03*
X42462000Y21943000D03*
%TD*%
D44*
%TO.C,D5*%
X86212000Y42718000D03*
X86212000Y46018000D03*
%TD*%
D26*
%TO.C,C12*%
X35597000Y34868000D03*
X37147000Y34868000D03*
%TD*%
D34*
%TO.C,C1*%
X32197000Y57168000D03*
X35147000Y57168000D03*
%TD*%
D26*
%TO.C,C16*%
X40677000Y34868000D03*
X42227000Y34868000D03*
%TD*%
D29*
%TO.C,R13*%
X78212000Y45043000D03*
X78212000Y46693000D03*
%TD*%
D32*
%TO.C,D12*%
X71562000Y21868000D03*
X74862000Y21868000D03*
%TD*%
%TO.C,D11*%
X59562000Y20868000D03*
X62862000Y20868000D03*
%TD*%
D33*
%TO.C,Q2*%
X29162000Y10930500D03*
X27262000Y10930500D03*
X28212000Y12805500D03*
%TD*%
D34*
%TO.C,C4*%
X47197000Y57168000D03*
X50147000Y57168000D03*
%TD*%
D28*
%TO.C,C3*%
X26212000Y32093000D03*
X26212000Y33643000D03*
%TD*%
D29*
%TO.C,R53*%
X90212000Y59043000D03*
X90212000Y60693000D03*
%TD*%
D40*
%TO.C,C28*%
X91474500Y28843000D03*
X91474500Y27293000D03*
%TD*%
D35*
%TO.C,R27*%
X83749500Y8368000D03*
X86674500Y8368000D03*
%TD*%
D26*
%TO.C,C33*%
X62937000Y51368000D03*
X64487000Y51368000D03*
%TD*%
D25*
%TO.C,R5*%
X32387000Y19368000D03*
X34037000Y19368000D03*
%TD*%
%TO.C,R35*%
X42387000Y17868000D03*
X44037000Y17868000D03*
%TD*%
D33*
%TO.C,Q3*%
X45162000Y10930500D03*
X43262000Y10930500D03*
X44212000Y12805500D03*
%TD*%
D25*
%TO.C,R38*%
X53387000Y21868000D03*
X55037000Y21868000D03*
%TD*%
D32*
%TO.C,D14*%
X63562000Y60368000D03*
X66862000Y60368000D03*
%TD*%
D40*
%TO.C,C27*%
X64374500Y12643000D03*
X64374500Y11093000D03*
%TD*%
D26*
%TO.C,C17*%
X50837000Y34868000D03*
X52387000Y34868000D03*
%TD*%
D30*
%TO.C,U37*%
X59349500Y14418000D03*
X59349500Y15068000D03*
X59349500Y15718000D03*
X59349500Y16368000D03*
X59349500Y17018000D03*
X59349500Y17668000D03*
X59349500Y18318000D03*
X65074500Y18318000D03*
X65074500Y17668000D03*
X65074500Y17018000D03*
X65074500Y16368000D03*
X65074500Y15718000D03*
X65074500Y15068000D03*
X65074500Y14418000D03*
%TD*%
D29*
%TO.C,R43*%
X57712000Y20043000D03*
X57712000Y21693000D03*
%TD*%
M02*
