M48
; DRILL file KiCad 10.0.6 date 2026-10-04T09:53:25
; FORMAT={-:-/ absolute / metric / decimal}
; #@! TF.CreationDate,2026-10-04T09:53:25+08:00
; #@! TF.GenerationSoftware,Kicad,Pcbnew,10.0.6
; #@! TF.FileFunction,Plated,1,2,PTH
FMAT,2
METRIC
; #@! TA.AperFunction,Plated,PTH,ViaDrill
T1C0.300
; #@! TA.AperFunction,Plated,PTH,ViaDrill
T2C0.400
; #@! TA.AperFunction,Plated,PTH,ComponentDrill
T3C0.914
; #@! TA.AperFunction,Plated,PTH,ComponentDrill
T4C0.950
; #@! TA.AperFunction,Plated,PTH,ComponentDrill
T5C1.000
; #@! TA.AperFunction,Plated,PTH,ComponentDrill
T6C1.100
; #@! TA.AperFunction,Plated,PTH,ComponentDrill
T7C1.200
; #@! TA.AperFunction,Plated,PTH,ComponentDrill
T8C1.300
; #@! TA.AperFunction,Plated,PTH,ComponentDrill
T9C1.400
%
G90
G05
T1
X6.9Y41.32
X7.4Y38.82
X7.65Y41.77
X8.0Y39.72
X8.212Y46.068
X8.3Y41.32
X8.612Y47.468
X8.612Y45.468
X9.0Y39.52
X9.25Y45.92
X9.25Y43.57
X9.3Y46.82
X9.85Y44.92
X9.95Y43.17
X10.0Y49.82
X10.137Y8.031
X10.537Y7.431
X10.55Y48.52
X10.6Y50.92
X10.612Y43.668
X10.65Y52.57
X11.012Y42.368
X11.325Y53.695
X11.55Y51.47
X11.55Y48.37
X11.912Y41.268
X12.7Y50.32
X13.4Y55.77
X13.4Y48.57
X13.437Y12.282
X13.812Y23.168
X14.091Y51.08
X14.112Y36.268
X14.237Y13.182
X14.768Y35.881
X14.812Y16.668
X14.9Y54.27
X15.3Y45.27
X15.348Y7.439
X15.712Y40.968
X15.912Y47.368
X16.412Y32.168
X16.512Y36.468
X17.012Y40.568
X17.012Y33.368
X17.012Y21.968
X17.1Y57.57
X17.212Y47.868
X17.212Y11.168
X17.3Y58.67
X18.0Y55.87
X18.212Y28.968
X18.212Y22.968
X18.312Y40.568
X19.312Y13.068
X20.212Y26.968
X20.482Y63.268
X20.565Y46.964
X21.312Y27.968
X21.412Y35.268
X22.112Y33.068
X22.512Y33.668
X22.675Y9.61
X23.312Y37.168
X23.462Y23.668
X24.2Y46.708
X24.25Y53.72
X24.312Y36.168
X24.712Y24.218
X24.815Y49.821
X24.912Y25.468
X25.096Y52.777
X25.1Y41.995
X25.612Y25.768
X25.685Y35.75
X25.912Y48.768
X25.912Y27.068
X26.461Y22.882
X27.112Y49.368
X27.112Y19.268
X27.212Y25.768
X27.712Y31.968
X27.962Y10.931
X28.212Y20.568
X28.912Y17.168
X28.937Y59.938
X29.225Y35.09
X29.282Y51.268
X29.601Y24.867
X29.712Y14.968
X29.721Y12.643
X29.784Y35.75
X29.812Y32.068
X29.942Y42.546
X29.99Y18.221
X30.312Y20.768
X30.321Y13.042
X30.547Y29.556
X31.012Y30.868
X31.112Y26.068
X31.112Y7.368
X31.394Y34.897
X31.612Y28.368
X31.662Y40.805
X31.67Y40.002
X31.682Y51.268
X32.067Y33.796
X32.231Y34.502
X32.262Y49.231
X32.496Y55.344
X32.512Y14.768
X32.612Y18.368
X32.97Y39.202
X33.102Y24.991
X33.212Y20.868
X33.217Y18.407
X33.282Y51.268
X33.712Y25.368
X33.812Y31.368
X33.912Y43.068
X34.082Y51.268
X34.212Y45.468
X34.212Y21.068
X34.381Y35.598
X34.612Y32.968
X35.024Y19.89
X35.051Y29.223
X35.147Y58.995
X35.258Y37.923
X35.286Y18.683
X35.312Y44.831
X35.612Y30.668
X35.682Y51.268
X36.006Y44.554
X36.017Y48.642
X36.482Y61.668
X36.482Y60.068
X36.482Y56.868
X36.482Y51.268
X36.712Y21.068
X36.9Y11.163
X36.912Y40.368
X37.282Y56.068
X37.496Y7.409
X37.812Y34.068
X38.578Y10.299
X38.612Y21.068
X38.882Y56.068
X39.278Y10.499
X39.612Y28.868
X39.627Y7.928
X39.682Y56.068
X39.715Y18.258
X40.012Y29.468
X40.482Y54.468
X40.536Y30.869
X40.812Y26.868
X40.812Y24.968
X41.282Y57.668
X41.282Y54.468
X42.369Y18.835
X42.762Y9.931
X42.969Y19.235
X43.182Y68.868
X43.255Y48.309
X43.512Y45.393
X43.919Y32.732
X44.182Y63.268
X44.182Y51.268
X44.228Y21.497
X44.405Y10.586
X44.512Y29.468
X44.553Y27.762
X44.553Y26.886
X44.712Y45.193
X44.739Y33.184
X44.979Y23.81
X45.035Y13.557
X45.452Y35.813
X45.812Y29.468
X45.817Y30.869
X46.12Y18.773
X46.363Y19.552
X46.45Y44.118
X46.582Y51.268
X46.659Y6.048
X46.684Y41.279
X47.182Y51.268
X47.264Y40.613
X47.35Y39.895
X47.357Y31.368
X47.484Y42.579
X47.829Y11.038
X47.875Y41.895
X48.397Y33.583
X48.412Y26.868
X48.599Y42.463
X48.982Y56.868
X48.982Y51.268
X49.187Y45.468
X49.375Y41.271
X49.582Y52.068
X49.674Y23.938
X49.805Y33.019
X49.887Y28.356
X49.897Y18.664
X49.975Y39.971
X50.26Y12.981
X50.382Y64.868
X50.7Y39.92
X50.907Y39.12
X51.111Y31.311
X51.33Y25.81
X51.382Y56.868
X51.382Y51.268
X51.905Y18.401
X51.93Y24.71
X51.982Y65.668
X51.982Y63.268
X52.767Y20.148
X53.042Y37.979
X53.086Y31.497
X53.148Y42.178
X53.15Y43.745
X54.1Y47.87
X54.192Y27.186
X54.211Y21.258
X54.255Y34.047
X54.343Y20.538
X54.7Y58.52
X55.033Y7.738
X55.182Y63.268
X55.344Y25.816
X55.576Y31.497
X55.648Y41.152
X55.705Y19.767
X55.858Y43.232
X56.27Y18.401
X56.312Y59.118
X57.075Y47.895
X57.149Y23.29
X57.212Y9.068
X57.271Y41.729
X57.312Y58.668
X57.412Y7.068
X57.446Y22.572
X57.456Y25.584
X57.614Y9.683
X57.775Y57.22
X57.849Y18.518
X57.983Y43.725
X58.008Y17.72
X58.212Y9.068
X58.225Y32.154
X58.385Y23.866
X58.602Y39.074
X58.786Y47.006
X58.881Y42.244
X59.005Y30.077
X59.014Y10.383
X59.312Y5.168
X59.312Y2.868
X59.327Y24.158
X60.036Y36.095
X60.212Y61.318
X60.301Y25.806
X60.539Y14.542
X60.556Y16.695
X60.59Y36.534
X60.607Y35.002
X61.077Y55.977
X61.08Y17.165
X61.125Y57.82
X61.326Y50.409
X61.406Y42.005
X61.471Y19.12
X61.756Y40.193
X61.858Y40.895
X62.359Y35.034
X62.387Y60.868
X62.748Y19.625
X62.894Y26.685
X62.899Y10.96
X63.026Y17.767
X63.128Y34.912
X63.148Y37.336
X63.199Y9.46
X63.236Y57.205
X63.418Y19.03
X63.424Y44.293
X63.424Y42.74
X63.47Y46.828
X63.804Y7.738
X63.875Y14.395
X64.079Y44.667
X64.475Y61.67
X64.725Y58.795
X65.075Y9.293
X65.426Y37.405
X65.434Y51.884
X65.514Y10.579
X65.541Y34.838
X65.543Y35.756
X65.55Y33.434
X65.784Y48.5
X65.796Y24.169
X66.112Y37.368
X66.267Y15.718
X66.275Y9.018
X66.629Y19.075
X66.682Y57.668
X66.882Y52.068
X67.102Y31.925
X67.375Y58.62
X67.482Y55.268
X67.482Y52.868
X67.539Y37.483
X67.625Y61.695
X67.682Y57.668
X67.758Y32.9
X67.85Y59.745
X68.233Y23.561
X68.287Y10.868
X68.551Y18.696
X68.82Y26.479
X69.05Y62.498
X69.112Y5.068
X69.212Y6.068
X69.475Y58.12
X69.551Y27.709
X69.643Y37.472
X69.882Y55.268
X70.188Y15.267
X70.212Y32.868
X70.26Y30.852
X70.303Y38.016
X70.4Y61.148
X70.878Y23.995
X70.882Y54.468
X70.882Y51.268
X70.954Y23.27
X71.012Y3.168
X71.053Y31.42
X71.278Y19.993
X71.46Y25.967
X71.482Y50.468
X71.698Y33.106
X71.8Y59.748
X71.871Y15.124
X72.423Y34.287
X72.612Y40.168
X72.712Y7.868
X72.974Y36.543
X73.112Y34.468
X73.55Y48.497
X73.712Y58.868
X73.712Y46.368
X73.712Y43.968
X73.719Y55.977
X73.75Y49.197
X73.959Y15.666
X74.154Y30.445
X74.212Y45.865
X74.304Y52.021
X74.612Y38.068
X74.812Y45.465
X75.119Y34.522
X75.388Y17.216
X75.449Y25.168
X75.849Y25.868
X75.849Y34.618
X76.212Y38.168
X77.004Y27.04
X77.412Y24.568
X77.412Y20.768
X77.712Y12.868
X78.325Y13.268
X78.712Y20.768
X78.863Y39.306
X79.304Y32.408
X79.65Y48.07
X79.787Y35.468
X79.84Y33.756
X79.9Y13.093
X79.912Y23.768
X80.025Y52.72
X80.043Y39.361
X80.282Y36.681
X80.304Y25.778
X80.897Y28.31
X80.96Y43.853
X81.036Y37.421
X81.075Y46.618
X81.2Y28.97
X81.212Y29.868
X81.462Y55.244
X81.825Y50.42
X82.295Y37.431
X82.349Y34.218
X82.612Y14.068
X82.703Y7.322
X83.012Y15.368
X83.212Y13.668
X83.259Y51.854
X83.312Y52.868
X83.512Y22.368
X83.875Y48.645
X83.983Y25.185
X84.45Y32.068
X84.531Y38.626
X84.54Y30.738
X84.575Y49.045
X85.063Y16.29
X85.213Y29.593
X85.3Y26.97
X85.362Y20.843
X85.712Y56.568
X85.845Y15.378
X86.3Y29.02
X86.325Y47.295
X86.45Y33.02
X87.025Y47.695
X87.22Y44.276
X87.65Y31.82
X87.875Y32.571
X87.974Y30.768
X88.112Y34.668
X88.303Y43.787
X88.612Y46.168
X88.638Y26.525
X88.655Y44.636
X88.712Y50.968
X89.012Y36.768
X89.012Y35.768
X89.025Y43.345
X89.061Y41.502
X89.156Y39.215
X89.512Y50.468
X89.512Y46.668
X89.803Y17.354
X89.803Y15.121
X89.812Y34.468
X90.1Y23.17
X90.174Y33.368
X90.174Y32.318
X90.174Y31.418
X90.403Y30.042
X90.456Y40.915
X90.575Y28.393
X90.688Y39.024
X90.712Y51.968
X90.712Y50.768
X90.855Y38.198
X90.861Y41.502
X90.912Y24.168
X91.557Y38.235
X91.588Y39.924
X91.712Y53.768
X91.812Y46.643
X91.812Y32.568
X91.962Y5.165
X92.112Y53.168
X92.525Y34.144
X92.575Y12.018
X92.585Y14.179
X92.812Y44.081
X93.312Y53.768
X93.425Y40.645
X93.512Y41.618
X93.612Y45.568
X93.812Y51.505
X93.996Y15.116
X94.162Y39.568
X94.212Y45.968
X94.212Y34.068
X94.712Y46.568
X94.812Y34.868
X95.344Y42.555
X95.44Y18.345
X95.523Y44.794
X95.612Y12.168
X96.5Y45.67
X96.712Y28.068
X100.512Y32.568
T2
X72.625Y60.995
X73.476Y69.37
X75.3Y54.87
T3
X3.542Y38.298
X3.542Y15.438
X6.082Y38.298
X6.082Y15.438
X8.622Y38.298
X8.622Y15.438
X11.162Y38.298
X11.162Y15.438
X13.702Y38.298
X13.702Y15.438
X16.242Y38.298
X16.242Y15.438
X18.782Y38.298
X18.782Y15.438
X21.322Y38.298
X21.322Y15.438
X23.862Y38.298
X23.862Y15.438
X26.402Y38.298
X26.402Y15.438
X28.942Y38.298
X28.942Y15.438
X31.482Y38.298
X31.482Y15.438
X34.022Y38.298
X34.022Y15.438
X36.562Y38.298
X36.562Y15.438
X39.102Y38.298
X39.102Y15.438
X41.642Y38.298
X41.642Y15.438
X44.182Y38.298
X44.182Y15.438
X46.722Y38.298
X46.722Y15.438
X49.262Y38.298
X49.262Y15.438
X51.802Y38.298
X51.802Y15.438
X54.342Y38.298
X54.342Y15.438
X56.882Y38.298
X56.882Y15.438
T4
X80.212Y54.168
X82.712Y54.168
X85.212Y54.168
X87.712Y54.168
T5
X15.212Y43.868
X17.752Y43.868
X19.672Y57.868
X20.292Y43.868
X22.212Y57.868
X25.212Y43.868
X27.752Y43.868
X30.292Y43.868
T7
X33.672Y53.868
X36.212Y53.868
X38.752Y53.868
X48.672Y53.868
X51.212Y53.868
X53.752Y53.868
X63.672Y53.868
X66.212Y53.868
X68.752Y53.868
T8
X5.312Y59.868
X5.312Y54.868
X5.312Y49.868
X5.312Y44.868
T9
X14.712Y65.368
X15.712Y5.868
X19.712Y65.368
X20.712Y5.868
X30.712Y65.368
X35.712Y65.368
X35.712Y5.868
X40.712Y5.868
X48.712Y65.368
X53.712Y65.368
X55.712Y5.868
X60.712Y5.868
X66.712Y65.368
X71.712Y65.368
X75.712Y5.868
X80.712Y5.868
X84.712Y65.368
X89.712Y65.368
X97.212Y58.368
X97.212Y53.368
X97.212Y48.368
X97.212Y36.368
X97.212Y31.368
X97.212Y26.368
X97.212Y16.068
X97.212Y11.068
T6
G00X30.462Y51.918
M15
G01X30.462Y53.618
M16
G05
G00X41.962Y51.918
M15
G01X41.962Y53.618
M16
G05
G00X45.462Y51.918
M15
G01X45.462Y53.618
M16
G05
G00X56.962Y51.918
M15
G01X56.962Y53.618
M16
G05
G00X60.462Y51.918
M15
G01X60.462Y53.618
M16
G05
G00X71.962Y51.918
M15
G01X71.962Y53.618
M16
G05
M30
