ISO-10303-21;
HEADER;
FILE_DESCRIPTION(('FreeCAD Model'),'2;1');
FILE_NAME('Open CASCADE Shape Model','2026-10-04T09:53:45',('FreeCAD'),(
    'FreeCAD'),'Open CASCADE STEP processor 7.8','FreeCAD','Unknown');
FILE_SCHEMA(('AUTOMOTIVE_DESIGN { 1 0 10303 214 1 1 1 1 }'));
ENDSEC;
DATA;
#1 = APPLICATION_PROTOCOL_DEFINITION('international standard',
  'automotive_design',2000,#2);
#2 = APPLICATION_CONTEXT(
  'core data for automotive mechanical design processes');
#3 = SHAPE_DEFINITION_REPRESENTATION(#4,#10);
#4 = PRODUCT_DEFINITION_SHAPE('','',#5);
#5 = PRODUCT_DEFINITION('design','',#6,#9);
#6 = PRODUCT_DEFINITION_FORMATION('','',#7);
#7 = PRODUCT('Open CASCADE STEP translator 7.8 6',
  'Open CASCADE STEP translator 7.8 6','',(#8));
#8 = PRODUCT_CONTEXT('',#2,'mechanical');
#9 = PRODUCT_DEFINITION_CONTEXT('part definition',#2,'design');
#10 = ADVANCED_BREP_SHAPE_REPRESENTATION('',(#11,#15),#799);
#11 = AXIS2_PLACEMENT_3D('',#12,#13,#14);
#12 = CARTESIAN_POINT('',(0.,0.,0.));
#13 = DIRECTION('',(0.,0.,1.));
#14 = DIRECTION('',(1.,0.,-0.));
#15 = MANIFOLD_SOLID_BREP('',#16);
#16 = CLOSED_SHELL('',(#17,#57,#152,#183,#278,#295,#338,#360,#377,#394,
    #428,#445,#491,#523,#540,#569,#603,#624,#636,#667,#708,#743,#767,
    #787));
#17 = ADVANCED_FACE('',(#18),#52,.F.);
#18 = FACE_BOUND('',#19,.F.);
#19 = EDGE_LOOP('',(#20,#30,#38,#46));
#20 = ORIENTED_EDGE('',*,*,#21,.F.);
#21 = EDGE_CURVE('',#22,#24,#26,.T.);
#22 = VERTEX_POINT('',#23);
#23 = CARTESIAN_POINT('',(101.74,-16.,46.));
#24 = VERTEX_POINT('',#25);
#25 = CARTESIAN_POINT('',(84.74,-16.,46.));
#26 = LINE('',#27,#28);
#27 = CARTESIAN_POINT('',(101.74,-16.,46.));
#28 = VECTOR('',#29,1.);
#29 = DIRECTION('',(-1.,2.22044604925E-16,0.));
#30 = ORIENTED_EDGE('',*,*,#31,.F.);
#31 = EDGE_CURVE('',#32,#22,#34,.T.);
#32 = VERTEX_POINT('',#33);
#33 = CARTESIAN_POINT('',(101.74,-16.,43.));
#34 = LINE('',#35,#36);
#35 = CARTESIAN_POINT('',(101.74,-16.,43.));
#36 = VECTOR('',#37,1.);
#37 = DIRECTION('',(0.,0.,1.));
#38 = ORIENTED_EDGE('',*,*,#39,.T.);
#39 = EDGE_CURVE('',#32,#40,#42,.T.);
#40 = VERTEX_POINT('',#41);
#41 = CARTESIAN_POINT('',(84.74,-16.,43.));
#42 = LINE('',#43,#44);
#43 = CARTESIAN_POINT('',(101.74,-16.,43.));
#44 = VECTOR('',#45,1.);
#45 = DIRECTION('',(-1.,2.22044604925E-16,0.));
#46 = ORIENTED_EDGE('',*,*,#47,.T.);
#47 = EDGE_CURVE('',#40,#24,#48,.T.);
#48 = LINE('',#49,#50);
#49 = CARTESIAN_POINT('',(84.74,-16.,43.));
#50 = VECTOR('',#51,1.);
#51 = DIRECTION('',(0.,0.,1.));
#52 = PLANE('',#53);
#53 = AXIS2_PLACEMENT_3D('',#54,#55,#56);
#54 = CARTESIAN_POINT('',(101.74,-16.,43.));
#55 = DIRECTION('',(2.22044604925E-16,1.,0.));
#56 = DIRECTION('',(0.,0.,1.));
#57 = ADVANCED_FACE('',(#58),#147,.T.);
#58 = FACE_BOUND('',#59,.T.);
#59 = EDGE_LOOP('',(#60,#61,#69,#77,#85,#93,#101,#109,#117,#125,#133,
    #141));
#60 = ORIENTED_EDGE('',*,*,#21,.F.);
#61 = ORIENTED_EDGE('',*,*,#62,.T.);
#62 = EDGE_CURVE('',#22,#63,#65,.T.);
#63 = VERTEX_POINT('',#64);
#64 = CARTESIAN_POINT('',(101.74,16.,46.));
#65 = LINE('',#66,#67);
#66 = CARTESIAN_POINT('',(101.74,-16.,46.));
#67 = VECTOR('',#68,1.);
#68 = DIRECTION('',(2.22044604925E-16,1.,0.));
#69 = ORIENTED_EDGE('',*,*,#70,.T.);
#70 = EDGE_CURVE('',#63,#71,#73,.T.);
#71 = VERTEX_POINT('',#72);
#72 = CARTESIAN_POINT('',(84.74,16.,46.));
#73 = LINE('',#74,#75);
#74 = CARTESIAN_POINT('',(101.74,16.,46.));
#75 = VECTOR('',#76,1.);
#76 = DIRECTION('',(-1.,2.22044604925E-16,0.));
#77 = ORIENTED_EDGE('',*,*,#78,.F.);
#78 = EDGE_CURVE('',#79,#71,#81,.T.);
#79 = VERTEX_POINT('',#80);
#80 = CARTESIAN_POINT('',(84.74,14.,46.));
#81 = LINE('',#82,#83);
#82 = CARTESIAN_POINT('',(84.74,14.,46.));
#83 = VECTOR('',#84,1.);
#84 = DIRECTION('',(2.22044604925E-16,1.,0.));
#85 = ORIENTED_EDGE('',*,*,#86,.T.);
#86 = EDGE_CURVE('',#79,#87,#89,.T.);
#87 = VERTEX_POINT('',#88);
#88 = CARTESIAN_POINT('',(78.74,14.,46.));
#89 = LINE('',#90,#91);
#90 = CARTESIAN_POINT('',(84.74,14.,46.));
#91 = VECTOR('',#92,1.);
#92 = DIRECTION('',(-1.,2.22044604925E-16,0.));
#93 = ORIENTED_EDGE('',*,*,#94,.T.);
#94 = EDGE_CURVE('',#87,#95,#97,.T.);
#95 = VERTEX_POINT('',#96);
#96 = CARTESIAN_POINT('',(78.74,16.,46.));
#97 = LINE('',#98,#99);
#98 = CARTESIAN_POINT('',(78.74,14.,46.));
#99 = VECTOR('',#100,1.);
#100 = DIRECTION('',(2.22044604925E-16,1.,0.));
#101 = ORIENTED_EDGE('',*,*,#102,.T.);
#102 = EDGE_CURVE('',#95,#103,#105,.T.);
#103 = VERTEX_POINT('',#104);
#104 = CARTESIAN_POINT('',(61.74,16.,46.));
#105 = LINE('',#106,#107);
#106 = CARTESIAN_POINT('',(101.74,16.,46.));
#107 = VECTOR('',#108,1.);
#108 = DIRECTION('',(-1.,2.22044604925E-16,0.));
#109 = ORIENTED_EDGE('',*,*,#110,.F.);
#110 = EDGE_CURVE('',#111,#103,#113,.T.);
#111 = VERTEX_POINT('',#112);
#112 = CARTESIAN_POINT('',(61.74,-16.,46.));
#113 = LINE('',#114,#115);
#114 = CARTESIAN_POINT('',(61.74,-16.,46.));
#115 = VECTOR('',#116,1.);
#116 = DIRECTION('',(2.22044604925E-16,1.,0.));
#117 = ORIENTED_EDGE('',*,*,#118,.F.);
#118 = EDGE_CURVE('',#119,#111,#121,.T.);
#119 = VERTEX_POINT('',#120);
#120 = CARTESIAN_POINT('',(78.74,-16.,46.));
#121 = LINE('',#122,#123);
#122 = CARTESIAN_POINT('',(101.74,-16.,46.));
#123 = VECTOR('',#124,1.);
#124 = DIRECTION('',(-1.,2.22044604925E-16,0.));
#125 = ORIENTED_EDGE('',*,*,#126,.T.);
#126 = EDGE_CURVE('',#119,#127,#129,.T.);
#127 = VERTEX_POINT('',#128);
#128 = CARTESIAN_POINT('',(78.74,-14.,46.));
#129 = LINE('',#130,#131);
#130 = CARTESIAN_POINT('',(78.74,-20.,46.));
#131 = VECTOR('',#132,1.);
#132 = DIRECTION('',(2.22044604925E-16,1.,0.));
#133 = ORIENTED_EDGE('',*,*,#134,.F.);
#134 = EDGE_CURVE('',#135,#127,#137,.T.);
#135 = VERTEX_POINT('',#136);
#136 = CARTESIAN_POINT('',(84.74,-14.,46.));
#137 = LINE('',#138,#139);
#138 = CARTESIAN_POINT('',(84.74,-14.,46.));
#139 = VECTOR('',#140,1.);
#140 = DIRECTION('',(-1.,2.22044604925E-16,0.));
#141 = ORIENTED_EDGE('',*,*,#142,.F.);
#142 = EDGE_CURVE('',#24,#135,#143,.T.);
#143 = LINE('',#144,#145);
#144 = CARTESIAN_POINT('',(84.74,-20.,46.));
#145 = VECTOR('',#146,1.);
#146 = DIRECTION('',(2.22044604925E-16,1.,0.));
#147 = PLANE('',#148);
#148 = AXIS2_PLACEMENT_3D('',#149,#150,#151);
#149 = CARTESIAN_POINT('',(101.74,-16.,46.));
#150 = DIRECTION('',(0.,0.,1.));
#151 = DIRECTION('',(2.22044604925E-16,1.,0.));
#152 = ADVANCED_FACE('',(#153),#178,.F.);
#153 = FACE_BOUND('',#154,.F.);
#154 = EDGE_LOOP('',(#155,#163,#171,#177));
#155 = ORIENTED_EDGE('',*,*,#156,.F.);
#156 = EDGE_CURVE('',#157,#40,#159,.T.);
#157 = VERTEX_POINT('',#158);
#158 = CARTESIAN_POINT('',(84.74,-20.,43.));
#159 = LINE('',#160,#161);
#160 = CARTESIAN_POINT('',(84.74,-20.,43.));
#161 = VECTOR('',#162,1.);
#162 = DIRECTION('',(2.22044604925E-16,1.,0.));
#163 = ORIENTED_EDGE('',*,*,#164,.T.);
#164 = EDGE_CURVE('',#157,#165,#167,.T.);
#165 = VERTEX_POINT('',#166);
#166 = CARTESIAN_POINT('',(84.74,-20.,46.));
#167 = LINE('',#168,#169);
#168 = CARTESIAN_POINT('',(84.74,-20.,43.));
#169 = VECTOR('',#170,1.);
#170 = DIRECTION('',(0.,0.,1.));
#171 = ORIENTED_EDGE('',*,*,#172,.T.);
#172 = EDGE_CURVE('',#165,#24,#173,.T.);
#173 = LINE('',#174,#175);
#174 = CARTESIAN_POINT('',(84.74,-20.,46.));
#175 = VECTOR('',#176,1.);
#176 = DIRECTION('',(2.22044604925E-16,1.,0.));
#177 = ORIENTED_EDGE('',*,*,#47,.F.);
#178 = PLANE('',#179);
#179 = AXIS2_PLACEMENT_3D('',#180,#181,#182);
#180 = CARTESIAN_POINT('',(84.74,-20.,43.));
#181 = DIRECTION('',(-1.,2.22044604925E-16,0.));
#182 = DIRECTION('',(0.,0.,1.));
#183 = ADVANCED_FACE('',(#184),#273,.F.);
#184 = FACE_BOUND('',#185,.F.);
#185 = EDGE_LOOP('',(#186,#187,#195,#203,#211,#219,#227,#235,#243,#251,
    #259,#267));
#186 = ORIENTED_EDGE('',*,*,#39,.F.);
#187 = ORIENTED_EDGE('',*,*,#188,.T.);
#188 = EDGE_CURVE('',#32,#189,#191,.T.);
#189 = VERTEX_POINT('',#190);
#190 = CARTESIAN_POINT('',(101.74,16.,43.));
#191 = LINE('',#192,#193);
#192 = CARTESIAN_POINT('',(101.74,-16.,43.));
#193 = VECTOR('',#194,1.);
#194 = DIRECTION('',(2.22044604925E-16,1.,0.));
#195 = ORIENTED_EDGE('',*,*,#196,.T.);
#196 = EDGE_CURVE('',#189,#197,#199,.T.);
#197 = VERTEX_POINT('',#198);
#198 = CARTESIAN_POINT('',(84.74,16.,43.));
#199 = LINE('',#200,#201);
#200 = CARTESIAN_POINT('',(101.74,16.,43.));
#201 = VECTOR('',#202,1.);
#202 = DIRECTION('',(-1.,2.22044604925E-16,0.));
#203 = ORIENTED_EDGE('',*,*,#204,.F.);
#204 = EDGE_CURVE('',#205,#197,#207,.T.);
#205 = VERTEX_POINT('',#206);
#206 = CARTESIAN_POINT('',(84.74,14.,43.));
#207 = LINE('',#208,#209);
#208 = CARTESIAN_POINT('',(84.74,14.,43.));
#209 = VECTOR('',#210,1.);
#210 = DIRECTION('',(2.22044604925E-16,1.,0.));
#211 = ORIENTED_EDGE('',*,*,#212,.T.);
#212 = EDGE_CURVE('',#205,#213,#215,.T.);
#213 = VERTEX_POINT('',#214);
#214 = CARTESIAN_POINT('',(78.74,14.,43.));
#215 = LINE('',#216,#217);
#216 = CARTESIAN_POINT('',(84.74,14.,43.));
#217 = VECTOR('',#218,1.);
#218 = DIRECTION('',(-1.,2.22044604925E-16,0.));
#219 = ORIENTED_EDGE('',*,*,#220,.T.);
#220 = EDGE_CURVE('',#213,#221,#223,.T.);
#221 = VERTEX_POINT('',#222);
#222 = CARTESIAN_POINT('',(78.74,16.,43.));
#223 = LINE('',#224,#225);
#224 = CARTESIAN_POINT('',(78.74,14.,43.));
#225 = VECTOR('',#226,1.);
#226 = DIRECTION('',(2.22044604925E-16,1.,0.));
#227 = ORIENTED_EDGE('',*,*,#228,.T.);
#228 = EDGE_CURVE('',#221,#229,#231,.T.);
#229 = VERTEX_POINT('',#230);
#230 = CARTESIAN_POINT('',(61.74,16.,43.));
#231 = LINE('',#232,#233);
#232 = CARTESIAN_POINT('',(101.74,16.,43.));
#233 = VECTOR('',#234,1.);
#234 = DIRECTION('',(-1.,2.22044604925E-16,0.));
#235 = ORIENTED_EDGE('',*,*,#236,.F.);
#236 = EDGE_CURVE('',#237,#229,#239,.T.);
#237 = VERTEX_POINT('',#238);
#238 = CARTESIAN_POINT('',(61.74,-16.,43.));
#239 = LINE('',#240,#241);
#240 = CARTESIAN_POINT('',(61.74,-16.,43.));
#241 = VECTOR('',#242,1.);
#242 = DIRECTION('',(2.22044604925E-16,1.,0.));
#243 = ORIENTED_EDGE('',*,*,#244,.F.);
#244 = EDGE_CURVE('',#245,#237,#247,.T.);
#245 = VERTEX_POINT('',#246);
#246 = CARTESIAN_POINT('',(78.74,-16.,43.));
#247 = LINE('',#248,#249);
#248 = CARTESIAN_POINT('',(101.74,-16.,43.));
#249 = VECTOR('',#250,1.);
#250 = DIRECTION('',(-1.,2.22044604925E-16,0.));
#251 = ORIENTED_EDGE('',*,*,#252,.T.);
#252 = EDGE_CURVE('',#245,#253,#255,.T.);
#253 = VERTEX_POINT('',#254);
#254 = CARTESIAN_POINT('',(78.74,-14.,43.));
#255 = LINE('',#256,#257);
#256 = CARTESIAN_POINT('',(78.74,-20.,43.));
#257 = VECTOR('',#258,1.);
#258 = DIRECTION('',(2.22044604925E-16,1.,0.));
#259 = ORIENTED_EDGE('',*,*,#260,.F.);
#260 = EDGE_CURVE('',#261,#253,#263,.T.);
#261 = VERTEX_POINT('',#262);
#262 = CARTESIAN_POINT('',(84.74,-14.,43.));
#263 = LINE('',#264,#265);
#264 = CARTESIAN_POINT('',(84.74,-14.,43.));
#265 = VECTOR('',#266,1.);
#266 = DIRECTION('',(-1.,2.22044604925E-16,0.));
#267 = ORIENTED_EDGE('',*,*,#268,.F.);
#268 = EDGE_CURVE('',#40,#261,#269,.T.);
#269 = LINE('',#270,#271);
#270 = CARTESIAN_POINT('',(84.74,-20.,43.));
#271 = VECTOR('',#272,1.);
#272 = DIRECTION('',(2.22044604925E-16,1.,0.));
#273 = PLANE('',#274);
#274 = AXIS2_PLACEMENT_3D('',#275,#276,#277);
#275 = CARTESIAN_POINT('',(101.74,-16.,43.));
#276 = DIRECTION('',(0.,0.,1.));
#277 = DIRECTION('',(2.22044604925E-16,1.,0.));
#278 = ADVANCED_FACE('',(#279),#290,.F.);
#279 = FACE_BOUND('',#280,.F.);
#280 = EDGE_LOOP('',(#281,#282,#283,#284));
#281 = ORIENTED_EDGE('',*,*,#188,.F.);
#282 = ORIENTED_EDGE('',*,*,#31,.T.);
#283 = ORIENTED_EDGE('',*,*,#62,.T.);
#284 = ORIENTED_EDGE('',*,*,#285,.F.);
#285 = EDGE_CURVE('',#189,#63,#286,.T.);
#286 = LINE('',#287,#288);
#287 = CARTESIAN_POINT('',(101.74,16.,43.));
#288 = VECTOR('',#289,1.);
#289 = DIRECTION('',(0.,0.,1.));
#290 = PLANE('',#291);
#291 = AXIS2_PLACEMENT_3D('',#292,#293,#294);
#292 = CARTESIAN_POINT('',(101.74,-16.,43.));
#293 = DIRECTION('',(-1.,2.22044604925E-16,0.));
#294 = DIRECTION('',(0.,0.,1.));
#295 = ADVANCED_FACE('',(#296),#333,.T.);
#296 = FACE_BOUND('',#297,.T.);
#297 = EDGE_LOOP('',(#298,#306,#307,#308,#309,#317,#326));
#298 = ORIENTED_EDGE('',*,*,#299,.F.);
#299 = EDGE_CURVE('',#24,#300,#302,.T.);
#300 = VERTEX_POINT('',#301);
#301 = CARTESIAN_POINT('',(82.198257569495,-16.,46.));
#302 = LINE('',#303,#304);
#303 = CARTESIAN_POINT('',(101.74,-16.,46.));
#304 = VECTOR('',#305,1.);
#305 = DIRECTION('',(-1.,2.22044604925E-16,0.));
#306 = ORIENTED_EDGE('',*,*,#142,.T.);
#307 = ORIENTED_EDGE('',*,*,#134,.T.);
#308 = ORIENTED_EDGE('',*,*,#126,.F.);
#309 = ORIENTED_EDGE('',*,*,#310,.F.);
#310 = EDGE_CURVE('',#311,#119,#313,.T.);
#311 = VERTEX_POINT('',#312);
#312 = CARTESIAN_POINT('',(81.281742430505,-16.,46.));
#313 = LINE('',#314,#315);
#314 = CARTESIAN_POINT('',(101.74,-16.,46.));
#315 = VECTOR('',#316,1.);
#316 = DIRECTION('',(-1.,2.22044604925E-16,0.));
#317 = ORIENTED_EDGE('',*,*,#318,.F.);
#318 = EDGE_CURVE('',#319,#311,#321,.T.);
#319 = VERTEX_POINT('',#320);
#320 = CARTESIAN_POINT('',(81.74,-15.9,46.));
#321 = CIRCLE('',#322,1.1);
#322 = AXIS2_PLACEMENT_3D('',#323,#324,#325);
#323 = CARTESIAN_POINT('',(81.74,-17.,46.));
#324 = DIRECTION('',(0.,-0.,1.));
#325 = DIRECTION('',(2.22044604925E-16,1.,0.));
#326 = ORIENTED_EDGE('',*,*,#327,.F.);
#327 = EDGE_CURVE('',#300,#319,#328,.T.);
#328 = CIRCLE('',#329,1.1);
#329 = AXIS2_PLACEMENT_3D('',#330,#331,#332);
#330 = CARTESIAN_POINT('',(81.74,-17.,46.));
#331 = DIRECTION('',(0.,-0.,1.));
#332 = DIRECTION('',(2.22044604925E-16,1.,0.));
#333 = PLANE('',#334);
#334 = AXIS2_PLACEMENT_3D('',#335,#336,#337);
#335 = CARTESIAN_POINT('',(101.74,-16.,46.));
#336 = DIRECTION('',(0.,0.,1.));
#337 = DIRECTION('',(2.22044604925E-16,1.,0.));
#338 = ADVANCED_FACE('',(#339),#355,.F.);
#339 = FACE_BOUND('',#340,.F.);
#340 = EDGE_LOOP('',(#341,#342,#348,#349));
#341 = ORIENTED_EDGE('',*,*,#118,.F.);
#342 = ORIENTED_EDGE('',*,*,#343,.F.);
#343 = EDGE_CURVE('',#245,#119,#344,.T.);
#344 = LINE('',#345,#346);
#345 = CARTESIAN_POINT('',(78.74,-16.,43.));
#346 = VECTOR('',#347,1.);
#347 = DIRECTION('',(0.,0.,1.));
#348 = ORIENTED_EDGE('',*,*,#244,.T.);
#349 = ORIENTED_EDGE('',*,*,#350,.T.);
#350 = EDGE_CURVE('',#237,#111,#351,.T.);
#351 = LINE('',#352,#353);
#352 = CARTESIAN_POINT('',(61.74,-16.,43.));
#353 = VECTOR('',#354,1.);
#354 = DIRECTION('',(0.,0.,1.));
#355 = PLANE('',#356);
#356 = AXIS2_PLACEMENT_3D('',#357,#358,#359);
#357 = CARTESIAN_POINT('',(101.74,-16.,43.));
#358 = DIRECTION('',(2.22044604925E-16,1.,0.));
#359 = DIRECTION('',(0.,0.,1.));
#360 = ADVANCED_FACE('',(#361),#372,.T.);
#361 = FACE_BOUND('',#362,.T.);
#362 = EDGE_LOOP('',(#363,#364,#365,#366));
#363 = ORIENTED_EDGE('',*,*,#236,.F.);
#364 = ORIENTED_EDGE('',*,*,#350,.T.);
#365 = ORIENTED_EDGE('',*,*,#110,.T.);
#366 = ORIENTED_EDGE('',*,*,#367,.F.);
#367 = EDGE_CURVE('',#229,#103,#368,.T.);
#368 = LINE('',#369,#370);
#369 = CARTESIAN_POINT('',(61.74,16.,43.));
#370 = VECTOR('',#371,1.);
#371 = DIRECTION('',(0.,0.,1.));
#372 = PLANE('',#373);
#373 = AXIS2_PLACEMENT_3D('',#374,#375,#376);
#374 = CARTESIAN_POINT('',(61.74,-16.,43.));
#375 = DIRECTION('',(-1.,2.22044604925E-16,0.));
#376 = DIRECTION('',(0.,0.,1.));
#377 = ADVANCED_FACE('',(#378),#389,.T.);
#378 = FACE_BOUND('',#379,.T.);
#379 = EDGE_LOOP('',(#380,#381,#387,#388));
#380 = ORIENTED_EDGE('',*,*,#102,.F.);
#381 = ORIENTED_EDGE('',*,*,#382,.F.);
#382 = EDGE_CURVE('',#221,#95,#383,.T.);
#383 = LINE('',#384,#385);
#384 = CARTESIAN_POINT('',(78.74,16.,43.));
#385 = VECTOR('',#386,1.);
#386 = DIRECTION('',(0.,0.,1.));
#387 = ORIENTED_EDGE('',*,*,#228,.T.);
#388 = ORIENTED_EDGE('',*,*,#367,.T.);
#389 = PLANE('',#390);
#390 = AXIS2_PLACEMENT_3D('',#391,#392,#393);
#391 = CARTESIAN_POINT('',(101.74,16.,43.));
#392 = DIRECTION('',(2.22044604925E-16,1.,0.));
#393 = DIRECTION('',(0.,0.,1.));
#394 = ADVANCED_FACE('',(#395),#423,.T.);
#395 = FACE_BOUND('',#396,.T.);
#396 = EDGE_LOOP('',(#397,#398,#399,#407,#416,#422));
#397 = ORIENTED_EDGE('',*,*,#86,.F.);
#398 = ORIENTED_EDGE('',*,*,#78,.T.);
#399 = ORIENTED_EDGE('',*,*,#400,.T.);
#400 = EDGE_CURVE('',#71,#401,#403,.T.);
#401 = VERTEX_POINT('',#402);
#402 = CARTESIAN_POINT('',(82.198257569495,16.,46.));
#403 = LINE('',#404,#405);
#404 = CARTESIAN_POINT('',(101.74,16.,46.));
#405 = VECTOR('',#406,1.);
#406 = DIRECTION('',(-1.,2.22044604925E-16,0.));
#407 = ORIENTED_EDGE('',*,*,#408,.F.);
#408 = EDGE_CURVE('',#409,#401,#411,.T.);
#409 = VERTEX_POINT('',#410);
#410 = CARTESIAN_POINT('',(81.281742430505,16.,46.));
#411 = CIRCLE('',#412,1.1);
#412 = AXIS2_PLACEMENT_3D('',#413,#414,#415);
#413 = CARTESIAN_POINT('',(81.74,17.,46.));
#414 = DIRECTION('',(0.,-0.,1.));
#415 = DIRECTION('',(2.22044604925E-16,1.,0.));
#416 = ORIENTED_EDGE('',*,*,#417,.T.);
#417 = EDGE_CURVE('',#409,#95,#418,.T.);
#418 = LINE('',#419,#420);
#419 = CARTESIAN_POINT('',(101.74,16.,46.));
#420 = VECTOR('',#421,1.);
#421 = DIRECTION('',(-1.,2.22044604925E-16,0.));
#422 = ORIENTED_EDGE('',*,*,#94,.F.);
#423 = PLANE('',#424);
#424 = AXIS2_PLACEMENT_3D('',#425,#426,#427);
#425 = CARTESIAN_POINT('',(101.74,-16.,46.));
#426 = DIRECTION('',(0.,0.,1.));
#427 = DIRECTION('',(2.22044604925E-16,1.,0.));
#428 = ADVANCED_FACE('',(#429),#440,.T.);
#429 = FACE_BOUND('',#430,.T.);
#430 = EDGE_LOOP('',(#431,#432,#433,#434));
#431 = ORIENTED_EDGE('',*,*,#70,.F.);
#432 = ORIENTED_EDGE('',*,*,#285,.F.);
#433 = ORIENTED_EDGE('',*,*,#196,.T.);
#434 = ORIENTED_EDGE('',*,*,#435,.T.);
#435 = EDGE_CURVE('',#197,#71,#436,.T.);
#436 = LINE('',#437,#438);
#437 = CARTESIAN_POINT('',(84.74,16.,43.));
#438 = VECTOR('',#439,1.);
#439 = DIRECTION('',(0.,0.,1.));
#440 = PLANE('',#441);
#441 = AXIS2_PLACEMENT_3D('',#442,#443,#444);
#442 = CARTESIAN_POINT('',(101.74,16.,43.));
#443 = DIRECTION('',(2.22044604925E-16,1.,0.));
#444 = DIRECTION('',(0.,0.,1.));
#445 = ADVANCED_FACE('',(#446),#486,.F.);
#446 = FACE_BOUND('',#447,.F.);
#447 = EDGE_LOOP('',(#448,#456,#462,#463,#471,#480));
#448 = ORIENTED_EDGE('',*,*,#449,.F.);
#449 = EDGE_CURVE('',#450,#245,#452,.T.);
#450 = VERTEX_POINT('',#451);
#451 = CARTESIAN_POINT('',(78.74,-20.,43.));
#452 = LINE('',#453,#454);
#453 = CARTESIAN_POINT('',(78.74,-20.,43.));
#454 = VECTOR('',#455,1.);
#455 = DIRECTION('',(2.22044604925E-16,1.,0.));
#456 = ORIENTED_EDGE('',*,*,#457,.F.);
#457 = EDGE_CURVE('',#157,#450,#458,.T.);
#458 = LINE('',#459,#460);
#459 = CARTESIAN_POINT('',(84.74,-20.,43.));
#460 = VECTOR('',#461,1.);
#461 = DIRECTION('',(-1.,2.22044604925E-16,0.));
#462 = ORIENTED_EDGE('',*,*,#156,.T.);
#463 = ORIENTED_EDGE('',*,*,#464,.T.);
#464 = EDGE_CURVE('',#40,#465,#467,.T.);
#465 = VERTEX_POINT('',#466);
#466 = CARTESIAN_POINT('',(82.198257569495,-16.,43.));
#467 = LINE('',#468,#469);
#468 = CARTESIAN_POINT('',(101.74,-16.,43.));
#469 = VECTOR('',#470,1.);
#470 = DIRECTION('',(-1.,2.22044604925E-16,0.));
#471 = ORIENTED_EDGE('',*,*,#472,.F.);
#472 = EDGE_CURVE('',#473,#465,#475,.T.);
#473 = VERTEX_POINT('',#474);
#474 = CARTESIAN_POINT('',(81.281742430505,-16.,43.));
#475 = CIRCLE('',#476,1.1);
#476 = AXIS2_PLACEMENT_3D('',#477,#478,#479);
#477 = CARTESIAN_POINT('',(81.74,-17.,43.));
#478 = DIRECTION('',(0.,-0.,1.));
#479 = DIRECTION('',(2.22044604925E-16,1.,0.));
#480 = ORIENTED_EDGE('',*,*,#481,.T.);
#481 = EDGE_CURVE('',#473,#245,#482,.T.);
#482 = LINE('',#483,#484);
#483 = CARTESIAN_POINT('',(101.74,-16.,43.));
#484 = VECTOR('',#485,1.);
#485 = DIRECTION('',(-1.,2.22044604925E-16,0.));
#486 = PLANE('',#487);
#487 = AXIS2_PLACEMENT_3D('',#488,#489,#490);
#488 = CARTESIAN_POINT('',(84.74,-20.,43.));
#489 = DIRECTION('',(0.,0.,1.));
#490 = DIRECTION('',(2.22044604925E-16,1.,0.));
#491 = ADVANCED_FACE('',(#492),#518,.T.);
#492 = FACE_BOUND('',#493,.T.);
#493 = EDGE_LOOP('',(#494,#502,#508,#509,#510,#517));
#494 = ORIENTED_EDGE('',*,*,#495,.F.);
#495 = EDGE_CURVE('',#496,#119,#498,.T.);
#496 = VERTEX_POINT('',#497);
#497 = CARTESIAN_POINT('',(78.74,-20.,46.));
#498 = LINE('',#499,#500);
#499 = CARTESIAN_POINT('',(78.74,-20.,46.));
#500 = VECTOR('',#501,1.);
#501 = DIRECTION('',(2.22044604925E-16,1.,0.));
#502 = ORIENTED_EDGE('',*,*,#503,.F.);
#503 = EDGE_CURVE('',#165,#496,#504,.T.);
#504 = LINE('',#505,#506);
#505 = CARTESIAN_POINT('',(84.74,-20.,46.));
#506 = VECTOR('',#507,1.);
#507 = DIRECTION('',(-1.,2.22044604925E-16,0.));
#508 = ORIENTED_EDGE('',*,*,#172,.T.);
#509 = ORIENTED_EDGE('',*,*,#299,.T.);
#510 = ORIENTED_EDGE('',*,*,#511,.F.);
#511 = EDGE_CURVE('',#311,#300,#512,.T.);
#512 = CIRCLE('',#513,1.1);
#513 = AXIS2_PLACEMENT_3D('',#514,#515,#516);
#514 = CARTESIAN_POINT('',(81.74,-17.,46.));
#515 = DIRECTION('',(0.,-0.,1.));
#516 = DIRECTION('',(2.22044604925E-16,1.,0.));
#517 = ORIENTED_EDGE('',*,*,#310,.T.);
#518 = PLANE('',#519);
#519 = AXIS2_PLACEMENT_3D('',#520,#521,#522);
#520 = CARTESIAN_POINT('',(84.74,-20.,46.));
#521 = DIRECTION('',(0.,0.,1.));
#522 = DIRECTION('',(2.22044604925E-16,1.,0.));
#523 = ADVANCED_FACE('',(#524),#535,.F.);
#524 = FACE_BOUND('',#525,.F.);
#525 = EDGE_LOOP('',(#526,#527,#528,#534));
#526 = ORIENTED_EDGE('',*,*,#164,.F.);
#527 = ORIENTED_EDGE('',*,*,#457,.T.);
#528 = ORIENTED_EDGE('',*,*,#529,.T.);
#529 = EDGE_CURVE('',#450,#496,#530,.T.);
#530 = LINE('',#531,#532);
#531 = CARTESIAN_POINT('',(78.74,-20.,43.));
#532 = VECTOR('',#533,1.);
#533 = DIRECTION('',(0.,0.,1.));
#534 = ORIENTED_EDGE('',*,*,#503,.F.);
#535 = PLANE('',#536);
#536 = AXIS2_PLACEMENT_3D('',#537,#538,#539);
#537 = CARTESIAN_POINT('',(84.74,-20.,43.));
#538 = DIRECTION('',(2.22044604925E-16,1.,0.));
#539 = DIRECTION('',(0.,0.,1.));
#540 = ADVANCED_FACE('',(#541),#564,.F.);
#541 = FACE_BOUND('',#542,.F.);
#542 = EDGE_LOOP('',(#543,#544,#545,#546,#547,#548,#557));
#543 = ORIENTED_EDGE('',*,*,#464,.F.);
#544 = ORIENTED_EDGE('',*,*,#268,.T.);
#545 = ORIENTED_EDGE('',*,*,#260,.T.);
#546 = ORIENTED_EDGE('',*,*,#252,.F.);
#547 = ORIENTED_EDGE('',*,*,#481,.F.);
#548 = ORIENTED_EDGE('',*,*,#549,.F.);
#549 = EDGE_CURVE('',#550,#473,#552,.T.);
#550 = VERTEX_POINT('',#551);
#551 = CARTESIAN_POINT('',(81.74,-15.9,43.));
#552 = CIRCLE('',#553,1.1);
#553 = AXIS2_PLACEMENT_3D('',#554,#555,#556);
#554 = CARTESIAN_POINT('',(81.74,-17.,43.));
#555 = DIRECTION('',(0.,-0.,1.));
#556 = DIRECTION('',(2.22044604925E-16,1.,0.));
#557 = ORIENTED_EDGE('',*,*,#558,.F.);
#558 = EDGE_CURVE('',#465,#550,#559,.T.);
#559 = CIRCLE('',#560,1.1);
#560 = AXIS2_PLACEMENT_3D('',#561,#562,#563);
#561 = CARTESIAN_POINT('',(81.74,-17.,43.));
#562 = DIRECTION('',(0.,-0.,1.));
#563 = DIRECTION('',(2.22044604925E-16,1.,0.));
#564 = PLANE('',#565);
#565 = AXIS2_PLACEMENT_3D('',#566,#567,#568);
#566 = CARTESIAN_POINT('',(101.74,-16.,43.));
#567 = DIRECTION('',(0.,0.,1.));
#568 = DIRECTION('',(2.22044604925E-16,1.,0.));
#569 = ADVANCED_FACE('',(#570),#598,.F.);
#570 = FACE_BOUND('',#571,.F.);
#571 = EDGE_LOOP('',(#572,#573,#574,#582,#591,#597));
#572 = ORIENTED_EDGE('',*,*,#212,.F.);
#573 = ORIENTED_EDGE('',*,*,#204,.T.);
#574 = ORIENTED_EDGE('',*,*,#575,.T.);
#575 = EDGE_CURVE('',#197,#576,#578,.T.);
#576 = VERTEX_POINT('',#577);
#577 = CARTESIAN_POINT('',(82.198257569495,16.,43.));
#578 = LINE('',#579,#580);
#579 = CARTESIAN_POINT('',(101.74,16.,43.));
#580 = VECTOR('',#581,1.);
#581 = DIRECTION('',(-1.,2.22044604925E-16,0.));
#582 = ORIENTED_EDGE('',*,*,#583,.F.);
#583 = EDGE_CURVE('',#584,#576,#586,.T.);
#584 = VERTEX_POINT('',#585);
#585 = CARTESIAN_POINT('',(81.281742430505,16.,43.));
#586 = CIRCLE('',#587,1.1);
#587 = AXIS2_PLACEMENT_3D('',#588,#589,#590);
#588 = CARTESIAN_POINT('',(81.74,17.,43.));
#589 = DIRECTION('',(0.,-0.,1.));
#590 = DIRECTION('',(2.22044604925E-16,1.,0.));
#591 = ORIENTED_EDGE('',*,*,#592,.T.);
#592 = EDGE_CURVE('',#584,#221,#593,.T.);
#593 = LINE('',#594,#595);
#594 = CARTESIAN_POINT('',(101.74,16.,43.));
#595 = VECTOR('',#596,1.);
#596 = DIRECTION('',(-1.,2.22044604925E-16,0.));
#597 = ORIENTED_EDGE('',*,*,#220,.F.);
#598 = PLANE('',#599);
#599 = AXIS2_PLACEMENT_3D('',#600,#601,#602);
#600 = CARTESIAN_POINT('',(101.74,-16.,43.));
#601 = DIRECTION('',(0.,0.,1.));
#602 = DIRECTION('',(2.22044604925E-16,1.,0.));
#603 = ADVANCED_FACE('',(#604),#619,.F.);
#604 = FACE_BOUND('',#605,.F.);
#605 = EDGE_LOOP('',(#606,#607,#613,#614,#615,#616,#617,#618));
#606 = ORIENTED_EDGE('',*,*,#318,.F.);
#607 = ORIENTED_EDGE('',*,*,#608,.F.);
#608 = EDGE_CURVE('',#550,#319,#609,.T.);
#609 = LINE('',#610,#611);
#610 = CARTESIAN_POINT('',(81.74,-15.9,42.5));
#611 = VECTOR('',#612,1.);
#612 = DIRECTION('',(0.,0.,1.));
#613 = ORIENTED_EDGE('',*,*,#549,.T.);
#614 = ORIENTED_EDGE('',*,*,#472,.T.);
#615 = ORIENTED_EDGE('',*,*,#558,.T.);
#616 = ORIENTED_EDGE('',*,*,#608,.T.);
#617 = ORIENTED_EDGE('',*,*,#327,.F.);
#618 = ORIENTED_EDGE('',*,*,#511,.F.);
#619 = CYLINDRICAL_SURFACE('',#620,1.1);
#620 = AXIS2_PLACEMENT_3D('',#621,#622,#623);
#621 = CARTESIAN_POINT('',(81.74,-17.,42.5));
#622 = DIRECTION('',(0.,0.,1.));
#623 = DIRECTION('',(2.22044604925E-16,1.,0.));
#624 = ADVANCED_FACE('',(#625),#631,.T.);
#625 = FACE_BOUND('',#626,.T.);
#626 = EDGE_LOOP('',(#627,#628,#629,#630));
#627 = ORIENTED_EDGE('',*,*,#449,.F.);
#628 = ORIENTED_EDGE('',*,*,#529,.T.);
#629 = ORIENTED_EDGE('',*,*,#495,.T.);
#630 = ORIENTED_EDGE('',*,*,#343,.F.);
#631 = PLANE('',#632);
#632 = AXIS2_PLACEMENT_3D('',#633,#634,#635);
#633 = CARTESIAN_POINT('',(78.74,-20.,43.));
#634 = DIRECTION('',(-1.,2.22044604925E-16,0.));
#635 = DIRECTION('',(0.,0.,1.));
#636 = ADVANCED_FACE('',(#637),#662,.T.);
#637 = FACE_BOUND('',#638,.T.);
#638 = EDGE_LOOP('',(#639,#647,#648,#656));
#639 = ORIENTED_EDGE('',*,*,#640,.F.);
#640 = EDGE_CURVE('',#221,#641,#643,.T.);
#641 = VERTEX_POINT('',#642);
#642 = CARTESIAN_POINT('',(78.74,20.,43.));
#643 = LINE('',#644,#645);
#644 = CARTESIAN_POINT('',(78.74,14.,43.));
#645 = VECTOR('',#646,1.);
#646 = DIRECTION('',(2.22044604925E-16,1.,0.));
#647 = ORIENTED_EDGE('',*,*,#382,.T.);
#648 = ORIENTED_EDGE('',*,*,#649,.T.);
#649 = EDGE_CURVE('',#95,#650,#652,.T.);
#650 = VERTEX_POINT('',#651);
#651 = CARTESIAN_POINT('',(78.74,20.,46.));
#652 = LINE('',#653,#654);
#653 = CARTESIAN_POINT('',(78.74,14.,46.));
#654 = VECTOR('',#655,1.);
#655 = DIRECTION('',(2.22044604925E-16,1.,0.));
#656 = ORIENTED_EDGE('',*,*,#657,.F.);
#657 = EDGE_CURVE('',#641,#650,#658,.T.);
#658 = LINE('',#659,#660);
#659 = CARTESIAN_POINT('',(78.74,20.,43.));
#660 = VECTOR('',#661,1.);
#661 = DIRECTION('',(0.,0.,1.));
#662 = PLANE('',#663);
#663 = AXIS2_PLACEMENT_3D('',#664,#665,#666);
#664 = CARTESIAN_POINT('',(78.74,14.,43.));
#665 = DIRECTION('',(-1.,2.22044604925E-16,0.));
#666 = DIRECTION('',(0.,0.,1.));
#667 = ADVANCED_FACE('',(#668),#703,.T.);
#668 = FACE_BOUND('',#669,.T.);
#669 = EDGE_LOOP('',(#670,#671,#679,#685,#686,#687,#696));
#670 = ORIENTED_EDGE('',*,*,#400,.F.);
#671 = ORIENTED_EDGE('',*,*,#672,.T.);
#672 = EDGE_CURVE('',#71,#673,#675,.T.);
#673 = VERTEX_POINT('',#674);
#674 = CARTESIAN_POINT('',(84.74,20.,46.));
#675 = LINE('',#676,#677);
#676 = CARTESIAN_POINT('',(84.74,14.,46.));
#677 = VECTOR('',#678,1.);
#678 = DIRECTION('',(2.22044604925E-16,1.,0.));
#679 = ORIENTED_EDGE('',*,*,#680,.T.);
#680 = EDGE_CURVE('',#673,#650,#681,.T.);
#681 = LINE('',#682,#683);
#682 = CARTESIAN_POINT('',(84.74,20.,46.));
#683 = VECTOR('',#684,1.);
#684 = DIRECTION('',(-1.,2.22044604925E-16,0.));
#685 = ORIENTED_EDGE('',*,*,#649,.F.);
#686 = ORIENTED_EDGE('',*,*,#417,.F.);
#687 = ORIENTED_EDGE('',*,*,#688,.F.);
#688 = EDGE_CURVE('',#689,#409,#691,.T.);
#689 = VERTEX_POINT('',#690);
#690 = CARTESIAN_POINT('',(81.74,18.1,46.));
#691 = CIRCLE('',#692,1.1);
#692 = AXIS2_PLACEMENT_3D('',#693,#694,#695);
#693 = CARTESIAN_POINT('',(81.74,17.,46.));
#694 = DIRECTION('',(0.,-0.,1.));
#695 = DIRECTION('',(2.22044604925E-16,1.,0.));
#696 = ORIENTED_EDGE('',*,*,#697,.F.);
#697 = EDGE_CURVE('',#401,#689,#698,.T.);
#698 = CIRCLE('',#699,1.1);
#699 = AXIS2_PLACEMENT_3D('',#700,#701,#702);
#700 = CARTESIAN_POINT('',(81.74,17.,46.));
#701 = DIRECTION('',(0.,-0.,1.));
#702 = DIRECTION('',(2.22044604925E-16,1.,0.));
#703 = PLANE('',#704);
#704 = AXIS2_PLACEMENT_3D('',#705,#706,#707);
#705 = CARTESIAN_POINT('',(84.74,14.,46.));
#706 = DIRECTION('',(0.,0.,1.));
#707 = DIRECTION('',(2.22044604925E-16,1.,0.));
#708 = ADVANCED_FACE('',(#709),#738,.F.);
#709 = FACE_BOUND('',#710,.F.);
#710 = EDGE_LOOP('',(#711,#712,#720,#727,#728,#735,#736,#737));
#711 = ORIENTED_EDGE('',*,*,#688,.F.);
#712 = ORIENTED_EDGE('',*,*,#713,.F.);
#713 = EDGE_CURVE('',#714,#689,#716,.T.);
#714 = VERTEX_POINT('',#715);
#715 = CARTESIAN_POINT('',(81.74,18.1,43.));
#716 = LINE('',#717,#718);
#717 = CARTESIAN_POINT('',(81.74,18.1,42.5));
#718 = VECTOR('',#719,1.);
#719 = DIRECTION('',(0.,0.,1.));
#720 = ORIENTED_EDGE('',*,*,#721,.T.);
#721 = EDGE_CURVE('',#714,#584,#722,.T.);
#722 = CIRCLE('',#723,1.1);
#723 = AXIS2_PLACEMENT_3D('',#724,#725,#726);
#724 = CARTESIAN_POINT('',(81.74,17.,43.));
#725 = DIRECTION('',(0.,-0.,1.));
#726 = DIRECTION('',(2.22044604925E-16,1.,0.));
#727 = ORIENTED_EDGE('',*,*,#583,.T.);
#728 = ORIENTED_EDGE('',*,*,#729,.T.);
#729 = EDGE_CURVE('',#576,#714,#730,.T.);
#730 = CIRCLE('',#731,1.1);
#731 = AXIS2_PLACEMENT_3D('',#732,#733,#734);
#732 = CARTESIAN_POINT('',(81.74,17.,43.));
#733 = DIRECTION('',(0.,-0.,1.));
#734 = DIRECTION('',(2.22044604925E-16,1.,0.));
#735 = ORIENTED_EDGE('',*,*,#713,.T.);
#736 = ORIENTED_EDGE('',*,*,#697,.F.);
#737 = ORIENTED_EDGE('',*,*,#408,.F.);
#738 = CYLINDRICAL_SURFACE('',#739,1.1);
#739 = AXIS2_PLACEMENT_3D('',#740,#741,#742);
#740 = CARTESIAN_POINT('',(81.74,17.,42.5));
#741 = DIRECTION('',(0.,0.,1.));
#742 = DIRECTION('',(2.22044604925E-16,1.,0.));
#743 = ADVANCED_FACE('',(#744),#762,.F.);
#744 = FACE_BOUND('',#745,.F.);
#745 = EDGE_LOOP('',(#746,#754,#755,#756));
#746 = ORIENTED_EDGE('',*,*,#747,.F.);
#747 = EDGE_CURVE('',#197,#748,#750,.T.);
#748 = VERTEX_POINT('',#749);
#749 = CARTESIAN_POINT('',(84.74,20.,43.));
#750 = LINE('',#751,#752);
#751 = CARTESIAN_POINT('',(84.74,14.,43.));
#752 = VECTOR('',#753,1.);
#753 = DIRECTION('',(2.22044604925E-16,1.,0.));
#754 = ORIENTED_EDGE('',*,*,#435,.T.);
#755 = ORIENTED_EDGE('',*,*,#672,.T.);
#756 = ORIENTED_EDGE('',*,*,#757,.F.);
#757 = EDGE_CURVE('',#748,#673,#758,.T.);
#758 = LINE('',#759,#760);
#759 = CARTESIAN_POINT('',(84.74,20.,43.));
#760 = VECTOR('',#761,1.);
#761 = DIRECTION('',(0.,0.,1.));
#762 = PLANE('',#763);
#763 = AXIS2_PLACEMENT_3D('',#764,#765,#766);
#764 = CARTESIAN_POINT('',(84.74,14.,43.));
#765 = DIRECTION('',(-1.,2.22044604925E-16,0.));
#766 = DIRECTION('',(0.,0.,1.));
#767 = ADVANCED_FACE('',(#768),#782,.F.);
#768 = FACE_BOUND('',#769,.F.);
#769 = EDGE_LOOP('',(#770,#771,#772,#778,#779,#780,#781));
#770 = ORIENTED_EDGE('',*,*,#575,.F.);
#771 = ORIENTED_EDGE('',*,*,#747,.T.);
#772 = ORIENTED_EDGE('',*,*,#773,.T.);
#773 = EDGE_CURVE('',#748,#641,#774,.T.);
#774 = LINE('',#775,#776);
#775 = CARTESIAN_POINT('',(84.74,20.,43.));
#776 = VECTOR('',#777,1.);
#777 = DIRECTION('',(-1.,2.22044604925E-16,0.));
#778 = ORIENTED_EDGE('',*,*,#640,.F.);
#779 = ORIENTED_EDGE('',*,*,#592,.F.);
#780 = ORIENTED_EDGE('',*,*,#721,.F.);
#781 = ORIENTED_EDGE('',*,*,#729,.F.);
#782 = PLANE('',#783);
#783 = AXIS2_PLACEMENT_3D('',#784,#785,#786);
#784 = CARTESIAN_POINT('',(84.74,14.,43.));
#785 = DIRECTION('',(0.,0.,1.));
#786 = DIRECTION('',(2.22044604925E-16,1.,0.));
#787 = ADVANCED_FACE('',(#788),#794,.T.);
#788 = FACE_BOUND('',#789,.T.);
#789 = EDGE_LOOP('',(#790,#791,#792,#793));
#790 = ORIENTED_EDGE('',*,*,#757,.F.);
#791 = ORIENTED_EDGE('',*,*,#773,.T.);
#792 = ORIENTED_EDGE('',*,*,#657,.T.);
#793 = ORIENTED_EDGE('',*,*,#680,.F.);
#794 = PLANE('',#795);
#795 = AXIS2_PLACEMENT_3D('',#796,#797,#798);
#796 = CARTESIAN_POINT('',(84.74,20.,43.));
#797 = DIRECTION('',(2.22044604925E-16,1.,0.));
#798 = DIRECTION('',(0.,0.,1.));
#799 = ( GEOMETRIC_REPRESENTATION_CONTEXT(3) 
GLOBAL_UNCERTAINTY_ASSIGNED_CONTEXT((#803)) GLOBAL_UNIT_ASSIGNED_CONTEXT
((#800,#801,#802)) REPRESENTATION_CONTEXT('Context #1',
  '3D Context with UNIT and UNCERTAINTY') );
#800 = ( LENGTH_UNIT() NAMED_UNIT(*) SI_UNIT(.MILLI.,.METRE.) );
#801 = ( NAMED_UNIT(*) PLANE_ANGLE_UNIT() SI_UNIT($,.RADIAN.) );
#802 = ( NAMED_UNIT(*) SI_UNIT($,.STERADIAN.) SOLID_ANGLE_UNIT() );
#803 = UNCERTAINTY_MEASURE_WITH_UNIT(LENGTH_MEASURE(1.E-07),#800,
  'distance_accuracy_value','confusion accuracy');
#804 = PRODUCT_RELATED_PRODUCT_CATEGORY('part',$,(#7));
ENDSEC;
END-ISO-10303-21;
