ISO-10303-21;
HEADER;
FILE_DESCRIPTION(('FreeCAD Model'),'2;1');
FILE_NAME('Open CASCADE Shape Model','2026-10-04T09:53:45',('FreeCAD'),(
    'FreeCAD'),'Open CASCADE STEP processor 7.8','FreeCAD','Unknown');
FILE_SCHEMA(('AUTOMOTIVE_DESIGN { 1 0 10303 214 1 1 1 1 }'));
ENDSEC;
DATA;
#1 = APPLICATION_PROTOCOL_DEFINITION('international standard',
  'automotive_design',2000,#2);
#2 = APPLICATION_CONTEXT(
  'core data for automotive mechanical design processes');
#3 = SHAPE_DEFINITION_REPRESENTATION(#4,#10);
#4 = PRODUCT_DEFINITION_SHAPE('','',#5);
#5 = PRODUCT_DEFINITION('design','',#6,#9);
#6 = PRODUCT_DEFINITION_FORMATION('','',#7);
#7 = PRODUCT('Open CASCADE STEP translator 7.8 5',
  'Open CASCADE STEP translator 7.8 5','',(#8));
#8 = PRODUCT_CONTEXT('',#2,'mechanical');
#9 = PRODUCT_DEFINITION_CONTEXT('part definition',#2,'design');
#10 = ADVANCED_BREP_SHAPE_REPRESENTATION('',(#11,#15),#1433);
#11 = AXIS2_PLACEMENT_3D('',#12,#13,#14);
#12 = CARTESIAN_POINT('',(0.,0.,0.));
#13 = DIRECTION('',(0.,0.,1.));
#14 = DIRECTION('',(1.,0.,-0.));
#15 = MANIFOLD_SOLID_BREP('',#16);
#16 = CLOSED_SHELL('',(#17,#57,#216,#247,#406,#423,#466,#488,#531,#553,
    #570,#587,#621,#643,#677,#694,#740,#772,#789,#818,#861,#895,#929,
    #950,#981,#993,#1025,#1052,#1076,#1107,#1148,#1183,#1207,#1238,#1279
    ,#1314,#1338,#1357,#1377,#1397,#1409,#1421));
#17 = ADVANCED_FACE('',(#18),#52,.F.);
#18 = FACE_BOUND('',#19,.F.);
#19 = EDGE_LOOP('',(#20,#30,#38,#46));
#20 = ORIENTED_EDGE('',*,*,#21,.F.);
#21 = EDGE_CURVE('',#22,#24,#26,.T.);
#22 = VERTEX_POINT('',#23);
#23 = CARTESIAN_POINT('',(-136.74,4.,55.1));
#24 = VERTEX_POINT('',#25);
#25 = CARTESIAN_POINT('',(-132.74,4.,55.1));
#26 = LINE('',#27,#28);
#27 = CARTESIAN_POINT('',(-136.74,4.,55.1));
#28 = VECTOR('',#29,1.);
#29 = DIRECTION('',(1.,2.22044604925E-16,0.));
#30 = ORIENTED_EDGE('',*,*,#31,.F.);
#31 = EDGE_CURVE('',#32,#22,#34,.T.);
#32 = VERTEX_POINT('',#33);
#33 = CARTESIAN_POINT('',(-136.74,4.,52.1));
#34 = LINE('',#35,#36);
#35 = CARTESIAN_POINT('',(-136.74,4.,52.1));
#36 = VECTOR('',#37,1.);
#37 = DIRECTION('',(0.,0.,1.));
#38 = ORIENTED_EDGE('',*,*,#39,.T.);
#39 = EDGE_CURVE('',#32,#40,#42,.T.);
#40 = VERTEX_POINT('',#41);
#41 = CARTESIAN_POINT('',(-132.74,4.,52.1));
#42 = LINE('',#43,#44);
#43 = CARTESIAN_POINT('',(-136.74,4.,52.1));
#44 = VECTOR('',#45,1.);
#45 = DIRECTION('',(1.,2.22044604925E-16,0.));
#46 = ORIENTED_EDGE('',*,*,#47,.T.);
#47 = EDGE_CURVE('',#40,#24,#48,.T.);
#48 = LINE('',#49,#50);
#49 = CARTESIAN_POINT('',(-132.74,4.,52.1));
#50 = VECTOR('',#51,1.);
#51 = DIRECTION('',(0.,0.,1.));
#52 = PLANE('',#53);
#53 = AXIS2_PLACEMENT_3D('',#54,#55,#56);
#54 = CARTESIAN_POINT('',(-136.74,4.,52.1));
#55 = DIRECTION('',(2.22044604925E-16,-1.,0.));
#56 = DIRECTION('',(0.,0.,1.));
#57 = ADVANCED_FACE('',(#58),#211,.T.);
#58 = FACE_BOUND('',#59,.T.);
#59 = EDGE_LOOP('',(#60,#61,#69,#77,#85,#93,#101,#109,#117,#125,#133,
    #141,#149,#157,#165,#173,#181,#189,#197,#205));
#60 = ORIENTED_EDGE('',*,*,#21,.F.);
#61 = ORIENTED_EDGE('',*,*,#62,.T.);
#62 = EDGE_CURVE('',#22,#63,#65,.T.);
#63 = VERTEX_POINT('',#64);
#64 = CARTESIAN_POINT('',(-136.74,-48.,55.1));
#65 = LINE('',#66,#67);
#66 = CARTESIAN_POINT('',(-136.74,4.,55.1));
#67 = VECTOR('',#68,1.);
#68 = DIRECTION('',(2.22044604925E-16,-1.,0.));
#69 = ORIENTED_EDGE('',*,*,#70,.T.);
#70 = EDGE_CURVE('',#63,#71,#73,.T.);
#71 = VERTEX_POINT('',#72);
#72 = CARTESIAN_POINT('',(-132.74,-48.,55.1));
#73 = LINE('',#74,#75);
#74 = CARTESIAN_POINT('',(-136.74,-48.,55.1));
#75 = VECTOR('',#76,1.);
#76 = DIRECTION('',(1.,2.22044604925E-16,0.));
#77 = ORIENTED_EDGE('',*,*,#78,.F.);
#78 = EDGE_CURVE('',#79,#71,#81,.T.);
#79 = VERTEX_POINT('',#80);
#80 = CARTESIAN_POINT('',(-132.74,-46.,55.1));
#81 = LINE('',#82,#83);
#82 = CARTESIAN_POINT('',(-132.74,-46.,55.1));
#83 = VECTOR('',#84,1.);
#84 = DIRECTION('',(2.22044604925E-16,-1.,0.));
#85 = ORIENTED_EDGE('',*,*,#86,.T.);
#86 = EDGE_CURVE('',#79,#87,#89,.T.);
#87 = VERTEX_POINT('',#88);
#88 = CARTESIAN_POINT('',(-126.74,-46.,55.1));
#89 = LINE('',#90,#91);
#90 = CARTESIAN_POINT('',(-132.74,-46.,55.1));
#91 = VECTOR('',#92,1.);
#92 = DIRECTION('',(1.,2.22044604925E-16,0.));
#93 = ORIENTED_EDGE('',*,*,#94,.T.);
#94 = EDGE_CURVE('',#87,#95,#97,.T.);
#95 = VERTEX_POINT('',#96);
#96 = CARTESIAN_POINT('',(-126.74,-48.,55.1));
#97 = LINE('',#98,#99);
#98 = CARTESIAN_POINT('',(-126.74,-46.,55.1));
#99 = VECTOR('',#100,1.);
#100 = DIRECTION('',(2.22044604925E-16,-1.,0.));
#101 = ORIENTED_EDGE('',*,*,#102,.T.);
#102 = EDGE_CURVE('',#95,#103,#105,.T.);
#103 = VERTEX_POINT('',#104);
#104 = CARTESIAN_POINT('',(-71.74,-48.,55.1));
#105 = LINE('',#106,#107);
#106 = CARTESIAN_POINT('',(-136.74,-48.,55.1));
#107 = VECTOR('',#108,1.);
#108 = DIRECTION('',(1.,2.22044604925E-16,0.));
#109 = ORIENTED_EDGE('',*,*,#110,.F.);
#110 = EDGE_CURVE('',#111,#103,#113,.T.);
#111 = VERTEX_POINT('',#112);
#112 = CARTESIAN_POINT('',(-71.74,-46.,55.1));
#113 = LINE('',#114,#115);
#114 = CARTESIAN_POINT('',(-71.74,-46.,55.1));
#115 = VECTOR('',#116,1.);
#116 = DIRECTION('',(2.22044604925E-16,-1.,0.));
#117 = ORIENTED_EDGE('',*,*,#118,.T.);
#118 = EDGE_CURVE('',#111,#119,#121,.T.);
#119 = VERTEX_POINT('',#120);
#120 = CARTESIAN_POINT('',(-65.74,-46.,55.1));
#121 = LINE('',#122,#123);
#122 = CARTESIAN_POINT('',(-71.74,-46.,55.1));
#123 = VECTOR('',#124,1.);
#124 = DIRECTION('',(1.,2.22044604925E-16,0.));
#125 = ORIENTED_EDGE('',*,*,#126,.T.);
#126 = EDGE_CURVE('',#119,#127,#129,.T.);
#127 = VERTEX_POINT('',#128);
#128 = CARTESIAN_POINT('',(-65.74,-48.,55.1));
#129 = LINE('',#130,#131);
#130 = CARTESIAN_POINT('',(-65.74,-46.,55.1));
#131 = VECTOR('',#132,1.);
#132 = DIRECTION('',(2.22044604925E-16,-1.,0.));
#133 = ORIENTED_EDGE('',*,*,#134,.T.);
#134 = EDGE_CURVE('',#127,#135,#137,.T.);
#135 = VERTEX_POINT('',#136);
#136 = CARTESIAN_POINT('',(-61.74,-48.,55.1));
#137 = LINE('',#138,#139);
#138 = CARTESIAN_POINT('',(-136.74,-48.,55.1));
#139 = VECTOR('',#140,1.);
#140 = DIRECTION('',(1.,2.22044604925E-16,0.));
#141 = ORIENTED_EDGE('',*,*,#142,.F.);
#142 = EDGE_CURVE('',#143,#135,#145,.T.);
#143 = VERTEX_POINT('',#144);
#144 = CARTESIAN_POINT('',(-61.74,4.,55.1));
#145 = LINE('',#146,#147);
#146 = CARTESIAN_POINT('',(-61.74,4.,55.1));
#147 = VECTOR('',#148,1.);
#148 = DIRECTION('',(2.22044604925E-16,-1.,0.));
#149 = ORIENTED_EDGE('',*,*,#150,.F.);
#150 = EDGE_CURVE('',#151,#143,#153,.T.);
#151 = VERTEX_POINT('',#152);
#152 = CARTESIAN_POINT('',(-65.74,4.,55.1));
#153 = LINE('',#154,#155);
#154 = CARTESIAN_POINT('',(-136.74,4.,55.1));
#155 = VECTOR('',#156,1.);
#156 = DIRECTION('',(1.,2.22044604925E-16,0.));
#157 = ORIENTED_EDGE('',*,*,#158,.T.);
#158 = EDGE_CURVE('',#151,#159,#161,.T.);
#159 = VERTEX_POINT('',#160);
#160 = CARTESIAN_POINT('',(-65.74,2.,55.1));
#161 = LINE('',#162,#163);
#162 = CARTESIAN_POINT('',(-65.74,8.,55.1));
#163 = VECTOR('',#164,1.);
#164 = DIRECTION('',(2.22044604925E-16,-1.,0.));
#165 = ORIENTED_EDGE('',*,*,#166,.F.);
#166 = EDGE_CURVE('',#167,#159,#169,.T.);
#167 = VERTEX_POINT('',#168);
#168 = CARTESIAN_POINT('',(-71.74,2.,55.1));
#169 = LINE('',#170,#171);
#170 = CARTESIAN_POINT('',(-71.74,2.,55.1));
#171 = VECTOR('',#172,1.);
#172 = DIRECTION('',(1.,2.22044604925E-16,0.));
#173 = ORIENTED_EDGE('',*,*,#174,.F.);
#174 = EDGE_CURVE('',#175,#167,#177,.T.);
#175 = VERTEX_POINT('',#176);
#176 = CARTESIAN_POINT('',(-71.74,4.,55.1));
#177 = LINE('',#178,#179);
#178 = CARTESIAN_POINT('',(-71.74,8.,55.1));
#179 = VECTOR('',#180,1.);
#180 = DIRECTION('',(2.22044604925E-16,-1.,0.));
#181 = ORIENTED_EDGE('',*,*,#182,.F.);
#182 = EDGE_CURVE('',#183,#175,#185,.T.);
#183 = VERTEX_POINT('',#184);
#184 = CARTESIAN_POINT('',(-126.74,4.,55.1));
#185 = LINE('',#186,#187);
#186 = CARTESIAN_POINT('',(-136.74,4.,55.1));
#187 = VECTOR('',#188,1.);
#188 = DIRECTION('',(1.,2.22044604925E-16,0.));
#189 = ORIENTED_EDGE('',*,*,#190,.T.);
#190 = EDGE_CURVE('',#183,#191,#193,.T.);
#191 = VERTEX_POINT('',#192);
#192 = CARTESIAN_POINT('',(-126.74,2.,55.1));
#193 = LINE('',#194,#195);
#194 = CARTESIAN_POINT('',(-126.74,8.,55.1));
#195 = VECTOR('',#196,1.);
#196 = DIRECTION('',(2.22044604925E-16,-1.,0.));
#197 = ORIENTED_EDGE('',*,*,#198,.F.);
#198 = EDGE_CURVE('',#199,#191,#201,.T.);
#199 = VERTEX_POINT('',#200);
#200 = CARTESIAN_POINT('',(-132.74,2.,55.1));
#201 = LINE('',#202,#203);
#202 = CARTESIAN_POINT('',(-132.74,2.,55.1));
#203 = VECTOR('',#204,1.);
#204 = DIRECTION('',(1.,2.22044604925E-16,0.));
#205 = ORIENTED_EDGE('',*,*,#206,.F.);
#206 = EDGE_CURVE('',#24,#199,#207,.T.);
#207 = LINE('',#208,#209);
#208 = CARTESIAN_POINT('',(-132.74,8.,55.1));
#209 = VECTOR('',#210,1.);
#210 = DIRECTION('',(2.22044604925E-16,-1.,0.));
#211 = PLANE('',#212);
#212 = AXIS2_PLACEMENT_3D('',#213,#214,#215);
#213 = CARTESIAN_POINT('',(-136.74,4.,55.1));
#214 = DIRECTION('',(0.,0.,1.));
#215 = DIRECTION('',(2.22044604925E-16,-1.,0.));
#216 = ADVANCED_FACE('',(#217),#242,.F.);
#217 = FACE_BOUND('',#218,.F.);
#218 = EDGE_LOOP('',(#219,#227,#235,#241));
#219 = ORIENTED_EDGE('',*,*,#220,.F.);
#220 = EDGE_CURVE('',#221,#40,#223,.T.);
#221 = VERTEX_POINT('',#222);
#222 = CARTESIAN_POINT('',(-132.74,8.,52.1));
#223 = LINE('',#224,#225);
#224 = CARTESIAN_POINT('',(-132.74,8.,52.1));
#225 = VECTOR('',#226,1.);
#226 = DIRECTION('',(2.22044604925E-16,-1.,0.));
#227 = ORIENTED_EDGE('',*,*,#228,.T.);
#228 = EDGE_CURVE('',#221,#229,#231,.T.);
#229 = VERTEX_POINT('',#230);
#230 = CARTESIAN_POINT('',(-132.74,8.,55.1));
#231 = LINE('',#232,#233);
#232 = CARTESIAN_POINT('',(-132.74,8.,52.1));
#233 = VECTOR('',#234,1.);
#234 = DIRECTION('',(0.,0.,1.));
#235 = ORIENTED_EDGE('',*,*,#236,.T.);
#236 = EDGE_CURVE('',#229,#24,#237,.T.);
#237 = LINE('',#238,#239);
#238 = CARTESIAN_POINT('',(-132.74,8.,55.1));
#239 = VECTOR('',#240,1.);
#240 = DIRECTION('',(2.22044604925E-16,-1.,0.));
#241 = ORIENTED_EDGE('',*,*,#47,.F.);
#242 = PLANE('',#243);
#243 = AXIS2_PLACEMENT_3D('',#244,#245,#246);
#244 = CARTESIAN_POINT('',(-132.74,8.,52.1));
#245 = DIRECTION('',(1.,2.22044604925E-16,0.));
#246 = DIRECTION('',(0.,0.,1.));
#247 = ADVANCED_FACE('',(#248),#401,.F.);
#248 = FACE_BOUND('',#249,.F.);
#249 = EDGE_LOOP('',(#250,#251,#259,#267,#275,#283,#291,#299,#307,#315,
    #323,#331,#339,#347,#355,#363,#371,#379,#387,#395));
#250 = ORIENTED_EDGE('',*,*,#39,.F.);
#251 = ORIENTED_EDGE('',*,*,#252,.T.);
#252 = EDGE_CURVE('',#32,#253,#255,.T.);
#253 = VERTEX_POINT('',#254);
#254 = CARTESIAN_POINT('',(-136.74,-48.,52.1));
#255 = LINE('',#256,#257);
#256 = CARTESIAN_POINT('',(-136.74,4.,52.1));
#257 = VECTOR('',#258,1.);
#258 = DIRECTION('',(2.22044604925E-16,-1.,0.));
#259 = ORIENTED_EDGE('',*,*,#260,.T.);
#260 = EDGE_CURVE('',#253,#261,#263,.T.);
#261 = VERTEX_POINT('',#262);
#262 = CARTESIAN_POINT('',(-132.74,-48.,52.1));
#263 = LINE('',#264,#265);
#264 = CARTESIAN_POINT('',(-136.74,-48.,52.1));
#265 = VECTOR('',#266,1.);
#266 = DIRECTION('',(1.,2.22044604925E-16,0.));
#267 = ORIENTED_EDGE('',*,*,#268,.F.);
#268 = EDGE_CURVE('',#269,#261,#271,.T.);
#269 = VERTEX_POINT('',#270);
#270 = CARTESIAN_POINT('',(-132.74,-46.,52.1));
#271 = LINE('',#272,#273);
#272 = CARTESIAN_POINT('',(-132.74,-46.,52.1));
#273 = VECTOR('',#274,1.);
#274 = DIRECTION('',(2.22044604925E-16,-1.,0.));
#275 = ORIENTED_EDGE('',*,*,#276,.T.);
#276 = EDGE_CURVE('',#269,#277,#279,.T.);
#277 = VERTEX_POINT('',#278);
#278 = CARTESIAN_POINT('',(-126.74,-46.,52.1));
#279 = LINE('',#280,#281);
#280 = CARTESIAN_POINT('',(-132.74,-46.,52.1));
#281 = VECTOR('',#282,1.);
#282 = DIRECTION('',(1.,2.22044604925E-16,0.));
#283 = ORIENTED_EDGE('',*,*,#284,.T.);
#284 = EDGE_CURVE('',#277,#285,#287,.T.);
#285 = VERTEX_POINT('',#286);
#286 = CARTESIAN_POINT('',(-126.74,-48.,52.1));
#287 = LINE('',#288,#289);
#288 = CARTESIAN_POINT('',(-126.74,-46.,52.1));
#289 = VECTOR('',#290,1.);
#290 = DIRECTION('',(2.22044604925E-16,-1.,0.));
#291 = ORIENTED_EDGE('',*,*,#292,.T.);
#292 = EDGE_CURVE('',#285,#293,#295,.T.);
#293 = VERTEX_POINT('',#294);
#294 = CARTESIAN_POINT('',(-71.74,-48.,52.1));
#295 = LINE('',#296,#297);
#296 = CARTESIAN_POINT('',(-136.74,-48.,52.1));
#297 = VECTOR('',#298,1.);
#298 = DIRECTION('',(1.,2.22044604925E-16,0.));
#299 = ORIENTED_EDGE('',*,*,#300,.F.);
#300 = EDGE_CURVE('',#301,#293,#303,.T.);
#301 = VERTEX_POINT('',#302);
#302 = CARTESIAN_POINT('',(-71.74,-46.,52.1));
#303 = LINE('',#304,#305);
#304 = CARTESIAN_POINT('',(-71.74,-46.,52.1));
#305 = VECTOR('',#306,1.);
#306 = DIRECTION('',(2.22044604925E-16,-1.,0.));
#307 = ORIENTED_EDGE('',*,*,#308,.T.);
#308 = EDGE_CURVE('',#301,#309,#311,.T.);
#309 = VERTEX_POINT('',#310);
#310 = CARTESIAN_POINT('',(-65.74,-46.,52.1));
#311 = LINE('',#312,#313);
#312 = CARTESIAN_POINT('',(-71.74,-46.,52.1));
#313 = VECTOR('',#314,1.);
#314 = DIRECTION('',(1.,2.22044604925E-16,0.));
#315 = ORIENTED_EDGE('',*,*,#316,.T.);
#316 = EDGE_CURVE('',#309,#317,#319,.T.);
#317 = VERTEX_POINT('',#318);
#318 = CARTESIAN_POINT('',(-65.74,-48.,52.1));
#319 = LINE('',#320,#321);
#320 = CARTESIAN_POINT('',(-65.74,-46.,52.1));
#321 = VECTOR('',#322,1.);
#322 = DIRECTION('',(2.22044604925E-16,-1.,0.));
#323 = ORIENTED_EDGE('',*,*,#324,.T.);
#324 = EDGE_CURVE('',#317,#325,#327,.T.);
#325 = VERTEX_POINT('',#326);
#326 = CARTESIAN_POINT('',(-61.74,-48.,52.1));
#327 = LINE('',#328,#329);
#328 = CARTESIAN_POINT('',(-136.74,-48.,52.1));
#329 = VECTOR('',#330,1.);
#330 = DIRECTION('',(1.,2.22044604925E-16,0.));
#331 = ORIENTED_EDGE('',*,*,#332,.F.);
#332 = EDGE_CURVE('',#333,#325,#335,.T.);
#333 = VERTEX_POINT('',#334);
#334 = CARTESIAN_POINT('',(-61.74,4.,52.1));
#335 = LINE('',#336,#337);
#336 = CARTESIAN_POINT('',(-61.74,4.,52.1));
#337 = VECTOR('',#338,1.);
#338 = DIRECTION('',(2.22044604925E-16,-1.,0.));
#339 = ORIENTED_EDGE('',*,*,#340,.F.);
#340 = EDGE_CURVE('',#341,#333,#343,.T.);
#341 = VERTEX_POINT('',#342);
#342 = CARTESIAN_POINT('',(-65.74,4.,52.1));
#343 = LINE('',#344,#345);
#344 = CARTESIAN_POINT('',(-136.74,4.,52.1));
#345 = VECTOR('',#346,1.);
#346 = DIRECTION('',(1.,2.22044604925E-16,0.));
#347 = ORIENTED_EDGE('',*,*,#348,.T.);
#348 = EDGE_CURVE('',#341,#349,#351,.T.);
#349 = VERTEX_POINT('',#350);
#350 = CARTESIAN_POINT('',(-65.74,2.,52.1));
#351 = LINE('',#352,#353);
#352 = CARTESIAN_POINT('',(-65.74,8.,52.1));
#353 = VECTOR('',#354,1.);
#354 = DIRECTION('',(2.22044604925E-16,-1.,0.));
#355 = ORIENTED_EDGE('',*,*,#356,.F.);
#356 = EDGE_CURVE('',#357,#349,#359,.T.);
#357 = VERTEX_POINT('',#358);
#358 = CARTESIAN_POINT('',(-71.74,2.,52.1));
#359 = LINE('',#360,#361);
#360 = CARTESIAN_POINT('',(-71.74,2.,52.1));
#361 = VECTOR('',#362,1.);
#362 = DIRECTION('',(1.,2.22044604925E-16,0.));
#363 = ORIENTED_EDGE('',*,*,#364,.F.);
#364 = EDGE_CURVE('',#365,#357,#367,.T.);
#365 = VERTEX_POINT('',#366);
#366 = CARTESIAN_POINT('',(-71.74,4.,52.1));
#367 = LINE('',#368,#369);
#368 = CARTESIAN_POINT('',(-71.74,8.,52.1));
#369 = VECTOR('',#370,1.);
#370 = DIRECTION('',(2.22044604925E-16,-1.,0.));
#371 = ORIENTED_EDGE('',*,*,#372,.F.);
#372 = EDGE_CURVE('',#373,#365,#375,.T.);
#373 = VERTEX_POINT('',#374);
#374 = CARTESIAN_POINT('',(-126.74,4.,52.1));
#375 = LINE('',#376,#377);
#376 = CARTESIAN_POINT('',(-136.74,4.,52.1));
#377 = VECTOR('',#378,1.);
#378 = DIRECTION('',(1.,2.22044604925E-16,0.));
#379 = ORIENTED_EDGE('',*,*,#380,.T.);
#380 = EDGE_CURVE('',#373,#381,#383,.T.);
#381 = VERTEX_POINT('',#382);
#382 = CARTESIAN_POINT('',(-126.74,2.,52.1));
#383 = LINE('',#384,#385);
#384 = CARTESIAN_POINT('',(-126.74,8.,52.1));
#385 = VECTOR('',#386,1.);
#386 = DIRECTION('',(2.22044604925E-16,-1.,0.));
#387 = ORIENTED_EDGE('',*,*,#388,.F.);
#388 = EDGE_CURVE('',#389,#381,#391,.T.);
#389 = VERTEX_POINT('',#390);
#390 = CARTESIAN_POINT('',(-132.74,2.,52.1));
#391 = LINE('',#392,#393);
#392 = CARTESIAN_POINT('',(-132.74,2.,52.1));
#393 = VECTOR('',#394,1.);
#394 = DIRECTION('',(1.,2.22044604925E-16,0.));
#395 = ORIENTED_EDGE('',*,*,#396,.F.);
#396 = EDGE_CURVE('',#40,#389,#397,.T.);
#397 = LINE('',#398,#399);
#398 = CARTESIAN_POINT('',(-132.74,8.,52.1));
#399 = VECTOR('',#400,1.);
#400 = DIRECTION('',(2.22044604925E-16,-1.,0.));
#401 = PLANE('',#402);
#402 = AXIS2_PLACEMENT_3D('',#403,#404,#405);
#403 = CARTESIAN_POINT('',(-136.74,4.,52.1));
#404 = DIRECTION('',(0.,0.,1.));
#405 = DIRECTION('',(2.22044604925E-16,-1.,0.));
#406 = ADVANCED_FACE('',(#407),#418,.F.);
#407 = FACE_BOUND('',#408,.F.);
#408 = EDGE_LOOP('',(#409,#410,#411,#412));
#409 = ORIENTED_EDGE('',*,*,#252,.F.);
#410 = ORIENTED_EDGE('',*,*,#31,.T.);
#411 = ORIENTED_EDGE('',*,*,#62,.T.);
#412 = ORIENTED_EDGE('',*,*,#413,.F.);
#413 = EDGE_CURVE('',#253,#63,#414,.T.);
#414 = LINE('',#415,#416);
#415 = CARTESIAN_POINT('',(-136.74,-48.,52.1));
#416 = VECTOR('',#417,1.);
#417 = DIRECTION('',(0.,0.,1.));
#418 = PLANE('',#419);
#419 = AXIS2_PLACEMENT_3D('',#420,#421,#422);
#420 = CARTESIAN_POINT('',(-136.74,4.,52.1));
#421 = DIRECTION('',(1.,2.22044604925E-16,0.));
#422 = DIRECTION('',(0.,0.,1.));
#423 = ADVANCED_FACE('',(#424),#461,.T.);
#424 = FACE_BOUND('',#425,.T.);
#425 = EDGE_LOOP('',(#426,#434,#435,#436,#437,#445,#454));
#426 = ORIENTED_EDGE('',*,*,#427,.F.);
#427 = EDGE_CURVE('',#24,#428,#430,.T.);
#428 = VERTEX_POINT('',#429);
#429 = CARTESIAN_POINT('',(-130.1982575694,4.,55.1));
#430 = LINE('',#431,#432);
#431 = CARTESIAN_POINT('',(-136.74,4.,55.1));
#432 = VECTOR('',#433,1.);
#433 = DIRECTION('',(1.,2.22044604925E-16,0.));
#434 = ORIENTED_EDGE('',*,*,#206,.T.);
#435 = ORIENTED_EDGE('',*,*,#198,.T.);
#436 = ORIENTED_EDGE('',*,*,#190,.F.);
#437 = ORIENTED_EDGE('',*,*,#438,.F.);
#438 = EDGE_CURVE('',#439,#183,#441,.T.);
#439 = VERTEX_POINT('',#440);
#440 = CARTESIAN_POINT('',(-129.2817424305,4.,55.1));
#441 = LINE('',#442,#443);
#442 = CARTESIAN_POINT('',(-136.74,4.,55.1));
#443 = VECTOR('',#444,1.);
#444 = DIRECTION('',(1.,2.22044604925E-16,0.));
#445 = ORIENTED_EDGE('',*,*,#446,.F.);
#446 = EDGE_CURVE('',#447,#439,#449,.T.);
#447 = VERTEX_POINT('',#448);
#448 = CARTESIAN_POINT('',(-129.74,3.9,55.1));
#449 = CIRCLE('',#450,1.1);
#450 = AXIS2_PLACEMENT_3D('',#451,#452,#453);
#451 = CARTESIAN_POINT('',(-129.74,5.,55.1));
#452 = DIRECTION('',(-0.,0.,1.));
#453 = DIRECTION('',(2.22044604925E-16,-1.,0.));
#454 = ORIENTED_EDGE('',*,*,#455,.F.);
#455 = EDGE_CURVE('',#428,#447,#456,.T.);
#456 = CIRCLE('',#457,1.1);
#457 = AXIS2_PLACEMENT_3D('',#458,#459,#460);
#458 = CARTESIAN_POINT('',(-129.74,5.,55.1));
#459 = DIRECTION('',(-0.,0.,1.));
#460 = DIRECTION('',(2.22044604925E-16,-1.,0.));
#461 = PLANE('',#462);
#462 = AXIS2_PLACEMENT_3D('',#463,#464,#465);
#463 = CARTESIAN_POINT('',(-136.74,4.,55.1));
#464 = DIRECTION('',(0.,0.,1.));
#465 = DIRECTION('',(2.22044604925E-16,-1.,0.));
#466 = ADVANCED_FACE('',(#467),#483,.F.);
#467 = FACE_BOUND('',#468,.F.);
#468 = EDGE_LOOP('',(#469,#470,#476,#477));
#469 = ORIENTED_EDGE('',*,*,#182,.F.);
#470 = ORIENTED_EDGE('',*,*,#471,.F.);
#471 = EDGE_CURVE('',#373,#183,#472,.T.);
#472 = LINE('',#473,#474);
#473 = CARTESIAN_POINT('',(-126.74,4.,52.1));
#474 = VECTOR('',#475,1.);
#475 = DIRECTION('',(0.,0.,1.));
#476 = ORIENTED_EDGE('',*,*,#372,.T.);
#477 = ORIENTED_EDGE('',*,*,#478,.T.);
#478 = EDGE_CURVE('',#365,#175,#479,.T.);
#479 = LINE('',#480,#481);
#480 = CARTESIAN_POINT('',(-71.74,4.,52.1));
#481 = VECTOR('',#482,1.);
#482 = DIRECTION('',(0.,0.,1.));
#483 = PLANE('',#484);
#484 = AXIS2_PLACEMENT_3D('',#485,#486,#487);
#485 = CARTESIAN_POINT('',(-136.74,4.,52.1));
#486 = DIRECTION('',(2.22044604925E-16,-1.,0.));
#487 = DIRECTION('',(0.,0.,1.));
#488 = ADVANCED_FACE('',(#489),#526,.T.);
#489 = FACE_BOUND('',#490,.T.);
#490 = EDGE_LOOP('',(#491,#492,#500,#509,#518,#524,#525));
#491 = ORIENTED_EDGE('',*,*,#158,.F.);
#492 = ORIENTED_EDGE('',*,*,#493,.F.);
#493 = EDGE_CURVE('',#494,#151,#496,.T.);
#494 = VERTEX_POINT('',#495);
#495 = CARTESIAN_POINT('',(-68.2817424305,4.,55.1));
#496 = LINE('',#497,#498);
#497 = CARTESIAN_POINT('',(-136.74,4.,55.1));
#498 = VECTOR('',#499,1.);
#499 = DIRECTION('',(1.,2.22044604925E-16,0.));
#500 = ORIENTED_EDGE('',*,*,#501,.F.);
#501 = EDGE_CURVE('',#502,#494,#504,.T.);
#502 = VERTEX_POINT('',#503);
#503 = CARTESIAN_POINT('',(-68.74,3.9,55.1));
#504 = CIRCLE('',#505,1.1);
#505 = AXIS2_PLACEMENT_3D('',#506,#507,#508);
#506 = CARTESIAN_POINT('',(-68.74,5.,55.1));
#507 = DIRECTION('',(-0.,0.,1.));
#508 = DIRECTION('',(2.22044604925E-16,-1.,0.));
#509 = ORIENTED_EDGE('',*,*,#510,.F.);
#510 = EDGE_CURVE('',#511,#502,#513,.T.);
#511 = VERTEX_POINT('',#512);
#512 = CARTESIAN_POINT('',(-69.19825756949,4.,55.1));
#513 = CIRCLE('',#514,1.1);
#514 = AXIS2_PLACEMENT_3D('',#515,#516,#517);
#515 = CARTESIAN_POINT('',(-68.74,5.,55.1));
#516 = DIRECTION('',(-0.,0.,1.));
#517 = DIRECTION('',(2.22044604925E-16,-1.,0.));
#518 = ORIENTED_EDGE('',*,*,#519,.F.);
#519 = EDGE_CURVE('',#175,#511,#520,.T.);
#520 = LINE('',#521,#522);
#521 = CARTESIAN_POINT('',(-136.74,4.,55.1));
#522 = VECTOR('',#523,1.);
#523 = DIRECTION('',(1.,2.22044604925E-16,0.));
#524 = ORIENTED_EDGE('',*,*,#174,.T.);
#525 = ORIENTED_EDGE('',*,*,#166,.T.);
#526 = PLANE('',#527);
#527 = AXIS2_PLACEMENT_3D('',#528,#529,#530);
#528 = CARTESIAN_POINT('',(-136.74,4.,55.1));
#529 = DIRECTION('',(0.,0.,1.));
#530 = DIRECTION('',(2.22044604925E-16,-1.,0.));
#531 = ADVANCED_FACE('',(#532),#548,.F.);
#532 = FACE_BOUND('',#533,.F.);
#533 = EDGE_LOOP('',(#534,#535,#541,#542));
#534 = ORIENTED_EDGE('',*,*,#150,.F.);
#535 = ORIENTED_EDGE('',*,*,#536,.F.);
#536 = EDGE_CURVE('',#341,#151,#537,.T.);
#537 = LINE('',#538,#539);
#538 = CARTESIAN_POINT('',(-65.74,4.,52.1));
#539 = VECTOR('',#540,1.);
#540 = DIRECTION('',(0.,0.,1.));
#541 = ORIENTED_EDGE('',*,*,#340,.T.);
#542 = ORIENTED_EDGE('',*,*,#543,.T.);
#543 = EDGE_CURVE('',#333,#143,#544,.T.);
#544 = LINE('',#545,#546);
#545 = CARTESIAN_POINT('',(-61.74,4.,52.1));
#546 = VECTOR('',#547,1.);
#547 = DIRECTION('',(0.,0.,1.));
#548 = PLANE('',#549);
#549 = AXIS2_PLACEMENT_3D('',#550,#551,#552);
#550 = CARTESIAN_POINT('',(-136.74,4.,52.1));
#551 = DIRECTION('',(2.22044604925E-16,-1.,0.));
#552 = DIRECTION('',(0.,0.,1.));
#553 = ADVANCED_FACE('',(#554),#565,.T.);
#554 = FACE_BOUND('',#555,.T.);
#555 = EDGE_LOOP('',(#556,#557,#558,#559));
#556 = ORIENTED_EDGE('',*,*,#332,.F.);
#557 = ORIENTED_EDGE('',*,*,#543,.T.);
#558 = ORIENTED_EDGE('',*,*,#142,.T.);
#559 = ORIENTED_EDGE('',*,*,#560,.F.);
#560 = EDGE_CURVE('',#325,#135,#561,.T.);
#561 = LINE('',#562,#563);
#562 = CARTESIAN_POINT('',(-61.74,-48.,52.1));
#563 = VECTOR('',#564,1.);
#564 = DIRECTION('',(0.,0.,1.));
#565 = PLANE('',#566);
#566 = AXIS2_PLACEMENT_3D('',#567,#568,#569);
#567 = CARTESIAN_POINT('',(-61.74,4.,52.1));
#568 = DIRECTION('',(1.,2.22044604925E-16,0.));
#569 = DIRECTION('',(0.,0.,1.));
#570 = ADVANCED_FACE('',(#571),#582,.T.);
#571 = FACE_BOUND('',#572,.T.);
#572 = EDGE_LOOP('',(#573,#574,#580,#581));
#573 = ORIENTED_EDGE('',*,*,#134,.F.);
#574 = ORIENTED_EDGE('',*,*,#575,.F.);
#575 = EDGE_CURVE('',#317,#127,#576,.T.);
#576 = LINE('',#577,#578);
#577 = CARTESIAN_POINT('',(-65.74,-48.,52.1));
#578 = VECTOR('',#579,1.);
#579 = DIRECTION('',(0.,0.,1.));
#580 = ORIENTED_EDGE('',*,*,#324,.T.);
#581 = ORIENTED_EDGE('',*,*,#560,.T.);
#582 = PLANE('',#583);
#583 = AXIS2_PLACEMENT_3D('',#584,#585,#586);
#584 = CARTESIAN_POINT('',(-136.74,-48.,52.1));
#585 = DIRECTION('',(2.22044604925E-16,-1.,0.));
#586 = DIRECTION('',(0.,0.,1.));
#587 = ADVANCED_FACE('',(#588),#616,.T.);
#588 = FACE_BOUND('',#589,.T.);
#589 = EDGE_LOOP('',(#590,#591,#592,#600,#609,#615));
#590 = ORIENTED_EDGE('',*,*,#118,.F.);
#591 = ORIENTED_EDGE('',*,*,#110,.T.);
#592 = ORIENTED_EDGE('',*,*,#593,.T.);
#593 = EDGE_CURVE('',#103,#594,#596,.T.);
#594 = VERTEX_POINT('',#595);
#595 = CARTESIAN_POINT('',(-69.19825756949,-48.,55.1));
#596 = LINE('',#597,#598);
#597 = CARTESIAN_POINT('',(-136.74,-48.,55.1));
#598 = VECTOR('',#599,1.);
#599 = DIRECTION('',(1.,2.22044604925E-16,0.));
#600 = ORIENTED_EDGE('',*,*,#601,.F.);
#601 = EDGE_CURVE('',#602,#594,#604,.T.);
#602 = VERTEX_POINT('',#603);
#603 = CARTESIAN_POINT('',(-68.2817424305,-48.,55.1));
#604 = CIRCLE('',#605,1.1);
#605 = AXIS2_PLACEMENT_3D('',#606,#607,#608);
#606 = CARTESIAN_POINT('',(-68.74,-49.,55.1));
#607 = DIRECTION('',(-0.,0.,1.));
#608 = DIRECTION('',(2.22044604925E-16,-1.,0.));
#609 = ORIENTED_EDGE('',*,*,#610,.T.);
#610 = EDGE_CURVE('',#602,#127,#611,.T.);
#611 = LINE('',#612,#613);
#612 = CARTESIAN_POINT('',(-136.74,-48.,55.1));
#613 = VECTOR('',#614,1.);
#614 = DIRECTION('',(1.,2.22044604925E-16,0.));
#615 = ORIENTED_EDGE('',*,*,#126,.F.);
#616 = PLANE('',#617);
#617 = AXIS2_PLACEMENT_3D('',#618,#619,#620);
#618 = CARTESIAN_POINT('',(-136.74,4.,55.1));
#619 = DIRECTION('',(0.,0.,1.));
#620 = DIRECTION('',(2.22044604925E-16,-1.,0.));
#621 = ADVANCED_FACE('',(#622),#638,.T.);
#622 = FACE_BOUND('',#623,.T.);
#623 = EDGE_LOOP('',(#624,#625,#631,#632));
#624 = ORIENTED_EDGE('',*,*,#102,.F.);
#625 = ORIENTED_EDGE('',*,*,#626,.F.);
#626 = EDGE_CURVE('',#285,#95,#627,.T.);
#627 = LINE('',#628,#629);
#628 = CARTESIAN_POINT('',(-126.74,-48.,52.1));
#629 = VECTOR('',#630,1.);
#630 = DIRECTION('',(0.,0.,1.));
#631 = ORIENTED_EDGE('',*,*,#292,.T.);
#632 = ORIENTED_EDGE('',*,*,#633,.T.);
#633 = EDGE_CURVE('',#293,#103,#634,.T.);
#634 = LINE('',#635,#636);
#635 = CARTESIAN_POINT('',(-71.74,-48.,52.1));
#636 = VECTOR('',#637,1.);
#637 = DIRECTION('',(0.,0.,1.));
#638 = PLANE('',#639);
#639 = AXIS2_PLACEMENT_3D('',#640,#641,#642);
#640 = CARTESIAN_POINT('',(-136.74,-48.,52.1));
#641 = DIRECTION('',(2.22044604925E-16,-1.,0.));
#642 = DIRECTION('',(0.,0.,1.));
#643 = ADVANCED_FACE('',(#644),#672,.T.);
#644 = FACE_BOUND('',#645,.T.);
#645 = EDGE_LOOP('',(#646,#647,#648,#656,#665,#671));
#646 = ORIENTED_EDGE('',*,*,#86,.F.);
#647 = ORIENTED_EDGE('',*,*,#78,.T.);
#648 = ORIENTED_EDGE('',*,*,#649,.T.);
#649 = EDGE_CURVE('',#71,#650,#652,.T.);
#650 = VERTEX_POINT('',#651);
#651 = CARTESIAN_POINT('',(-130.1982575694,-48.,55.1));
#652 = LINE('',#653,#654);
#653 = CARTESIAN_POINT('',(-136.74,-48.,55.1));
#654 = VECTOR('',#655,1.);
#655 = DIRECTION('',(1.,2.22044604925E-16,0.));
#656 = ORIENTED_EDGE('',*,*,#657,.F.);
#657 = EDGE_CURVE('',#658,#650,#660,.T.);
#658 = VERTEX_POINT('',#659);
#659 = CARTESIAN_POINT('',(-129.2817424305,-48.,55.1));
#660 = CIRCLE('',#661,1.1);
#661 = AXIS2_PLACEMENT_3D('',#662,#663,#664);
#662 = CARTESIAN_POINT('',(-129.74,-49.,55.1));
#663 = DIRECTION('',(-0.,0.,1.));
#664 = DIRECTION('',(2.22044604925E-16,-1.,0.));
#665 = ORIENTED_EDGE('',*,*,#666,.T.);
#666 = EDGE_CURVE('',#658,#95,#667,.T.);
#667 = LINE('',#668,#669);
#668 = CARTESIAN_POINT('',(-136.74,-48.,55.1));
#669 = VECTOR('',#670,1.);
#670 = DIRECTION('',(1.,2.22044604925E-16,0.));
#671 = ORIENTED_EDGE('',*,*,#94,.F.);
#672 = PLANE('',#673);
#673 = AXIS2_PLACEMENT_3D('',#674,#675,#676);
#674 = CARTESIAN_POINT('',(-136.74,4.,55.1));
#675 = DIRECTION('',(0.,0.,1.));
#676 = DIRECTION('',(2.22044604925E-16,-1.,0.));
#677 = ADVANCED_FACE('',(#678),#689,.T.);
#678 = FACE_BOUND('',#679,.T.);
#679 = EDGE_LOOP('',(#680,#681,#682,#683));
#680 = ORIENTED_EDGE('',*,*,#70,.F.);
#681 = ORIENTED_EDGE('',*,*,#413,.F.);
#682 = ORIENTED_EDGE('',*,*,#260,.T.);
#683 = ORIENTED_EDGE('',*,*,#684,.T.);
#684 = EDGE_CURVE('',#261,#71,#685,.T.);
#685 = LINE('',#686,#687);
#686 = CARTESIAN_POINT('',(-132.74,-48.,52.1));
#687 = VECTOR('',#688,1.);
#688 = DIRECTION('',(0.,0.,1.));
#689 = PLANE('',#690);
#690 = AXIS2_PLACEMENT_3D('',#691,#692,#693);
#691 = CARTESIAN_POINT('',(-136.74,-48.,52.1));
#692 = DIRECTION('',(2.22044604925E-16,-1.,0.));
#693 = DIRECTION('',(0.,0.,1.));
#694 = ADVANCED_FACE('',(#695),#735,.F.);
#695 = FACE_BOUND('',#696,.F.);
#696 = EDGE_LOOP('',(#697,#705,#711,#712,#720,#729));
#697 = ORIENTED_EDGE('',*,*,#698,.F.);
#698 = EDGE_CURVE('',#699,#373,#701,.T.);
#699 = VERTEX_POINT('',#700);
#700 = CARTESIAN_POINT('',(-126.74,8.,52.1));
#701 = LINE('',#702,#703);
#702 = CARTESIAN_POINT('',(-126.74,8.,52.1));
#703 = VECTOR('',#704,1.);
#704 = DIRECTION('',(2.22044604925E-16,-1.,0.));
#705 = ORIENTED_EDGE('',*,*,#706,.F.);
#706 = EDGE_CURVE('',#221,#699,#707,.T.);
#707 = LINE('',#708,#709);
#708 = CARTESIAN_POINT('',(-132.74,8.,52.1));
#709 = VECTOR('',#710,1.);
#710 = DIRECTION('',(1.,2.22044604925E-16,0.));
#711 = ORIENTED_EDGE('',*,*,#220,.T.);
#712 = ORIENTED_EDGE('',*,*,#713,.T.);
#713 = EDGE_CURVE('',#40,#714,#716,.T.);
#714 = VERTEX_POINT('',#715);
#715 = CARTESIAN_POINT('',(-130.1982575694,4.,52.1));
#716 = LINE('',#717,#718);
#717 = CARTESIAN_POINT('',(-136.74,4.,52.1));
#718 = VECTOR('',#719,1.);
#719 = DIRECTION('',(1.,2.22044604925E-16,0.));
#720 = ORIENTED_EDGE('',*,*,#721,.F.);
#721 = EDGE_CURVE('',#722,#714,#724,.T.);
#722 = VERTEX_POINT('',#723);
#723 = CARTESIAN_POINT('',(-129.2817424305,4.,52.1));
#724 = CIRCLE('',#725,1.1);
#725 = AXIS2_PLACEMENT_3D('',#726,#727,#728);
#726 = CARTESIAN_POINT('',(-129.74,5.,52.1));
#727 = DIRECTION('',(-0.,0.,1.));
#728 = DIRECTION('',(2.22044604925E-16,-1.,0.));
#729 = ORIENTED_EDGE('',*,*,#730,.T.);
#730 = EDGE_CURVE('',#722,#373,#731,.T.);
#731 = LINE('',#732,#733);
#732 = CARTESIAN_POINT('',(-136.74,4.,52.1));
#733 = VECTOR('',#734,1.);
#734 = DIRECTION('',(1.,2.22044604925E-16,0.));
#735 = PLANE('',#736);
#736 = AXIS2_PLACEMENT_3D('',#737,#738,#739);
#737 = CARTESIAN_POINT('',(-132.74,8.,52.1));
#738 = DIRECTION('',(0.,0.,1.));
#739 = DIRECTION('',(2.22044604925E-16,-1.,0.));
#740 = ADVANCED_FACE('',(#741),#767,.T.);
#741 = FACE_BOUND('',#742,.T.);
#742 = EDGE_LOOP('',(#743,#751,#757,#758,#759,#766));
#743 = ORIENTED_EDGE('',*,*,#744,.F.);
#744 = EDGE_CURVE('',#745,#183,#747,.T.);
#745 = VERTEX_POINT('',#746);
#746 = CARTESIAN_POINT('',(-126.74,8.,55.1));
#747 = LINE('',#748,#749);
#748 = CARTESIAN_POINT('',(-126.74,8.,55.1));
#749 = VECTOR('',#750,1.);
#750 = DIRECTION('',(2.22044604925E-16,-1.,0.));
#751 = ORIENTED_EDGE('',*,*,#752,.F.);
#752 = EDGE_CURVE('',#229,#745,#753,.T.);
#753 = LINE('',#754,#755);
#754 = CARTESIAN_POINT('',(-132.74,8.,55.1));
#755 = VECTOR('',#756,1.);
#756 = DIRECTION('',(1.,2.22044604925E-16,0.));
#757 = ORIENTED_EDGE('',*,*,#236,.T.);
#758 = ORIENTED_EDGE('',*,*,#427,.T.);
#759 = ORIENTED_EDGE('',*,*,#760,.F.);
#760 = EDGE_CURVE('',#439,#428,#761,.T.);
#761 = CIRCLE('',#762,1.1);
#762 = AXIS2_PLACEMENT_3D('',#763,#764,#765);
#763 = CARTESIAN_POINT('',(-129.74,5.,55.1));
#764 = DIRECTION('',(-0.,0.,1.));
#765 = DIRECTION('',(2.22044604925E-16,-1.,0.));
#766 = ORIENTED_EDGE('',*,*,#438,.T.);
#767 = PLANE('',#768);
#768 = AXIS2_PLACEMENT_3D('',#769,#770,#771);
#769 = CARTESIAN_POINT('',(-132.74,8.,55.1));
#770 = DIRECTION('',(0.,0.,1.));
#771 = DIRECTION('',(2.22044604925E-16,-1.,0.));
#772 = ADVANCED_FACE('',(#773),#784,.F.);
#773 = FACE_BOUND('',#774,.F.);
#774 = EDGE_LOOP('',(#775,#776,#777,#783));
#775 = ORIENTED_EDGE('',*,*,#228,.F.);
#776 = ORIENTED_EDGE('',*,*,#706,.T.);
#777 = ORIENTED_EDGE('',*,*,#778,.T.);
#778 = EDGE_CURVE('',#699,#745,#779,.T.);
#779 = LINE('',#780,#781);
#780 = CARTESIAN_POINT('',(-126.74,8.,52.1));
#781 = VECTOR('',#782,1.);
#782 = DIRECTION('',(0.,0.,1.));
#783 = ORIENTED_EDGE('',*,*,#752,.F.);
#784 = PLANE('',#785);
#785 = AXIS2_PLACEMENT_3D('',#786,#787,#788);
#786 = CARTESIAN_POINT('',(-132.74,8.,52.1));
#787 = DIRECTION('',(2.22044604925E-16,-1.,0.));
#788 = DIRECTION('',(0.,0.,1.));
#789 = ADVANCED_FACE('',(#790),#813,.F.);
#790 = FACE_BOUND('',#791,.F.);
#791 = EDGE_LOOP('',(#792,#793,#794,#795,#796,#797,#806));
#792 = ORIENTED_EDGE('',*,*,#713,.F.);
#793 = ORIENTED_EDGE('',*,*,#396,.T.);
#794 = ORIENTED_EDGE('',*,*,#388,.T.);
#795 = ORIENTED_EDGE('',*,*,#380,.F.);
#796 = ORIENTED_EDGE('',*,*,#730,.F.);
#797 = ORIENTED_EDGE('',*,*,#798,.F.);
#798 = EDGE_CURVE('',#799,#722,#801,.T.);
#799 = VERTEX_POINT('',#800);
#800 = CARTESIAN_POINT('',(-129.74,3.9,52.1));
#801 = CIRCLE('',#802,1.1);
#802 = AXIS2_PLACEMENT_3D('',#803,#804,#805);
#803 = CARTESIAN_POINT('',(-129.74,5.,52.1));
#804 = DIRECTION('',(-0.,0.,1.));
#805 = DIRECTION('',(2.22044604925E-16,-1.,0.));
#806 = ORIENTED_EDGE('',*,*,#807,.F.);
#807 = EDGE_CURVE('',#714,#799,#808,.T.);
#808 = CIRCLE('',#809,1.1);
#809 = AXIS2_PLACEMENT_3D('',#810,#811,#812);
#810 = CARTESIAN_POINT('',(-129.74,5.,52.1));
#811 = DIRECTION('',(-0.,0.,1.));
#812 = DIRECTION('',(2.22044604925E-16,-1.,0.));
#813 = PLANE('',#814);
#814 = AXIS2_PLACEMENT_3D('',#815,#816,#817);
#815 = CARTESIAN_POINT('',(-136.74,4.,52.1));
#816 = DIRECTION('',(0.,0.,1.));
#817 = DIRECTION('',(2.22044604925E-16,-1.,0.));
#818 = ADVANCED_FACE('',(#819),#856,.F.);
#819 = FACE_BOUND('',#820,.F.);
#820 = EDGE_LOOP('',(#821,#822,#830,#839,#848,#854,#855));
#821 = ORIENTED_EDGE('',*,*,#348,.F.);
#822 = ORIENTED_EDGE('',*,*,#823,.F.);
#823 = EDGE_CURVE('',#824,#341,#826,.T.);
#824 = VERTEX_POINT('',#825);
#825 = CARTESIAN_POINT('',(-68.2817424305,4.,52.1));
#826 = LINE('',#827,#828);
#827 = CARTESIAN_POINT('',(-136.74,4.,52.1));
#828 = VECTOR('',#829,1.);
#829 = DIRECTION('',(1.,2.22044604925E-16,0.));
#830 = ORIENTED_EDGE('',*,*,#831,.F.);
#831 = EDGE_CURVE('',#832,#824,#834,.T.);
#832 = VERTEX_POINT('',#833);
#833 = CARTESIAN_POINT('',(-68.74,3.9,52.1));
#834 = CIRCLE('',#835,1.1);
#835 = AXIS2_PLACEMENT_3D('',#836,#837,#838);
#836 = CARTESIAN_POINT('',(-68.74,5.,52.1));
#837 = DIRECTION('',(-0.,0.,1.));
#838 = DIRECTION('',(2.22044604925E-16,-1.,0.));
#839 = ORIENTED_EDGE('',*,*,#840,.F.);
#840 = EDGE_CURVE('',#841,#832,#843,.T.);
#841 = VERTEX_POINT('',#842);
#842 = CARTESIAN_POINT('',(-69.19825756949,4.,52.1));
#843 = CIRCLE('',#844,1.1);
#844 = AXIS2_PLACEMENT_3D('',#845,#846,#847);
#845 = CARTESIAN_POINT('',(-68.74,5.,52.1));
#846 = DIRECTION('',(-0.,0.,1.));
#847 = DIRECTION('',(2.22044604925E-16,-1.,0.));
#848 = ORIENTED_EDGE('',*,*,#849,.F.);
#849 = EDGE_CURVE('',#365,#841,#850,.T.);
#850 = LINE('',#851,#852);
#851 = CARTESIAN_POINT('',(-136.74,4.,52.1));
#852 = VECTOR('',#853,1.);
#853 = DIRECTION('',(1.,2.22044604925E-16,0.));
#854 = ORIENTED_EDGE('',*,*,#364,.T.);
#855 = ORIENTED_EDGE('',*,*,#356,.T.);
#856 = PLANE('',#857);
#857 = AXIS2_PLACEMENT_3D('',#858,#859,#860);
#858 = CARTESIAN_POINT('',(-136.74,4.,52.1));
#859 = DIRECTION('',(0.,0.,1.));
#860 = DIRECTION('',(2.22044604925E-16,-1.,0.));
#861 = ADVANCED_FACE('',(#862),#890,.F.);
#862 = FACE_BOUND('',#863,.F.);
#863 = EDGE_LOOP('',(#864,#865,#866,#874,#883,#889));
#864 = ORIENTED_EDGE('',*,*,#308,.F.);
#865 = ORIENTED_EDGE('',*,*,#300,.T.);
#866 = ORIENTED_EDGE('',*,*,#867,.T.);
#867 = EDGE_CURVE('',#293,#868,#870,.T.);
#868 = VERTEX_POINT('',#869);
#869 = CARTESIAN_POINT('',(-69.19825756949,-48.,52.1));
#870 = LINE('',#871,#872);
#871 = CARTESIAN_POINT('',(-136.74,-48.,52.1));
#872 = VECTOR('',#873,1.);
#873 = DIRECTION('',(1.,2.22044604925E-16,0.));
#874 = ORIENTED_EDGE('',*,*,#875,.F.);
#875 = EDGE_CURVE('',#876,#868,#878,.T.);
#876 = VERTEX_POINT('',#877);
#877 = CARTESIAN_POINT('',(-68.2817424305,-48.,52.1));
#878 = CIRCLE('',#879,1.1);
#879 = AXIS2_PLACEMENT_3D('',#880,#881,#882);
#880 = CARTESIAN_POINT('',(-68.74,-49.,52.1));
#881 = DIRECTION('',(-0.,0.,1.));
#882 = DIRECTION('',(2.22044604925E-16,-1.,0.));
#883 = ORIENTED_EDGE('',*,*,#884,.T.);
#884 = EDGE_CURVE('',#876,#317,#885,.T.);
#885 = LINE('',#886,#887);
#886 = CARTESIAN_POINT('',(-136.74,-48.,52.1));
#887 = VECTOR('',#888,1.);
#888 = DIRECTION('',(1.,2.22044604925E-16,0.));
#889 = ORIENTED_EDGE('',*,*,#316,.F.);
#890 = PLANE('',#891);
#891 = AXIS2_PLACEMENT_3D('',#892,#893,#894);
#892 = CARTESIAN_POINT('',(-136.74,4.,52.1));
#893 = DIRECTION('',(0.,0.,1.));
#894 = DIRECTION('',(2.22044604925E-16,-1.,0.));
#895 = ADVANCED_FACE('',(#896),#924,.F.);
#896 = FACE_BOUND('',#897,.F.);
#897 = EDGE_LOOP('',(#898,#899,#900,#908,#917,#923));
#898 = ORIENTED_EDGE('',*,*,#276,.F.);
#899 = ORIENTED_EDGE('',*,*,#268,.T.);
#900 = ORIENTED_EDGE('',*,*,#901,.T.);
#901 = EDGE_CURVE('',#261,#902,#904,.T.);
#902 = VERTEX_POINT('',#903);
#903 = CARTESIAN_POINT('',(-130.1982575694,-48.,52.1));
#904 = LINE('',#905,#906);
#905 = CARTESIAN_POINT('',(-136.74,-48.,52.1));
#906 = VECTOR('',#907,1.);
#907 = DIRECTION('',(1.,2.22044604925E-16,0.));
#908 = ORIENTED_EDGE('',*,*,#909,.F.);
#909 = EDGE_CURVE('',#910,#902,#912,.T.);
#910 = VERTEX_POINT('',#911);
#911 = CARTESIAN_POINT('',(-129.2817424305,-48.,52.1));
#912 = CIRCLE('',#913,1.1);
#913 = AXIS2_PLACEMENT_3D('',#914,#915,#916);
#914 = CARTESIAN_POINT('',(-129.74,-49.,52.1));
#915 = DIRECTION('',(-0.,0.,1.));
#916 = DIRECTION('',(2.22044604925E-16,-1.,0.));
#917 = ORIENTED_EDGE('',*,*,#918,.T.);
#918 = EDGE_CURVE('',#910,#285,#919,.T.);
#919 = LINE('',#920,#921);
#920 = CARTESIAN_POINT('',(-136.74,-48.,52.1));
#921 = VECTOR('',#922,1.);
#922 = DIRECTION('',(1.,2.22044604925E-16,0.));
#923 = ORIENTED_EDGE('',*,*,#284,.F.);
#924 = PLANE('',#925);
#925 = AXIS2_PLACEMENT_3D('',#926,#927,#928);
#926 = CARTESIAN_POINT('',(-136.74,4.,52.1));
#927 = DIRECTION('',(0.,0.,1.));
#928 = DIRECTION('',(2.22044604925E-16,-1.,0.));
#929 = ADVANCED_FACE('',(#930),#945,.F.);
#930 = FACE_BOUND('',#931,.F.);
#931 = EDGE_LOOP('',(#932,#933,#939,#940,#941,#942,#943,#944));
#932 = ORIENTED_EDGE('',*,*,#446,.F.);
#933 = ORIENTED_EDGE('',*,*,#934,.F.);
#934 = EDGE_CURVE('',#799,#447,#935,.T.);
#935 = LINE('',#936,#937);
#936 = CARTESIAN_POINT('',(-129.74,3.9,51.6));
#937 = VECTOR('',#938,1.);
#938 = DIRECTION('',(0.,0.,1.));
#939 = ORIENTED_EDGE('',*,*,#798,.T.);
#940 = ORIENTED_EDGE('',*,*,#721,.T.);
#941 = ORIENTED_EDGE('',*,*,#807,.T.);
#942 = ORIENTED_EDGE('',*,*,#934,.T.);
#943 = ORIENTED_EDGE('',*,*,#455,.F.);
#944 = ORIENTED_EDGE('',*,*,#760,.F.);
#945 = CYLINDRICAL_SURFACE('',#946,1.1);
#946 = AXIS2_PLACEMENT_3D('',#947,#948,#949);
#947 = CARTESIAN_POINT('',(-129.74,5.,51.6));
#948 = DIRECTION('',(0.,0.,1.));
#949 = DIRECTION('',(2.22044604925E-16,-1.,0.));
#950 = ADVANCED_FACE('',(#951),#976,.F.);
#951 = FACE_BOUND('',#952,.F.);
#952 = EDGE_LOOP('',(#953,#961,#969,#975));
#953 = ORIENTED_EDGE('',*,*,#954,.F.);
#954 = EDGE_CURVE('',#955,#365,#957,.T.);
#955 = VERTEX_POINT('',#956);
#956 = CARTESIAN_POINT('',(-71.74,8.,52.1));
#957 = LINE('',#958,#959);
#958 = CARTESIAN_POINT('',(-71.74,8.,52.1));
#959 = VECTOR('',#960,1.);
#960 = DIRECTION('',(2.22044604925E-16,-1.,0.));
#961 = ORIENTED_EDGE('',*,*,#962,.T.);
#962 = EDGE_CURVE('',#955,#963,#965,.T.);
#963 = VERTEX_POINT('',#964);
#964 = CARTESIAN_POINT('',(-71.74,8.,55.1));
#965 = LINE('',#966,#967);
#966 = CARTESIAN_POINT('',(-71.74,8.,52.1));
#967 = VECTOR('',#968,1.);
#968 = DIRECTION('',(0.,0.,1.));
#969 = ORIENTED_EDGE('',*,*,#970,.T.);
#970 = EDGE_CURVE('',#963,#175,#971,.T.);
#971 = LINE('',#972,#973);
#972 = CARTESIAN_POINT('',(-71.74,8.,55.1));
#973 = VECTOR('',#974,1.);
#974 = DIRECTION('',(2.22044604925E-16,-1.,0.));
#975 = ORIENTED_EDGE('',*,*,#478,.F.);
#976 = PLANE('',#977);
#977 = AXIS2_PLACEMENT_3D('',#978,#979,#980);
#978 = CARTESIAN_POINT('',(-71.74,8.,52.1));
#979 = DIRECTION('',(1.,2.22044604925E-16,0.));
#980 = DIRECTION('',(0.,0.,1.));
#981 = ADVANCED_FACE('',(#982),#988,.T.);
#982 = FACE_BOUND('',#983,.T.);
#983 = EDGE_LOOP('',(#984,#985,#986,#987));
#984 = ORIENTED_EDGE('',*,*,#698,.F.);
#985 = ORIENTED_EDGE('',*,*,#778,.T.);
#986 = ORIENTED_EDGE('',*,*,#744,.T.);
#987 = ORIENTED_EDGE('',*,*,#471,.F.);
#988 = PLANE('',#989);
#989 = AXIS2_PLACEMENT_3D('',#990,#991,#992);
#990 = CARTESIAN_POINT('',(-126.74,8.,52.1));
#991 = DIRECTION('',(1.,2.22044604925E-16,0.));
#992 = DIRECTION('',(0.,0.,1.));
#993 = ADVANCED_FACE('',(#994),#1020,.T.);
#994 = FACE_BOUND('',#995,.T.);
#995 = EDGE_LOOP('',(#996,#1004,#1010,#1011,#1012,#1019));
#996 = ORIENTED_EDGE('',*,*,#997,.F.);
#997 = EDGE_CURVE('',#998,#151,#1000,.T.);
#998 = VERTEX_POINT('',#999);
#999 = CARTESIAN_POINT('',(-65.74,8.,55.1));
#1000 = LINE('',#1001,#1002);
#1001 = CARTESIAN_POINT('',(-65.74,8.,55.1));
#1002 = VECTOR('',#1003,1.);
#1003 = DIRECTION('',(2.22044604925E-16,-1.,0.));
#1004 = ORIENTED_EDGE('',*,*,#1005,.F.);
#1005 = EDGE_CURVE('',#963,#998,#1006,.T.);
#1006 = LINE('',#1007,#1008);
#1007 = CARTESIAN_POINT('',(-71.74,8.,55.1));
#1008 = VECTOR('',#1009,1.);
#1009 = DIRECTION('',(1.,2.22044604925E-16,0.));
#1010 = ORIENTED_EDGE('',*,*,#970,.T.);
#1011 = ORIENTED_EDGE('',*,*,#519,.T.);
#1012 = ORIENTED_EDGE('',*,*,#1013,.F.);
#1013 = EDGE_CURVE('',#494,#511,#1014,.T.);
#1014 = CIRCLE('',#1015,1.1);
#1015 = AXIS2_PLACEMENT_3D('',#1016,#1017,#1018);
#1016 = CARTESIAN_POINT('',(-68.74,5.,55.1));
#1017 = DIRECTION('',(-0.,0.,1.));
#1018 = DIRECTION('',(2.22044604925E-16,-1.,0.));
#1019 = ORIENTED_EDGE('',*,*,#493,.T.);
#1020 = PLANE('',#1021);
#1021 = AXIS2_PLACEMENT_3D('',#1022,#1023,#1024);
#1022 = CARTESIAN_POINT('',(-71.74,8.,55.1));
#1023 = DIRECTION('',(0.,0.,1.));
#1024 = DIRECTION('',(2.22044604925E-16,-1.,0.));
#1025 = ADVANCED_FACE('',(#1026),#1047,.F.);
#1026 = FACE_BOUND('',#1027,.F.);
#1027 = EDGE_LOOP('',(#1028,#1029,#1035,#1036,#1043,#1044,#1045,#1046));
#1028 = ORIENTED_EDGE('',*,*,#501,.F.);
#1029 = ORIENTED_EDGE('',*,*,#1030,.F.);
#1030 = EDGE_CURVE('',#832,#502,#1031,.T.);
#1031 = LINE('',#1032,#1033);
#1032 = CARTESIAN_POINT('',(-68.74,3.9,51.6));
#1033 = VECTOR('',#1034,1.);
#1034 = DIRECTION('',(0.,0.,1.));
#1035 = ORIENTED_EDGE('',*,*,#831,.T.);
#1036 = ORIENTED_EDGE('',*,*,#1037,.T.);
#1037 = EDGE_CURVE('',#824,#841,#1038,.T.);
#1038 = CIRCLE('',#1039,1.1);
#1039 = AXIS2_PLACEMENT_3D('',#1040,#1041,#1042);
#1040 = CARTESIAN_POINT('',(-68.74,5.,52.1));
#1041 = DIRECTION('',(-0.,0.,1.));
#1042 = DIRECTION('',(2.22044604925E-16,-1.,0.));
#1043 = ORIENTED_EDGE('',*,*,#840,.T.);
#1044 = ORIENTED_EDGE('',*,*,#1030,.T.);
#1045 = ORIENTED_EDGE('',*,*,#510,.F.);
#1046 = ORIENTED_EDGE('',*,*,#1013,.F.);
#1047 = CYLINDRICAL_SURFACE('',#1048,1.1);
#1048 = AXIS2_PLACEMENT_3D('',#1049,#1050,#1051);
#1049 = CARTESIAN_POINT('',(-68.74,5.,51.6));
#1050 = DIRECTION('',(0.,0.,1.));
#1051 = DIRECTION('',(2.22044604925E-16,-1.,0.));
#1052 = ADVANCED_FACE('',(#1053),#1071,.T.);
#1053 = FACE_BOUND('',#1054,.T.);
#1054 = EDGE_LOOP('',(#1055,#1063,#1069,#1070));
#1055 = ORIENTED_EDGE('',*,*,#1056,.F.);
#1056 = EDGE_CURVE('',#1057,#341,#1059,.T.);
#1057 = VERTEX_POINT('',#1058);
#1058 = CARTESIAN_POINT('',(-65.74,8.,52.1));
#1059 = LINE('',#1060,#1061);
#1060 = CARTESIAN_POINT('',(-65.74,8.,52.1));
#1061 = VECTOR('',#1062,1.);
#1062 = DIRECTION('',(2.22044604925E-16,-1.,0.));
#1063 = ORIENTED_EDGE('',*,*,#1064,.T.);
#1064 = EDGE_CURVE('',#1057,#998,#1065,.T.);
#1065 = LINE('',#1066,#1067);
#1066 = CARTESIAN_POINT('',(-65.74,8.,52.1));
#1067 = VECTOR('',#1068,1.);
#1068 = DIRECTION('',(0.,0.,1.));
#1069 = ORIENTED_EDGE('',*,*,#997,.T.);
#1070 = ORIENTED_EDGE('',*,*,#536,.F.);
#1071 = PLANE('',#1072);
#1072 = AXIS2_PLACEMENT_3D('',#1073,#1074,#1075);
#1073 = CARTESIAN_POINT('',(-65.74,8.,52.1));
#1074 = DIRECTION('',(1.,2.22044604925E-16,0.));
#1075 = DIRECTION('',(0.,0.,1.));
#1076 = ADVANCED_FACE('',(#1077),#1102,.T.);
#1077 = FACE_BOUND('',#1078,.T.);
#1078 = EDGE_LOOP('',(#1079,#1087,#1088,#1096));
#1079 = ORIENTED_EDGE('',*,*,#1080,.F.);
#1080 = EDGE_CURVE('',#317,#1081,#1083,.T.);
#1081 = VERTEX_POINT('',#1082);
#1082 = CARTESIAN_POINT('',(-65.74,-52.,52.1));
#1083 = LINE('',#1084,#1085);
#1084 = CARTESIAN_POINT('',(-65.74,-46.,52.1));
#1085 = VECTOR('',#1086,1.);
#1086 = DIRECTION('',(2.22044604925E-16,-1.,0.));
#1087 = ORIENTED_EDGE('',*,*,#575,.T.);
#1088 = ORIENTED_EDGE('',*,*,#1089,.T.);
#1089 = EDGE_CURVE('',#127,#1090,#1092,.T.);
#1090 = VERTEX_POINT('',#1091);
#1091 = CARTESIAN_POINT('',(-65.74,-52.,55.1));
#1092 = LINE('',#1093,#1094);
#1093 = CARTESIAN_POINT('',(-65.74,-46.,55.1));
#1094 = VECTOR('',#1095,1.);
#1095 = DIRECTION('',(2.22044604925E-16,-1.,0.));
#1096 = ORIENTED_EDGE('',*,*,#1097,.F.);
#1097 = EDGE_CURVE('',#1081,#1090,#1098,.T.);
#1098 = LINE('',#1099,#1100);
#1099 = CARTESIAN_POINT('',(-65.74,-52.,52.1));
#1100 = VECTOR('',#1101,1.);
#1101 = DIRECTION('',(0.,0.,1.));
#1102 = PLANE('',#1103);
#1103 = AXIS2_PLACEMENT_3D('',#1104,#1105,#1106);
#1104 = CARTESIAN_POINT('',(-65.74,-46.,52.1));
#1105 = DIRECTION('',(1.,2.22044604925E-16,0.));
#1106 = DIRECTION('',(0.,0.,1.));
#1107 = ADVANCED_FACE('',(#1108),#1143,.T.);
#1108 = FACE_BOUND('',#1109,.T.);
#1109 = EDGE_LOOP('',(#1110,#1111,#1119,#1125,#1126,#1127,#1136));
#1110 = ORIENTED_EDGE('',*,*,#593,.F.);
#1111 = ORIENTED_EDGE('',*,*,#1112,.T.);
#1112 = EDGE_CURVE('',#103,#1113,#1115,.T.);
#1113 = VERTEX_POINT('',#1114);
#1114 = CARTESIAN_POINT('',(-71.74,-52.,55.1));
#1115 = LINE('',#1116,#1117);
#1116 = CARTESIAN_POINT('',(-71.74,-46.,55.1));
#1117 = VECTOR('',#1118,1.);
#1118 = DIRECTION('',(2.22044604925E-16,-1.,0.));
#1119 = ORIENTED_EDGE('',*,*,#1120,.T.);
#1120 = EDGE_CURVE('',#1113,#1090,#1121,.T.);
#1121 = LINE('',#1122,#1123);
#1122 = CARTESIAN_POINT('',(-71.74,-52.,55.1));
#1123 = VECTOR('',#1124,1.);
#1124 = DIRECTION('',(1.,2.22044604925E-16,0.));
#1125 = ORIENTED_EDGE('',*,*,#1089,.F.);
#1126 = ORIENTED_EDGE('',*,*,#610,.F.);
#1127 = ORIENTED_EDGE('',*,*,#1128,.F.);
#1128 = EDGE_CURVE('',#1129,#602,#1131,.T.);
#1129 = VERTEX_POINT('',#1130);
#1130 = CARTESIAN_POINT('',(-68.74,-50.1,55.1));
#1131 = CIRCLE('',#1132,1.1);
#1132 = AXIS2_PLACEMENT_3D('',#1133,#1134,#1135);
#1133 = CARTESIAN_POINT('',(-68.74,-49.,55.1));
#1134 = DIRECTION('',(-0.,0.,1.));
#1135 = DIRECTION('',(2.22044604925E-16,-1.,0.));
#1136 = ORIENTED_EDGE('',*,*,#1137,.F.);
#1137 = EDGE_CURVE('',#594,#1129,#1138,.T.);
#1138 = CIRCLE('',#1139,1.1);
#1139 = AXIS2_PLACEMENT_3D('',#1140,#1141,#1142);
#1140 = CARTESIAN_POINT('',(-68.74,-49.,55.1));
#1141 = DIRECTION('',(-0.,0.,1.));
#1142 = DIRECTION('',(2.22044604925E-16,-1.,0.));
#1143 = PLANE('',#1144);
#1144 = AXIS2_PLACEMENT_3D('',#1145,#1146,#1147);
#1145 = CARTESIAN_POINT('',(-71.74,-46.,55.1));
#1146 = DIRECTION('',(0.,0.,1.));
#1147 = DIRECTION('',(2.22044604925E-16,-1.,0.));
#1148 = ADVANCED_FACE('',(#1149),#1178,.F.);
#1149 = FACE_BOUND('',#1150,.F.);
#1150 = EDGE_LOOP('',(#1151,#1152,#1160,#1167,#1168,#1175,#1176,#1177));
#1151 = ORIENTED_EDGE('',*,*,#1128,.F.);
#1152 = ORIENTED_EDGE('',*,*,#1153,.F.);
#1153 = EDGE_CURVE('',#1154,#1129,#1156,.T.);
#1154 = VERTEX_POINT('',#1155);
#1155 = CARTESIAN_POINT('',(-68.74,-50.1,52.1));
#1156 = LINE('',#1157,#1158);
#1157 = CARTESIAN_POINT('',(-68.74,-50.1,51.6));
#1158 = VECTOR('',#1159,1.);
#1159 = DIRECTION('',(0.,0.,1.));
#1160 = ORIENTED_EDGE('',*,*,#1161,.T.);
#1161 = EDGE_CURVE('',#1154,#876,#1162,.T.);
#1162 = CIRCLE('',#1163,1.1);
#1163 = AXIS2_PLACEMENT_3D('',#1164,#1165,#1166);
#1164 = CARTESIAN_POINT('',(-68.74,-49.,52.1));
#1165 = DIRECTION('',(-0.,0.,1.));
#1166 = DIRECTION('',(2.22044604925E-16,-1.,0.));
#1167 = ORIENTED_EDGE('',*,*,#875,.T.);
#1168 = ORIENTED_EDGE('',*,*,#1169,.T.);
#1169 = EDGE_CURVE('',#868,#1154,#1170,.T.);
#1170 = CIRCLE('',#1171,1.1);
#1171 = AXIS2_PLACEMENT_3D('',#1172,#1173,#1174);
#1172 = CARTESIAN_POINT('',(-68.74,-49.,52.1));
#1173 = DIRECTION('',(-0.,0.,1.));
#1174 = DIRECTION('',(2.22044604925E-16,-1.,0.));
#1175 = ORIENTED_EDGE('',*,*,#1153,.T.);
#1176 = ORIENTED_EDGE('',*,*,#1137,.F.);
#1177 = ORIENTED_EDGE('',*,*,#601,.F.);
#1178 = CYLINDRICAL_SURFACE('',#1179,1.1);
#1179 = AXIS2_PLACEMENT_3D('',#1180,#1181,#1182);
#1180 = CARTESIAN_POINT('',(-68.74,-49.,51.6));
#1181 = DIRECTION('',(0.,0.,1.));
#1182 = DIRECTION('',(2.22044604925E-16,-1.,0.));
#1183 = ADVANCED_FACE('',(#1184),#1202,.F.);
#1184 = FACE_BOUND('',#1185,.F.);
#1185 = EDGE_LOOP('',(#1186,#1194,#1195,#1196));
#1186 = ORIENTED_EDGE('',*,*,#1187,.F.);
#1187 = EDGE_CURVE('',#293,#1188,#1190,.T.);
#1188 = VERTEX_POINT('',#1189);
#1189 = CARTESIAN_POINT('',(-71.74,-52.,52.1));
#1190 = LINE('',#1191,#1192);
#1191 = CARTESIAN_POINT('',(-71.74,-46.,52.1));
#1192 = VECTOR('',#1193,1.);
#1193 = DIRECTION('',(2.22044604925E-16,-1.,0.));
#1194 = ORIENTED_EDGE('',*,*,#633,.T.);
#1195 = ORIENTED_EDGE('',*,*,#1112,.T.);
#1196 = ORIENTED_EDGE('',*,*,#1197,.F.);
#1197 = EDGE_CURVE('',#1188,#1113,#1198,.T.);
#1198 = LINE('',#1199,#1200);
#1199 = CARTESIAN_POINT('',(-71.74,-52.,52.1));
#1200 = VECTOR('',#1201,1.);
#1201 = DIRECTION('',(0.,0.,1.));
#1202 = PLANE('',#1203);
#1203 = AXIS2_PLACEMENT_3D('',#1204,#1205,#1206);
#1204 = CARTESIAN_POINT('',(-71.74,-46.,52.1));
#1205 = DIRECTION('',(1.,2.22044604925E-16,0.));
#1206 = DIRECTION('',(0.,0.,1.));
#1207 = ADVANCED_FACE('',(#1208),#1233,.T.);
#1208 = FACE_BOUND('',#1209,.T.);
#1209 = EDGE_LOOP('',(#1210,#1218,#1219,#1227));
#1210 = ORIENTED_EDGE('',*,*,#1211,.F.);
#1211 = EDGE_CURVE('',#285,#1212,#1214,.T.);
#1212 = VERTEX_POINT('',#1213);
#1213 = CARTESIAN_POINT('',(-126.74,-52.,52.1));
#1214 = LINE('',#1215,#1216);
#1215 = CARTESIAN_POINT('',(-126.74,-46.,52.1));
#1216 = VECTOR('',#1217,1.);
#1217 = DIRECTION('',(2.22044604925E-16,-1.,0.));
#1218 = ORIENTED_EDGE('',*,*,#626,.T.);
#1219 = ORIENTED_EDGE('',*,*,#1220,.T.);
#1220 = EDGE_CURVE('',#95,#1221,#1223,.T.);
#1221 = VERTEX_POINT('',#1222);
#1222 = CARTESIAN_POINT('',(-126.74,-52.,55.1));
#1223 = LINE('',#1224,#1225);
#1224 = CARTESIAN_POINT('',(-126.74,-46.,55.1));
#1225 = VECTOR('',#1226,1.);
#1226 = DIRECTION('',(2.22044604925E-16,-1.,0.));
#1227 = ORIENTED_EDGE('',*,*,#1228,.F.);
#1228 = EDGE_CURVE('',#1212,#1221,#1229,.T.);
#1229 = LINE('',#1230,#1231);
#1230 = CARTESIAN_POINT('',(-126.74,-52.,52.1));
#1231 = VECTOR('',#1232,1.);
#1232 = DIRECTION('',(0.,0.,1.));
#1233 = PLANE('',#1234);
#1234 = AXIS2_PLACEMENT_3D('',#1235,#1236,#1237);
#1235 = CARTESIAN_POINT('',(-126.74,-46.,52.1));
#1236 = DIRECTION('',(1.,2.22044604925E-16,0.));
#1237 = DIRECTION('',(0.,0.,1.));
#1238 = ADVANCED_FACE('',(#1239),#1274,.T.);
#1239 = FACE_BOUND('',#1240,.T.);
#1240 = EDGE_LOOP('',(#1241,#1242,#1250,#1256,#1257,#1258,#1267));
#1241 = ORIENTED_EDGE('',*,*,#649,.F.);
#1242 = ORIENTED_EDGE('',*,*,#1243,.T.);
#1243 = EDGE_CURVE('',#71,#1244,#1246,.T.);
#1244 = VERTEX_POINT('',#1245);
#1245 = CARTESIAN_POINT('',(-132.74,-52.,55.1));
#1246 = LINE('',#1247,#1248);
#1247 = CARTESIAN_POINT('',(-132.74,-46.,55.1));
#1248 = VECTOR('',#1249,1.);
#1249 = DIRECTION('',(2.22044604925E-16,-1.,0.));
#1250 = ORIENTED_EDGE('',*,*,#1251,.T.);
#1251 = EDGE_CURVE('',#1244,#1221,#1252,.T.);
#1252 = LINE('',#1253,#1254);
#1253 = CARTESIAN_POINT('',(-132.74,-52.,55.1));
#1254 = VECTOR('',#1255,1.);
#1255 = DIRECTION('',(1.,2.22044604925E-16,0.));
#1256 = ORIENTED_EDGE('',*,*,#1220,.F.);
#1257 = ORIENTED_EDGE('',*,*,#666,.F.);
#1258 = ORIENTED_EDGE('',*,*,#1259,.F.);
#1259 = EDGE_CURVE('',#1260,#658,#1262,.T.);
#1260 = VERTEX_POINT('',#1261);
#1261 = CARTESIAN_POINT('',(-129.74,-50.1,55.1));
#1262 = CIRCLE('',#1263,1.1);
#1263 = AXIS2_PLACEMENT_3D('',#1264,#1265,#1266);
#1264 = CARTESIAN_POINT('',(-129.74,-49.,55.1));
#1265 = DIRECTION('',(-0.,0.,1.));
#1266 = DIRECTION('',(2.22044604925E-16,-1.,0.));
#1267 = ORIENTED_EDGE('',*,*,#1268,.F.);
#1268 = EDGE_CURVE('',#650,#1260,#1269,.T.);
#1269 = CIRCLE('',#1270,1.1);
#1270 = AXIS2_PLACEMENT_3D('',#1271,#1272,#1273);
#1271 = CARTESIAN_POINT('',(-129.74,-49.,55.1));
#1272 = DIRECTION('',(-0.,0.,1.));
#1273 = DIRECTION('',(2.22044604925E-16,-1.,0.));
#1274 = PLANE('',#1275);
#1275 = AXIS2_PLACEMENT_3D('',#1276,#1277,#1278);
#1276 = CARTESIAN_POINT('',(-132.74,-46.,55.1));
#1277 = DIRECTION('',(0.,0.,1.));
#1278 = DIRECTION('',(2.22044604925E-16,-1.,0.));
#1279 = ADVANCED_FACE('',(#1280),#1309,.F.);
#1280 = FACE_BOUND('',#1281,.F.);
#1281 = EDGE_LOOP('',(#1282,#1283,#1291,#1298,#1299,#1306,#1307,#1308));
#1282 = ORIENTED_EDGE('',*,*,#1259,.F.);
#1283 = ORIENTED_EDGE('',*,*,#1284,.F.);
#1284 = EDGE_CURVE('',#1285,#1260,#1287,.T.);
#1285 = VERTEX_POINT('',#1286);
#1286 = CARTESIAN_POINT('',(-129.74,-50.1,52.1));
#1287 = LINE('',#1288,#1289);
#1288 = CARTESIAN_POINT('',(-129.74,-50.1,51.6));
#1289 = VECTOR('',#1290,1.);
#1290 = DIRECTION('',(0.,0.,1.));
#1291 = ORIENTED_EDGE('',*,*,#1292,.T.);
#1292 = EDGE_CURVE('',#1285,#910,#1293,.T.);
#1293 = CIRCLE('',#1294,1.1);
#1294 = AXIS2_PLACEMENT_3D('',#1295,#1296,#1297);
#1295 = CARTESIAN_POINT('',(-129.74,-49.,52.1));
#1296 = DIRECTION('',(-0.,0.,1.));
#1297 = DIRECTION('',(2.22044604925E-16,-1.,0.));
#1298 = ORIENTED_EDGE('',*,*,#909,.T.);
#1299 = ORIENTED_EDGE('',*,*,#1300,.T.);
#1300 = EDGE_CURVE('',#902,#1285,#1301,.T.);
#1301 = CIRCLE('',#1302,1.1);
#1302 = AXIS2_PLACEMENT_3D('',#1303,#1304,#1305);
#1303 = CARTESIAN_POINT('',(-129.74,-49.,52.1));
#1304 = DIRECTION('',(-0.,0.,1.));
#1305 = DIRECTION('',(2.22044604925E-16,-1.,0.));
#1306 = ORIENTED_EDGE('',*,*,#1284,.T.);
#1307 = ORIENTED_EDGE('',*,*,#1268,.F.);
#1308 = ORIENTED_EDGE('',*,*,#657,.F.);
#1309 = CYLINDRICAL_SURFACE('',#1310,1.1);
#1310 = AXIS2_PLACEMENT_3D('',#1311,#1312,#1313);
#1311 = CARTESIAN_POINT('',(-129.74,-49.,51.6));
#1312 = DIRECTION('',(0.,0.,1.));
#1313 = DIRECTION('',(2.22044604925E-16,-1.,0.));
#1314 = ADVANCED_FACE('',(#1315),#1333,.F.);
#1315 = FACE_BOUND('',#1316,.F.);
#1316 = EDGE_LOOP('',(#1317,#1325,#1326,#1327));
#1317 = ORIENTED_EDGE('',*,*,#1318,.F.);
#1318 = EDGE_CURVE('',#261,#1319,#1321,.T.);
#1319 = VERTEX_POINT('',#1320);
#1320 = CARTESIAN_POINT('',(-132.74,-52.,52.1));
#1321 = LINE('',#1322,#1323);
#1322 = CARTESIAN_POINT('',(-132.74,-46.,52.1));
#1323 = VECTOR('',#1324,1.);
#1324 = DIRECTION('',(2.22044604925E-16,-1.,0.));
#1325 = ORIENTED_EDGE('',*,*,#684,.T.);
#1326 = ORIENTED_EDGE('',*,*,#1243,.T.);
#1327 = ORIENTED_EDGE('',*,*,#1328,.F.);
#1328 = EDGE_CURVE('',#1319,#1244,#1329,.T.);
#1329 = LINE('',#1330,#1331);
#1330 = CARTESIAN_POINT('',(-132.74,-52.,52.1));
#1331 = VECTOR('',#1332,1.);
#1332 = DIRECTION('',(0.,0.,1.));
#1333 = PLANE('',#1334);
#1334 = AXIS2_PLACEMENT_3D('',#1335,#1336,#1337);
#1335 = CARTESIAN_POINT('',(-132.74,-46.,52.1));
#1336 = DIRECTION('',(1.,2.22044604925E-16,0.));
#1337 = DIRECTION('',(0.,0.,1.));
#1338 = ADVANCED_FACE('',(#1339),#1352,.F.);
#1339 = FACE_BOUND('',#1340,.F.);
#1340 = EDGE_LOOP('',(#1341,#1342,#1348,#1349,#1350,#1351));
#1341 = ORIENTED_EDGE('',*,*,#1056,.F.);
#1342 = ORIENTED_EDGE('',*,*,#1343,.F.);
#1343 = EDGE_CURVE('',#955,#1057,#1344,.T.);
#1344 = LINE('',#1345,#1346);
#1345 = CARTESIAN_POINT('',(-71.74,8.,52.1));
#1346 = VECTOR('',#1347,1.);
#1347 = DIRECTION('',(1.,2.22044604925E-16,0.));
#1348 = ORIENTED_EDGE('',*,*,#954,.T.);
#1349 = ORIENTED_EDGE('',*,*,#849,.T.);
#1350 = ORIENTED_EDGE('',*,*,#1037,.F.);
#1351 = ORIENTED_EDGE('',*,*,#823,.T.);
#1352 = PLANE('',#1353);
#1353 = AXIS2_PLACEMENT_3D('',#1354,#1355,#1356);
#1354 = CARTESIAN_POINT('',(-71.74,8.,52.1));
#1355 = DIRECTION('',(0.,0.,1.));
#1356 = DIRECTION('',(2.22044604925E-16,-1.,0.));
#1357 = ADVANCED_FACE('',(#1358),#1372,.F.);
#1358 = FACE_BOUND('',#1359,.F.);
#1359 = EDGE_LOOP('',(#1360,#1361,#1362,#1368,#1369,#1370,#1371));
#1360 = ORIENTED_EDGE('',*,*,#867,.F.);
#1361 = ORIENTED_EDGE('',*,*,#1187,.T.);
#1362 = ORIENTED_EDGE('',*,*,#1363,.T.);
#1363 = EDGE_CURVE('',#1188,#1081,#1364,.T.);
#1364 = LINE('',#1365,#1366);
#1365 = CARTESIAN_POINT('',(-71.74,-52.,52.1));
#1366 = VECTOR('',#1367,1.);
#1367 = DIRECTION('',(1.,2.22044604925E-16,0.));
#1368 = ORIENTED_EDGE('',*,*,#1080,.F.);
#1369 = ORIENTED_EDGE('',*,*,#884,.F.);
#1370 = ORIENTED_EDGE('',*,*,#1161,.F.);
#1371 = ORIENTED_EDGE('',*,*,#1169,.F.);
#1372 = PLANE('',#1373);
#1373 = AXIS2_PLACEMENT_3D('',#1374,#1375,#1376);
#1374 = CARTESIAN_POINT('',(-71.74,-46.,52.1));
#1375 = DIRECTION('',(0.,0.,1.));
#1376 = DIRECTION('',(2.22044604925E-16,-1.,0.));
#1377 = ADVANCED_FACE('',(#1378),#1392,.F.);
#1378 = FACE_BOUND('',#1379,.F.);
#1379 = EDGE_LOOP('',(#1380,#1381,#1382,#1388,#1389,#1390,#1391));
#1380 = ORIENTED_EDGE('',*,*,#901,.F.);
#1381 = ORIENTED_EDGE('',*,*,#1318,.T.);
#1382 = ORIENTED_EDGE('',*,*,#1383,.T.);
#1383 = EDGE_CURVE('',#1319,#1212,#1384,.T.);
#1384 = LINE('',#1385,#1386);
#1385 = CARTESIAN_POINT('',(-132.74,-52.,52.1));
#1386 = VECTOR('',#1387,1.);
#1387 = DIRECTION('',(1.,2.22044604925E-16,0.));
#1388 = ORIENTED_EDGE('',*,*,#1211,.F.);
#1389 = ORIENTED_EDGE('',*,*,#918,.F.);
#1390 = ORIENTED_EDGE('',*,*,#1292,.F.);
#1391 = ORIENTED_EDGE('',*,*,#1300,.F.);
#1392 = PLANE('',#1393);
#1393 = AXIS2_PLACEMENT_3D('',#1394,#1395,#1396);
#1394 = CARTESIAN_POINT('',(-132.74,-46.,52.1));
#1395 = DIRECTION('',(0.,0.,1.));
#1396 = DIRECTION('',(2.22044604925E-16,-1.,0.));
#1397 = ADVANCED_FACE('',(#1398),#1404,.F.);
#1398 = FACE_BOUND('',#1399,.F.);
#1399 = EDGE_LOOP('',(#1400,#1401,#1402,#1403));
#1400 = ORIENTED_EDGE('',*,*,#962,.F.);
#1401 = ORIENTED_EDGE('',*,*,#1343,.T.);
#1402 = ORIENTED_EDGE('',*,*,#1064,.T.);
#1403 = ORIENTED_EDGE('',*,*,#1005,.F.);
#1404 = PLANE('',#1405);
#1405 = AXIS2_PLACEMENT_3D('',#1406,#1407,#1408);
#1406 = CARTESIAN_POINT('',(-71.74,8.,52.1));
#1407 = DIRECTION('',(2.22044604925E-16,-1.,0.));
#1408 = DIRECTION('',(0.,0.,1.));
#1409 = ADVANCED_FACE('',(#1410),#1416,.T.);
#1410 = FACE_BOUND('',#1411,.T.);
#1411 = EDGE_LOOP('',(#1412,#1413,#1414,#1415));
#1412 = ORIENTED_EDGE('',*,*,#1197,.F.);
#1413 = ORIENTED_EDGE('',*,*,#1363,.T.);
#1414 = ORIENTED_EDGE('',*,*,#1097,.T.);
#1415 = ORIENTED_EDGE('',*,*,#1120,.F.);
#1416 = PLANE('',#1417);
#1417 = AXIS2_PLACEMENT_3D('',#1418,#1419,#1420);
#1418 = CARTESIAN_POINT('',(-71.74,-52.,52.1));
#1419 = DIRECTION('',(2.22044604925E-16,-1.,0.));
#1420 = DIRECTION('',(0.,0.,1.));
#1421 = ADVANCED_FACE('',(#1422),#1428,.T.);
#1422 = FACE_BOUND('',#1423,.T.);
#1423 = EDGE_LOOP('',(#1424,#1425,#1426,#1427));
#1424 = ORIENTED_EDGE('',*,*,#1328,.F.);
#1425 = ORIENTED_EDGE('',*,*,#1383,.T.);
#1426 = ORIENTED_EDGE('',*,*,#1228,.T.);
#1427 = ORIENTED_EDGE('',*,*,#1251,.F.);
#1428 = PLANE('',#1429);
#1429 = AXIS2_PLACEMENT_3D('',#1430,#1431,#1432);
#1430 = CARTESIAN_POINT('',(-132.74,-52.,52.1));
#1431 = DIRECTION('',(2.22044604925E-16,-1.,0.));
#1432 = DIRECTION('',(0.,0.,1.));
#1433 = ( GEOMETRIC_REPRESENTATION_CONTEXT(3) 
GLOBAL_UNCERTAINTY_ASSIGNED_CONTEXT((#1437)) 
GLOBAL_UNIT_ASSIGNED_CONTEXT((#1434,#1435,#1436)) REPRESENTATION_CONTEXT
('Context #1','3D Context with UNIT and UNCERTAINTY') );
#1434 = ( LENGTH_UNIT() NAMED_UNIT(*) SI_UNIT(.MILLI.,.METRE.) );
#1435 = ( NAMED_UNIT(*) PLANE_ANGLE_UNIT() SI_UNIT($,.RADIAN.) );
#1436 = ( NAMED_UNIT(*) SI_UNIT($,.STERADIAN.) SOLID_ANGLE_UNIT() );
#1437 = UNCERTAINTY_MEASURE_WITH_UNIT(LENGTH_MEASURE(1.E-07),#1434,
  'distance_accuracy_value','confusion accuracy');
#1438 = PRODUCT_RELATED_PRODUCT_CATEGORY('part',$,(#7));
ENDSEC;
END-ISO-10303-21;
